<svg width="30" height="31" viewBox="0 0 30 31" fill="none" xmlns="http://www.w3.org/2000/svg">
<path d="M2.5 6.27637H27.5V25.0264H2.5V6.27637ZM25 22.5264V8.77637H5V22.5264H25ZM21.25 10.0264C21.25 10.6894 21.5134 11.3253 21.9822 11.7941C22.4511 12.263 23.087 12.5264 23.75 12.5264V18.7764C23.087 18.7764 22.4511 19.0398 21.9822 19.5086C21.5134 19.9774 21.25 20.6133 21.25 21.2764H8.75C8.75 20.6133 8.48661 19.9774 8.01777 19.5086C7.54893 19.0398 6.91304 18.7764 6.25 18.7764V12.5264C6.91304 12.5264 7.54893 12.263 8.01777 11.7941C8.48661 11.3253 8.75 10.6894 8.75 10.0264H21.25ZM21.25 16.2764V15.0264C21.25 13.6514 20.4125 12.5264 19.375 12.5264C18.3375 12.5264 17.5 13.6514 17.5 15.0264V16.2764C17.5 17.6514 18.3375 18.7764 19.375 18.7764C20.4125 18.7764 21.25 17.6514 21.25 16.2764ZM19.375 13.7764C19.5408 13.7764 19.6997 13.8422 19.8169 13.9594C19.9342 14.0766 20 14.2356 20 14.4014V16.9014C20 17.0671 19.9342 17.2261 19.8169 17.3433C19.6997 17.4605 19.5408 17.5264 19.375 17.5264C19.2092 17.5264 19.0503 17.4605 18.9331 17.3433C18.8158 17.2261 18.75 17.0671 18.75 16.9014V14.4014C18.75 14.2356 18.8158 14.0766 18.9331 13.9594C19.0503 13.8422 19.2092 13.7764 19.375 13.7764ZM16.25 16.2764V15.0264C16.25 13.6514 15.4125 12.5264 14.375 12.5264C13.3375 12.5264 12.5 13.6514 12.5 15.0264V16.2764C12.5 17.6514 13.3375 18.7764 14.375 18.7764C15.4125 18.7764 16.25 17.6514 16.25 16.2764ZM14.375 13.7764C14.5408 13.7764 14.6997 13.8422 14.8169 13.9594C14.9342 14.0766 15 14.2356 15 14.4014V16.9014C15 17.0671 14.9342 17.2261 14.8169 17.3433C14.6997 17.4605 14.5408 17.5264 14.375 17.5264C14.2092 17.5264 14.0503 17.4605 13.9331 17.3433C13.8158 17.2261 13.75 17.0671 13.75 16.9014V14.4014C13.75 14.2356 13.8158 14.0766 13.9331 13.9594C14.0503 13.8422 14.2092 13.7764 14.375 13.7764ZM10 18.7764H11.25V12.5264H10L8.75 13.1514V14.4014L10 13.7764V18.7764Z" fill="black"/>
</svg>
