<svg width="21" height="20" viewBox="0 0 21 20" fill="none" xmlns="http://www.w3.org/2000/svg">
<path d="M8.56779 7.27492L8.99696 8.82742C9.40113 10.2899 9.60279 11.0216 10.197 11.3541C10.7911 11.6874 11.5453 11.4908 13.0536 11.0991L14.6536 10.6824C16.162 10.2908 16.9161 10.0949 17.2595 9.51908C17.6028 8.94242 17.4011 8.21075 16.9961 6.74825L16.5678 5.19658C16.1636 3.73325 15.9611 3.00158 15.3678 2.66908C14.7728 2.33575 14.0186 2.53242 12.5103 2.92492L10.9103 3.33992C9.40196 3.73158 8.64779 3.92825 8.30529 4.50492C7.96196 5.08075 8.16363 5.81242 8.56779 7.27492Z" fill="black"/>
<path d="M2.49531 4.37248C2.51727 4.29334 2.55461 4.21929 2.6052 4.15459C2.65579 4.08988 2.71864 4.03578 2.79015 3.99538C2.86166 3.95498 2.94044 3.92908 3.02197 3.91914C3.1035 3.9092 3.18619 3.91544 3.26531 3.93748L4.68448 4.33082C5.0606 4.43296 5.40383 4.63081 5.68073 4.90509C5.95763 5.17936 6.15875 5.52069 6.26448 5.89581L8.05698 12.3841L8.18865 12.84C8.72011 13.0359 9.16796 13.4087 9.45698 13.8958L9.71531 13.8158L17.107 11.895C17.1864 11.8743 17.2692 11.8695 17.3505 11.8808C17.4318 11.8921 17.5101 11.9193 17.5809 11.9608C17.6517 12.0024 17.7136 12.0575 17.7632 12.1229C17.8127 12.1884 17.8488 12.263 17.8695 12.3425C17.8902 12.4219 17.895 12.5047 17.8837 12.586C17.8724 12.6673 17.8452 12.7456 17.8036 12.8164C17.7621 12.8872 17.707 12.9491 17.6415 12.9987C17.576 13.0482 17.5014 13.0843 17.422 13.105L10.0578 15.0183L9.78281 15.1033C9.77781 16.1616 9.04698 17.13 7.94115 17.4166C6.61615 17.7616 5.25365 16.9983 4.89865 15.7133C4.54365 14.4275 5.33031 13.1058 6.65531 12.7616C6.7206 12.7448 6.78648 12.7304 6.85281 12.7183L5.05948 6.22832C5.0112 6.06158 4.9206 5.91017 4.79647 5.78882C4.67235 5.66747 4.51893 5.58031 4.35115 5.53582L2.93115 5.14165C2.85202 5.11978 2.77797 5.08253 2.71324 5.03203C2.64851 4.98154 2.59436 4.91878 2.55388 4.84735C2.51341 4.77593 2.48741 4.69723 2.47736 4.61575C2.46731 4.53426 2.47341 4.4516 2.49531 4.37248Z" fill="black"/>
</svg>
