<svg width="21" height="20" viewBox="0 0 21 20" fill="none" xmlns="http://www.w3.org/2000/svg">
<path d="M4.28044 2.5C3.83841 2.5 3.41449 2.67559 3.10192 2.98816C2.78936 3.30072 2.61377 3.72464 2.61377 4.16667V15.8333C2.61377 16.2754 2.78936 16.6993 3.10192 17.0118C3.41449 17.3244 3.83841 17.5 4.28044 17.5H15.9471C16.3891 17.5 16.8131 17.3244 17.1256 17.0118C17.4382 16.6993 17.6138 16.2754 17.6138 15.8333V13.9333C17.8657 13.7879 18.0751 13.5791 18.2213 13.3276C18.3675 13.0762 18.4453 12.7909 18.4471 12.5V7.5C18.4453 7.20914 18.3675 6.92381 18.2213 6.67236C18.0751 6.42091 17.8657 6.21209 17.6138 6.06667V4.16667C17.6138 3.72464 17.4382 3.30072 17.1256 2.98816C16.8131 2.67559 16.3891 2.5 15.9471 2.5H4.28044ZM4.28044 4.16667H15.9471V5.83333H10.9471C10.5051 5.83333 10.0812 6.00893 9.76859 6.32149C9.45603 6.63405 9.28044 7.05797 9.28044 7.5V12.5C9.28044 12.942 9.45603 13.3659 9.76859 13.6785C10.0812 13.9911 10.5051 14.1667 10.9471 14.1667H15.9471V15.8333H4.28044V4.16667ZM10.9471 7.5H16.7804V12.5H10.9471V7.5ZM13.4471 8.75C13.1156 8.75 12.7976 8.8817 12.5632 9.11612C12.3288 9.35054 12.1971 9.66848 12.1971 10C12.1971 10.3315 12.3288 10.6495 12.5632 10.8839C12.7976 11.1183 13.1156 11.25 13.4471 11.25C13.7786 11.25 14.0966 11.1183 14.331 10.8839C14.5654 10.6495 14.6971 10.3315 14.6971 10C14.6971 9.66848 14.5654 9.35054 14.331 9.11612C14.0966 8.8817 13.7786 8.75 13.4471 8.75Z" fill="white"/>
</svg>
