<svg width="18" height="14" viewBox="0 0 18 14" fill="none" xmlns="http://www.w3.org/2000/svg">
<path d="M14.8333 11.5833C16.0199 11.5833 16.5516 11.5833 16.9283 11.1775C16.9449 11.1597 16.9608 11.1417 16.9758 11.1233C17.3333 10.6958 17.3333 10.0233 17.3333 8.67667C17.3333 7.65583 17.3333 7.14583 17.1333 6.715C16.9249 6.265 16.5483 5.98417 15.7566 5.41083C14.9699 4.84083 14.4116 4.20083 13.8791 3.31917C13.1191 2.06083 12.7391 1.43167 12.1699 1.09083C11.5999 0.75 10.9283 0.75 9.58492 0.75H9.00159L9.93409 3.65C10.3908 5.07083 10.6191 5.78083 11.0949 6.1825C11.5708 6.58333 12.1858 6.58333 13.4149 6.58333H16.4999M9.00242 0.75V11.5833M6.50242 11.5833H11.5016M17.3333 9.08333H16.4999M9.00242 6.58333H1.50409C1.50409 6.58333 1.23659 6.58667 1.00409 6.58333C0.619924 6.5775 0.670757 6.56667 0.670757 6.61667V7.41667C0.670757 7.41667 0.654091 10.1667 0.684924 10.4942C0.684924 10.71 0.854091 10.8858 1.15409 11.0667C1.35076 11.1975 1.65909 11.405 1.90409 11.5033C2.20409 11.6167 3.17076 11.5833 3.17076 11.5833" stroke="black" stroke-width="1.25" stroke-linecap="round" stroke-linejoin="round"/>
<path d="M13.1674 13.2501C13.6094 13.2501 14.0334 13.0745 14.3459 12.7619C14.6585 12.4494 14.8341 12.0254 14.8341 11.5834C14.8341 11.1414 14.6585 10.7175 14.3459 10.4049C14.0334 10.0923 13.6094 9.91675 13.1674 9.91675C12.7254 9.91675 12.3015 10.0923 11.9889 10.4049C11.6763 10.7175 11.5008 11.1414 11.5008 11.5834C11.5008 12.0254 11.6763 12.4494 11.9889 12.7619C12.3015 13.0745 12.7254 13.2501 13.1674 13.2501ZM4.83659 13.2501C5.27862 13.2501 5.70254 13.0745 6.0151 12.7619C6.32766 12.4494 6.50325 12.0254 6.50325 11.5834C6.50325 11.1414 6.32766 10.7175 6.0151 10.4049C5.70254 10.0923 5.27862 9.91675 4.83659 9.91675C4.39456 9.91675 3.97064 10.0923 3.65808 10.4049C3.34552 10.7175 3.16992 11.1414 3.16992 11.5834C3.16992 12.0254 3.34552 12.4494 3.65808 12.7619C3.97064 13.0745 4.39456 13.2501 4.83659 13.2501Z" stroke="black" stroke-width="1.25" stroke-linecap="round" stroke-linejoin="round"/>
</svg>
