<svg width="21" height="21" viewBox="0 0 21 21" fill="none" xmlns="http://www.w3.org/2000/svg">
<path d="M20.0997 14.389L15.0381 12.1207C14.8087 12.0225 14.5585 11.983 14.31 12.0058C14.0616 12.0286 13.8227 12.1131 13.6151 12.2515C13.5941 12.265 13.574 12.28 13.5551 12.2965L10.9097 14.5465C10.8822 14.5615 10.8517 14.5699 10.8204 14.571C10.7892 14.5721 10.7581 14.5659 10.7297 14.553C9.02927 13.7322 7.26778 11.9814 6.44382 10.3046C6.4301 10.2766 6.42296 10.2458 6.42296 10.2146C6.42296 10.1834 6.4301 10.1526 6.44382 10.1246L8.7014 7.44592C8.7176 7.4261 8.73262 7.40535 8.7464 7.38378C8.88289 7.17538 8.96534 6.93628 8.98629 6.68804C9.00724 6.43981 8.96604 6.19027 8.8664 5.96194L6.61418 0.9089C6.48628 0.610614 6.26508 0.361854 5.98379 0.199958C5.7025 0.0380624 5.37629 -0.0282371 5.05412 0.0110104C3.65396 0.195085 2.36872 0.88269 1.43859 1.94533C0.508457 3.00797 -0.00292262 4.37294 1.25655e-05 5.78515C1.25655e-05 14.1747 6.82526 21 15.2148 21C16.627 21.0027 17.9918 20.4912 19.0544 19.5611C20.117 18.6311 20.8047 17.346 20.989 15.9459C21.0282 15.6252 20.9628 15.3005 20.8025 15.02C20.6423 14.7395 20.3958 14.5182 20.0997 14.389ZM15.2148 19.7142C7.53457 19.7142 1.28577 13.4654 1.28577 5.78515C1.28219 4.68575 1.67901 3.62265 2.40208 2.79448C3.12515 1.96631 4.12501 1.42973 5.21484 1.28499H5.23949C5.28267 1.28579 5.32459 1.29962 5.35977 1.32467C5.39495 1.34972 5.42175 1.38481 5.43664 1.42535L7.69743 6.47303C7.71033 6.5011 7.717 6.53161 7.717 6.5625C7.717 6.59338 7.71033 6.6239 7.69743 6.65197L5.43557 9.33706C5.41869 9.35623 5.40329 9.37665 5.38949 9.39814C5.24796 9.61421 5.16461 9.86316 5.14753 10.1209C5.13045 10.3786 5.18021 10.6364 5.29199 10.8693C6.24238 12.815 8.20317 14.7608 10.1704 15.7112C10.4046 15.8224 10.6636 15.8709 10.9222 15.8522C11.1808 15.8334 11.4301 15.7479 11.6458 15.6041C11.6661 15.5901 11.6865 15.5751 11.7058 15.5591L14.3502 13.309C14.3763 13.295 14.4051 13.2867 14.4347 13.2849C14.4643 13.283 14.4939 13.2876 14.5216 13.2983L19.5843 15.5666C19.6256 15.5842 19.6604 15.6144 19.6837 15.6528C19.7069 15.6913 19.7175 15.7361 19.7139 15.7809C19.57 16.8712 19.0339 17.8718 18.2059 18.5957C17.3779 19.3196 16.3146 19.7172 15.2148 19.7142Z" fill="black"/>
</svg>
