<svg width="85" height="84" viewBox="0 0 85 84" fill="none" xmlns="http://www.w3.org/2000/svg">
<rect width="85" height="84" rx="10" fill="black"/>
<path d="M33.4474 28.8182H38.983V45.821C38.983 47.7301 38.527 49.4006 37.6151 50.8324C36.7116 52.2642 35.446 53.3807 33.8182 54.1818C32.1903 54.9744 30.294 55.3707 28.1293 55.3707C25.956 55.3707 24.0554 54.9744 22.4276 54.1818C20.7997 53.3807 19.5341 52.2642 18.6307 50.8324C17.7273 49.4006 17.2756 47.7301 17.2756 45.821V28.8182H22.8111V45.348C22.8111 46.3452 23.0284 47.2315 23.4631 48.0071C23.9063 48.7827 24.5284 49.392 25.3295 49.8352C26.1307 50.2784 27.0639 50.5 28.1293 50.5C29.2031 50.5 30.1364 50.2784 30.929 49.8352C31.7301 49.392 32.348 48.7827 32.7827 48.0071C33.2259 47.2315 33.4474 46.3452 33.4474 45.348V28.8182ZM66.6381 37.9844H61.0387C60.9364 37.2599 60.7276 36.6165 60.4123 36.054C60.0969 35.483 59.6921 34.9972 59.1978 34.5966C58.7035 34.196 58.1325 33.8892 57.4847 33.6761C56.8455 33.4631 56.1509 33.3565 55.4009 33.3565C54.0458 33.3565 52.8654 33.6932 51.8597 34.3665C50.854 35.0312 50.0742 36.0028 49.5202 37.2812C48.9663 38.5511 48.6893 40.0937 48.6893 41.9091C48.6893 43.7756 48.9663 45.3437 49.5202 46.6136C50.0827 47.8835 50.8668 48.8423 51.8725 49.4901C52.8782 50.1378 54.0415 50.4616 55.3626 50.4616C56.104 50.4616 56.7901 50.3636 57.4208 50.1676C58.06 49.9716 58.6268 49.6861 59.1211 49.3111C59.6154 48.9276 60.0245 48.4631 60.3484 47.9176C60.6808 47.3722 60.9109 46.75 61.0387 46.0511L66.6381 46.0767C66.4933 47.2784 66.131 48.4375 65.5515 49.554C64.9805 50.6619 64.2092 51.6548 63.2376 52.5327C62.2745 53.402 61.1239 54.0923 59.7859 54.6037C58.4563 55.1065 56.9521 55.358 55.2731 55.358C52.9379 55.358 50.8498 54.8295 49.0089 53.7727C47.1765 52.7159 45.7276 51.1861 44.6623 49.1832C43.6055 47.1804 43.0771 44.7557 43.0771 41.9091C43.0771 39.054 43.614 36.625 44.6879 34.6222C45.7617 32.6193 47.2191 31.0937 49.06 30.0455C50.9009 28.9886 52.9719 28.4602 55.2731 28.4602C56.7901 28.4602 58.1964 28.6733 59.4918 29.0994C60.7958 29.5256 61.9506 30.1477 62.9563 30.9659C63.962 31.7756 64.7802 32.7685 65.4109 33.9446C66.0501 35.1207 66.4592 36.4673 66.6381 37.9844Z" fill="white"/>
</svg>
