<svg width="428" height="68" viewBox="0 0 428 68" fill="none" xmlns="http://www.w3.org/2000/svg">
<g clip-path="url(#clip0_1349_1356)">
<mask id="mask0_1349_1356" style="mask-type:luminance" maskUnits="userSpaceOnUse" x="0" y="0" width="428" height="68">
<path d="M428 0H0V68H428V0Z" fill="white"/>
</mask>
<g mask="url(#mask0_1349_1356)">
<path d="M428 0H0V68H428V0Z" fill="#E2D8FA"/>
<mask id="mask1_1349_1356" style="mask-type:luminance" maskUnits="userSpaceOnUse" x="390" y="22" width="23" height="24">
<path d="M412.836 22.582H390V45.4184H412.836V22.582Z" fill="white"/>
</mask>
<g mask="url(#mask1_1349_1356)">
<path fill-rule="evenodd" clip-rule="evenodd" d="M404.945 33.3276C405.124 33.506 405.224 33.748 405.224 34.0003C405.224 34.2526 405.124 34.4946 404.945 34.673L399.563 40.0558C399.475 40.1466 399.37 40.2191 399.254 40.269C399.138 40.3189 399.013 40.3451 398.887 40.3462C398.76 40.3473 398.635 40.3232 398.518 40.2754C398.401 40.2275 398.295 40.1569 398.206 40.0675C398.116 39.9782 398.046 39.872 397.998 39.755C397.95 39.6381 397.926 39.5128 397.927 39.3865C397.928 39.2601 397.954 39.1353 398.004 39.0192C398.054 38.9031 398.126 38.7981 398.217 38.7103L402.927 34.0003L398.217 29.2903C398.044 29.1108 397.948 28.8705 397.95 28.621C397.952 28.3715 398.052 28.1328 398.229 27.9564C398.405 27.78 398.644 27.6799 398.893 27.6778C399.143 27.6756 399.383 27.7715 399.563 27.9448L404.945 33.3276Z" fill="#6F47E5"/>
</g>
<path d="M33.9107 46.8444C41.0044 46.8444 46.755 41.0938 46.755 34.0001C46.755 26.9064 41.0044 21.1558 33.9107 21.1558C26.817 21.1558 21.0664 26.9064 21.0664 34.0001C21.0664 41.0938 26.817 46.8444 33.9107 46.8444Z" fill="#6C42E3"/>
<path d="M56.5819 47.354V29.5559H59.5819V31.6964H59.7589C59.9162 31.3818 60.1381 31.0475 60.4246 30.6936C60.7112 30.334 61.0988 30.0278 61.5876 29.775C62.0764 29.5166 62.7 29.3874 63.4584 29.3874C64.4584 29.3874 65.3601 29.643 66.1635 30.1542C66.9725 30.6599 67.613 31.4099 68.0849 32.4043C68.5624 33.3931 68.8012 34.6066 68.8012 36.0448C68.8012 37.4662 68.5681 38.6741 68.1018 39.6685C67.6355 40.6629 67.0006 41.4213 66.1972 41.9438C65.3938 42.4663 64.4837 42.7275 63.4668 42.7275C62.7252 42.7275 62.1101 42.6039 61.6213 42.3567C61.1325 42.1095 60.7392 41.8118 60.4415 41.4635C60.1493 41.1095 59.9218 40.7752 59.7589 40.4606H59.6325V47.354H56.5819ZM59.5735 36.028C59.5735 36.8651 59.6915 37.5982 59.9274 38.2274C60.169 38.8567 60.5145 39.3483 60.964 39.7022C61.419 40.0505 61.9696 40.2247 62.6157 40.2247C63.2899 40.2247 63.8545 40.0449 64.3095 39.6853C64.7646 39.3202 65.1073 38.823 65.3377 38.1937C65.5736 37.5589 65.6916 36.837 65.6916 36.028C65.6916 35.2246 65.5764 34.5111 65.3461 33.8875C65.1157 33.2639 64.773 32.7751 64.318 32.4211C63.8629 32.0672 63.2955 31.8902 62.6157 31.8902C61.964 31.8902 61.4106 32.0616 60.9555 32.4043C60.5005 32.747 60.155 33.2273 59.919 33.8453C59.6887 34.4633 59.5735 35.1909 59.5735 36.028ZM74.4642 25.2412V42.5H71.4136V25.2412H74.4642ZM85.8514 37.0561V29.5559H88.902V42.5H85.9441V40.1994H85.8093C85.5171 40.9241 85.0368 41.5168 84.3682 41.9775C83.7053 42.4382 82.8879 42.6685 81.9159 42.6685C81.0676 42.6685 80.3176 42.4803 79.6659 42.1039C79.0198 41.7219 78.5142 41.1685 78.149 40.4438C77.7838 39.7134 77.6012 38.8314 77.6012 37.7977V29.5559H80.6519V37.3257C80.6519 38.146 80.8766 38.7977 81.326 39.2808C81.7755 39.764 82.3654 40.0056 83.0957 40.0056C83.5452 40.0056 83.9806 39.896 84.4019 39.6769C84.8233 39.4578 85.1688 39.132 85.4385 38.6994C85.7138 38.2612 85.8514 37.7134 85.8514 37.0561ZM102.27 32.9773L99.4886 33.2807C99.41 32.9998 99.2723 32.7358 99.0757 32.4886C98.8847 32.2414 98.6262 32.0419 98.3004 31.8902C97.9745 31.7385 97.5757 31.6627 97.1037 31.6627C96.4689 31.6627 95.9352 31.8003 95.5026 32.0756C95.0756 32.3509 94.8649 32.7077 94.8705 33.1459C94.8649 33.5223 95.0026 33.8285 95.2835 34.0644C95.57 34.3004 96.0419 34.4942 96.6992 34.6459L98.9071 35.1178C100.132 35.3819 101.042 35.8004 101.638 36.3735C102.239 36.9465 102.542 37.6965 102.548 38.6235C102.542 39.4381 102.303 40.1573 101.831 40.7809C101.365 41.3989 100.716 41.882 99.8847 42.2303C99.0532 42.5787 98.0981 42.7528 97.0195 42.7528C95.4352 42.7528 94.1599 42.4213 93.1935 41.7584C92.2272 41.0899 91.6514 40.1601 91.466 38.969L94.4408 38.6825C94.5756 39.2668 94.8621 39.7078 95.3003 40.0056C95.7385 40.3033 96.3088 40.4522 97.011 40.4522C97.7358 40.4522 98.3172 40.3033 98.7555 40.0056C99.1993 39.7078 99.4212 39.3398 99.4212 38.9016C99.4212 38.5308 99.2779 38.2246 98.9914 37.9831C98.7105 37.7415 98.2723 37.5561 97.6768 37.4269L95.4689 36.9634C94.2273 36.7049 93.3087 36.2695 92.7132 35.6572C92.1177 35.0392 91.8227 34.2583 91.8283 33.3144C91.8227 32.5167 92.039 31.8256 92.4772 31.2413C92.9211 30.6514 93.5362 30.1964 94.3228 29.8762C95.1149 29.5503 96.0279 29.3874 97.0616 29.3874C98.5785 29.3874 99.7723 29.7104 100.643 30.3565C101.52 31.0026 102.062 31.8762 102.27 32.9773Z" fill="#6D43E3"/>
<path d="M125.458 28.9081H126.802V36.2522C126.802 37.0104 126.623 37.6874 126.265 38.2831C125.912 38.8753 125.412 39.3429 124.765 39.6859C124.119 40.0253 123.361 40.195 122.491 40.195C121.62 40.195 120.862 40.0253 120.216 39.6859C119.57 39.3429 119.068 38.8753 118.71 38.2831C118.356 37.6874 118.179 37.0104 118.179 36.2522V28.9081H119.523V36.1438C119.523 36.6854 119.642 37.1675 119.88 37.5899C120.118 38.0087 120.458 38.3391 120.898 38.581C121.342 38.8193 121.873 38.9385 122.491 38.9385C123.108 38.9385 123.639 38.8193 124.083 38.581C124.527 38.3391 124.866 38.0087 125.101 37.5899C125.339 37.1675 125.458 36.6854 125.458 36.1438V28.9081ZM129.311 43.1196V31.6811H130.545V33.0026H130.697C130.791 32.8582 130.921 32.674 131.087 32.4502C131.257 32.2227 131.499 32.0205 131.813 31.8436C132.13 31.663 132.56 31.5728 133.102 31.5728C133.802 31.5728 134.42 31.7479 134.954 32.0981C135.488 32.4484 135.905 32.9448 136.205 33.5875C136.505 34.2302 136.655 34.9884 136.655 35.8622C136.655 36.7432 136.505 37.5069 136.205 38.1532C135.905 38.7959 135.49 39.2941 134.959 39.648C134.429 39.9982 133.817 40.1733 133.123 40.1733C132.589 40.1733 132.161 40.0848 131.84 39.9079C131.518 39.7274 131.271 39.5234 131.098 39.2959C130.925 39.0648 130.791 38.8735 130.697 38.7218H130.589V43.1196H129.311ZM130.567 35.8405C130.567 36.4688 130.659 37.023 130.843 37.5032C131.027 37.9798 131.296 38.3535 131.65 38.6243C132.004 38.8915 132.437 39.0251 132.95 39.0251C133.484 39.0251 133.93 38.8843 134.288 38.6027C134.649 38.3174 134.92 37.9347 135.1 37.4545C135.284 36.9707 135.376 36.4327 135.376 35.8405C135.376 35.2556 135.286 34.7285 135.106 34.2591C134.929 33.7861 134.66 33.4124 134.299 33.138C133.941 32.86 133.492 32.721 132.95 32.721C132.43 32.721 131.993 32.8527 131.639 33.1163C131.286 33.3763 131.018 33.741 130.838 34.2103C130.657 34.6761 130.567 35.2195 130.567 35.8405ZM146.512 31.6811V32.7643H142.201V31.6811H146.512ZM143.457 29.688H144.735V37.617C144.735 37.978 144.788 38.2488 144.892 38.4294C145.001 38.6063 145.138 38.7254 145.304 38.7868C145.474 38.8446 145.652 38.8735 145.84 38.8735C145.981 38.8735 146.096 38.8663 146.187 38.8518C146.277 38.8338 146.349 38.8193 146.403 38.8085L146.663 39.9567C146.577 39.9892 146.456 40.0217 146.3 40.0542C146.145 40.0903 145.948 40.1083 145.71 40.1083C145.349 40.1083 144.995 40.0307 144.649 39.8754C144.306 39.7202 144.02 39.4837 143.793 39.1659C143.569 38.8482 143.457 38.4474 143.457 37.9636V29.688ZM151.725 40.1733C150.973 40.1733 150.315 39.9946 149.748 39.6371C149.184 39.2797 148.744 38.7796 148.426 38.1369C148.112 37.4942 147.955 36.7432 147.955 35.8839C147.955 35.0173 148.112 34.2609 148.426 33.6146C148.744 32.9683 149.184 32.4664 149.748 32.109C150.315 31.7515 150.973 31.5728 151.725 31.5728C152.476 31.5728 153.133 31.7515 153.696 32.109C154.263 32.4664 154.703 32.9683 155.017 33.6146C155.335 34.2609 155.494 35.0173 155.494 35.8839C155.494 36.7432 155.335 37.4942 155.017 38.1369C154.703 38.7796 154.263 39.2797 153.696 39.6371C153.133 39.9946 152.476 40.1733 151.725 40.1733ZM151.725 39.0251C152.295 39.0251 152.764 38.8789 153.133 38.5864C153.501 38.294 153.774 37.9094 153.95 37.4328C154.127 36.9562 154.216 36.4399 154.216 35.8839C154.216 35.3278 154.127 34.8097 153.95 34.3295C153.774 33.8493 153.501 33.4611 153.133 33.1651C152.764 32.869 152.295 32.721 151.725 32.721C151.154 32.721 150.685 32.869 150.316 33.1651C149.948 33.4611 149.675 33.8493 149.499 34.3295C149.322 34.8097 149.233 35.3278 149.233 35.8839C149.233 36.4399 149.322 36.9562 149.499 37.4328C149.675 37.9094 149.948 38.294 150.316 38.5864C150.685 38.8789 151.154 39.0251 151.725 39.0251ZM165.612 28.9081V40H164.269V30.3163H164.204L161.496 32.1144V30.7495L164.269 28.9081H165.612ZM172.269 40.1516C171.633 40.1516 171.061 40.0253 170.552 39.7725C170.043 39.5198 169.635 39.1732 169.328 38.7327C169.021 38.2922 168.853 37.7903 168.824 37.227H170.124C170.174 37.7289 170.402 38.1441 170.806 38.4727C171.214 38.7977 171.702 38.9601 172.269 38.9601C172.724 38.9601 173.128 38.8536 173.482 38.6406C173.839 38.4276 174.119 38.1351 174.321 37.7632C174.527 37.3877 174.63 36.9635 174.63 36.4905C174.63 36.0066 174.523 35.5752 174.31 35.196C174.101 34.8133 173.812 34.5118 173.444 34.2916C173.076 34.0713 172.655 33.9594 172.182 33.9558C171.843 33.9522 171.494 34.0045 171.137 34.1129C170.779 34.2176 170.485 34.353 170.254 34.5191L168.997 34.3674L169.669 28.9081H175.431V30.0996H170.795L170.405 33.3709H170.47C170.698 33.1903 170.983 33.0405 171.326 32.9213C171.669 32.8022 172.027 32.7426 172.399 32.7426C173.077 32.7426 173.682 32.9051 174.213 33.2301C174.747 33.5514 175.166 33.9919 175.469 34.5515C175.776 35.1112 175.93 35.7503 175.93 36.4688C175.93 37.1765 175.771 37.8083 175.453 38.3644C175.139 38.9168 174.706 39.3537 174.153 39.675C173.601 39.9928 172.973 40.1516 172.269 40.1516ZM183.735 37.9203V37.3354C183.735 36.931 183.819 36.5609 183.985 36.2251C184.154 35.8857 184.4 35.6149 184.721 35.4127C185.046 35.2069 185.44 35.104 185.902 35.104C186.371 35.104 186.765 35.2069 187.083 35.4127C187.4 35.6149 187.64 35.8857 187.803 36.2251C187.965 36.5609 188.047 36.931 188.047 37.3354V37.9203C188.047 38.3247 187.964 38.6966 187.797 39.036C187.635 39.3717 187.393 39.6425 187.072 39.8484C186.754 40.0505 186.364 40.1516 185.902 40.1516C185.432 40.1516 185.037 40.0505 184.716 39.8484C184.394 39.6425 184.151 39.3717 183.985 39.036C183.819 38.6966 183.735 38.3247 183.735 37.9203ZM184.84 37.3354V37.9203C184.84 38.2561 184.92 38.5576 185.079 38.8247C185.238 39.0883 185.512 39.2201 185.902 39.2201C186.281 39.2201 186.548 39.0883 186.703 38.8247C186.862 38.5576 186.942 38.2561 186.942 37.9203V37.3354C186.942 36.9996 186.866 36.6999 186.714 36.4363C186.563 36.1691 186.292 36.0355 185.902 36.0355C185.523 36.0355 185.25 36.1691 185.084 36.4363C184.922 36.6999 184.84 36.9996 184.84 37.3354ZM178.211 31.5728V30.9879C178.211 30.5835 178.294 30.2134 178.46 29.8776C178.63 29.5382 178.876 29.2674 179.197 29.0652C179.522 28.8594 179.915 28.7565 180.378 28.7565C180.847 28.7565 181.241 28.8594 181.558 29.0652C181.876 29.2674 182.116 29.5382 182.279 29.8776C182.441 30.2134 182.522 30.5835 182.522 30.9879V31.5728C182.522 31.9772 182.439 32.3491 182.273 32.6885C182.111 33.0243 181.869 33.295 181.547 33.5009C181.23 33.703 180.84 33.8041 180.378 33.8041C179.908 33.8041 179.513 33.703 179.192 33.5009C178.87 33.295 178.626 33.0243 178.46 32.6885C178.294 32.3491 178.211 31.9772 178.211 31.5728ZM179.316 30.9879V31.5728C179.316 31.9086 179.396 32.2101 179.554 32.4772C179.713 32.7408 179.988 32.8726 180.378 32.8726C180.757 32.8726 181.024 32.7408 181.179 32.4772C181.338 32.2101 181.417 31.9086 181.417 31.5728V30.9879C181.417 30.6521 181.342 30.3524 181.19 30.0888C181.038 29.8216 180.768 29.688 180.378 29.688C179.998 29.688 179.726 29.8216 179.56 30.0888C179.397 30.3524 179.316 30.6521 179.316 30.9879ZM178.623 40L186.249 28.9081H187.483L179.858 40H178.623ZM198.164 40.1733C197.413 40.1733 196.754 39.9946 196.187 39.6371C195.624 39.2797 195.183 38.7796 194.865 38.1369C194.551 37.4942 194.394 36.7432 194.394 35.8839C194.394 35.0173 194.551 34.2609 194.865 33.6146C195.183 32.9683 195.624 32.4664 196.187 32.109C196.754 31.7515 197.413 31.5728 198.164 31.5728C198.915 31.5728 199.572 31.7515 200.135 32.109C200.702 32.4664 201.142 32.9683 201.457 33.6146C201.774 34.2609 201.933 35.0173 201.933 35.8839C201.933 36.7432 201.774 37.4942 201.457 38.1369C201.142 38.7796 200.702 39.2797 200.135 39.6371C199.572 39.9946 198.915 40.1733 198.164 40.1733ZM198.164 39.0251C198.734 39.0251 199.203 38.8789 199.572 38.5864C199.94 38.294 200.213 37.9094 200.39 37.4328C200.566 36.9562 200.655 36.4399 200.655 35.8839C200.655 35.3278 200.566 34.8097 200.39 34.3295C200.213 33.8493 199.94 33.4611 199.572 33.1651C199.203 32.869 198.734 32.721 198.164 32.721C197.593 32.721 197.124 32.869 196.755 33.1651C196.387 33.4611 196.115 33.8493 195.938 34.3295C195.761 34.8097 195.672 35.3278 195.672 35.8839C195.672 36.4399 195.761 36.9562 195.938 37.4328C196.115 37.9094 196.387 38.294 196.755 38.5864C197.124 38.8789 197.593 39.0251 198.164 39.0251ZM207.589 31.6811V32.7643H203.104V31.6811H207.589ZM204.447 40V30.5329C204.447 30.0563 204.559 29.6591 204.783 29.3414C205.007 29.0237 205.298 28.7854 205.655 28.6265C206.013 28.4676 206.39 28.3882 206.787 28.3882C207.101 28.3882 207.358 28.4135 207.556 28.464C207.755 28.5146 207.903 28.5615 208 28.6048L207.632 29.7097C207.567 29.688 207.477 29.6609 207.361 29.6284C207.249 29.596 207.101 29.5797 206.917 29.5797C206.495 29.5797 206.19 29.6862 206.002 29.8992C205.818 30.1123 205.726 30.4246 205.726 30.8362V40H204.447ZM213.085 31.6811V32.7643H208.6V31.6811H213.085ZM209.943 40V30.5329C209.943 30.0563 210.055 29.6591 210.279 29.3414C210.503 29.0237 210.794 28.7854 211.151 28.6265C211.509 28.4676 211.886 28.3882 212.283 28.3882C212.597 28.3882 212.853 28.4135 213.052 28.464C213.251 28.5146 213.399 28.5615 213.496 28.6048L213.128 29.7097C213.063 29.688 212.973 29.6609 212.857 29.6284C212.745 29.596 212.597 29.5797 212.413 29.5797C211.991 29.5797 211.685 29.6862 211.498 29.8992C211.314 30.1123 211.221 30.4246 211.221 30.8362V40H209.943ZM222.545 40.1733C221.794 40.1733 221.135 39.9946 220.568 39.6371C220.005 39.2797 219.564 38.7796 219.247 38.1369C218.932 37.4942 218.775 36.7432 218.775 35.8839C218.775 35.0173 218.932 34.2609 219.247 33.6146C219.564 32.9683 220.005 32.4664 220.568 32.109C221.135 31.7515 221.794 31.5728 222.545 31.5728C223.296 31.5728 223.953 31.7515 224.516 32.109C225.083 32.4664 225.524 32.9683 225.838 33.6146C226.156 34.2609 226.314 35.0173 226.314 35.8839C226.314 36.7432 226.156 37.4942 225.838 38.1369C225.524 38.7796 225.083 39.2797 224.516 39.6371C223.953 39.9946 223.296 40.1733 222.545 40.1733ZM222.545 39.0251C223.115 39.0251 223.585 38.8789 223.953 38.5864C224.321 38.294 224.594 37.9094 224.771 37.4328C224.948 36.9562 225.036 36.4399 225.036 35.8839C225.036 35.3278 224.948 34.8097 224.771 34.3295C224.594 33.8493 224.321 33.4611 223.953 33.1651C223.585 32.869 223.115 32.721 222.545 32.721C221.974 32.721 221.505 32.869 221.137 33.1651C220.768 33.4611 220.496 33.8493 220.319 34.3295C220.142 34.8097 220.054 35.3278 220.054 35.8839C220.054 36.4399 220.142 36.9562 220.319 37.4328C220.496 37.9094 220.768 38.294 221.137 38.5864C221.505 38.8789 221.974 39.0251 222.545 39.0251ZM229.544 34.9957V40H228.265V31.6811H229.5V32.9809H229.609C229.804 32.5585 230.1 32.2191 230.497 31.9627C230.894 31.7028 231.407 31.5728 232.035 31.5728C232.598 31.5728 233.091 31.6883 233.514 31.9194C233.936 32.1469 234.265 32.4935 234.499 32.9593C234.734 33.4214 234.851 34.0063 234.851 34.714V40H233.573V34.8007C233.573 34.1472 233.403 33.6381 233.064 33.2734C232.725 32.9051 232.259 32.721 231.667 32.721C231.259 32.721 230.894 32.8094 230.573 32.9863C230.255 33.1633 230.004 33.4214 229.82 33.7608C229.636 34.1002 229.544 34.5118 229.544 34.9957ZM243.924 40.195C243.397 40.195 242.919 40.0957 242.489 39.8971C242.059 39.6949 241.718 39.4042 241.466 39.0251C241.213 38.6424 241.086 38.1802 241.086 37.6386C241.086 37.162 241.18 36.7757 241.368 36.4796C241.556 36.1799 241.807 35.9453 242.121 35.7756C242.435 35.6059 242.782 35.4795 243.161 35.3964C243.543 35.3098 243.928 35.2412 244.314 35.1906C244.82 35.1256 245.23 35.0769 245.544 35.0444C245.861 35.0083 246.093 34.9487 246.237 34.8657C246.385 34.7826 246.459 34.6382 246.459 34.4324V34.3891C246.459 33.8547 246.313 33.4395 246.02 33.1434C245.731 32.8473 245.293 32.6993 244.704 32.6993C244.094 32.6993 243.616 32.8329 243.269 33.1001C242.922 33.3673 242.679 33.6525 242.538 33.9558L241.325 33.5225C241.541 33.017 241.83 32.6235 242.191 32.3418C242.556 32.0566 242.953 31.858 243.383 31.7461C243.816 31.6305 244.242 31.5728 244.661 31.5728C244.928 31.5728 245.235 31.6053 245.582 31.6703C245.932 31.7316 246.269 31.8598 246.594 32.0548C246.923 32.2498 247.196 32.544 247.412 32.9376C247.629 33.3312 247.737 33.8583 247.737 34.5191V40H246.459V38.8735H246.394C246.307 39.054 246.163 39.2472 245.961 39.453C245.759 39.6588 245.49 39.8339 245.154 39.9783C244.818 40.1228 244.408 40.195 243.924 40.195ZM244.119 39.0468C244.625 39.0468 245.051 38.9475 245.398 38.7489C245.748 38.5503 246.011 38.294 246.188 37.9798C246.369 37.6657 246.459 37.3354 246.459 36.9887V35.8189C246.405 35.8839 246.286 35.9434 246.102 35.9976C245.921 36.0482 245.712 36.0933 245.473 36.133C245.239 36.1691 245.009 36.2016 244.785 36.2305C244.565 36.2558 244.387 36.2774 244.249 36.2955C243.917 36.3388 243.607 36.4092 243.318 36.5067C243.033 36.6006 242.801 36.7432 242.625 36.9346C242.451 37.1223 242.365 37.3787 242.365 37.7036C242.365 38.1477 242.529 38.4835 242.857 38.711C243.19 38.9349 243.61 39.0468 244.119 39.0468ZM251.348 28.9081V40H250.07V28.9081H251.348ZM254.967 28.9081V40H253.689V28.9081H254.967ZM267.491 33.5442L266.342 33.8691C266.27 33.6778 266.164 33.4918 266.023 33.3113C265.886 33.1272 265.698 32.9755 265.46 32.8564C265.221 32.7372 264.916 32.6776 264.544 32.6776C264.035 32.6776 263.611 32.795 263.272 33.0297C262.936 33.2607 262.768 33.555 262.768 33.9125C262.768 34.2302 262.883 34.4811 263.114 34.6653C263.346 34.8494 263.707 35.0029 264.198 35.1256L265.432 35.4289C266.176 35.6095 266.73 35.8857 267.095 36.2576C267.46 36.6259 267.642 37.1007 267.642 37.682C267.642 38.1586 267.505 38.5846 267.231 38.9601C266.96 39.3356 266.581 39.6317 266.093 39.8484C265.606 40.065 265.039 40.1733 264.393 40.1733C263.544 40.1733 262.842 39.9892 262.286 39.6209C261.73 39.2526 261.378 38.7146 261.23 38.0069L262.443 37.7036C262.558 38.1514 262.777 38.4871 263.098 38.711C263.423 38.9349 263.847 39.0468 264.371 39.0468C264.967 39.0468 265.44 38.9204 265.79 38.6677C266.144 38.4113 266.321 38.1044 266.321 37.747C266.321 37.4581 266.22 37.2162 266.017 37.0212C265.815 36.8226 265.505 36.6746 265.086 36.5771L263.699 36.2522C262.938 36.0716 262.378 35.7918 262.02 35.4127C261.667 35.03 261.49 34.5515 261.49 33.9775C261.49 33.5081 261.621 33.0929 261.885 32.7318C262.152 32.3707 262.515 32.0873 262.974 31.8815C263.436 31.6757 263.959 31.5728 264.544 31.5728C265.367 31.5728 266.014 31.7533 266.483 32.1144C266.956 32.4754 267.292 32.952 267.491 33.5442ZM273.054 40.1733C272.253 40.1733 271.561 39.9964 270.98 39.6425C270.402 39.2851 269.956 38.7868 269.642 38.1477C269.332 37.5051 269.176 36.7576 269.176 35.9055C269.176 35.0534 269.332 34.3024 269.642 33.6525C269.956 32.999 270.393 32.4899 270.953 32.1252C271.516 31.7569 272.173 31.5728 272.924 31.5728C273.357 31.5728 273.785 31.645 274.208 31.7894C274.63 31.9338 275.015 32.1685 275.361 32.4935C275.708 32.8148 275.984 33.2409 276.19 33.7717C276.396 34.3024 276.499 34.9559 276.499 35.7322V36.2738H270.086V35.169H275.199C275.199 34.6996 275.105 34.2808 274.917 33.9125C274.733 33.5442 274.469 33.2535 274.126 33.0405C273.787 32.8275 273.386 32.721 272.924 32.721C272.415 32.721 271.974 32.8473 271.603 33.1001C271.234 33.3492 270.951 33.6742 270.752 34.0749C270.554 34.4757 270.454 34.9054 270.454 35.3639V36.1005C270.454 36.7288 270.563 37.2613 270.779 37.6982C271 38.1315 271.305 38.4619 271.695 38.6893C272.085 38.9132 272.538 39.0251 273.054 39.0251C273.39 39.0251 273.693 38.9782 273.964 38.8843C274.238 38.7868 274.475 38.6424 274.673 38.451C274.872 38.2561 275.025 38.0141 275.134 37.7253L276.369 38.0719C276.239 38.4908 276.02 38.859 275.713 39.1768C275.406 39.4909 275.027 39.7364 274.576 39.9133C274.125 40.0867 273.617 40.1733 273.054 40.1733ZM278.443 40V31.6811H279.678V32.9376H279.764C279.916 32.526 280.19 32.192 280.588 31.9356C280.985 31.6793 281.433 31.5511 281.931 31.5511C282.025 31.5511 282.142 31.5529 282.283 31.5565C282.424 31.5601 282.53 31.5656 282.602 31.5728V32.8726C282.559 32.8618 282.46 32.8455 282.305 32.8239C282.153 32.7986 281.992 32.7859 281.823 32.7859C281.418 32.7859 281.057 32.8708 280.739 33.0405C280.425 33.2066 280.176 33.4377 279.992 33.7337C279.811 34.0262 279.721 34.3602 279.721 34.7357V40H278.443ZM291.173 31.6811L288.097 40H286.797L283.721 31.6811H285.107L287.404 38.3102H287.49L289.787 31.6811H291.173ZM292.86 40V31.6811H294.138V40H292.86ZM293.51 30.2946C293.261 30.2946 293.046 30.2098 292.866 30.0401C292.689 29.8704 292.6 29.6664 292.6 29.4281C292.6 29.1898 292.689 28.9858 292.866 28.8161C293.046 28.6464 293.261 28.5615 293.51 28.5615C293.759 28.5615 293.972 28.6464 294.149 28.8161C294.33 28.9858 294.42 29.1898 294.42 29.4281C294.42 29.6664 294.33 29.8704 294.149 30.0401C293.972 30.2098 293.759 30.2946 293.51 30.2946ZM299.859 40.1733C299.079 40.1733 298.408 39.9892 297.844 39.6209C297.281 39.2526 296.848 38.7453 296.544 38.099C296.241 37.4527 296.089 36.7143 296.089 35.8839C296.089 35.039 296.245 34.2934 296.555 33.6471C296.869 32.9972 297.306 32.4899 297.866 32.1252C298.429 31.7569 299.086 31.5728 299.837 31.5728C300.422 31.5728 300.949 31.6811 301.419 31.8977C301.888 32.1144 302.273 32.4177 302.572 32.8076C302.872 33.1976 303.058 33.6525 303.13 34.1724H301.852C301.755 33.7933 301.538 33.4575 301.202 33.1651C300.87 32.869 300.422 32.721 299.859 32.721C299.361 32.721 298.924 32.8509 298.548 33.1109C298.176 33.3673 297.886 33.7301 297.676 34.1995C297.471 34.6653 297.368 35.2123 297.368 35.8405C297.368 36.4832 297.469 37.0429 297.671 37.5195C297.877 37.9961 298.166 38.3662 298.537 38.6298C298.913 38.8933 299.353 39.0251 299.859 39.0251C300.191 39.0251 300.493 38.9674 300.763 38.8518C301.034 38.7363 301.264 38.5702 301.451 38.3535C301.639 38.1369 301.773 37.8769 301.852 37.5737H303.13C303.058 38.0647 302.879 38.507 302.594 38.9006C302.312 39.2905 301.939 39.601 301.473 39.8321C301.011 40.0596 300.473 40.1733 299.859 40.1733ZM308.487 40.1733C307.685 40.1733 306.994 39.9964 306.412 39.6425C305.835 39.2851 305.389 38.7868 305.075 38.1477C304.764 37.5051 304.609 36.7576 304.609 35.9055C304.609 35.0534 304.764 34.3024 305.075 33.6525C305.389 32.999 305.826 32.4899 306.385 32.1252C306.948 31.7569 307.606 31.5728 308.357 31.5728C308.79 31.5728 309.218 31.645 309.64 31.7894C310.063 31.9338 310.447 32.1685 310.794 32.4935C311.14 32.8148 311.417 33.2409 311.622 33.7717C311.828 34.3024 311.931 34.9559 311.931 35.7322V36.2738H305.519V35.169H310.631C310.631 34.6996 310.537 34.2808 310.35 33.9125C310.166 33.5442 309.902 33.2535 309.559 33.0405C309.22 32.8275 308.819 32.721 308.357 32.721C307.848 32.721 307.407 32.8473 307.035 33.1001C306.667 33.3492 306.383 33.6742 306.185 34.0749C305.986 34.4757 305.887 34.9054 305.887 35.3639V36.1005C305.887 36.7288 305.995 37.2613 306.212 37.6982C306.432 38.1315 306.737 38.4619 307.127 38.6893C307.517 38.9132 307.97 39.0251 308.487 39.0251C308.822 39.0251 309.126 38.9782 309.396 38.8843C309.671 38.7868 309.907 38.6424 310.106 38.451C310.305 38.2561 310.458 38.0141 310.566 37.7253L311.801 38.0719C311.671 38.4908 311.453 38.859 311.146 39.1768C310.839 39.4909 310.46 39.7364 310.008 39.9133C309.557 40.0867 309.05 40.1733 308.487 40.1733ZM319.768 33.5442L318.62 33.8691C318.548 33.6778 318.441 33.4918 318.3 33.3113C318.163 33.1272 317.975 32.9755 317.737 32.8564C317.499 32.7372 317.194 32.6776 316.822 32.6776C316.313 32.6776 315.888 32.795 315.549 33.0297C315.213 33.2607 315.045 33.555 315.045 33.9125C315.045 34.2302 315.161 34.4811 315.392 34.6653C315.623 34.8494 315.984 35.0029 316.475 35.1256L317.71 35.4289C318.454 35.6095 319.008 35.8857 319.373 36.2576C319.737 36.6259 319.92 37.1007 319.92 37.682C319.92 38.1586 319.782 38.5846 319.508 38.9601C319.237 39.3356 318.858 39.6317 318.371 39.8484C317.883 40.065 317.316 40.1733 316.67 40.1733C315.822 40.1733 315.119 39.9892 314.563 39.6209C314.007 39.2526 313.655 38.7146 313.507 38.0069L314.72 37.7036C314.836 38.1514 315.054 38.4871 315.376 38.711C315.701 38.9349 316.125 39.0468 316.648 39.0468C317.244 39.0468 317.717 38.9204 318.067 38.6677C318.421 38.4113 318.598 38.1044 318.598 37.747C318.598 37.4581 318.497 37.2162 318.295 37.0212C318.093 36.8226 317.782 36.6746 317.363 36.5771L315.977 36.2522C315.215 36.0716 314.655 35.7918 314.298 35.4127C313.944 35.03 313.767 34.5515 313.767 33.9775C313.767 33.5081 313.899 33.0929 314.163 32.7318C314.43 32.3707 314.793 32.0873 315.251 31.8815C315.713 31.6757 316.237 31.5728 316.822 31.5728C317.645 31.5728 318.291 31.7533 318.761 32.1144C319.234 32.4754 319.569 32.952 319.768 33.5442Z" fill="black"/>
<path d="M20 73.5967C22.7614 73.5967 25 71.3581 25 68.5967C25 65.8353 22.7614 63.5967 20 63.5967C17.2386 63.5967 15 65.8353 15 68.5967C15 71.3581 17.2386 73.5967 20 73.5967Z" fill="white"/>
<path d="M39.4 73.5967C42.1614 73.5967 44.4 71.3581 44.4 68.5967C44.4 65.8353 42.1614 63.5967 39.4 63.5967C36.6386 63.5967 34.4 65.8353 34.4 68.5967C34.4 71.3581 36.6386 73.5967 39.4 73.5967Z" fill="white"/>
<path d="M58.8 73.5967C61.5614 73.5967 63.8 71.3581 63.8 68.5967C63.8 65.8353 61.5614 63.5967 58.8 63.5967C56.0386 63.5967 53.8 65.8353 53.8 68.5967C53.8 71.3581 56.0386 73.5967 58.8 73.5967Z" fill="white"/>
<path d="M78.2 73.5967C80.9614 73.5967 83.2 71.3581 83.2 68.5967C83.2 65.8353 80.9614 63.5967 78.2 63.5967C75.4386 63.5967 73.2 65.8353 73.2 68.5967C73.2 71.3581 75.4386 73.5967 78.2 73.5967Z" fill="white"/>
<path d="M97.6 73.5967C100.361 73.5967 102.6 71.3581 102.6 68.5967C102.6 65.8353 100.361 63.5967 97.6 63.5967C94.8386 63.5967 92.6 65.8353 92.6 68.5967C92.6 71.3581 94.8386 73.5967 97.6 73.5967Z" fill="white"/>
<path d="M117 73.5967C119.761 73.5967 122 71.3581 122 68.5967C122 65.8353 119.761 63.5967 117 63.5967C114.239 63.5967 112 65.8353 112 68.5967C112 71.3581 114.239 73.5967 117 73.5967Z" fill="white"/>
<path d="M136.4 73.5967C139.161 73.5967 141.4 71.3581 141.4 68.5967C141.4 65.8353 139.161 63.5967 136.4 63.5967C133.639 63.5967 131.4 65.8353 131.4 68.5967C131.4 71.3581 133.639 73.5967 136.4 73.5967Z" fill="white"/>
<path d="M155.8 73.5967C158.561 73.5967 160.8 71.3581 160.8 68.5967C160.8 65.8353 158.561 63.5967 155.8 63.5967C153.039 63.5967 150.8 65.8353 150.8 68.5967C150.8 71.3581 153.039 73.5967 155.8 73.5967Z" fill="white"/>
<path d="M175.2 73.5967C177.961 73.5967 180.2 71.3581 180.2 68.5967C180.2 65.8353 177.961 63.5967 175.2 63.5967C172.439 63.5967 170.2 65.8353 170.2 68.5967C170.2 71.3581 172.439 73.5967 175.2 73.5967Z" fill="white"/>
<path d="M194.6 73.5967C197.361 73.5967 199.6 71.3581 199.6 68.5967C199.6 65.8353 197.361 63.5967 194.6 63.5967C191.839 63.5967 189.6 65.8353 189.6 68.5967C189.6 71.3581 191.839 73.5967 194.6 73.5967Z" fill="white"/>
<path d="M214 73.5967C216.761 73.5967 219 71.3581 219 68.5967C219 65.8353 216.761 63.5967 214 63.5967C211.239 63.5967 209 65.8353 209 68.5967C209 71.3581 211.239 73.5967 214 73.5967Z" fill="white"/>
<path d="M233.4 73.5967C236.161 73.5967 238.4 71.3581 238.4 68.5967C238.4 65.8353 236.161 63.5967 233.4 63.5967C230.639 63.5967 228.4 65.8353 228.4 68.5967C228.4 71.3581 230.639 73.5967 233.4 73.5967Z" fill="white"/>
<path d="M252.8 73.5967C255.561 73.5967 257.8 71.3581 257.8 68.5967C257.8 65.8353 255.561 63.5967 252.8 63.5967C250.039 63.5967 247.8 65.8353 247.8 68.5967C247.8 71.3581 250.039 73.5967 252.8 73.5967Z" fill="white"/>
<path d="M272.2 73.5967C274.961 73.5967 277.2 71.3581 277.2 68.5967C277.2 65.8353 274.961 63.5967 272.2 63.5967C269.439 63.5967 267.2 65.8353 267.2 68.5967C267.2 71.3581 269.439 73.5967 272.2 73.5967Z" fill="white"/>
<path d="M291.6 73.5967C294.361 73.5967 296.6 71.3581 296.6 68.5967C296.6 65.8353 294.361 63.5967 291.6 63.5967C288.839 63.5967 286.6 65.8353 286.6 68.5967C286.6 71.3581 288.839 73.5967 291.6 73.5967Z" fill="white"/>
<path d="M311 73.5967C313.761 73.5967 316 71.3581 316 68.5967C316 65.8353 313.761 63.5967 311 63.5967C308.239 63.5967 306 65.8353 306 68.5967C306 71.3581 308.239 73.5967 311 73.5967Z" fill="white"/>
<path d="M330.4 73.5967C333.161 73.5967 335.4 71.3581 335.4 68.5967C335.4 65.8353 333.161 63.5967 330.4 63.5967C327.639 63.5967 325.4 65.8353 325.4 68.5967C325.4 71.3581 327.639 73.5967 330.4 73.5967Z" fill="white"/>
<path d="M349.8 73.5967C352.561 73.5967 354.8 71.3581 354.8 68.5967C354.8 65.8353 352.561 63.5967 349.8 63.5967C347.039 63.5967 344.8 65.8353 344.8 68.5967C344.8 71.3581 347.039 73.5967 349.8 73.5967Z" fill="white"/>
<path d="M369.2 73.5967C371.961 73.5967 374.2 71.3581 374.2 68.5967C374.2 65.8353 371.961 63.5967 369.2 63.5967C366.439 63.5967 364.2 65.8353 364.2 68.5967C364.2 71.3581 366.439 73.5967 369.2 73.5967Z" fill="white"/>
<path d="M388.6 73.5967C391.361 73.5967 393.6 71.3581 393.6 68.5967C393.6 65.8353 391.361 63.5967 388.6 63.5967C385.839 63.5967 383.6 65.8353 383.6 68.5967C383.6 71.3581 385.839 73.5967 388.6 73.5967Z" fill="white"/>
<path d="M408 73.5967C410.761 73.5967 413 71.3581 413 68.5967C413 65.8353 410.761 63.5967 408 63.5967C405.239 63.5967 403 65.8353 403 68.5967C403 71.3581 405.239 73.5967 408 73.5967Z" fill="white"/>
</g>
<g clip-path="url(#clip1_1349_1356)">
<path d="M25.1855 33.3781L31.1531 31.1764L33.3013 25.1912C33.3506 25.0541 33.4408 24.9355 33.5598 24.8514C33.6788 24.7673 33.8207 24.7219 33.9664 24.7213C34.1121 24.7206 34.2545 24.7648 34.3742 24.8479C34.4939 24.9309 34.5851 25.0487 34.6356 25.1854L36.8373 31.153L42.8239 33.3013C42.961 33.3505 43.0796 33.4408 43.1637 33.5597C43.2478 33.6787 43.2932 33.8207 43.2938 33.9664C43.2945 34.1121 43.2503 34.2544 43.1672 34.3741C43.0842 34.4938 42.9664 34.5851 42.8297 34.6355L36.8606 36.8373L34.7124 42.8238C34.6632 42.9609 34.5729 43.0796 34.4539 43.1636C34.335 43.2477 34.193 43.2932 34.0473 43.2938C33.9016 43.2944 33.7593 43.2502 33.6396 43.1672C33.5199 43.0842 33.4286 42.9663 33.3781 42.8296L31.1764 36.8606L25.1913 34.7124C25.0542 34.6631 24.9355 34.5729 24.8515 34.4539C24.7674 34.3349 24.722 34.1929 24.7213 34.0473C24.7207 33.9016 24.7649 33.7592 24.8479 33.6395C24.9309 33.5198 25.0488 33.4285 25.1855 33.3781Z" fill="white"/>
</g>
</g>
<defs>
<clipPath id="clip0_1349_1356">
<rect width="428" height="68" fill="white"/>
</clipPath>
<clipPath id="clip1_1349_1356">
<rect width="20" height="20" fill="white" transform="translate(23.9634 24.0503) rotate(-0.249562)"/>
</clipPath>
</defs>
</svg>
