<svg width="100" height="68" viewBox="0 0 100 68" fill="none" xmlns="http://www.w3.org/2000/svg">
<rect x="0.875977" y="0.0224609" width="98.6963" height="67.9548" rx="8.08986" fill="#F5F5F5"/>
<g clip-path="url(#clip0_5_1556)">
<path d="M10.6334 9.23671C9.71963 9.23671 8.9794 9.96115 8.9794 10.8555V23.7985C8.9794 24.6928 9.71963 25.4172 10.6334 25.4172H28.2846C29.1984 25.4172 29.9386 24.6928 29.9386 23.7985V10.8555C29.9386 9.96115 29.1984 9.23671 28.2846 9.23671H10.6334ZM28.2846 7.61914C30.1121 7.61914 31.5938 9.06803 31.5938 10.8555V23.7985C31.5938 25.5859 30.1121 27.0348 28.2846 27.0348H10.6334C8.80588 27.0348 7.32422 25.5859 7.32422 23.7985V10.8555C7.32422 9.06803 8.80588 7.61914 10.6334 7.61914H28.2846ZM17.2347 21.1288H12.1781C12.0706 21.1275 11.9639 21.1474 11.8641 21.1874C11.7643 21.2274 11.6734 21.2867 11.5965 21.3619C11.5197 21.4371 11.4584 21.5267 11.4162 21.6256C11.3739 21.7244 11.3517 21.8307 11.3505 21.9382C11.3505 22.3847 11.7207 22.7476 12.1781 22.7476H17.2347C17.3421 22.7487 17.4487 22.7287 17.5483 22.6886C17.648 22.6485 17.7388 22.5892 17.8155 22.514C17.8923 22.4389 17.9535 22.3493 17.9956 22.2505C18.0377 22.1517 18.06 22.0456 18.0611 21.9382C18.06 21.8308 18.0377 21.7246 17.9956 21.6258C17.9535 21.527 17.8923 21.4375 17.8155 21.3623C17.7388 21.2872 17.648 21.2279 17.5483 21.1878C17.4487 21.1477 17.3421 21.1277 17.2347 21.1288ZM24.0096 11.6637C22.1602 11.6637 20.6543 13.1089 20.6543 14.9C20.6543 15.838 21.0669 16.6814 21.727 17.2724C20.4771 18.0102 19.6435 19.3389 19.6435 20.857C19.6435 21.2902 19.7114 21.7161 19.8437 22.1226C19.9832 22.5474 20.4492 22.7828 20.8836 22.6469C20.9862 22.6161 21.0815 22.5653 21.1642 22.4973C21.2469 22.4293 21.3152 22.3456 21.3651 22.2509C21.415 22.1562 21.4456 22.0526 21.455 21.946C21.4644 21.8393 21.4525 21.7319 21.42 21.63C21.3389 21.3804 21.2979 21.1194 21.2986 20.857C21.2986 19.4311 22.5085 18.2686 24.0096 18.2686C25.5106 18.2686 26.7217 19.4311 26.7217 20.857C26.7217 21.0669 26.6962 21.272 26.6452 21.471C26.6196 21.575 26.615 21.6831 26.6316 21.7889C26.6481 21.8947 26.6855 21.9962 26.7416 22.0874C26.7978 22.1787 26.8715 22.2578 26.9584 22.3203C27.0454 22.3828 27.144 22.4274 27.2483 22.4515C27.4594 22.5044 27.6828 22.4723 27.8703 22.3619C28.0578 22.2516 28.1944 22.0719 28.2507 21.8617C28.3344 21.5341 28.3756 21.198 28.3756 20.857C28.3756 19.3389 27.542 18.0102 26.2921 17.2699C26.9522 16.6814 27.3648 15.838 27.3648 14.9C27.3648 13.1089 25.8601 11.6637 24.0096 11.6637ZM17.2347 16.8816H12.1781C12.0706 16.8803 11.9639 16.9003 11.8641 16.9403C11.7643 16.9803 11.6734 17.0395 11.5965 17.1147C11.5197 17.1899 11.4584 17.2795 11.4162 17.3784C11.3739 17.4773 11.3517 17.5835 11.3505 17.691C11.3505 18.1376 11.7207 18.5004 12.1781 18.5004H17.2347C17.3421 18.5015 17.4487 18.4815 17.5483 18.4414C17.648 18.4013 17.7388 18.342 17.8155 18.2669C17.8923 18.1917 17.9535 18.1022 17.9956 18.0034C18.0377 17.9046 18.06 17.7984 18.0611 17.691C18.06 17.5836 18.0377 17.4775 17.9956 17.3787C17.9535 17.2799 17.8923 17.1903 17.8155 17.1152C17.7388 17.04 17.648 16.9807 17.5483 16.9406C17.4487 16.9005 17.3421 16.8805 17.2347 16.8816ZM24.0096 13.2824C24.9524 13.2824 25.7108 14.0105 25.7108 14.9C25.7108 15.7907 24.9524 16.5176 24.0096 16.5176C23.0667 16.5176 22.3083 15.7895 22.3083 14.9C22.3083 14.0093 23.0667 13.2824 24.0096 13.2824ZM17.2347 12.6344H12.1781C12.0706 12.6332 11.9639 12.6531 11.8641 12.6931C11.7643 12.7331 11.6734 12.7924 11.5965 12.8675C11.5197 12.9427 11.4584 13.0323 11.4162 13.1312C11.3739 13.2301 11.3517 13.3363 11.3505 13.4438C11.3505 13.8904 11.7207 14.2532 12.1781 14.2532H17.2347C17.3421 14.2543 17.4487 14.2343 17.5483 14.1942C17.648 14.1542 17.7388 14.0949 17.8155 14.0197C17.8923 13.9445 17.9535 13.855 17.9956 13.7562C18.0377 13.6574 18.06 13.5512 18.0611 13.4438C18.06 13.3364 18.0377 13.2303 17.9956 13.1315C17.9535 13.0327 17.8923 12.9431 17.8155 12.868C17.7388 12.7928 17.648 12.7335 17.5483 12.6934C17.4487 12.6534 17.3421 12.6333 17.2347 12.6344Z" fill="black"/>
</g>
<path d="M8.23727 40.4609V32.1501H11.2808C11.8705 32.1501 12.3589 32.2475 12.7457 32.4423C13.1326 32.6344 13.4221 32.8954 13.6141 33.2255C13.8062 33.5528 13.9023 33.9221 13.9023 34.3333C13.9023 34.6796 13.8387 34.9718 13.7115 35.2099C13.5844 35.4452 13.4139 35.6346 13.2002 35.778C12.9892 35.9187 12.7565 36.0215 12.5022 36.0864V36.1676C12.7782 36.1811 13.0474 36.2704 13.3098 36.4354C13.5749 36.5977 13.794 36.829 13.9672 37.1293C14.1403 37.4296 14.2269 37.7948 14.2269 38.225C14.2269 38.6497 14.1268 39.0312 13.9266 39.3693C13.7291 39.7048 13.4234 39.9713 13.0095 40.1688C12.5956 40.3635 12.0667 40.4609 11.4228 40.4609H8.23727ZM9.4912 39.3856H11.3011C11.9017 39.3856 12.3318 39.2692 12.5915 39.0366C12.8512 38.8039 12.9811 38.5131 12.9811 38.1641C12.9811 37.9017 12.9148 37.6609 12.7822 37.4418C12.6497 37.2226 12.4603 37.0481 12.2141 36.9183C11.9706 36.7884 11.6812 36.7235 11.3457 36.7235H9.4912V39.3856ZM9.4912 35.7455H11.1712C11.4526 35.7455 11.7055 35.6914 11.9301 35.5832C12.1573 35.475 12.3372 35.3235 12.4698 35.1287C12.605 34.9312 12.6727 34.6986 12.6727 34.4307C12.6727 34.0872 12.5523 33.799 12.3115 33.5664C12.0707 33.3337 11.7015 33.2174 11.2037 33.2174H9.4912V35.7455ZM17.4307 40.5989C17.0357 40.5989 16.6786 40.5259 16.3594 40.3798C16.0402 40.231 15.7872 40.0159 15.6005 39.7346C15.4166 39.4532 15.3246 39.1083 15.3246 38.6998C15.3246 38.3481 15.3922 38.0586 15.5275 37.8313C15.6628 37.6041 15.8454 37.4242 16.0753 37.2916C16.3053 37.1591 16.5623 37.059 16.8463 36.9913C17.1304 36.9237 17.4199 36.8723 17.7148 36.8371C18.0881 36.7938 18.3911 36.7587 18.6238 36.7316C18.8564 36.7019 19.0255 36.6545 19.131 36.5896C19.2365 36.5247 19.2893 36.4192 19.2893 36.2731V36.2447C19.2893 35.8903 19.1892 35.6157 18.989 35.4209C18.7915 35.2261 18.4966 35.1287 18.1043 35.1287C17.6958 35.1287 17.3739 35.2193 17.1385 35.4006C16.9059 35.5791 16.7449 35.778 16.6556 35.9971L15.5153 35.7374C15.6506 35.3587 15.8481 35.053 16.1078 34.8203C16.3702 34.5849 16.6719 34.4145 17.0127 34.309C17.3536 34.2008 17.7121 34.1467 18.0881 34.1467C18.337 34.1467 18.6008 34.1764 18.8794 34.2359C19.1608 34.2928 19.4232 34.3983 19.6667 34.5525C19.9129 34.7067 20.1144 34.9272 20.2713 35.2139C20.4282 35.498 20.5067 35.8673 20.5067 36.3218V40.4609H19.3217V39.6088H19.273C19.1946 39.7657 19.0769 39.9199 18.92 40.0714C18.7631 40.2229 18.5615 40.3487 18.3153 40.4488C18.0692 40.5489 17.7743 40.5989 17.4307 40.5989ZM17.6945 39.625C18.0299 39.625 18.3167 39.5587 18.5548 39.4261C18.7955 39.2936 18.9782 39.1204 19.1026 38.9067C19.2298 38.6903 19.2933 38.459 19.2933 38.2128V37.4093C19.25 37.4526 19.1662 37.4932 19.0417 37.5311C18.92 37.5662 18.7807 37.5973 18.6238 37.6244C18.4668 37.6487 18.314 37.6717 18.1652 37.6934C18.0164 37.7123 17.892 37.7285 17.7919 37.7421C17.5565 37.7718 17.3414 37.8219 17.1466 37.8922C16.9546 37.9626 16.8004 38.064 16.684 38.1966C16.5704 38.3264 16.5136 38.4996 16.5136 38.716C16.5136 39.0163 16.6245 39.2435 16.8463 39.3977C17.0682 39.5492 17.3509 39.625 17.6945 39.625ZM24.7483 40.5867C24.145 40.5867 23.6256 40.4501 23.19 40.1769C22.7572 39.9009 22.4244 39.5208 22.1918 39.0366C21.9591 38.5523 21.8428 37.9977 21.8428 37.3728C21.8428 36.7397 21.9618 36.1811 22.1999 35.6968C22.438 35.2099 22.7734 34.8298 23.2063 34.5565C23.6391 34.2833 24.1491 34.1467 24.7361 34.1467C25.2096 34.1467 25.6316 34.2346 26.0022 34.4104C26.3729 34.5836 26.6718 34.8271 26.8991 35.1409C27.129 35.4547 27.2656 35.8213 27.3089 36.2406H26.128C26.0631 35.9484 25.9143 35.6968 25.6817 35.4858C25.4517 35.2748 25.1433 35.1693 24.7564 35.1693C24.4183 35.1693 24.122 35.2586 23.8677 35.4371C23.6161 35.613 23.42 35.8646 23.2793 36.1919C23.1386 36.5165 23.0683 36.9007 23.0683 37.3444C23.0683 37.7989 23.1373 38.1912 23.2753 38.5212C23.4132 38.8513 23.608 39.1069 23.8596 39.2882C24.1139 39.4694 24.4129 39.5601 24.7564 39.5601C24.9864 39.5601 25.1947 39.5181 25.3814 39.4343C25.5707 39.3477 25.729 39.2246 25.8562 39.065C25.986 38.9054 26.0766 38.7133 26.128 38.4887H27.3089C27.2656 38.8918 27.1344 39.2516 26.9153 39.5682C26.6962 39.8847 26.4026 40.1336 26.0347 40.3148C25.6695 40.4961 25.2407 40.5867 24.7483 40.5867ZM29.7224 38.3467L29.7143 36.8655H29.9253L32.4088 34.2278H33.8616L31.0291 37.2308H30.8384L29.7224 38.3467ZM28.6065 40.4609V32.1501H29.8198V40.4609H28.6065ZM32.5427 40.4609L30.3108 37.4986L31.1468 36.6505L34.032 40.4609H32.5427ZM37.3241 42.9282C36.829 42.9282 36.4029 42.8633 36.0458 42.7334C35.6914 42.6036 35.402 42.4318 35.1774 42.2181C34.9529 42.0043 34.7851 41.7703 34.6742 41.516L35.7171 41.0859C35.7902 41.2049 35.8876 41.3307 36.0093 41.4633C36.1338 41.5985 36.3015 41.7135 36.5125 41.8082C36.7262 41.9029 37.0008 41.9502 37.3363 41.9502C37.7962 41.9502 38.1763 41.838 38.4766 41.6134C38.7769 41.3916 38.927 41.0372 38.927 40.5502V39.3247H38.8499C38.7769 39.4573 38.6714 39.6047 38.5334 39.767C38.3981 39.9293 38.2115 40.07 37.9734 40.1891C37.7353 40.3081 37.4256 40.3676 37.0441 40.3676C36.5517 40.3676 36.1081 40.2526 35.7131 40.0227C35.3208 39.79 35.0097 39.4478 34.7797 38.996C34.5525 38.5415 34.4389 37.9828 34.4389 37.32C34.4389 36.6572 34.5511 36.0891 34.7757 35.6157C35.0029 35.1422 35.314 34.7797 35.709 34.5281C36.104 34.2738 36.5517 34.1467 37.0522 34.1467C37.4391 34.1467 37.7515 34.2116 37.9896 34.3415C38.2277 34.4686 38.413 34.6174 38.5456 34.7878C38.6808 34.9583 38.785 35.1084 38.858 35.2383H38.9473V34.2278H40.1363V40.5989C40.1363 41.1346 40.0119 41.5742 39.763 41.9178C39.5141 42.2613 39.1773 42.5156 38.7525 42.6807C38.3305 42.8457 37.8543 42.9282 37.3241 42.9282ZM37.3119 39.3612C37.6609 39.3612 37.9558 39.2801 38.1966 39.1177C38.4401 38.9527 38.624 38.7173 38.7485 38.4116C38.8756 38.1032 38.9392 37.734 38.9392 37.3038C38.9392 36.8845 38.877 36.5152 38.7525 36.196C38.6281 35.8767 38.4455 35.6278 38.2047 35.4493C37.9639 35.268 37.6663 35.1774 37.3119 35.1774C36.9467 35.1774 36.6424 35.2721 36.3989 35.4615C36.1554 35.6481 35.9714 35.9024 35.847 36.2244C35.7252 36.5463 35.6644 36.9061 35.6644 37.3038C35.6644 37.7123 35.7266 38.0708 35.851 38.3792C35.9755 38.6876 36.1595 38.9284 36.4029 39.1015C36.6491 39.2746 36.9521 39.3612 37.3119 39.3612ZM41.7636 40.4609V34.2278H42.9363V35.218H43.0013C43.1149 34.8825 43.3151 34.6187 43.6018 34.4267C43.8913 34.2319 44.2187 34.1345 44.5839 34.1345C44.6596 34.1345 44.7489 34.1372 44.8517 34.1426C44.9572 34.148 45.0397 34.1548 45.0993 34.1629V35.3235C45.0506 35.31 44.964 35.2951 44.8395 35.2789C44.7151 35.2599 44.5907 35.2504 44.4662 35.2504C44.1794 35.2504 43.9238 35.3113 43.6992 35.4331C43.4774 35.5521 43.3016 35.7185 43.1717 35.9322C43.0418 36.1432 42.9769 36.384 42.9769 36.6545V40.4609H41.7636ZM48.5516 40.5867C47.9673 40.5867 47.4573 40.4528 47.0217 40.185C46.5862 39.9172 46.248 39.5425 46.0072 39.0609C45.7665 38.5794 45.6461 38.0167 45.6461 37.3728C45.6461 36.7262 45.7665 36.1608 46.0072 35.6765C46.248 35.1923 46.5862 34.8162 47.0217 34.5484C47.4573 34.2806 47.9673 34.1467 48.5516 34.1467C49.136 34.1467 49.6459 34.2806 50.0815 34.5484C50.517 34.8162 50.8552 35.1923 51.096 35.6765C51.3368 36.1608 51.4572 36.7262 51.4572 37.3728C51.4572 38.0167 51.3368 38.5794 51.096 39.0609C50.8552 39.5425 50.517 39.9172 50.0815 40.185C49.6459 40.4528 49.136 40.5867 48.5516 40.5867ZM48.5557 39.5682C48.9344 39.5682 49.2482 39.4681 49.4971 39.2679C49.746 39.0677 49.93 38.8012 50.049 38.4685C50.1708 38.1357 50.2316 37.7691 50.2316 37.3687C50.2316 36.971 50.1708 36.6058 50.049 36.2731C49.93 35.9376 49.746 35.6684 49.4971 35.4655C49.2482 35.2626 48.9344 35.1612 48.5557 35.1612C48.1742 35.1612 47.8577 35.2626 47.6061 35.4655C47.3572 35.6684 47.1719 35.9376 47.0501 36.2731C46.9311 36.6058 46.8716 36.971 46.8716 37.3687C46.8716 37.7691 46.9311 38.1357 47.0501 38.4685C47.1719 38.8012 47.3572 39.0677 47.6061 39.2679C47.8577 39.4681 48.1742 39.5682 48.5557 39.5682ZM56.76 37.876V34.2278H57.9774V40.4609H56.7843V39.3815H56.7194C56.576 39.7143 56.346 39.9916 56.0295 40.2134C55.7157 40.4325 55.3248 40.5421 54.8567 40.5421C54.4564 40.5421 54.102 40.4542 53.7935 40.2783C53.4878 40.0998 53.2471 39.836 53.0712 39.487C52.8981 39.138 52.8115 38.7065 52.8115 38.1925V34.2278H54.0249V38.0464C54.0249 38.4712 54.1425 38.8093 54.3779 39.0609C54.6133 39.3125 54.919 39.4383 55.295 39.4383C55.5223 39.4383 55.7482 39.3815 55.9727 39.2679C56.2 39.1543 56.388 38.9825 56.5368 38.7525C56.6883 38.5226 56.7627 38.2304 56.76 37.876ZM60.821 36.76V40.4609H59.6077V34.2278H60.7723V35.2423H60.8494C60.9928 34.9123 61.2174 34.6472 61.5231 34.447C61.8315 34.2468 62.2197 34.1467 62.6877 34.1467C63.1124 34.1467 63.4844 34.2359 63.8037 34.4145C64.1229 34.5903 64.3704 34.8528 64.5463 35.2018C64.7221 35.5507 64.81 35.9822 64.81 36.4963V40.4609H63.5967V36.6423C63.5967 36.1906 63.479 35.8375 63.2437 35.5832C63.0083 35.3262 62.685 35.1977 62.2738 35.1977C61.9924 35.1977 61.7422 35.2586 61.5231 35.3803C61.3066 35.502 61.1348 35.6806 61.0077 35.916C60.8832 36.1486 60.821 36.43 60.821 36.76ZM68.7707 40.5827C68.2675 40.5827 67.8184 40.4542 67.4234 40.1972C67.0311 39.9375 66.7227 39.5682 66.4982 39.0893C66.2763 38.6078 66.1654 38.0302 66.1654 37.3566C66.1654 36.6829 66.2777 36.1067 66.5022 35.6278C66.7295 35.149 67.0406 34.7824 67.4356 34.5281C67.8306 34.2738 68.2783 34.1467 68.7788 34.1467C69.1656 34.1467 69.4768 34.2116 69.7121 34.3415C69.9502 34.4686 70.1342 34.6174 70.264 34.7878C70.3966 34.9583 70.4994 35.1084 70.5724 35.2383H70.6455V32.1501H71.8588V40.4609H70.6739V39.4911H70.5724C70.4994 39.6236 70.3939 39.7751 70.2559 39.9456C70.1206 40.116 69.934 40.2648 69.6959 40.392C69.4578 40.5191 69.1494 40.5827 68.7707 40.5827ZM69.0385 39.5479C69.3875 39.5479 69.6824 39.4559 69.9231 39.2719C70.1666 39.0853 70.3506 38.8269 70.475 38.4969C70.6022 38.1668 70.6658 37.7826 70.6658 37.3444C70.6658 36.9115 70.6035 36.5328 70.4791 36.2081C70.3546 35.8835 70.172 35.6305 69.9313 35.4493C69.6905 35.268 69.3929 35.1774 69.0385 35.1774C68.6733 35.1774 68.3689 35.2721 68.1254 35.4615C67.882 35.6508 67.698 35.9092 67.5736 36.2365C67.4518 36.5639 67.3909 36.9332 67.3909 37.3444C67.3909 37.761 67.4532 38.1357 67.5776 38.4685C67.7021 38.8012 67.886 39.065 68.1295 39.2598C68.3757 39.4518 68.6787 39.5479 69.0385 39.5479ZM13.4721 48.2278L11.2118 54.4609H9.91323L7.64886 48.2278H8.95148L10.53 53.0244H10.595L12.1695 48.2278H13.4721ZM17.0868 54.5867C16.4727 54.5867 15.9438 54.4555 15.5001 54.1931C15.0591 53.928 14.7183 53.556 14.4775 53.0772C14.2394 52.5956 14.1204 52.0315 14.1204 51.385C14.1204 50.7465 14.2394 50.1838 14.4775 49.6968C14.7183 49.2099 15.0537 48.8298 15.4839 48.5565C15.9167 48.2833 16.4226 48.1467 17.0016 48.1467C17.3533 48.1467 17.6941 48.2048 18.0242 48.3212C18.3542 48.4375 18.6505 48.6201 18.9129 48.869C19.1753 49.1179 19.3823 49.4412 19.5338 49.8389C19.6853 50.2338 19.761 50.714 19.761 51.2795V51.7096H14.8062V50.8006H18.572C18.572 50.4814 18.5071 50.1987 18.3772 49.9525C18.2474 49.7036 18.0648 49.5075 17.8294 49.3641C17.5967 49.2207 17.3235 49.149 17.0097 49.149C16.6688 49.149 16.3712 49.2329 16.1169 49.4006C15.8653 49.5656 15.6705 49.782 15.5326 50.0499C15.3973 50.315 15.3297 50.6031 15.3297 50.9142V51.6244C15.3297 52.041 15.4027 52.3954 15.5488 52.6876C15.6976 52.9798 15.9046 53.203 16.1697 53.3572C16.4348 53.5087 16.7446 53.5844 17.099 53.5844C17.3289 53.5844 17.5386 53.5519 17.728 53.487C17.9173 53.4194 18.081 53.3193 18.219 53.1867C18.3569 53.0542 18.4625 52.8905 18.5355 52.6957L19.6839 52.9027C19.5919 53.2408 19.4269 53.5371 19.1888 53.7914C18.9535 54.043 18.6572 54.2391 18.3001 54.3798C17.9457 54.5177 17.5413 54.5867 17.0868 54.5867ZM21.1073 54.4609V48.2278H22.28V49.218H22.345C22.4586 48.8825 22.6588 48.6187 22.9455 48.4267C23.235 48.2319 23.5624 48.1345 23.9276 48.1345C24.0033 48.1345 24.0926 48.1372 24.1954 48.1426C24.3009 48.148 24.3834 48.1548 24.443 48.1629V49.3235C24.3943 49.31 24.3077 49.2951 24.1832 49.2789C24.0588 49.2599 23.9343 49.2504 23.8099 49.2504C23.5231 49.2504 23.2675 49.3113 23.0429 49.4331C22.8211 49.5521 22.6453 49.7185 22.5154 49.9322C22.3855 50.1432 22.3206 50.384 22.3206 50.6545V54.4609H21.1073ZM25.493 54.4609V48.2278H26.7063V54.4609H25.493ZM26.1057 47.2661C25.8947 47.2661 25.7134 47.1957 25.5619 47.0551C25.4132 46.9117 25.3388 46.7412 25.3388 46.5438C25.3388 46.3436 25.4132 46.1731 25.5619 46.0324C25.7134 45.8891 25.8947 45.8174 26.1057 45.8174C26.3167 45.8174 26.4966 45.8891 26.6454 46.0324C26.7969 46.1731 26.8727 46.3436 26.8727 46.5438C26.8727 46.7412 26.7969 46.9117 26.6454 47.0551C26.4966 47.1957 26.3167 47.2661 26.1057 47.2661ZM31.3051 48.2278V49.2018H27.7827V48.2278H31.3051ZM28.7485 54.4609V47.5055C28.7485 47.1159 28.8337 46.7926 29.0042 46.5356C29.1746 46.2759 29.4005 46.0825 29.6818 45.9553C29.9632 45.8255 30.2689 45.7606 30.599 45.7606C30.8424 45.7606 31.0508 45.7808 31.2239 45.8214C31.397 45.8593 31.5255 45.8945 31.6094 45.9269L31.3253 46.909C31.2685 46.8927 31.1955 46.8738 31.1062 46.8522C31.0169 46.8278 30.9087 46.8156 30.7816 46.8156C30.4867 46.8156 30.2757 46.8887 30.1485 47.0348C30.0241 47.1809 29.9618 47.3919 29.9618 47.6678V54.4609H28.7485ZM32.5569 54.4609V48.2278H33.7703V54.4609H32.5569ZM33.1697 47.2661C32.9587 47.2661 32.7774 47.1957 32.6259 47.0551C32.4771 46.9117 32.4027 46.7412 32.4027 46.5438C32.4027 46.3436 32.4771 46.1731 32.6259 46.0324C32.7774 45.8891 32.9587 45.8174 33.1697 45.8174C33.3807 45.8174 33.5606 45.8891 33.7094 46.0324C33.8609 46.1731 33.9367 46.3436 33.9367 46.5438C33.9367 46.7412 33.8609 46.9117 33.7094 47.0551C33.5606 47.1957 33.3807 47.2661 33.1697 47.2661ZM38.089 54.5867C37.4749 54.5867 36.946 54.4555 36.5024 54.1931C36.0614 53.928 35.7205 53.556 35.4797 53.0772C35.2417 52.5956 35.1226 52.0315 35.1226 51.385C35.1226 50.7465 35.2417 50.1838 35.4797 49.6968C35.7205 49.2099 36.056 48.8298 36.4861 48.5565C36.919 48.2833 37.4249 48.1467 38.0038 48.1467C38.3555 48.1467 38.6964 48.2048 39.0264 48.3212C39.3565 48.4375 39.6527 48.6201 39.9151 48.869C40.1776 49.1179 40.3845 49.4412 40.536 49.8389C40.6875 50.2338 40.7633 50.714 40.7633 51.2795V51.7096H35.8084V50.8006H39.5743C39.5743 50.4814 39.5093 50.1987 39.3795 49.9525C39.2496 49.7036 39.067 49.5075 38.8317 49.3641C38.599 49.2207 38.3258 49.149 38.0119 49.149C37.6711 49.149 37.3735 49.2329 37.1192 49.4006C36.8676 49.5656 36.6728 49.782 36.5348 50.0499C36.3996 50.315 36.3319 50.6031 36.3319 50.9142V51.6244C36.3319 52.041 36.405 52.3954 36.5511 52.6876C36.6998 52.9798 36.9068 53.203 37.1719 53.3572C37.437 53.5087 37.7468 53.5844 38.1012 53.5844C38.3312 53.5844 38.5408 53.5519 38.7302 53.487C38.9196 53.4194 39.0833 53.3193 39.2212 53.1867C39.3592 53.0542 39.4647 52.8905 39.5377 52.6957L40.6862 52.9027C40.5942 53.2408 40.4292 53.5371 40.1911 53.7914C39.9557 54.043 39.6595 54.2391 39.3024 54.3798C38.948 54.5177 38.5435 54.5867 38.089 54.5867ZM44.4429 54.5827C43.9397 54.5827 43.4906 54.4542 43.0956 54.1972C42.7033 53.9375 42.3949 53.5682 42.1704 53.0893C41.9485 52.6078 41.8376 52.0302 41.8376 51.3566C41.8376 50.6829 41.9499 50.1067 42.1744 49.6278C42.4017 49.149 42.7128 48.7824 43.1078 48.5281C43.5028 48.2738 43.9505 48.1467 44.451 48.1467C44.8379 48.1467 45.149 48.2116 45.3843 48.3415C45.6224 48.4686 45.8064 48.6174 45.9362 48.7878C46.0688 48.9583 46.1716 49.1084 46.2446 49.2383H46.3177V46.1501H47.531V54.4609H46.3461V53.4911H46.2446C46.1716 53.6236 46.0661 53.7751 45.9281 53.9456C45.7928 54.116 45.6062 54.2648 45.3681 54.392C45.13 54.5191 44.8216 54.5827 44.4429 54.5827ZM44.7107 53.5479C45.0597 53.5479 45.3546 53.4559 45.5953 53.2719C45.8388 53.0853 46.0228 52.8269 46.1472 52.4969C46.2744 52.1668 46.338 51.7826 46.338 51.3444C46.338 50.9115 46.2757 50.5328 46.1513 50.2081C46.0269 49.8835 45.8442 49.6305 45.6035 49.4493C45.3627 49.268 45.0651 49.1774 44.7107 49.1774C44.3455 49.1774 44.0411 49.2721 43.7976 49.4615C43.5542 49.6508 43.3702 49.9092 43.2458 50.2365C43.124 50.5639 43.0631 50.9332 43.0631 51.3444C43.0631 51.761 43.1254 52.1357 43.2498 52.4685C43.3743 52.8012 43.5582 53.065 43.8017 53.2598C44.0479 53.4518 44.3509 53.5479 44.7107 53.5479Z" fill="black"/>
<defs>
<clipPath id="clip0_5_1556">
<rect width="24.2696" height="24.2696" fill="white" transform="translate(7.32422 5.19141)"/>
</clipPath>
</defs>
</svg>
