<svg width="21" height="20" viewBox="0 0 21 20" fill="none" xmlns="http://www.w3.org/2000/svg">
<path fill-rule="evenodd" clip-rule="evenodd" d="M7.20739 5.83234L5.95103 4.11912C5.86559 4.00261 5.70414 3.97292 5.58284 4.0514C3.93915 5.11497 3.48733 6.73963 4.14677 7.9373C4.86796 9.24711 5.98026 10.8534 7.68639 12.5596C9.39253 14.2657 10.9989 15.378 12.3087 16.0992C13.5063 16.7586 15.131 16.3068 16.1946 14.6631C16.2731 14.5418 16.2434 14.3804 16.1269 14.2949L14.4136 13.0386C14.1617 12.8538 13.8276 12.8255 13.5482 12.9652L12.8653 13.3067C12.2845 13.5971 11.4883 13.6991 10.7346 13.3114C10.2307 13.0521 9.45407 12.5595 8.57028 11.6757C7.68648 10.7919 7.19385 10.0153 6.93462 9.51139C6.54687 8.7577 6.6489 7.96151 6.9393 7.38069L7.28074 6.69782C7.42046 6.41838 7.39214 6.08427 7.20739 5.83234ZM4.67742 2.65212C2.56033 4.022 1.47053 6.53224 2.68678 8.74117C3.48055 10.1828 4.68625 11.9165 6.50788 13.7381C8.32951 15.5597 10.0632 16.7654 11.5048 17.5592C13.7137 18.7754 16.224 17.6856 17.5938 15.5685C18.1518 14.7062 17.9407 13.5583 17.1125 12.9509L15.3992 11.6946C14.6434 11.1403 13.6411 11.0554 12.8028 11.4745L12.1199 11.816C11.9222 11.9148 11.6936 11.9304 11.497 11.8293C11.139 11.6451 10.5044 11.2528 9.74879 10.4972C8.99312 9.74152 8.60086 9.10699 8.41665 8.74894C8.31555 8.5524 8.33118 8.32373 8.43002 8.12605L8.77146 7.44317C9.19061 6.60487 9.10566 5.60254 8.5514 4.84673L7.29504 3.13351C6.68763 2.30522 5.53978 2.09413 4.67742 2.65212Z" fill="white"/>
</svg>
