<svg width="43" height="43" viewBox="0 0 43 43" fill="none" xmlns="http://www.w3.org/2000/svg">
<circle cx="21.5" cy="21.5" r="21.5" fill="#F1F1F1"/>
<path d="M23.875 22C23.875 22.3708 23.765 22.7334 23.559 23.0417C23.353 23.35 23.0601 23.5904 22.7175 23.7323C22.3749 23.8742 21.9979 23.9113 21.6342 23.839C21.2705 23.7666 20.9364 23.588 20.6742 23.3258C20.412 23.0636 20.2334 22.7295 20.161 22.3658C20.0887 22.0021 20.1258 21.6251 20.2677 21.2825C20.4096 20.9399 20.65 20.647 20.9583 20.441C21.2666 20.235 21.6292 20.125 22 20.125C22.4973 20.125 22.9742 20.3225 23.3258 20.6742C23.6775 21.0258 23.875 21.5027 23.875 22ZM14.0313 20.125C13.6604 20.125 13.2979 20.235 12.9896 20.441C12.6812 20.647 12.4409 20.9399 12.299 21.2825C12.1571 21.6251 12.1199 22.0021 12.1923 22.3658C12.2646 22.7295 12.4432 23.0636 12.7054 23.3258C12.9676 23.588 13.3017 23.7666 13.6655 23.839C14.0292 23.9113 14.4062 23.8742 14.7488 23.7323C15.0914 23.5904 15.3842 23.35 15.5903 23.0417C15.7963 22.7334 15.9063 22.3708 15.9063 22C15.9063 21.5027 15.7087 21.0258 15.3571 20.6742C15.0054 20.3225 14.5285 20.125 14.0313 20.125ZM29.9688 20.125C29.5979 20.125 29.2354 20.235 28.9271 20.441C28.6187 20.647 28.3784 20.9399 28.2365 21.2825C28.0946 21.6251 28.0574 22.0021 28.1298 22.3658C28.2021 22.7295 28.3807 23.0636 28.6429 23.3258C28.9052 23.588 29.2392 23.7666 29.603 23.839C29.9667 23.9113 30.3437 23.8742 30.6863 23.7323C31.0289 23.5904 31.3217 23.35 31.5278 23.0417C31.7338 22.7334 31.8438 22.3708 31.8438 22C31.8438 21.5027 31.6462 21.0258 31.2946 20.6742C30.9429 20.3225 30.466 20.125 29.9688 20.125Z" fill="black"/>
</svg>
