<svg width="37" height="38" viewBox="0 0 37 38" fill="none" xmlns="http://www.w3.org/2000/svg">
<circle cx="18.7634" cy="18.8953" r="18.24" fill="#F1F1F1"/>
<g clip-path="url(#clip0_5_1691)">
<path fill-rule="evenodd" clip-rule="evenodd" d="M15.8922 18.4438C15.7471 18.2988 15.6656 18.102 15.6656 17.8969C15.6656 17.6917 15.7471 17.495 15.8922 17.3499L20.2686 12.9735C20.34 12.8996 20.4253 12.8407 20.5197 12.8001C20.6141 12.7596 20.7156 12.7382 20.8183 12.7373C20.9211 12.7364 21.0229 12.756 21.118 12.7949C21.2131 12.8338 21.2995 12.8913 21.3721 12.9639C21.4447 13.0365 21.5022 13.1229 21.5411 13.218C21.58 13.3131 21.5996 13.4149 21.5987 13.5177C21.5978 13.6204 21.5764 13.7219 21.5359 13.8163C21.4953 13.9107 21.4364 13.996 21.3625 14.0674L17.533 17.8969L21.3625 21.7264C21.5034 21.8723 21.5814 22.0677 21.5797 22.2705C21.5779 22.4734 21.4965 22.6674 21.3531 22.8109C21.2097 22.9543 21.0156 23.0357 20.8128 23.0374C20.6099 23.0392 20.4145 22.9612 20.2686 22.8203L15.8922 18.4438Z" fill="black"/>
</g>
<defs>
<clipPath id="clip0_5_1691">
<rect width="18.5654" height="18.5654" fill="white" transform="matrix(0 1 -1 0 28.0459 8.6123)"/>
</clipPath>
</defs>
</svg>
