<?xml version="1.0" standalone="no"?>
<!DOCTYPE svg PUBLIC "-//W3C//DTD SVG 20010904//EN"
 "http://www.w3.org/TR/2001/REC-SVG-20010904/DTD/svg10.dtd">
<svg version="1.0" xmlns="http://www.w3.org/2000/svg"
 width="87.000000pt" height="97.000000pt" viewBox="0 0 87.000000 97.000000"
 preserveAspectRatio="xMidYMid meet">

<g transform="translate(0.000000,97.000000) scale(0.100000,-0.100000)"
fill="#000000" stroke="none">
<path d="M278 707 c-100 -38 -168 -129 -176 -236 -8 -123 49 -227 154 -277 60
-29 176 -26 238 6 91 46 156 150 156 247 0 92 -69 201 -155 245 -51 27 -165
34 -217 15z m185 -40 c185 -78 195 -342 17 -432 -88 -44 -202 -29 -272 37 -95
90 -96 257 -2 346 60 57 182 80 257 49z"/>
<path d="M358 462 c-65 -65 -118 -123 -118 -130 0 -33 46 -1 153 108 107 108
129 141 94 140 -7 0 -65 -54 -129 -118z"/>
<path d="M264 546 c-11 -28 1 -51 28 -54 31 -4 48 29 28 53 -16 19 -49 19 -56
1z"/>
<path d="M424 392 c-19 -13 -23 -41 -8 -57 19 -19 29 -19 48 1 19 19 20 36 4
52 -14 14 -28 15 -44 4z"/>
</g>
</svg>
