<?xml version="1.0" encoding="utf-8"?>
<!-- Generator: Adobe Illustrator 27.5.0, SVG Export Plug-In . SVG Version: 6.00 Build 0)  -->
<svg version="1.1" id="Layer_1" xmlns="http://www.w3.org/2000/svg" xmlns:xlink="http://www.w3.org/1999/xlink" x="0px" y="0px"
	 viewBox="0 0 242.169 423.92" style="enable-background:new 0 0 242.169 423.92;" xml:space="preserve">
<g>
	<g>
		<path style="fill:#EFC494;" d="M38.072,195.164c-5.537,1.818-9.889,5.2-12.718,7.92c0,0-5.118,0.931-5.868-6.319
			c0,0-4.918,4.834-7.584-2.249c0,0-5-1.251-1.75-7.417c0,0-3.667-2.249-3.25-4.916c0.417-2.667,4.917-6.25,4.917-6.25
			s-0.667-4.25,0.917-5.75c1.582-1.5,6.75-1.334,14,2.166c0,0,1.5-0.666,7.166,3.084s8.584,7.333,8,11.25
			c-0.584,3.916-4.25,7.263-4.25,7.263L38.072,195.164z"/>
		<g>
			<g>
				<path style="fill:#8F523E;" d="M30.341,173.343c-0.54-0.285-1.104-0.525-1.68-0.663c-0.566-0.135-1.191-0.15-1.59,0.156
					c-0.212,0.127-0.345,0.354-0.449,0.591c-0.068,0.107-0.073,0.26-0.114,0.386c-0.01,0.051-0.046,0.165-0.036,0.165l-0.009,0.229
					c-0.041,0.33,0.054,0.553,0.09,0.799c0.104,0.257,0.166,0.527,0.318,0.774c0.244,0.509,0.584,0.992,0.936,1.456
					c0.361,0.463,0.762,0.9,1.171,1.331c0.822,0.855,1.737,1.653,2.657,2.388l0.394,0.314l-0.31,0.392
					c-0.28,0.355-0.561,0.781-0.793,1.205c-0.24,0.426-0.457,0.866-0.64,1.319c-0.104,0.222-0.161,0.459-0.244,0.688
					c-0.088,0.23-0.126,0.469-0.185,0.705c-0.069,0.235-0.103,0.474-0.134,0.715c-0.039,0.24-0.071,0.482-0.063,0.725
					c0.007,0.241-0.035,0.489,0.01,0.729l0.086,0.727l0.192,0.709c0.05,0.243,0.171,0.46,0.258,0.692
					c0.105,0.223,0.167,0.474,0.313,0.678l0.391,0.645c0.116,0.228,0.304,0.402,0.455,0.607l0.475,0.605l-0.576-0.512
					c-0.186-0.179-0.397-0.337-0.548-0.55l-0.491-0.61c-0.18-0.195-0.279-0.442-0.422-0.665c-0.13-0.23-0.281-0.453-0.354-0.71
					l-0.271-0.753l-0.16-0.787c-0.068-0.262-0.05-0.532-0.078-0.8c-0.028-0.27-0.016-0.537,0.005-0.805
					c0.014-0.269,0.028-0.539,0.084-0.801c0.053-0.263,0.088-0.532,0.171-0.786c0.079-0.255,0.135-0.52,0.237-0.767
					c0.182-0.502,0.386-0.998,0.647-1.463c0.255-0.475,0.528-0.913,0.876-1.365l0.084,0.706c-1.006-0.761-1.906-1.602-2.766-2.511
					c-0.43-0.453-0.826-0.941-1.195-1.454c-0.355-0.523-0.721-1.048-0.954-1.664c-0.144-0.289-0.205-0.627-0.297-0.944
					c-0.042-0.358-0.095-0.736-0.031-1.016l0.026-0.227c0.019-0.152,0.05-0.181,0.075-0.277c0.064-0.159,0.084-0.323,0.186-0.474
					c0.16-0.302,0.384-0.61,0.712-0.778c0.31-0.198,0.681-0.222,1.007-0.21c0.33,0.032,0.646,0.104,0.938,0.223
					C29.335,172.629,29.864,172.958,30.341,173.343z"/>
			</g>
			<g>
				<path style="fill:#8F523E;" d="M11.789,172.385c0,0,0.027,0.335,0.075,0.922c0.039,0.585,0.143,1.419,0.251,2.411
					c0.067,0.493,0.141,1.027,0.219,1.593c0.105,0.556,0.216,1.143,0.331,1.75c0.171,0.584,0.266,1.225,0.509,1.805
					c0.106,0.296,0.215,0.595,0.323,0.894l0.021,0.057c-0.043-0.086,0.007,0.007,0.005,0.002l0.065,0.107l0.13,0.215l0.129,0.215
					c0.047,0.051,0.095,0.084,0.139,0.128c0.298,0.373,0.873,0.663,1.414,0.745c0.554,0.108,1.145,0.057,1.66-0.138
					c0.532-0.166,0.967-0.5,1.311-0.869c0.144-0.206,0.321-0.39,0.398-0.623c0.052-0.111,0.103-0.219,0.152-0.326
					c0.038-0.111,0.052-0.229,0.078-0.341c0.059-0.225,0.096-0.445,0.08-0.663c-0.005-0.215,0.029-0.426-0.008-0.62
					c-0.084-0.383-0.099-0.743-0.212-1.01c-0.19-0.546-0.291-0.874-0.291-0.874s0.177,0.282,0.472,0.803
					c0.162,0.255,0.241,0.615,0.396,1.011c0.074,0.2,0.079,0.432,0.124,0.671c0.055,0.241,0.038,0.497,0.006,0.77
					c-0.015,0.135-0.018,0.277-0.046,0.416c-0.044,0.138-0.089,0.277-0.135,0.419c-0.069,0.298-0.263,0.549-0.429,0.827
					c-0.387,0.506-0.916,0.986-1.58,1.229c-0.644,0.271-1.392,0.407-2.137,0.27c-0.745-0.124-1.477-0.418-2.044-1.083
					c-0.069-0.078-0.146-0.159-0.206-0.236l-0.126-0.217l-0.125-0.217l-0.063-0.108l-0.058-0.106l-0.022-0.062
					c-0.113-0.33-0.226-0.658-0.34-0.984c-0.127-0.323-0.207-0.652-0.262-0.98c-0.065-0.325-0.13-0.647-0.193-0.963
					c-0.194-1.27-0.26-2.458-0.257-3.474C11.561,173.718,11.789,172.385,11.789,172.385z"/>
			</g>
			<g>
				<path style="fill:#8F523E;" d="M8.135,185.381c0,0,0.24,0.154,0.659,0.423c0.413,0.276,1.026,0.633,1.745,1.075
					c0.364,0.211,0.759,0.439,1.176,0.681c0.423,0.225,0.869,0.463,1.33,0.708c0.471,0.214,0.958,0.435,1.453,0.66
					c0.498,0.163,1.027,0.429,1.513,0.514c0.3,0.093,0.502,0.077,0.719,0.096c0.214-0.025,0.457-0.028,0.644-0.127
					c0.393-0.157,0.724-0.447,0.918-0.852c0.177-0.407,0.288-0.857,0.295-1.303c0.013-0.446-0.051-0.874-0.133-1.27
					c-0.109-0.389-0.218-0.748-0.356-1.056c-0.121-0.315-0.288-0.561-0.397-0.783c-0.273-0.415-0.428-0.651-0.428-0.651
					s0.217,0.181,0.583,0.534c0.152,0.198,0.376,0.419,0.568,0.72c0.21,0.292,0.404,0.648,0.578,1.063
					c0.069,0.214,0.142,0.438,0.217,0.669c0.039,0.241,0.103,0.49,0.114,0.755c0.045,0.527-0.014,1.11-0.238,1.686
					c-0.231,0.569-0.711,1.129-1.354,1.383c-0.314,0.156-0.652,0.182-0.991,0.217c-0.347-0.009-0.714-0.027-0.96-0.105
					c-0.63-0.136-1.118-0.408-1.673-0.603c-0.525-0.233-1.009-0.524-1.491-0.774c-0.926-0.564-1.747-1.147-2.413-1.692
					C8.883,186.252,8.135,185.381,8.135,185.381z"/>
			</g>
			<g>
				<path style="fill:#8F523E;" d="M10.135,193.484c0,0,0.694,0.458,1.807,0.738c0.276,0.069,0.58,0.125,0.9,0.154
					c0.318,0.04,0.657,0.035,1.003,0.018c0.347-0.007,0.699-0.086,1.057-0.147c0.357-0.082,0.714-0.181,1.062-0.324
					c0.343-0.107,0.721-0.304,1.003-0.431c0.158-0.103,0.359-0.199,0.483-0.292c0.113-0.104,0.253-0.166,0.351-0.294
					c0.451-0.441,0.672-1.017,0.699-1.57c0.035-0.549-0.054-1.038-0.134-1.374c-0.081-0.337-0.153-0.529-0.153-0.529
					s0.143,0.146,0.337,0.452c0.187,0.306,0.434,0.777,0.524,1.427c0.052,0.323,0.043,0.694-0.051,1.078
					c-0.101,0.38-0.278,0.781-0.568,1.105c-0.121,0.179-0.317,0.317-0.484,0.477c-0.174,0.15-0.325,0.228-0.496,0.341
					c-0.42,0.218-0.752,0.4-1.164,0.548c-0.398,0.149-0.813,0.253-1.226,0.335c-0.416,0.068-0.833,0.097-1.235,0.078
					c-0.4-0.006-0.789-0.069-1.142-0.165c-0.358-0.079-0.68-0.211-0.963-0.349c-0.572-0.271-0.981-0.602-1.239-0.851
					C10.247,193.656,10.135,193.484,10.135,193.484z"/>
			</g>
			<g>
				<path style="fill:#8F523E;" d="M18.105,193.23c0,0,0.437,0.012,1.019,0.284c0.289,0.136,0.621,0.331,0.918,0.65
					c0.152,0.148,0.289,0.35,0.407,0.562c0.089,0.24,0.183,0.485,0.179,0.766c0.026,0.274-0.089,0.536-0.168,0.772
					c-0.124,0.206-0.246,0.438-0.41,0.57c-0.157,0.145-0.306,0.302-0.471,0.388c-0.159,0.098-0.316,0.179-0.459,0.25
					c-0.138,0.083-0.286,0.108-0.407,0.149c-0.123,0.039-0.233,0.063-0.322,0.084c-0.181,0.04-0.285,0.053-0.285,0.053
					s0.066-0.088,0.187-0.226c0.115-0.141,0.302-0.312,0.494-0.527c0.093-0.112,0.19-0.231,0.301-0.343
					c0.116-0.111,0.173-0.262,0.278-0.381c0.119-0.12,0.117-0.275,0.207-0.395c0.021-0.131,0.09-0.256,0.056-0.381
					c0.019-0.124-0.03-0.254-0.061-0.388c-0.077-0.127-0.109-0.276-0.212-0.404c-0.163-0.271-0.381-0.518-0.568-0.737
					C18.378,193.528,18.105,193.23,18.105,193.23z"/>
			</g>
		</g>
		<path style="opacity:0.7;fill:#EFC494;" d="M41.902,186.682c0.584-3.917-2.334-7.5-8-11.25s-7.166-3.084-7.166-3.084
			c-7.25-3.5-12.418-3.666-14-2.166c-1.584,1.5-0.917,5.75-0.917,5.75s-4.5,3.583-4.917,6.25c-0.417,2.667,3.25,4.916,3.25,4.916
			c-3.25,6.167,1.75,7.417,1.75,7.417c2.666,7.083,7.584,2.249,7.584,2.249c0.75,7.25,5.868,6.319,5.868,6.319
			c2.829-2.721,7.181-6.102,12.718-7.92l-0.42-1.219C37.652,193.945,41.318,190.598,41.902,186.682z M7.236,182.398
			c0.375-1.909,3.083-5.716,3.416-2.091s3.792,3.916,6.042,4.875c2.25,0.958,1.792,3.791-2,3.25
			C10.902,187.89,6.779,184.722,7.236,182.398z M9.652,188.848c0.56-1.343,4.375,1.584,6.459,2.084
			c2.083,0.5,0.333,3.458-3.484,3.013C8.811,193.5,8.732,191.055,9.652,188.848z M18.055,197.265
			c-1.974,1.75-3.953,0.463-4.735-0.875c-0.833-1.425,2.042-0.083,3.68-0.896C18.637,194.681,20.027,195.515,18.055,197.265z
			 M17.72,178.075c0.267,3.773-3.65,7.773-5.233-0.977c-1.118-6.176,0.085-7.84,4.832-7.25c4.748,0.59,8.167,4.917,4.5,4.834
			C18.152,174.598,17.453,174.301,17.72,178.075z M31.402,196.348c-3.084,2.083-7.666,4.417-9.584,2.75
			c-1.916-1.667-1.594-10.87-0.449-14.166c3.301-9.5,6.867-4,6.469-1.437c-1.252,8.073,4.398,9.354,4.398,9.354
			c-6.25-5.833,1.916-11.75,1.916-11.75c-4.084-1.667-8.5-7.166-5.584-7.666c2.917-0.5,11.664,7.544,12.642,11.166
			C42.188,188.221,34.486,194.265,31.402,196.348z"/>
	</g>
	<g>
		<path style="fill:#144363;" d="M176.924,283.068c0.668,0.052,1.064,0.081,1.064,0.081c38.548,1.713,54.591-29.564,32.415-56.301
			c-23.916-28.834-60.166-25.584-60.166-25.584c-2.521,9.208-9.146,16.771-9.146,16.771s-6.563-8.938-8.875-8.75
			s-5.032,2.583-5.032,2.583c-0.845-2.23-5.78-3.208-6.478-2.708c-0.696,0.5-5.887,8.021-5.887,8.021l-12.166-12.333
			c-9.348,2.976-27.834,11.083-36.916,9.667c-9.084-1.416-17-8.917-17-8.917c-12.167,10-19.084,12.5-19.084,12.5
			c8,16.126,21.5,28.626,39.25,29.251s25.167-6.833,25.167-6.833s-9.833,46.5-9.917,84.708c0,0,0,13.625,0.875,26.75
			s4.25,38.875,6,39.75c11.581,5.791,32.209,0.293,32.541-0.873c0.334-1.166,0.168-5.167,0.168-11.833
			c0-17.667-0.668-23.501-0.838-24.835c-0.17-1.334,3.504-5.666,4.283-7.666c0.779-2-4.113-3-4.279-5.667
			c-0.166-2.667,5.167-30.833,6.167-32.833s4.166-0.5,5.166,2.833s7.334,24.667,6.5,28.167s-2.833,6.333-1.499,7.499
			c1.334,1.166,5.833,3.5,5.333,5.167c-0.903,3.013,0.667,6.5,1.5,12.833c0.833,6.333,1.833,23.667,2.958,25.208
			c0,0,4.163,5.01,16.75,4.375c14.875-0.75,16.875-4,16.875-5s-3.5-19.5-3.5-33.25s2.75-20.5,0.917-25.167
			c-1.833-4.667-4.5-4.833-2.5-7.5c2-2.667,1.333-8.833,1-16.166c-0.334-7.355-1.667-23.917-1.667-23.917
			c0.006,0,0.011,0,0.017,0.001C176.92,283.093,176.922,283.077,176.924,283.068z M187.277,241.349
			c3.617,7.071-2.354,10.831-11.359,12.829c-1.136-7.689-3.043-16.746-6.182-26.995
			C169.736,227.183,181.735,230.516,187.277,241.349z"/>
		<path style="fill:#E5B380;" d="M127.182,194.598c-2.66,0.138-5.076,0.446-7.307,0.849c2.093,3.396,5.166,9.131,7.308,16.421
			c4.438-7.075,6.101-13.564,6.723-17.555C130.029,194.238,127.182,194.598,127.182,194.598z"/>
		<path style="opacity:0.7;fill:#EFC494;" d="M127.182,194.598c-2.66,0.138-5.076,0.446-7.307,0.849
			c2.093,3.396,5.166,9.131,7.308,16.421c4.438-7.075,6.101-13.564,6.723-17.555C130.029,194.238,127.182,194.598,127.182,194.598z"
			/>
		<g>
			<path style="fill:#0F2533;" d="M127.183,211.868c0,0,0.069,1.04,0.189,2.86c0.099,1.821,0.281,4.421,0.428,7.543
				c0.142,3.123,0.352,6.764,0.497,10.669c0.148,3.904,0.305,8.068,0.462,12.233c0.112,4.166,0.225,8.332,0.33,12.238
				c0.109,3.905,0.133,7.554,0.192,10.68c0.057,3.126,0.042,5.732,0.061,7.557c-0.003,1.824-0.005,2.867-0.005,2.867
				s-0.069-1.04-0.19-2.86c-0.1-1.82-0.283-4.421-0.429-7.543c-0.142-3.123-0.355-6.764-0.497-10.668
				c-0.147-3.905-0.304-8.069-0.461-12.234c-0.112-4.166-0.225-8.332-0.329-12.238c-0.107-3.906-0.133-7.554-0.192-10.68
				c-0.056-3.126-0.042-5.732-0.06-7.557C127.181,212.911,127.183,211.868,127.183,211.868z"/>
		</g>
		<g>
			<path style="fill:#0F2533;" d="M101.402,215.515c0,0-0.241,0.619-0.622,1.71c-0.205,0.54-0.424,1.206-0.666,1.974
				c-0.234,0.771-0.543,1.623-0.82,2.573c-0.282,0.948-0.589,1.975-0.912,3.061c-0.338,1.081-0.59,2.254-0.932,3.441
				c-0.314,1.195-0.675,2.421-0.978,3.684c-0.303,1.262-0.61,2.544-0.918,3.826c-0.313,1.281-0.657,2.555-0.902,3.831
				c-0.275,1.27-0.546,2.519-0.808,3.727c-0.273,1.207-0.535,2.375-0.785,3.482c-0.215,1.114-0.419,2.168-0.606,3.141
				c-0.369,1.946-0.737,3.56-0.967,4.694c-0.251,1.132-0.394,1.778-0.394,1.778s0.073-0.657,0.202-1.809
				c0.149-1.147,0.323-2.794,0.604-4.761c0.138-0.983,0.286-2.05,0.443-3.177c0.189-1.122,0.403-2.304,0.64-3.522
				c0.236-1.22,0.481-2.48,0.728-3.761c0.235-1.283,0.567-2.566,0.874-3.857c0.32-1.286,0.642-2.572,0.957-3.838
				c0.308-1.268,0.725-2.487,1.066-3.682c0.362-1.189,0.689-2.345,1.082-3.416c0.382-1.073,0.742-2.089,1.075-3.026
				c0.315-0.942,0.702-1.772,1.004-2.521c0.307-0.747,0.582-1.395,0.834-1.919C101.082,216.094,101.402,215.515,101.402,215.515z"/>
		</g>
		<g>
			<path style="fill:#0F2533;" d="M164.277,216.786c0,0,0.205,0.191,0.521,0.566c0.322,0.372,0.759,0.918,1.254,1.599
				c0.464,0.697,1.025,1.507,1.518,2.434c0.245,0.464,0.512,0.938,0.76,1.431c0.258,0.487,0.458,1.011,0.692,1.52
				c0.215,0.518,0.431,1.034,0.643,1.543c0.19,0.517,0.342,1.039,0.507,1.536c0.154,0.501,0.304,0.985,0.445,1.445
				c0.155,0.454,0.215,0.91,0.309,1.318c0.174,0.821,0.275,1.515,0.366,1.993c0.081,0.48,0.113,0.758,0.113,0.758
				s-0.118-0.257-0.302-0.709c-0.174-0.456-0.449-1.097-0.727-1.876c-0.153-0.386-0.275-0.817-0.468-1.252
				c-0.18-0.439-0.368-0.9-0.564-1.379c-0.186-0.479-0.38-0.976-0.577-1.48c-0.218-0.494-0.439-0.997-0.661-1.499
				c-0.219-0.504-0.404-1.023-0.647-1.506c-0.239-0.484-0.451-0.973-0.669-1.441c-0.209-0.472-0.429-0.918-0.642-1.341
				c-0.207-0.426-0.403-0.829-0.584-1.201c-0.392-0.727-0.675-1.366-0.922-1.781C164.409,217.032,164.277,216.786,164.277,216.786z"
				/>
		</g>
		<path style="fill:#144F70;" d="M47.818,199.265c-1.916-3.833-2.541-5.423-3.826-5.315c-13.72,1.152-22.34,13.273-22.34,13.273
			s-1.25,2,1.5,7.625c2.75,5.626,6.5,3.25,6.5,3.25s6.917-2.5,19.084-12.5C49.652,204.015,49.735,203.098,47.818,199.265z"/>
		<g>
			<path style="fill:#0F2533;" d="M175.918,254.178c-1.706,0.364-3.415,0.705-5.125,1.045l-1.282,0.256
				c-0.429,0.081-0.852,0.186-1.288,0.229l-2.604,0.315l-2.607,0.308c-0.87,0.117-1.741,0.179-2.613,0.238l-2.616,0.19
				c-0.87,0.079-1.75,0.076-2.625,0.113l0.391-0.256c-0.117,0.4-0.247,0.794-0.288,1.26c-0.079,0.44-0.105,0.903-0.134,1.363
				c-0.058,0.92-0.072,1.852-0.057,2.785c0.014,1.865,0.12,3.735,0.252,5.603c0.128,1.868,0.28,3.736,0.469,5.6
				c0.192,1.862,0.418,3.725,0.733,5.556c0.07,0.463,0.181,0.903,0.274,1.351l0.094,0.302l0.047,0.152l0.023,0.075l0.003,0.01
				c-0.033-0.05,0.077,0.126-0.072-0.11l0.017,0.015l0.032,0.029c0.043,0.028,0.007-0.046-0.003-0.036l0.127,0.037
				c0.092,0.031,0.211,0.052,0.315,0.078c0.888,0.18,1.821,0.319,2.746,0.451c1.854,0.259,3.721,0.477,5.588,0.686l11.21,1.247
				c-1.88-0.068-3.758-0.172-5.636-0.278c-1.879-0.1-3.756-0.224-5.631-0.377c-1.876-0.148-3.751-0.304-5.628-0.502
				c-0.939-0.103-1.873-0.2-2.828-0.392c-0.124-0.03-0.237-0.047-0.37-0.088c-0.072-0.021-0.109-0.027-0.211-0.063
				c-0.114-0.042-0.271-0.141-0.319-0.186l-0.033-0.029l-0.017-0.014c-0.156-0.241-0.046-0.073-0.081-0.13l-0.004-0.012
				l-0.031-0.092l-0.06-0.184l-0.119-0.37c-0.106-0.471-0.227-0.942-0.304-1.409c-0.343-1.87-0.59-3.739-0.805-5.614
				c-0.201-1.876-0.405-3.752-0.514-5.636c-0.112-1.885-0.199-3.771-0.192-5.665c-0.006-0.947,0.02-1.896,0.09-2.85
				c0.036-0.478,0.066-0.954,0.157-1.44c0.047-0.476,0.201-0.979,0.368-1.476c0.052-0.155,0.195-0.254,0.35-0.256h0.042
				c1.73-0.024,3.467-0.109,5.204-0.176c0.869-0.03,1.737-0.063,2.6-0.15l2.595-0.219l2.599-0.213
				c0.435-0.018,0.865-0.1,1.297-0.157l1.294-0.187C172.462,254.654,174.188,254.404,175.918,254.178z"/>
		</g>
		<path style="opacity:0.5;fill:#144F70;" d="M47.818,199.265c-1.916-3.833-2.541-5.423-3.826-5.315
			c-13.72,1.152-22.34,13.273-22.34,13.273s-1.25,2,1.5,7.625c2.75,5.626,6.5,3.25,6.5,3.25s6.917-2.5,19.084-12.5
			C49.652,204.015,49.735,203.098,47.818,199.265z M43.527,207.723c-6,4.625-15.584,9.889-19.105,1.625
			c-1.678-3.939,11.98-13.053,16.98-13.901C46.402,194.598,49.527,203.098,43.527,207.723z"/>
		<path style="opacity:0.4;fill:#144363;" d="M176.924,283.068c0.668,0.052,1.064,0.081,1.064,0.081
			c38.548,1.713,54.591-29.564,32.415-56.301c-23.916-28.834-60.166-25.584-60.166-25.584c-2.521,9.208-9.146,16.771-9.146,16.771
			s-6.563-8.938-8.875-8.75s-5.032,2.583-5.032,2.583c-0.845-2.23-5.78-3.208-6.478-2.708c-0.696,0.5-5.887,8.021-5.887,8.021
			l-12.166-12.333c-9.348,2.976-27.834,11.083-36.916,9.667c-9.084-1.416-17-8.917-17-8.917c-12.167,10-19.084,12.5-19.084,12.5
			c8,16.126,21.5,28.626,39.25,29.251s25.167-6.833,25.167-6.833s-9.833,46.5-9.917,84.708c0,0,0,13.625,0.875,26.75
			s4.25,38.875,6,39.75c11.581,5.791,32.209,0.293,32.541-0.873c0.334-1.166,0.168-5.167,0.168-11.833
			c0-17.667-0.668-23.501-0.838-24.835c-0.17-1.334,3.504-5.666,4.283-7.666c0.779-2-4.113-3-4.279-5.667
			c-0.166-2.667,5.167-30.833,6.167-32.833s4.166-0.5,5.166,2.833s7.334,24.667,6.5,28.167s-2.833,6.333-1.499,7.499
			c1.334,1.166,5.833,3.5,5.333,5.167c-0.903,3.013,0.667,6.5,1.5,12.833c0.833,6.333,1.833,23.667,2.958,25.208
			c0,0,4.163,5.01,16.75,4.375c14.875-0.75,16.875-4,16.875-5s-3.5-19.5-3.5-33.25s2.75-20.5,0.917-25.167
			c-1.833-4.667-4.5-4.833-2.5-7.5c2-2.667,1.333-8.833,1-16.166c-0.334-7.355-1.667-23.917-1.667-23.917
			c0.006,0,0.011,0,0.017,0.001C176.92,283.093,176.922,283.077,176.924,283.068z M87.568,234.849
			c-14.146,12.483-36.314,6.511-47.426-7.229c-7.297-9.024,3.26-22.065,14.926-15.752c11.668,6.313,24.744,2.935,35-1.654
			C100.326,205.626,101.717,222.365,87.568,234.849z M103.152,216.786c3.625-7.313,7.75,2.438,11.141,4.438
			c2.558,1.51,4.244-9.306,8.109-6.751c3.865,2.555,5.25,13.876,5.25,13.876c0-14.626,5.064-18.988,9.942-12.833
			c4.879,6.155,4.558,9.708,8.745-1.042c4.188-10.75,12.813-5.5,19.421,10.383c6.608,15.883,0.392,28.117-12.858,27.742
			s-24.125,3-24.125,10.125c0,12.501-4.75,12.125-5.25,13.438s-1.625,13.521-20.375,9.822
			C84.402,282.285,96.722,229.758,103.152,216.786z M178.403,335.099c0.251,3.75-2.751,14.75-2.626,23.75s4.597,32.568-11.5,30.125
			c-16.097-2.443-17.208-30.624-15.375-29.791c1.833,0.833,4,1,4,1c-5.826-2.833-7.499-8.667-7.333-14.833c0.166-6.166,3.5-9,3.5-9
			c-6-1.5-6-13.333-12.667-26.667c-6.667-13.334-11.334-1.166-14.834,13.667c-3.5,14.833-7,15.167-7,15.167
			c12.834,1.167,4.653,28.833,2.153,24.5s-3.634-3.51-2.819-1.834c2.833,5.833,0.5,28.834-13.333,25.667
			c-13.833-3.167-15-43.667-14.202-61.501c1.38-30.879,3.535-27.498,27.869-26.832c24.333,0.666,31.999-1.333,44.166-4
			c12.167-2.667,16.656,3.564,15.75,23.082c-0.162,3.491-1.625,5.75,0.125,8.625S178.152,331.349,178.403,335.099z M167.841,257.099
			c15.686-2.875,22.436-2.938,23.061-11.906c0.625-8.969-9.457-18.844-13.979-21.469s-13.771-8.876-13.771-14.126
			c0-8.905,19.375-5.959,36.25,7.583c16.875,13.542,26.441,42.67-2.75,56.419C164.277,288.849,144.087,261.452,167.841,257.099z
			 M169.736,227.183c0,0,11.999,3.333,17.541,14.166c3.617,7.071-2.354,10.831-11.359,12.829
			C174.782,246.488,172.875,237.432,169.736,227.183z"/>
		<path style="opacity:0.4;fill:#144363;" d="M52.527,212.473c5.999,2.88,16.513,5.583,30,1.75c13.487-3.833,3,14.626-17.875,14.376
			S40.027,206.473,52.527,212.473z"/>
		<path style="opacity:0.4;fill:#144363;" d="M175.402,209.348c1.521-4.596,31.047,8.766,36.334,30.334
			c6.905,28.167-24.334,30.833-17.667,21c6.667-9.833,12.333-25.483,0-35.825C181.736,214.514,174.688,211.508,175.402,209.348z"/>
		<path style="opacity:0.4;fill:#144363;" d="M103.792,227.111c-4.264,8.388-7.821,31.74-3.526,45.544
			c4.293,13.803,18.117-0.06,19.478-13.65c0.307-3.068,2.454,6.893,3.681-3.226c1.227-10.117-0.189-41.065-5.534-31.13
			c-1.981,3.681-1.675,4.447-5.048-0.46C109.467,219.281,108.699,217.457,103.792,227.111z"/>
		<path style="opacity:0.4;fill:#144363;" d="M131.736,227.183c1.468-8.543,5.109-7.168,9.388-1.168c4.278,6,3.779-3.71,6.612-8.689
			c2.833-4.979,9.666,1.188,13.333,12.355c3.667,11.167-0.09,20.392-8.833,19.259c-10.299-1.334-15.013,4.075-18.331,2.241
			C131.946,250.098,129.903,237.851,131.736,227.183z"/>
		<path style="opacity:0.4;fill:#144363;" d="M106.402,380.224c-2.407,5.01-8.244,4.688-14-12.541
			c-3.781-11.319-4.93-38.287-2.166-51.333c3.691-17.434,22.137-19.517,22-3c-0.168,20.167-7.602,23.766-4.5,25.833
			c5.5,3.667,7,17.668,0.166,18.834C101.068,359.183,111.027,370.599,106.402,380.224z"/>
		<path style="opacity:0.4;fill:#144363;" d="M169.152,384.474c8.916-1.945,2.25-26.125,3.75-34.25s2.125-15.625,0-19
			s-5.75-2.375-4.667-6.042c1.836-6.218,3.834-19.333-6-23.833s-19.126,3.656-15.083,18.833
			c2.875,10.792,10.375,10.292,7.625,14.917s-6.797,16.893,5.45,25.625c0.759,0.541-4.991-0.125-4.991,7.375
			S161.318,386.183,169.152,384.474z"/>
		<g>
			<path style="fill:#144F70;" d="M101.402,203.432l1.25,1.416l12.166,12.333c0,0,5.19-7.521,5.887-8.021
				c0.697-0.5,5.633,0.478,6.478,2.708c-2.142-7.291-5.215-13.025-7.308-16.421C107.25,197.727,101.402,203.432,101.402,203.432z"/>
			<path style="opacity:0.3;fill:#144F70;" d="M119.875,195.447c-12.625,2.28-18.473,7.985-18.473,7.985l1.25,1.416l12.166,12.333
				c0,0,5.19-7.521,5.887-8.021c0.697-0.5,5.633,0.478,6.478,2.708C125.041,204.578,121.968,198.843,119.875,195.447z
				 M119.319,207.765c-1.083,2-3.75,6.417-4.5,6.25c-0.75-0.167-6.938-6.206-10.833-9.5c-2.648-2.239,1.207-3.208,4.25-2.099
				c5.104,1.862,10.791-0.36,13.375,1.098c2.583,1.458,3.453,5.251,3.453,5.251S120.402,205.765,119.319,207.765z"/>
		</g>
		<g>
			<path style="fill:#144F70;" d="M133.905,194.313c-0.622,3.991-2.284,10.48-6.723,17.555c0,0,2.72-2.395,5.032-2.583
				s8.875,8.75,8.875,8.75s6.625-7.563,9.146-16.771l0.5-2.333C146.193,195.304,139.117,194.414,133.905,194.313z"/>
			<path style="opacity:0.3;fill:#144F70;" d="M133.905,194.313c-0.622,3.991-2.284,10.48-6.723,17.555c0,0,2.72-2.395,5.032-2.583
				s8.875,8.75,8.875,8.75s6.625-7.563,9.146-16.771l0.5-2.333C146.193,195.304,139.117,194.414,133.905,194.313z M140.902,215.015
				c0,0-4.333-4.917-6-6.292c-1.667-1.375-5.292,0.917-4.938-0.5c0,0,1.354-3.083,1.896-4.5c0.542-1.416,4.25,0.876,12.25-1.541
				C152.11,199.765,144.902,210.224,140.902,215.015z"/>
		</g>
		<g>
			<path style="opacity:0.4;fill:#144363;" d="M123.006,230.734c-0.715-1.377-22.289-0.581-23.125,0.064
				c-1.889,1.461-1.445,6.153-0.098,6.448c-0.323,2.228-2.296,18.941,11.5,18.941c14.781,0,11.723-20.264,11.723-20.264
				C123.721,234.613,123.721,232.111,123.006,230.734z"/>
			<g>
				<g>
					<path style="fill:#2F6B91;" d="M122.141,236.121c0.683-1.251,0.683-3.64,0-4.953c-0.682-1.313-21.268-0.555-22.065,0.062
						c-1.804,1.393-1.38,5.872-0.093,6.153c0.002,0.001,4.076,1.866,11.239,1.866C118.387,239.249,121.851,236.858,122.141,236.121z
						"/>
					<path style="fill:#295E82;" d="M111.222,239.249c-7.163,0-11.237-1.865-11.239-1.866c-0.311,2.125-2.191,18.074,10.973,18.074
						c14.104,0,11.186-19.336,11.186-19.336C121.851,236.858,118.387,239.249,111.222,239.249z"/>
				</g>
				<path style="opacity:0.4;fill:#295E82;" d="M122.141,236.121c-0.29,0.737-3.754,3.128-10.919,3.128
					c-7.163,0-11.237-1.865-11.239-1.866c-0.311,2.125-2.191,18.074,10.973,18.074C125.059,255.457,122.141,236.121,122.141,236.121
					z M111.053,254.622c-10.471,0-11.035-12.359-9.954-14.065c1.081-1.706,4.448,0.17,9.175-0.113
					c6.813-0.409,7.356-1.364,9.1-0.531C121.117,240.746,121.523,254.622,111.053,254.622z"/>
				<path style="opacity:0.4;fill:#286384;" d="M122.141,231.168c-0.682-1.313-21.268-0.555-22.065,0.062
					c-1.804,1.393-1.38,5.872-0.093,6.153c0.002,0.001,4.076,1.866,11.239,1.866c7.165,0,10.629-2.391,10.919-3.128
					C122.823,234.87,122.823,232.481,122.141,231.168z M117.381,237.23c-4.917,1.054-13.906,0.541-16.188-0.313
					c-2.279-0.854-2.25-4.027-1.014-5.146c1.352-1.223,19.904-1.326,21.058-0.427C122.396,232.246,122.562,236.121,117.381,237.23z"
					/>
			</g>
		</g>
		<g>
			<path style="opacity:0.4;fill:#144363;" d="M162.663,229.359c-0.715-1.377-22.288-0.581-23.124,0.064
				c-1.89,1.461-1.445,6.153-0.099,6.448c-0.322,2.228-2.295,18.941,11.501,18.941c14.78,0,11.722-20.264,11.722-20.264
				C163.379,233.238,163.379,230.736,162.663,229.359z"/>
			<g>
				<g>
					<path style="fill:#2F6B91;" d="M161.798,234.746c0.684-1.251,0.684-3.64,0-4.953c-0.682-1.313-21.268-0.555-22.064,0.062
						c-1.804,1.393-1.38,5.872-0.094,6.153c0.002,0.001,4.076,1.866,11.24,1.866C158.045,237.874,161.509,235.483,161.798,234.746z"
						/>
					<path style="fill:#295E82;" d="M150.88,237.874c-7.164,0-11.238-1.865-11.24-1.866c-0.31,2.125-2.191,18.074,10.973,18.074
						c14.104,0,11.186-19.336,11.186-19.336C161.509,235.483,158.045,237.874,150.88,237.874z"/>
				</g>
				<path style="opacity:0.4;fill:#295E82;" d="M161.798,234.746c-0.289,0.737-3.753,3.128-10.918,3.128
					c-7.164,0-11.238-1.865-11.24-1.866c-0.31,2.125-2.191,18.074,10.973,18.074C164.717,254.082,161.798,234.746,161.798,234.746z
					 M150.71,253.247c-10.471,0-11.034-12.359-9.953-14.065c1.08-1.706,4.447,0.17,9.175-0.113c6.812-0.409,7.355-1.364,9.099-0.531
					C160.774,239.371,161.181,253.247,150.71,253.247z"/>
				<path style="opacity:0.4;fill:#286384;" d="M161.798,229.793c-0.682-1.313-21.268-0.555-22.064,0.062
					c-1.804,1.393-1.38,5.872-0.094,6.153c0.002,0.001,4.076,1.866,11.24,1.866c7.165,0,10.629-2.391,10.918-3.128
					C162.481,233.495,162.481,231.106,161.798,229.793z M157.039,235.855c-4.917,1.054-13.907,0.541-16.188-0.313
					c-2.28-0.854-2.251-4.027-1.014-5.146c1.351-1.223,19.903-1.326,21.058-0.427C162.055,230.871,162.22,234.746,157.039,235.855z"
					/>
			</g>
		</g>
		<g>
			<g>
				<path style="fill:#E5B380;" d="M156.569,280.849c-0.902-2.104-2.551-17.545-1.764-23.013c0,0-3.737-2.892-10.82-1.397
					c-7.083,1.494-12.254,5.604-11.083,9.411c1,3.25,6.917,0.833,6.917,0.833s-4.5,2.583-4.75,5.5c-0.25,2.917,3.416,2.5,3.416,2.5
					s-1.917,2.119-0.166,4.417c1.333,1.749,3.75,0.167,3.75,0.167s-2.333,2.75,1,5.583c3.333,2.833,5.607,2.243,6.179,1.413
					c0.917-1.333-0.179-3.163-0.179-3.163S153.902,285.015,156.569,280.849z"/>
				<g>
					<g>
						<path style="fill:#8F523E;" d="M137.224,268.623c0,0,0.238-0.446,0.734-0.982c0.487-0.546,1.226-1.182,2.049-1.694
							c0.424-0.236,0.831-0.499,1.262-0.66c0.423-0.173,0.81-0.344,1.174-0.418c0.716-0.178,1.21-0.207,1.21-0.207
							s-0.377,0.345-0.97,0.729c-0.299,0.187-0.625,0.447-0.997,0.672c-0.367,0.233-0.759,0.483-1.15,0.733
							c-0.405,0.226-0.783,0.497-1.173,0.701c-0.371,0.23-0.737,0.424-1.051,0.594C137.684,268.427,137.224,268.623,137.224,268.623
							z"/>
					</g>
					<g>
						<path style="fill:#8F523E;" d="M137.6,276.729c0,0-0.055-0.139-0.059-0.436c-0.002-0.147,0.038-0.309,0.075-0.509
							c0.024-0.209,0.129-0.399,0.227-0.625c0.099-0.225,0.206-0.477,0.384-0.685c0.163-0.222,0.334-0.462,0.527-0.696
							c0.407-0.435,0.896-0.843,1.379-1.254c0.529-0.336,1.057-0.675,1.568-0.96c0.505-0.297,1.03-0.462,1.464-0.633
							c0.876-0.326,1.488-0.458,1.488-0.458s-0.47,0.437-1.217,0.964c-0.363,0.28-0.83,0.536-1.276,0.879
							c-0.446,0.344-0.94,0.677-1.433,1.012c-0.236,0.176-0.457,0.367-0.684,0.547c-0.218,0.189-0.471,0.339-0.67,0.524
							c-0.186,0.194-0.382,0.369-0.567,0.541c-0.198,0.165-0.337,0.346-0.475,0.515c-0.129,0.171-0.292,0.315-0.363,0.473
							c-0.08,0.152-0.187,0.287-0.233,0.402C137.632,276.561,137.592,276.731,137.6,276.729z"/>
					</g>
					<g>
						<path style="fill:#8F523E;" d="M141.466,282.652c0,0-0.075-0.124-0.192-0.345c-0.109-0.212-0.247-0.589-0.278-1.041
							c-0.02-0.227-0.011-0.483,0.039-0.744c0.046-0.265,0.125-0.536,0.25-0.801c0.131-0.255,0.263-0.53,0.453-0.759
							c0.175-0.245,0.384-0.457,0.586-0.675c0.221-0.196,0.44-0.393,0.67-0.562c0.22-0.185,0.467-0.317,0.69-0.467
							c0.46-0.278,0.908-0.495,1.302-0.658c0.786-0.327,1.354-0.44,1.354-0.44s-0.411,0.411-1.06,0.934
							c-0.319,0.269-0.695,0.567-1.09,0.886c-0.387,0.326-0.804,0.658-1.172,1.025c-0.377,0.356-0.701,0.743-0.959,1.129
							c-0.117,0.199-0.231,0.391-0.309,0.589c-0.076,0.197-0.144,0.392-0.185,0.578c-0.079,0.381-0.105,0.699-0.101,0.956
							C141.472,282.508,141.466,282.652,141.466,282.652z"/>
					</g>
					<g>
						<path style="fill:#8F523E;" d="M147.152,280.308c0,0,0.389,0.2,0.848,0.623c0.464,0.417,1.003,1.052,1.406,1.791
							c0.191,0.374,0.363,0.768,0.463,1.164c0.096,0.398,0.145,0.793,0.085,1.14c-0.023,0.173-0.053,0.324-0.128,0.456
							c-0.063,0.129-0.106,0.237-0.191,0.305c-0.146,0.142-0.228,0.197-0.228,0.197s0.018-0.103,0.048-0.282
							c0.028-0.074-0.003-0.189-0.004-0.295c0.004-0.105-0.041-0.231-0.071-0.36c-0.021-0.126-0.098-0.268-0.142-0.412
							c-0.046-0.145-0.144-0.296-0.199-0.454c-0.159-0.312-0.321-0.651-0.513-0.985c-0.361-0.677-0.735-1.37-0.986-1.924
							C147.283,280.722,147.152,280.308,147.152,280.308z"/>
					</g>
				</g>
			</g>
			<g>
				<path style="fill:#EFC494;" d="M138.427,274.688c0.914-1.651,3.018-3.485,6.976-4.651c0,0-4.054,0.063-8.179,2
					c-2.768,1.3-0.922-2.379,2.233-5.131c-1.068,0.682-4.181,2.862-4.388,5.277C134.837,274.89,137.975,274.726,138.427,274.688z"/>
				<path style="fill:#EFC494;" d="M154.806,257.836c0,0-3.737-2.892-10.82-1.397c-7.083,1.494-12.254,5.604-11.083,9.411
					c0.898,2.916,5.739,1.274,6.729,0.905c1.511-1.282,3.301-2.333,5.023-2.531c0,0-2.501-1.188-6.314,0.438s-4.479,1-4.77,0
					c-1.267-4.336,9.538-9.078,16.109-7.813c5.127,0.987,5.164,21.036,0,21.25c-4.026,0.167-4.339,1.815-3.339,4.97
					c1,3.155-2.808,2.217-3.938,0.343c-1.13-1.874,0-5.25,4.25-7.563c0,0-3.055-0.75-6.215,1.938
					c-1.873,1.594-3.36-0.372-2.139-2.861c-0.435,0.615-1.381,2.336,0.021,4.175c1.333,1.749,3.75,0.167,3.75,0.167
					s-2.333,2.75,1,5.583c3.333,2.833,5.607,2.243,6.179,1.413c0.917-1.333-0.179-3.163-0.179-3.163s4.833,1.915,7.5-2.251
					C155.667,278.744,154.018,263.304,154.806,257.836z"/>
			</g>
		</g>
		<g>
			<path style="fill:#935C2E;" d="M172.402,289.184c7.587-2.431,7.667-8.001,2-6.167c-32.018,10.362-75.354,5.004-87.669,3.5
				c-6.831-0.834-9.882,5.686-0.856,7.926C94.902,296.683,133.902,301.519,172.402,289.184z"/>
			<path style="opacity:0.6;fill:#996230;" d="M174.402,283.017c-32.018,10.362-75.354,5.004-87.669,3.5
				c-6.831-0.834-9.882,5.686-0.856,7.926c9.025,2.24,48.025,7.076,86.525-5.259C179.989,286.753,180.069,281.183,174.402,283.017z
				 M112.027,296.224c-35.25-1.125-32.637-9.503-23.75-8.5c12.771,1.441,34.375,3.625,58.875,1.25S147.277,297.349,112.027,296.224z
				"/>
			<path style="opacity:0.4;fill:#996230;" d="M92.652,289.183c13.861,1.114,28.417,3.417,49.75,0.783
				c14.09-1.739-5.949,6.633-29.833,5.05C88.686,293.433,78.898,288.077,92.652,289.183z"/>
		</g>
		<rect x="125.277" y="278.516" style="fill:#144F70;" width="9.792" height="3.583"/>
		<g>
			<path style="fill:#144363;" d="M135.463,233.645c0,1.467-1.189,2.655-2.655,2.655s-2.656-1.189-2.656-2.655
				c0-1.468,1.189-2.656,2.656-2.656S135.463,232.177,135.463,233.645z"/>
			<path style="fill:#FDC322;" d="M135.213,233.574c0,1.367-1.108,2.476-2.476,2.476c-1.367,0-2.477-1.108-2.477-2.476
				c0-1.368,1.109-2.477,2.477-2.477C134.104,231.098,135.213,232.206,135.213,233.574z"/>
			<path style="fill:#F7AA11;" d="M134.417,233.574c0,0.928-0.752,1.68-1.68,1.68c-0.929,0-1.68-0.752-1.68-1.68
				c0-0.929,0.751-1.681,1.68-1.681C133.665,231.894,134.417,232.646,134.417,233.574z"/>
			<path style="fill:#144363;" d="M132.324,233.024c0,0.151-0.123,0.274-0.274,0.274c-0.151,0-0.274-0.123-0.274-0.274
				c0-0.152,0.123-0.275,0.274-0.275C132.201,232.749,132.324,232.872,132.324,233.024z"/>
			<path style="fill:#144363;" d="M133.614,233.024c0,0.151-0.123,0.274-0.274,0.274s-0.274-0.123-0.274-0.274
				c0-0.152,0.123-0.275,0.274-0.275S133.614,232.872,133.614,233.024z"/>
			<path style="fill:#144363;" d="M132.324,234.274c0,0.151-0.123,0.274-0.274,0.274c-0.151,0-0.274-0.123-0.274-0.274
				c0-0.152,0.123-0.275,0.274-0.275C132.201,233.999,132.324,234.122,132.324,234.274z"/>
			<path style="fill:#144363;" d="M133.614,234.274c0,0.151-0.123,0.274-0.274,0.274s-0.274-0.123-0.274-0.274
				c0-0.152,0.123-0.275,0.274-0.275S133.614,234.122,133.614,234.274z"/>
		</g>
		<g>
			<path style="fill:#144363;" d="M135.463,253.783c0,1.467-1.189,2.655-2.655,2.655s-2.656-1.189-2.656-2.655
				c0-1.468,1.189-2.656,2.656-2.656S135.463,252.315,135.463,253.783z"/>
			<path style="fill:#FDC322;" d="M135.213,253.713c0,1.367-1.108,2.476-2.476,2.476c-1.367,0-2.477-1.108-2.477-2.476
				c0-1.368,1.109-2.477,2.477-2.477C134.104,251.236,135.213,252.345,135.213,253.713z"/>
			<path style="fill:#F7AA11;" d="M134.417,253.713c0,0.928-0.752,1.68-1.68,1.68c-0.929,0-1.68-0.752-1.68-1.68
				c0-0.929,0.751-1.681,1.68-1.681C133.665,252.032,134.417,252.784,134.417,253.713z"/>
			<path style="fill:#144363;" d="M132.324,253.163c0,0.151-0.123,0.274-0.274,0.274c-0.151,0-0.274-0.123-0.274-0.274
				c0-0.152,0.123-0.275,0.274-0.275C132.201,252.888,132.324,253.011,132.324,253.163z"/>
			<path style="fill:#144363;" d="M133.614,253.163c0,0.151-0.123,0.274-0.274,0.274s-0.274-0.123-0.274-0.274
				c0-0.152,0.123-0.275,0.274-0.275S133.614,253.011,133.614,253.163z"/>
			<path style="fill:#144363;" d="M132.324,254.413c0,0.151-0.123,0.274-0.274,0.274c-0.151,0-0.274-0.123-0.274-0.274
				c0-0.152,0.123-0.275,0.274-0.275C132.201,254.138,132.324,254.261,132.324,254.413z"/>
			<path style="fill:#144363;" d="M133.614,254.413c0,0.151-0.123,0.274-0.274,0.274s-0.274-0.123-0.274-0.274
				c0-0.152,0.123-0.275,0.274-0.275S133.614,254.261,133.614,254.413z"/>
		</g>
	</g>
	<g>
		<g>
			<g>
				<path style="fill:#E5B380;" d="M29.652,139.848c-6.232,10.548,4.354,29.329,20.207,19.625
					c-3.891-7.917-6.58-16.514-8.118-25.417C37.898,133.403,33.057,134.087,29.652,139.848z"/>
				<g>
					<path style="fill:#9A5316;" d="M44.375,148.707c-1.01-3.475-3.729-10.233-8.459-7.883c-0.086,0.042-0.211,0.18-0.318,0.341
						c-1.43,0.972-2.037,2.338-2.434,4.057c-1.15,5.025,0.801,10.429,6.117,11.711c2.016,0.486,3.658-0.565,4.813-2.096
						C45.445,153.047,44.949,150.677,44.375,148.707z"/>
					<path style="fill:#854014;" d="M37.461,146.5c-0.004-1.819,0.406-4.935,3.014-4.089c0.506,0.164,0.979,0.401,1.424,0.682
						c1.199,1.774,2.018,4.032,2.477,5.615c0.574,1.97,1.07,4.34-0.281,6.13c-0.191,0.253-0.398,0.483-0.613,0.705
						c-0.836-0.367-1.609-0.866-2.082-1.254C39.24,152.516,37.469,149.345,37.461,146.5z"/>
				</g>
				<path style="opacity:0.7;fill:#EFC494;" d="M42.074,134.056c-3.842-0.653-8.684,0.031-12.088,5.792
					c-6.233,10.548,4.354,29.329,20.207,19.625C46.303,151.556,43.612,142.96,42.074,134.056z M37.795,139.348
					c-2.809-0.5-6.84,4.917-4.615,12.083c2.223,7.167-4.277,4.083-4.443-5.667c-0.096-5.605,6.25-12.333,10.083-10
					C42.652,138.098,40.604,139.848,37.795,139.348z"/>
			</g>
			<g>
				<path style="fill:#EFC494;" d="M217.467,85.98c7.291,72.347-18.93,113.94-90.326,116.368
					c-68.613,2.333-94.223-55.389-85.279-106.333C52.861,33.348,212.861,40.265,217.467,85.98z"/>
				<path style="opacity:0.7;fill:#EFC494;" d="M217.467,85.98C212.861,40.265,52.861,33.348,41.861,96.015
					c-8.943,50.944,16.666,108.666,85.279,106.333C198.537,199.92,224.758,158.327,217.467,85.98z M127.944,198.848
					c-86.643,0.41-73.667-70.5-69.917-63.56s4.25,10.561,5.584,4.396c1.691-7.824,4.333-24.466,60.977-27.804
					c77.892-4.589,70.022,26.801,72.356,19.656c2.334-7.145,5.467-12.522,7.467-2.463
					C206.411,139.133,210.989,198.456,127.944,198.848z"/>
				<path style="opacity:0.7;fill:#EFC494;" d="M101.402,178.075c0,0,36.924-4.622,44.499-18.893c0,0,7.241,16.773-11.996,24.313
					C114.293,191.182,101.402,178.075,101.402,178.075z"/>
				<g>
					<path style="fill:#FFFFFF;" d="M134.735,176.182c2.931-1.895,4.189-5.2,4.668-8.395c-9.175,6.352-21.654,9.013-29.323,10.096
						C115.043,179.989,124.845,182.576,134.735,176.182z"/>
					<path style="fill:#F29C99;" d="M125.855,183.574c1.671-0.264,3.408-0.657,5.213-1.226c4.088-1.288,7.062-3.037,9.23-4.968
						C132.448,177.46,127.904,181.248,125.855,183.574z"/>
					<path style="fill:#801628;" d="M145.652,162.173c-1.773,2.139-3.907,3.992-6.249,5.614c-0.479,3.195-1.737,6.501-4.668,8.395
						c-9.891,6.394-19.692,3.807-24.655,1.701c-4.174,0.589-6.928,0.716-6.928,0.716s8.949,7.148,22.703,4.976
						c2.049-2.326,6.593-6.114,14.443-6.194C147.653,170.831,145.652,162.173,145.652,162.173z"/>
				</g>
				<path style="fill:#774018;" d="M96.215,130.764c1,0.813,2.905-1.592,1.625-5.541c-0.75-2.313-9.25-5.5-14.875-5.125
					s-9.125,7.625-9.125,7.625S81.777,121.764,96.215,130.764z"/>
				<path style="fill:#774018;" d="M141.116,124.098c-1.159,1.57,1.036,5.5,2.286,4.917s17.584-9.583,25.417-4.083
					c0,0-3.167-9-9.417-9.667C153.415,114.627,143.7,120.598,141.116,124.098z"/>
				<g>
					<path style="opacity:0.78;fill:#D38E60;" d="M94.491,142.893c0,3.192-2.6,5.803-5.811,5.803c-3.211,0-5.801-2.61-5.801-5.803
						c0-3.21,2.59-5.811,5.801-5.811C91.892,137.083,94.491,139.683,94.491,142.893z"/>
					<path style="fill:#4E2D15;" d="M93.495,142.893c0,2.645-2.16,4.797-4.814,4.797c-2.656,0-4.807-2.151-4.807-4.797
						c0-2.653,2.15-4.814,4.807-4.814C91.335,138.079,93.495,140.24,93.495,142.893z"/>
					<path style="fill:#110909;" d="M91.411,142.929c0,1.552-1.262,2.813-2.822,2.813c-1.559,0-2.813-1.262-2.813-2.813
						c0-1.569,1.254-2.831,2.813-2.831C90.149,140.098,91.411,141.36,91.411,142.929z"/>
					<path style="fill:#F1F1F1;" d="M88.151,141.922c0,0.777-0.635,1.411-1.42,1.411c-0.775,0-1.412-0.634-1.412-1.411
						c0-0.793,0.637-1.428,1.412-1.428C87.517,140.495,88.151,141.129,88.151,141.922z"/>
					<path style="fill:#F1F1F1;" d="M92.384,145.186c0,0.432-0.361,0.776-0.793,0.776c-0.424,0-0.777-0.345-0.777-0.776
						c0-0.433,0.354-0.775,0.777-0.775C92.022,144.411,92.384,144.753,92.384,145.186z"/>
				</g>
				<g>
					<path style="opacity:0.78;fill:#D38E60;" d="M162.533,140.102c0,3.192-2.6,5.803-5.811,5.803c-3.211,0-5.801-2.61-5.801-5.803
						c0-3.21,2.59-5.811,5.801-5.811C159.934,134.292,162.533,136.892,162.533,140.102z"/>
					<path style="fill:#4E2D15;" d="M161.537,140.102c0,2.645-2.16,4.797-4.814,4.797c-2.656,0-4.807-2.151-4.807-4.797
						c0-2.653,2.15-4.814,4.807-4.814C159.377,135.288,161.537,137.449,161.537,140.102z"/>
					<path style="fill:#110909;" d="M159.453,140.138c0,1.552-1.262,2.813-2.822,2.813c-1.559,0-2.813-1.262-2.813-2.813
						c0-1.569,1.254-2.831,2.813-2.831C158.191,137.307,159.453,138.569,159.453,140.138z"/>
					<path style="fill:#F1F1F1;" d="M156.193,139.131c0,0.777-0.635,1.411-1.42,1.411c-0.775,0-1.412-0.634-1.412-1.411
						c0-0.793,0.637-1.428,1.412-1.428C155.559,137.704,156.193,138.338,156.193,139.131z"/>
					<path style="fill:#F1F1F1;" d="M160.426,142.395c0,0.432-0.361,0.776-0.793,0.776c-0.424,0-0.777-0.345-0.777-0.776
						c0-0.433,0.354-0.775,0.777-0.775C160.064,141.62,160.426,141.962,160.426,142.395z"/>
				</g>
				<path style="opacity:0.5;fill:#774018;" d="M97.84,125.223c-0.75-2.313-9.25-5.5-14.875-5.125s-9.125,7.625-9.125,7.625
					s7.938-5.959,22.375,3.041C97.215,131.576,99.12,129.171,97.84,125.223z M95.59,129.098c-2.25-1.688-9.674-6.925-17.563-4.16
					c-3.23,1.132-2.238-0.197,0-2.153c2.803-2.448,5.143-3.438,13.384-0.75S97.84,130.786,95.59,129.098z"/>
				<path style="opacity:0.5;fill:#774018;" d="M159.402,115.265c-5.987-0.639-15.702,5.333-18.286,8.833
					c-1.159,1.57,1.036,5.5,2.286,4.917s17.584-9.583,25.417-4.083C168.819,124.932,165.652,115.932,159.402,115.265z
					 M163.902,122.146c-2.188-0.36-8.938-0.735-16.188,3.015c-7.25,3.75-6.431-0.642-4.686-2.087
					c2.861-2.372,7.499-5.476,12.061-6.788s7.47-0.271,10.313,3.5C168.245,123.556,166.09,122.506,163.902,122.146z"/>
			</g>
			<g>
				<path style="fill:#E5B380;" d="M234.735,136.098c-3.522-11.562-11.892-10.957-17.112-9.251
					c-1.096,9.184-3.053,17.588-5.917,25.18C219.791,160.909,238.809,149.469,234.735,136.098z"/>
				<g>
					<path style="fill:#9A5316;" d="M217.438,146.002c1.154,1.531,2.797,2.582,4.813,2.096c5.316-1.283,7.268-6.686,6.117-11.712
						c-0.396-1.719-1.004-3.084-2.434-4.057c-0.107-0.161-0.232-0.299-0.318-0.341c-4.73-2.35-7.449,4.408-8.459,7.883
						C216.582,141.841,216.086,144.212,217.438,146.002z"/>
					<path style="fill:#854014;" d="M224.07,137.665c0.004-1.819-0.406-4.936-3.014-4.089c-0.506,0.164-0.979,0.401-1.424,0.682
						c-1.199,1.774-2.018,4.032-2.477,5.615c-0.574,1.97-1.07,4.34,0.281,6.13c0.191,0.253,0.398,0.483,0.613,0.705
						c0.836-0.367,1.609-0.866,2.082-1.254C222.291,143.681,224.063,140.509,224.07,137.665z"/>
				</g>
				<path style="opacity:0.7;fill:#EFC494;" d="M234.735,136.098c-3.522-11.562-11.892-10.957-17.112-9.251
					c-1.096,9.184-3.053,17.588-5.917,25.18C219.791,160.909,238.809,149.469,234.735,136.098z M229.736,142.952
					c1.083-7.104-0.531-12.816-7.107-12.104c-2.31,0.25-4.691-1.496-1.31-3.167c3.89-1.922,8.289-1.228,11.583,5.167
					C237.152,141.098,228.641,150.139,229.736,142.952z"/>
			</g>
			<g>
				<path style="fill:#774018;" d="M52.262,164.001c0,0-7.192-24.14,0-50.319c0,0,1.641,13.833,8.641,22
					c0,0,0.611-16.34,3.394-28.627c0,0,42.939-8.989,126.273-6.848c0,0,5.695,18.066,6.666,22.763
					c5.501-9.122,5.334-18.955,5.334-18.955s9.137,14.333,6.172,54.915c0,0,6.057-7.349,9.942-32.548
					c0,0,8.385-13.289,16.052-15.661c0,0-2.834-6.039-8.5-8.039c0,0,5-0.667,8.5-0.334c0,0-11.206-28.874-109.833-23.999
					c-87.666,4.333-97.5,37-97.5,37s0.684,0.575,6.75-0.917c0,0-3.833,3.083-4.916,8.666c0,0,3.5-0.083,10.948,11.317
					C42.537,138.015,44.469,152.723,52.262,164.001z"/>
				<path style="opacity:0.5;fill:#774018;" d="M226.235,102.682c0,0,5-0.667,8.5-0.334c0,0-11.206-28.874-109.833-23.999
					c-87.666,4.333-97.5,37-97.5,37s0.684,0.575,6.75-0.917c0,0-3.833,3.083-4.916,8.666c0,0,3.5-0.083,10.948,11.317
					c2.353,3.6,4.284,18.309,12.077,29.586c0,0-7.192-24.14,0-50.319c0,0,1.641,13.833,8.641,22c0,0,0.611-16.34,3.394-28.627
					c0,0,42.939-8.989,126.273-6.848c0,0,5.695,18.066,6.666,22.763c5.501-9.122,5.334-18.955,5.334-18.955
					s9.137,14.333,6.172,54.915c0,0,6.057-7.349,9.942-32.548c0,0,8.385-13.289,16.052-15.661
					C234.735,110.72,231.901,104.682,226.235,102.682z M61.819,114.182c-1.548,7.941-2.75,18-5.417,10s-3.083-14.584-4.416-12.334
					c-7.461,12.587-2.328,37.661-5.327,30.066c-2.444-6.191-3.257-24.066-3.423-15.982c-0.167,8.083,0.416,13-0.418,10.75
					c-4.86-13.122-10.916-15.334-10.916-15.334c1.5-5.438,5.938-9.688,5.938-9.688c-2.688,1.75-10.306,3.78-9.375,2.313
					c4.309-6.795,8.25-9.25,8.25-9.25c0.875,0.063,3.938,1.875,13.688,3.875S62.868,108.803,61.819,114.182z M231.527,110.72
					c-7.004,1.857-11.625,11.503-13.359,10.177c-1.734-1.326-2.766-10.924-2.641-0.83c0.125,10.095-1,18.03-2.625,22.816
					c-1.625,4.786-1,1.339-2.25-15.661s-9-29.063-8.75-23.813s-2.976,11.38-3.75,11.807c-1.938,1.068-2.866-3.683-3.875-10.745
					c-0.438-3.063,6.042-2.421,20.688-7.5c13.696-4.75,16.438,3.381,16.438,3.381c-7.375-1.119-13.5,3.119-13.5,3.119
					C230.027,102.723,233.402,110.223,231.527,110.72z"/>
				<path style="opacity:0.4;fill:#774018;" d="M35.402,107.178c-4.041,3.702-1.866,5.191,3.5,3.045c1.25-0.5-1.75,2-1.063,9.25
					s4.438,4.438,5.75-2.5c0,0,0.313,6.879,1.938,9.408c1.625,2.529,2.094-9.089,3.688-13.408c1.584-4.295-2.75-4.5-4.438-0.375
					s-0.615,1.06-1-2.313c-0.385-3.372-1.625-3.125-3.375-1.75S39.34,103.571,35.402,107.178z"/>
				<path style="opacity:0.4;fill:#774018;" d="M205.319,104.098c2.429,4.042,5.607,12.584,6.387,20.584s3.529-4.083,2.196-12.25
					c-1.333-8.167,2.584-0.125,3.417,3.271c0.833,3.396,3.643-2.993-0.334-10.938c-3.976-7.944-5.59-4.583-4.795-0.167
					c0.795,4.417-0.454-0.166-3.121-2.25C206.402,100.265,202.668,99.687,205.319,104.098z"/>
			</g>
			<path style="opacity:0.5;fill:#801628;" d="M145.652,162.173c-1.773,2.139-3.907,3.992-6.249,5.614
				c-0.479,3.195-1.737,6.501-4.668,8.395c-9.891,6.394-19.692,3.807-24.655,1.701c-4.174,0.589-6.928,0.716-6.928,0.716
				s8.949,7.148,22.703,4.976c2.049-2.326,6.593-6.114,14.443-6.194C147.653,170.831,145.652,162.173,145.652,162.173z
				 M120.652,183.223c-5.697,0.245-11.125-4-11.125-4s11.98,3.5,19.865,0C129.393,179.223,126.35,182.978,120.652,183.223z
				 M133.077,177.598c0,0,6.981-2.265,7.888-10.125C140.965,167.473,145.939,176.598,133.077,177.598z"/>
		</g>
		<g>
			<g>
				<path style="fill:#FFD527;" d="M221.902,87.015c0,0-8.25-82.167-91.333-80.333C41.469,8.648,38.902,96.015,38.902,96.015
					s23.894-12.348,88.28-15.007C191.569,78.348,221.902,87.015,221.902,87.015z"/>
				<path style="fill:#FFE529;" d="M130.569,6.682C41.469,8.648,38.902,96.015,38.902,96.015s23.894-12.348,88.28-15.007
					c64.387-2.66,94.72,6.007,94.72,6.007S213.652,4.848,130.569,6.682z M164.402,56.848c-11.75-26.25-7.75-35.5-41.75-32.75
					s-32.918,14.914-38.75,38.25c-5.832,23.336-42.727,32.681-37.5,9.5c10.334-45.833,53.042-61.497,76.25-63
					c49.82-3.225,80.196,25.536,89.054,48C220.563,79.312,176.152,83.098,164.402,56.848z"/>
				<path style="fill:#FFE529;" d="M98.268,32.015c-5.865,10.833-11.134,37.333-11.134,52.34
					c11.112-1.478,24.378-2.699,40.049-3.347c12.689-0.524,24.035-0.604,34.108-0.401c-2.112-33.947-15.555-52.258-15.555-52.258
					C120.569,23.848,98.268,32.015,98.268,32.015z"/>
				<g>
					<path style="fill:none;" d="M229.736,89.848c0,0-0.646,0.466-2.15,1.259C229.349,90.309,229.736,89.848,229.736,89.848z"/>
					<path style="fill:#FFE029;" d="M127.183,81.008c-64.387,2.66-88.28,15.007-88.28,15.007l-7,3.667c0,0,30.5,11.039,92.84,6.326
						c75.32-5.694,96.906-12.213,102.844-14.9c1.504-0.793,2.15-1.259,2.15-1.259l-7.834-2.833
						C221.902,87.015,191.569,78.348,127.183,81.008z"/>
					<path style="fill:#EDA506;" d="M31.902,99.682c0,0,8.334,14.713,92.311,10.166c69.538-3.765,96.209-14.966,103.373-18.741
						c-5.938,2.687-27.523,9.206-102.844,14.9C62.402,110.72,31.902,99.682,31.902,99.682z"/>
				</g>
			</g>
			<path style="fill:#FFE029;" d="M221.902,87.015c0,0-30.333-8.667-94.72-6.007c-64.387,2.66-88.28,15.007-88.28,15.007l-7,3.667
				c0,0,30.5,11.039,92.84,6.326c75.32-5.694,96.906-12.213,102.844-14.9c1.504-0.793,2.15-1.259,2.15-1.259L221.902,87.015z
				 M39.768,97.348c0,0,72.885-29.25,182.135-8.75C221.902,88.598,108.384,111.848,39.768,97.348z"/>
			<path style="fill:#FFE529;" d="M145.736,28.348c-25.167-4.5-47.469,3.667-47.469,3.667c-5.865,10.833-11.134,37.333-11.134,52.34
				c11.112-1.478,24.378-2.699,40.049-3.347c12.689-0.524,24.035-0.604,34.108-0.401C159.179,46.66,145.736,28.348,145.736,28.348z
				 M124.213,78.384c-42.451,3.571-29.879-42.297-24.977-45.202c3.744-2.22,29.781-7.667,43.499-3.667
				C144.76,30.105,166.236,74.848,124.213,78.384z"/>
			<path style="opacity:0.6;fill:#FFE529;" d="M51.402,63.598c4.6-10.352,21.309-49.75,75.779-53.5s79.971,44,80.721,48.5
				s-23.439-39.75-80.72-39.75S48.49,70.153,51.402,63.598z"/>
			<path style="opacity:0.5;fill:#FFE529;" d="M55.236,96.015c0,0,72.999-4,144.666-8.333
				C199.902,87.682,124.569,108.015,55.236,96.015z"/>
			<path style="opacity:0.5;fill:#FFE529;" d="M95.568,54.682c0,0,1.168-12.334,3.834-18.667c2.666-6.333,40.501-8,43.167-3.833
				s5.5,18.5,5.5,18.5s-5.125-16.096-27.167-14.667S95.568,54.682,95.568,54.682z"/>
		</g>
		<path style="fill:#D8D8D8;" d="M110.08,177.882c4.963,2.106,14.765,4.693,24.655-1.701c2.931-1.895,4.189-5.2,4.668-8.395
			C130.229,174.138,117.749,176.799,110.08,177.882z M127.965,178.536c-9.188,3-16.544-0.249-12.438-1.156
			c6.41-1.415,15.958-3.906,19.5-6.469C138.569,168.347,137.152,175.536,127.965,178.536z"/>
		<path style="fill:#F29C99;" d="M125.855,183.574c1.671-0.264,3.408-0.657,5.213-1.226c4.088-1.288,7.062-3.037,9.23-4.968
			C132.448,177.46,127.904,181.248,125.855,183.574z M127.309,182.754c-0.941-0.035,4.742-4.447,10.875-4.875
			C139.527,177.786,129.393,182.832,127.309,182.754z"/>
	</g>
	<g>
		<path style="fill:#F7B614;" d="M88.027,413.474c17.125-0.125,16.813-3.688,18-3.375s13.021-1.69,13.164-3.185
			c0,0,0.349-2.607,0.176-5.398c-0.173-2.791-0.89-8.843-0.89-8.843c-6.372,1.509-17.416,2.85-25.424-0.08
			c0,0-1.984,4.922-10.817,7.089c-8.834,2.167-14,1.667-13.667,11C68.569,410.682,70.902,413.599,88.027,413.474z"/>
		<path style="fill:#FFD527;" d="M106.027,410.099c-1.188-0.313-0.875,3.25-18,3.375s-19.458-2.792-19.458-2.792
			s-1.417,3.75,2.333,4.584s22.5,1.75,28.167,1s6.083-4.749,6.917-4.416c0.833,0.333,0.833,1.666,7.333,0.333
			s6.288-3.019,5.872-5.269C119.049,408.408,107.215,410.411,106.027,410.099z"/>
		<path style="fill:#F7B614;" d="M119.367,401.516c-0.173-2.791-0.89-8.843-0.89-8.843c-6.372,1.509-17.416,2.85-25.424-0.08
			c0,0-1.984,4.922-10.817,7.089c-8.834,2.167-14,1.667-13.667,11c0,0,2.333,2.917,19.458,2.792s16.813-3.688,18-3.375
			s13.021-1.69,13.164-3.185C119.191,406.914,119.54,404.307,119.367,401.516z M108.402,406.914
			c-8.334,1.018-14.583,4.694-26.666,4.814c-12.084,0.12-12.436-1.406-12.334-3.213c0.313-5.494,3.334-6.25,10.084-7.417
			s10.749-3.834,12.332-5.667c1.584-1.833,3.751,1.25,14.418,0.5C116.902,395.182,116.736,405.897,108.402,406.914z"/>
		<path style="opacity:0.4;fill:#F7B614;" d="M100.84,397.286c-5.874-0.165-8.313-1.375-9.938,0s-2.938,2.813-10.5,4.375
			s-9.588,2.603-10.125,5.253c-0.877,4.327,19.092,4.012,25.75-0.94C103.59,400.349,101.223,397.297,100.84,397.286z"/>
	</g>
	<g>
		<g>
			<path style="fill:#FFD527;" d="M191.34,413.911c-14.75-0.188-21.188-2.125-22.75-4.063c-1.563-1.938-2.188-0.063-5.063-0.75
				c-5.721-1.368-9.438-3.688-9.438-3.688s-1.5,2.813,1.688,4.5c3.188,1.688,8.5,2.938,9.313,2.5s1.938-1.563,2.75,0.375
				s5.938,3.125,14.563,4.063s18.313,0.25,23.813-1.5s4.438-5.5,4.438-5.5S206.09,414.099,191.34,413.911z"/>
			<path style="fill:#F7B614;" d="M168.59,409.849c1.563,1.938,8,3.875,22.75,4.063s19.313-4.063,19.313-4.063
				s1.313-8.188-5.063-9.313s-20.406-2.375-25.797-8.844c-2.359,1.031-6.578,2.031-14.016,2.406
				c-5.488,0.276-9.375-0.52-12.014-1.506c0,0-0.299,10.256,0.326,12.818c0,0,3.717,2.319,9.438,3.688
				C166.402,409.786,167.027,407.911,168.59,409.849z"/>
		</g>
		<path style="opacity:0.4;fill:#F7B614;" d="M174.773,398.425c1.879-3.764,5.931-3.504,7.815-2.254
			c1.885,1.251,6.033,3.558,14.155,4.229c8.122,0.672,10.38,1.514,11.296,4.264c1.495,4.492-19.441,6.776-27.069,2.379
			C172.305,402.046,174.594,398.785,174.773,398.425z"/>
		<path style="fill:#F7B614;" d="M205.59,400.536c-6.375-1.125-20.406-2.375-25.797-8.844c-2.359,1.031-6.578,2.031-14.016,2.406
			c-5.488,0.276-9.375-0.52-12.014-1.506c0,0-0.299,10.256,0.326,12.818c0,0,3.717,2.319,9.438,3.688
			c2.875,0.688,3.5-1.188,5.063,0.75c1.563,1.938,8,3.875,22.75,4.063s19.313-4.063,19.313-4.063S211.965,401.661,205.59,400.536z
			 M178.902,408.683c-10.833-3.333-9.834-4.876-13.167-3.271c-3.333,1.604-6.35-3.311-5.508-7.061
			c0.842-3.75,18.248-5.562,21.592-3.584c3.961,2.343,7.463,3.929,16.833,5.334s10.499,2.499,11.083,5.916
			C210.319,409.433,195.628,413.829,178.902,408.683z"/>
	</g>
	<g>
		<g>
			<path style="fill:#825027;" d="M87.559,303.036c-7.537-1.188-7.622-2.892-7.622-2.892l0,0l-2.409,22.329
				c5,2.5,17.125,2.875,17.125,2.875l2.219-23.247C96.871,302.103,95.089,304.224,87.559,303.036z"/>
			<path style="fill:#996230;" d="M80.777,292.349l-0.841,7.796l0,0c0,0,0.085,1.703,7.622,2.892
				c7.53,1.188,9.313-0.934,9.313-0.935l0.719-7.524C88.031,293.503,80.777,292.349,80.777,292.349z"/>
		</g>
		<g>
			<path style="fill:#935C2E;" d="M107.965,304.786c8.5,0.25,9.277-1.389,9.277-1.389l0,0l0.41-7.174
				c-6.766-0.294-13.893-0.954-20.063-1.646l-0.719,7.524l0,0C96.871,302.102,99.465,304.536,107.965,304.786z"/>
			<path style="fill:#774724;" d="M117.242,303.397c0,0-0.777,1.639-9.277,1.389s-11.094-2.685-11.094-2.685l0,0l-2.219,23.247
				c11.375,3.25,21.25,1.5,21.25,1.5L117.242,303.397L117.242,303.397z"/>
		</g>
		<g>
			<path style="fill:#825027;" d="M91.419,298.911c0,1.467-1.189,2.655-2.655,2.655c-1.467,0-2.656-1.189-2.656-2.655
				c0-1.468,1.189-2.656,2.656-2.656C90.23,296.255,91.419,297.443,91.419,298.911z"/>
			<path style="fill:#FDC322;" d="M91.169,298.841c0,1.367-1.108,2.476-2.476,2.476c-1.367,0-2.476-1.108-2.476-2.476
				c0-1.368,1.109-2.477,2.476-2.477C90.061,296.364,91.169,297.473,91.169,298.841z"/>
			<path style="fill:#F7AA11;" d="M90.373,298.841c0,0.928-0.752,1.68-1.68,1.68c-0.929,0-1.68-0.752-1.68-1.68
				c0-0.929,0.751-1.681,1.68-1.681C89.621,297.16,90.373,297.912,90.373,298.841z"/>
			<path style="fill:#996230;" d="M88.28,298.291c0,0.151-0.123,0.274-0.274,0.274c-0.151,0-0.274-0.123-0.274-0.274
				c0-0.152,0.123-0.275,0.274-0.275C88.157,298.016,88.28,298.139,88.28,298.291z"/>
			<path style="fill:#996230;" d="M89.57,298.291c0,0.151-0.123,0.274-0.274,0.274c-0.151,0-0.275-0.123-0.275-0.274
				c0-0.152,0.123-0.275,0.275-0.275C89.447,298.016,89.57,298.139,89.57,298.291z"/>
			<path style="fill:#996230;" d="M88.28,299.541c0,0.151-0.123,0.274-0.274,0.274c-0.151,0-0.274-0.123-0.274-0.274
				c0-0.152,0.123-0.275,0.274-0.275C88.157,299.266,88.28,299.389,88.28,299.541z"/>
			<path style="fill:#996230;" d="M89.57,299.541c0,0.151-0.123,0.274-0.274,0.274c-0.151,0-0.275-0.123-0.275-0.274
				c0-0.152,0.123-0.275,0.275-0.275C89.447,299.266,89.57,299.389,89.57,299.541z"/>
		</g>
		<g>
			<path style="fill:#825027;" d="M109.359,300.145c0,1.467-1.189,2.655-2.656,2.655c-1.467,0-2.656-1.189-2.656-2.655
				c0-1.468,1.189-2.656,2.656-2.656C108.17,297.488,109.359,298.677,109.359,300.145z"/>
			<path style="fill:#FDC322;" d="M109.109,300.074c0,1.367-1.109,2.476-2.477,2.476c-1.367,0-2.477-1.108-2.477-2.476
				c0-1.368,1.109-2.476,2.477-2.476C108,297.598,109.109,298.706,109.109,300.074z"/>
			<path style="fill:#F7AA11;" d="M108.313,300.074c0,0.928-0.752,1.68-1.68,1.68c-0.928,0-1.68-0.752-1.68-1.68
				c0-0.929,0.752-1.681,1.68-1.681C107.561,298.394,108.313,299.146,108.313,300.074z"/>
			<path style="fill:#996230;" d="M106.221,299.524c0,0.151-0.123,0.274-0.275,0.274c-0.15,0-0.273-0.123-0.273-0.274
				c0-0.152,0.123-0.275,0.273-0.275C106.098,299.249,106.221,299.372,106.221,299.524z"/>
			<path style="fill:#996230;" d="M107.51,299.524c0,0.151-0.123,0.274-0.273,0.274c-0.152,0-0.275-0.123-0.275-0.274
				c0-0.152,0.123-0.275,0.275-0.275C107.387,299.249,107.51,299.372,107.51,299.524z"/>
			<path style="fill:#996230;" d="M106.221,300.774c0,0.151-0.123,0.274-0.275,0.274c-0.15,0-0.273-0.123-0.273-0.274
				c0-0.152,0.123-0.275,0.273-0.275C106.098,300.499,106.221,300.622,106.221,300.774z"/>
			<path style="fill:#996230;" d="M107.51,300.774c0,0.151-0.123,0.274-0.273,0.274c-0.152,0-0.275-0.123-0.275-0.274
				c0-0.152,0.123-0.275,0.275-0.275C107.387,300.499,107.51,300.622,107.51,300.774z"/>
		</g>
		<path style="fill:#935C2E;" d="M78.215,321.849c0,0,1.033-18.563,9.517-17.875s6.108,20.375,6.108,20.375
			S84.527,324.724,78.215,321.849z"/>
		<path style="fill:#935C2E;" d="M95.527,324.364c0,0-0.102-19.453,11.105-18.641c11.207,0.813,8.02,19.625,8.02,19.625
			S106.152,328.755,95.527,324.364z"/>
		<path style="opacity:0.6;fill:#996230;" d="M80.777,292.349l-0.841,7.796c0,0,0.085,1.703,7.622,2.892
			c7.53,1.188,9.313-0.934,9.313-0.935l0.719-7.524C88.031,293.503,80.777,292.349,80.777,292.349z M88.006,302.55
			c-8.813-0.983-6.791-9.701-6.791-9.701l15.656,1.958C96.871,294.807,96.521,303.5,88.006,302.55z"/>
		<path style="opacity:0.6;fill:#996230;" d="M97.59,294.577l-0.719,7.524c0,0,2.594,2.435,11.094,2.685s9.277-1.389,9.277-1.389
			l0.41-7.174C110.887,295.93,103.76,295.27,97.59,294.577z M106.221,304.349c-9.35-0.709-7.943-9.375-7.943-9.375l18.792,1.792
			C117.069,296.766,117.353,305.193,106.221,304.349z"/>
		<path style="opacity:0.4;fill:#996230;" d="M86.18,305.286c0,0-9.4,13.478,6.223,17.75c0,0-12.146,3.132-12.466-6.125
			C79.652,308.661,86.18,305.286,86.18,305.286z"/>
		<path style="opacity:0.4;fill:#996230;" d="M104.047,307.599c0,0-7.957,13.219,9.105,16.766c0,0-11.938,2.609-14.938-4.391
			S104.047,307.599,104.047,307.599z"/>
	</g>
	<g>
		<g>
			<path style="fill:#AD0000;" d="M212.74,301.566c-1.54-11.204-8.442-23.681-8.442-23.681l-3.813,1.805
				c0,0,9.167,18.158,6.167,18.6s-13.75-14.816-18.625-31.648s2.969-16.543,2.969-16.543s-0.375-2.219-2.313-2.688
				c-1.938-0.469-3.156,0.5-3.156,0.5c-2.243,1.408-8.292,8.939,1.852,35.234c10.143,26.296,20.773,28.203,20.773,28.203
				S214.277,312.747,212.74,301.566z"/>
			<path style="fill:#8E0000;" d="M181.684,283.212c-8.218-31.137-1.22-36.207-1.22-36.207c-3.354-1.719-5.112,2.269-5.112,2.269
				s-5.196,11.098,3.883,40.692c8.604,28.049,19.854,33.508,19.854,33.508c3.688,2.75,5.125,0.313,5.125,0.313
				C200.027,321.891,189.902,314.349,181.684,283.212z"/>
			<path style="fill:#9E0000;" d="M199.09,323.474c0,0-11.25-5.459-19.854-33.508c-9.079-29.595-3.883-40.692-3.883-40.692
				c-3.864-3.484-6.825,1.854-6.825,1.854c-1.042,4.445-3.791,15.388,4.042,41.222c7.833,25.834,16.583,34.25,16.583,34.25
				c1.188,1.063,4.875,3.313,7.875,1.563S199.09,323.474,199.09,323.474z"/>
			<path style="fill:#8E0000;" d="M167.841,294.577c-5.27-19.601-5.424-29.605-5.53-32.629c-0.891,7.285-1.225,19.141,3.45,38.826
				c6.571,27.671,17.954,25.834,17.954,25.834S175.216,322.012,167.841,294.577z"/>
			<path style="fill:#9B0000;" d="M174.735,355.1c-2.964,2.167-4.833,1.316-4.833,1.316c-10.667-30.933-7.855-78.259-7.855-78.259
				c0.46,6.078,1.551,13.51,3.714,22.617c0.753,3.168,1.568,5.949,2.423,8.391C168.184,309.165,169.217,338.107,174.735,355.1z"/>
			<path style="fill:#AD0000;" d="M172.569,292.349c-7.833-25.834-5.084-36.776-4.042-41.222c-4.25-0.597-5.327,5.062-5.327,5.062
				c-0.254,1.512-0.601,3.397-0.89,5.76c0.106,3.023,0.261,13.028,5.53,32.629c7.375,27.435,15.874,32.031,15.874,32.031
				c2.5,2.197,5.438-0.01,5.438-0.01S180.402,318.183,172.569,292.349z"/>
			<path style="fill:#9E0000;" d="M208.152,311.349c0,0-0.623-0.115-1.704-0.652c0.038,4.713-2.754,4.804-7.22-3.098
				c-1.898-3.358-3.467-6.685-4.706-9.582c-2.31-3.791-4.74-8.64-7.143-14.871c-10.144-26.296-4.095-33.826-1.852-35.234
				c0,0-0.406-1.344-2-1.625c-1.594-0.281-3.063,0.719-3.063,0.719s-6.998,5.07,1.22,36.207
				c8.218,31.137,18.343,38.679,22.53,40.574c0,0,2.188,0.875,4.125-0.5C211.488,321.052,208.152,311.349,208.152,311.349z"/>
		</g>
		<g>
			<path style="fill:#680000;" d="M201.3,310.874c0,0,0.392,0.322,0.913,0.812c0.264,0.243,0.567,0.521,0.883,0.822
				c0.329,0.285,0.656,0.608,1.014,0.881c0.339,0.301,0.706,0.547,1.051,0.766c0.35,0.218,0.692,0.362,1.008,0.475
				c0.157,0.048,0.307,0.064,0.444,0.102c0.14,0.042,0.26,0.027,0.364,0.037c0.219,0.014,0.343,0.022,0.343,0.022
				s-0.101,0.066-0.301,0.172c-0.101,0.045-0.224,0.133-0.381,0.15c-0.153,0.029-0.337,0.085-0.535,0.087
				c-0.194-0.01-0.422,0.001-0.644-0.05c-0.215-0.061-0.471-0.09-0.686-0.204c-0.461-0.181-0.903-0.464-1.298-0.784
				c-0.791-0.649-1.375-1.47-1.717-2.13C201.407,311.374,201.3,310.874,201.3,310.874z"/>
		</g>
		<g>
			<path style="fill:#680000;" d="M202.556,295.216c0,0,0.473,0.293,1.123,0.75c0.657,0.451,1.501,1.061,2.358,1.624
				c0.424,0.289,0.862,0.551,1.273,0.796c0.415,0.24,0.811,0.444,1.159,0.622c0.354,0.155,0.653,0.307,0.874,0.382
				c0.219,0.089,0.349,0.15,0.349,0.15s-0.134,0.023-0.377,0.046c-0.245,0.035-0.591,0.025-1.01-0.028
				c-0.414-0.063-0.894-0.183-1.378-0.378c-0.488-0.189-0.974-0.463-1.441-0.756c-0.451-0.318-0.893-0.647-1.26-1.009
				c-0.377-0.349-0.69-0.712-0.942-1.035C202.778,295.731,202.556,295.216,202.556,295.216z"/>
		</g>
		<path style="opacity:0.6;fill:#AD0000;" d="M172.569,292.349c-7.833-25.834-5.084-36.776-4.042-41.222
			c-4.25-0.597-5.327,5.062-5.327,5.062c-0.254,1.512-0.601,3.397-0.89,5.76c0.106,3.023,0.261,13.028,5.53,32.629
			c7.375,27.435,15.874,32.031,15.874,32.031c2.5,2.197,5.438-0.01,5.438-0.01S180.402,318.183,172.569,292.349z M173.215,308.911
			c-6.813-16.75-9.485-34.465-10.015-42.006c-0.732-10.441,1.64-14.869,3.077-14.369s-2.857,6.816,1.946,29.815
			c4.804,22.998,13.804,36.643,17.179,41.195S180.027,325.661,173.215,308.911z"/>
		<path style="opacity:0.6;fill:#9E0000;" d="M199.09,323.474c0,0-11.25-5.459-19.854-33.508
			c-9.079-29.595-3.883-40.692-3.883-40.692c-3.864-3.484-6.825,1.854-6.825,1.854c-1.042,4.445-3.791,15.388,4.042,41.222
			c7.833,25.834,16.583,34.25,16.583,34.25c1.188,1.063,4.875,3.313,7.875,1.563S199.09,323.474,199.09,323.474z M177.686,304.813
			c-7.031-15.527-10.042-33.266-9.939-43.496c0.097-9.624,1.605-11.854,4.011-12.043c2.406-0.189-1.941,5.233,0.984,25.43
			c2.925,20.196,14.856,41.149,21.974,47.466C201.833,328.485,188.87,329.509,177.686,304.813z"/>
		<path style="opacity:0.4;fill:#8E0000;" d="M181.684,283.212c-8.218-31.137-1.22-36.207-1.22-36.207
			c-3.354-1.719-5.112,2.269-5.112,2.269s-5.196,11.098,3.883,40.692c8.604,28.049,19.854,33.508,19.854,33.508
			c3.688,2.75,5.125,0.313,5.125,0.313C200.027,321.891,189.902,314.349,181.684,283.212z M174.735,257.099
			c-0.163-6.309,1.501-9.751,2.667-9.542c1.166,0.209-0.707,8.209-0.479,15.459c0.229,7.25,6.523,33.4,12.666,45.646
			C195.733,320.906,175.77,297.072,174.735,257.099z"/>
		<path style="opacity:0.6;fill:#9E0000;" d="M208.152,311.349c0,0-0.623-0.115-1.704-0.652c0.038,4.713-2.754,4.804-7.22-3.098
			c-1.898-3.358-3.467-6.685-4.706-9.582c-2.31-3.791-4.74-8.64-7.143-14.871c-10.144-26.296-4.095-33.826-1.852-35.234
			c0,0-0.406-1.344-2-1.625c-1.594-0.281-3.063,0.719-3.063,0.719s-6.998,5.07,1.22,36.207c8.218,31.137,18.343,38.679,22.53,40.574
			c0,0,2.188,0.875,4.125-0.5C211.488,321.052,208.152,311.349,208.152,311.349z M193.152,309.849
			c-8.376-13.281-15.466-39.375-14.749-56.411c0.289-6.868,6.34-8.623,4.311-4.164c-2.188,4.809-2.349,15.29,1,26.513
			c6.938,23.25,14.5,36.563,20.5,39.938S201.528,323.13,193.152,309.849z"/>
		<path style="opacity:0.6;fill:#AD0000;" d="M212.74,301.566c-1.54-11.204-8.442-23.681-8.442-23.681l-3.813,1.805
			c0,0,9.167,18.158,6.167,18.6s-13.75-14.816-18.625-31.648s2.969-16.543,2.969-16.543s-0.375-2.219-2.313-2.688
			c-1.938-0.469-3.156,0.5-3.156,0.5c-2.243,1.408-8.292,8.939,1.852,35.234c10.143,26.296,20.773,28.203,20.773,28.203
			S214.277,312.747,212.74,301.566z M199.902,303.397c-9.625-11.299-13.599-23.967-15.25-31.919c-2.884-13.886-2.25-20.161,0-20.396
			c2.25-0.234-2.5,6.891,4.5,25.078s16.875,28.785,21.5,27.236C215.277,301.849,209.527,314.696,199.902,303.397z"/>
		<path style="opacity:0.4;fill:#8E0000;" d="M167.841,294.577c-5.27-19.601-5.424-29.605-5.53-32.629
			c-0.891,7.285-1.225,19.141,3.45,38.826c6.571,27.671,17.954,25.834,17.954,25.834S175.216,322.012,167.841,294.577z
			 M166.652,301.049c-3.947-15.44-4.073-23.522-0.892-11.716c6.642,24.642,11.064,29.788,12.643,33.141
			C179.981,325.826,171.434,319.754,166.652,301.049z"/>
		<path style="opacity:0.6;fill:#AD0000;" d="M168.184,309.165c-0.854-2.441-1.67-5.223-2.423-8.391
			c-2.163-9.107-3.254-16.539-3.714-22.617c0,0-2.811,47.326,7.855,78.259c0,0,1.869,0.851,4.833-1.316
			C169.217,338.107,168.184,309.165,168.184,309.165z M166.402,340.265c-3.012-13.786-4.018-33.24-4.092-40.12
			c-0.074-6.88,1.593-4.428,2.426,5.555c0.833,9.982,3.641,29.123,5.833,39.815C172.762,356.207,170.735,360.098,166.402,340.265z"
			/>
	</g>
	<g>
		<defs>
			<path id="SVGID_1_" d="M13.965,170.786c0,0,7.297,5.944,5.379,11.313c-0.379,1.063-1.827,1.667-1.827,1.667
				s3.511,3.177,0.917,6.052c0,0,1.469,1.763,0.156,3.413c0,0,3.978,1.806,0.754,4.181c0,0-2.191,1.938-1.754,6.125
				s3.5,4.25,10,3.813s10.462-9.563,3.563-15.563c-1.438-1.25-4.006-5.196-0.5-10.375c0,0-3.15-1.521-4.547-5.75
				c-1.396-4.229,2.859-4,5.734-2.313l-0.813-22.5c0,0,0-62.338-7.949-62.338c-10.579,0-9.176,62.963-9.176,62.963L13.965,170.786z"
				/>
		</defs>
		<clipPath id="SVGID_00000041284636478645143990000012257207635959340167_">
			<use xlink:href="#SVGID_1_"  style="overflow:visible;"/>
		</clipPath>
		<g style="clip-path:url(#SVGID_00000041284636478645143990000012257207635959340167_);">
			<g>
				<polygon style="fill:#666060;" points="23.402,153.348 20.324,153.348 20.324,103.765 17.824,103.39 20.324,91.107 
					23.402,91.107 25.902,103.452 23.402,103.754 				"/>
				<g>
					<path style="fill:#9E0000;" d="M27.193,198.258h-10.66c0,0-1.779-1.632-1.779-22.455c0-20.823,1.779-22.455,1.779-22.455h10.66
						c0,0,1.779,1.568,1.779,22.644S27.193,198.258,27.193,198.258z"/>
					<g>
						<path style="fill:#680000;" d="M20.141,157.053c0,0-0.046,0.602-0.126,1.655c-0.104,1.049-0.161,2.555-0.286,4.356
							c-0.075,0.898-0.103,1.877-0.146,2.91c-0.043,1.032-0.088,2.12-0.135,3.246c-0.023,1.126-0.048,2.29-0.072,3.473
							c-0.042,1.182-0.07,2.383-0.036,3.584c0.004,1.201,0.008,2.402,0.012,3.584c-0.015,1.183,0.042,2.345,0.093,3.469
							c0.038,1.127,0.075,2.215,0.111,3.247c0.015,0.517,0.029,1.019,0.043,1.505c0.041,0.484,0.081,0.952,0.119,1.4
							c0.166,1.795,0.243,3.301,0.326,4.353c0.061,1.056,0.097,1.659,0.097,1.659s-0.105-0.594-0.29-1.632
							c-0.163-1.043-0.438-2.529-0.693-4.325c-0.063-0.449-0.131-0.917-0.199-1.401c-0.042-0.486-0.086-0.99-0.13-1.507
							c-0.084-1.036-0.172-2.128-0.264-3.258c-0.076-1.131-0.192-2.299-0.178-3.49c-0.016-1.19-0.03-2.399-0.046-3.608
							c-0.023-1.21,0.017-2.418,0.071-3.607c0.054-1.188,0.107-2.358,0.159-3.49c0.065-1.131,0.193-2.221,0.288-3.254
							c0.101-1.034,0.185-2.011,0.312-2.909C19.61,159.413,20.141,157.053,20.141,157.053z"/>
					</g>
					<g>
						<path style="fill:#680000;" d="M23.699,157.053c0,0,0.53,2.36,0.97,5.959c0.127,0.898,0.211,1.876,0.312,2.909
							c0.094,1.034,0.222,2.123,0.288,3.254c0.051,1.132,0.104,2.302,0.159,3.49c0.054,1.189,0.094,2.397,0.071,3.607
							c-0.016,1.209-0.031,2.418-0.047,3.608c0.015,1.191-0.101,2.359-0.178,3.49c-0.091,1.13-0.18,2.222-0.263,3.258
							c-0.045,0.517-0.088,1.02-0.13,1.507c-0.069,0.484-0.137,0.952-0.2,1.401c-0.256,1.796-0.53,3.282-0.693,4.325
							c-0.184,1.039-0.29,1.632-0.29,1.632s0.035-0.603,0.097-1.659c0.083-1.052,0.16-2.558,0.326-4.353
							c0.038-0.449,0.078-0.917,0.119-1.4c0.015-0.486,0.028-0.989,0.044-1.505c0.035-1.032,0.072-2.121,0.11-3.247
							c0.052-1.124,0.107-2.286,0.093-3.469c0.004-1.182,0.008-2.383,0.012-3.584c0.034-1.201,0.007-2.402-0.036-3.584
							c-0.024-1.183-0.049-2.346-0.072-3.473c-0.047-1.126-0.092-2.214-0.135-3.246c-0.042-1.033-0.07-2.011-0.145-2.91
							c-0.125-1.8-0.183-3.307-0.286-4.356C23.745,157.655,23.699,157.053,23.699,157.053z"/>
					</g>
				</g>
			</g>
			<path style="opacity:0.5;fill:#9E0000;" d="M27.193,153.348c0,0,2.376,42.099-5.33,42.099c-7.706,0-5.33-42.099-5.33-42.099
				s-1.779,1.632-1.779,22.455c0,20.823,1.779,22.455,1.779,22.455h10.66c0,0,1.779-1.191,1.779-22.267
				S27.193,153.348,27.193,153.348z"/>
			<path style="opacity:0.5;fill:#9E0000;" d="M19.123,174.682c0,26.473,5.299,26.615,5.299,0
				C24.422,148.067,19.123,150.015,19.123,174.682z"/>
			<g>
				<path style="fill:#666060;" d="M21.402,149.682c0-4.333,0-46.25,0-46.25l-2.25-1l1.172-11.325l-2.5,12.283l2.5,0.375v49.583
					h2.764C22.227,152.802,21.402,151.747,21.402,149.682z"/>
			</g>
			<polygon style="opacity:0.7;fill:#666060;" points="23.402,91.107 24.569,102.682 22.652,103.515 22.652,153.348 23.402,153.348 
				23.402,103.754 25.902,103.452 			"/>
		</g>
	</g>
</g>
</svg>
