<svg xmlns="http://www.w3.org/2000/svg"
    xmlns:xlink="http://www.w3.org/1999/xlink" viewBox="0 0 237.33 342.74">
    <defs>
        <style>.cls-1{fill:#075edb;}.cls-2{isolation:isolate;}.cls-3,.cls-37,.cls-38,.cls-39,.cls-40,.cls-41,.cls-42,.cls-43{opacity:0.8;}.cls-10,.cls-11,.cls-14,.cls-15,.cls-18,.cls-19,.cls-20,.cls-21,.cls-22,.cls-23,.cls-24,.cls-25,.cls-26,.cls-27,.cls-29,.cls-3,.cls-33,.cls-36,.cls-37,.cls-38,.cls-39,.cls-4,.cls-40,.cls-41,.cls-42,.cls-43,.cls-7,.cls-8{mix-blend-mode:multiply;}.cls-3{fill:url(#radial-gradient);}.cls-4{fill:url(#linear-gradient);}.cls-5{fill:url(#radial-gradient-2);}.cls-6{fill:#fff;}.cls-10,.cls-11,.cls-14,.cls-15,.cls-18,.cls-19,.cls-21,.cls-23,.cls-25,.cls-27,.cls-29,.cls-33,.cls-36,.cls-7,.cls-8{opacity:0.6;}.cls-7{fill:url(#radial-gradient-3);}.cls-8{fill:url(#radial-gradient-4);}.cls-9{fill:url(#radial-gradient-5);}.cls-10{fill:url(#radial-gradient-6);}.cls-11{fill:url(#radial-gradient-7);}.cls-12,.cls-17,.cls-30,.cls-32,.cls-34{opacity:0.5;}.cls-12,.cls-17,.cls-30,.cls-31,.cls-32,.cls-44,.cls-45{mix-blend-mode:screen;}.cls-12{fill:url(#radial-gradient-8);}.cls-13{fill:url(#radial-gradient-9);}.cls-14{fill:url(#radial-gradient-10);}.cls-15{fill:url(#radial-gradient-11);}.cls-16{fill:url(#radial-gradient-12);}.cls-17{fill:url(#radial-gradient-13);}.cls-18{fill:url(#radial-gradient-14);}.cls-19{fill:url(#radial-gradient-15);}.cls-20{fill:url(#radial-gradient-16);}.cls-21{fill:url(#radial-gradient-17);}.cls-22{fill:url(#radial-gradient-18);}.cls-23{fill:url(#radial-gradient-19);}.cls-24{fill:url(#radial-gradient-20);}.cls-25{fill:url(#radial-gradient-21);}.cls-26{fill:url(#radial-gradient-22);}.cls-27{fill:url(#radial-gradient-23);}.cls-28{fill:url(#radial-gradient-24);}.cls-29{fill:url(#radial-gradient-25);}.cls-30{fill:url(#radial-gradient-26);}.cls-31{fill:url(#radial-gradient-27);}.cls-32{fill:url(#radial-gradient-28);}.cls-33{fill:url(#radial-gradient-29);}.cls-35{clip-path:url(#clip-path);}.cls-36{fill:url(#radial-gradient-30);}.cls-37{fill:url(#radial-gradient-31);}.cls-38{fill:url(#radial-gradient-32);}.cls-39{fill:url(#radial-gradient-33);}.cls-40{fill:url(#radial-gradient-34);}.cls-41{fill:url(#radial-gradient-35);}.cls-42{fill:url(#radial-gradient-36);}.cls-43{fill:url(#radial-gradient-37);}.cls-44{fill:url(#radial-gradient-38);}.cls-45{opacity:0.3;fill:url(#radial-gradient-39);}</style><radialGradient id="radial-gradient" cx="95.14" cy="250.41" r="49.67" gradientUnits="userSpaceOnUse"><stop offset="0.41" stop-color="#fff"/><stop offset="0.76" stop-color="#5cb0ac"/><stop offset="0.95" stop-color="#338687"/></radialGradient><linearGradient id="linear-gradient" x1="100.47" y1="210.9" x2="139.97" y2="210.9" gradientUnits="userSpaceOnUse"><stop offset="0.12" stop-color="#4eb2ac"/><stop offset="0.19" stop-color="#53b4af"/><stop offset="0.28" stop-color="#61bcb7"/><stop offset="0.37" stop-color="#79c7c4"/><stop offset="0.47" stop-color="#9ad8d6"/><stop offset="0.51" stop-color="#abe0e0"/><stop offset="0.66" stop-color="#4eb2ac"/><stop offset="0.83" stop-color="#5cb0ac"/><stop offset="1" stop-color="#338687"/></linearGradient><radialGradient id="radial-gradient-2" cx="99.97" cy="-47.26" r="143.78" gradientUnits="userSpaceOnUse"><stop offset="0.5" stop-color="#cef3f5"/><stop offset="0.83" stop-color="#5cb0ac"/><stop offset="1" stop-color="#338687"/></radialGradient><radialGradient id="radial-gradient-3" cx="77.97" cy="-43.26" r="143.78" gradientUnits="userSpaceOnUse"><stop offset="0.69" stop-color="#fff"/><stop offset="0.83" stop-color="#5cb0ac"/><stop offset="0.95" stop-color="#338687"/></radialGradient><radialGradient id="radial-gradient-4" cx="77.97" cy="-43.26" r="143.78" xlink:href="#radial-gradient-3"/><radialGradient id="radial-gradient-5" cx="138.47" cy="118.74" r="92.02" gradientUnits="userSpaceOnUse"><stop offset="0.41" stop-color="#338687"/><stop offset="0.83" stop-color="#5cb0ac"/><stop offset="1" stop-color="#338687"/></radialGradient><radialGradient id="radial-gradient-6" cx="190.97" cy="190.24" r="75.74" xlink:href="#radial-gradient"/><radialGradient id="radial-gradient-7" cx="190.97" cy="190.24" r="75.74" xlink:href="#radial-gradient"/><radialGradient id="radial-gradient-8" cx="158.27" cy="174.17" r="33.06" xlink:href="#radial-gradient-5"/><radialGradient id="radial-gradient-9" cx="157.97" cy="-36.76" r="153.54" xlink:href="#radial-gradient-2"/><radialGradient id="radial-gradient-10" cx="207.48" cy="-13.26" r="144.36" xlink:href="#radial-gradient-3"/><radialGradient id="radial-gradient-11" cx="207.48" cy="-13.26" r="144.36" xlink:href="#radial-gradient-3"/><radialGradient id="radial-gradient-12" cx="32.47" cy="50.74" r="123.07" xlink:href="#radial-gradient-2"/><radialGradient id="radial-gradient-13" cx="49.46" cy="132.98" r="27.46" xlink:href="#radial-gradient-5"/><radialGradient id="radial-gradient-14" cx="-10.19" cy="90.07" r="124.43" xlink:href="#radial-gradient-3"/><radialGradient id="radial-gradient-15" cx="48.72" cy="145.99" r="53.29" gradientUnits="userSpaceOnUse"><stop offset="0.41" stop-color="#fff"/><stop offset="0.83" stop-color="#5cb0ac"/><stop offset="0.95" stop-color="#338687"/></radialGradient><radialGradient id="radial-gradient-16" cx="48.72" cy="145.74" r="53.29" xlink:href="#radial-gradient-15"/><radialGradient id="radial-gradient-17" cx="-531.47" cy="95.83" r="53.3" gradientTransform="translate(-7.22 -332.77) rotate(-97.9)" xlink:href="#radial-gradient-15"/><radialGradient id="radial-gradient-18" cx="-531.47" cy="95.58" r="53.29" gradientTransform="translate(-7.22 -332.77) rotate(-97.9)" xlink:href="#radial-gradient-15"/><radialGradient id="radial-gradient-19" cx="-463.69" cy="-430.97" r="53.3" gradientTransform="translate(-310.69 -313.09) rotate(175.14)" xlink:href="#radial-gradient-15"/><radialGradient id="radial-gradient-20" cx="-463.69" cy="-431.22" r="53.29" gradientTransform="translate(-310.69 -313.09) rotate(175.14)" xlink:href="#radial-gradient-15"/><radialGradient id="radial-gradient-21" cx="55.96" cy="-402.55" r="53.29" gradientTransform="translate(-313.35 -15.85) rotate(90.44)" xlink:href="#radial-gradient-15"/><radialGradient id="radial-gradient-22" cx="55.96" cy="-402.8" r="53.28" gradientTransform="translate(-313.35 -15.85) rotate(90.44)" xlink:href="#radial-gradient-15"/><radialGradient id="radial-gradient-23" cx="4.47" cy="86.4" r="124.43" xlink:href="#radial-gradient-3"/><radialGradient id="radial-gradient-24" cx="108.97" cy="85.24" r="64.08" gradientTransform="translate(0.72 -0.75) rotate(0.36)" gradientUnits="userSpaceOnUse"><stop offset="0" stop-color="#cef3f5"/><stop offset="0.55" stop-color="#4eb2ac"/><stop offset="1" stop-color="#338687"/></radialGradient><radialGradient id="radial-gradient-25" cx="113.97" cy="73.9" r="64.08" gradientTransform="translate(0.72 -0.75) rotate(0.36)" xlink:href="#radial-gradient-15"/><radialGradient id="radial-gradient-26" cx="113.97" cy="73.9" r="64.08" xlink:href="#radial-gradient-5"/><radialGradient id="radial-gradient-27" cx="106.14" cy="87.74" r="36.21" xlink:href="#radial-gradient-15"/><radialGradient id="radial-gradient-28" cx="-432.6" cy="-461.56" r="36.21" gradientTransform="translate(-293.84 -324.05) rotate(-179.42)" xlink:href="#radial-gradient-15"/><radialGradient id="radial-gradient-29" cx="113.75" cy="73.73" r="64.08" xlink:href="#radial-gradient-15"/><clipPath id="clip-path"><path class="cls-1" d="M182.17,40.65c-24.8-10.78-31.15,5.19-35.42,19.83-4.06,14-8.22,20.65-18.43,27a28.39,28.39,0,0,0-5.24-1.13c-1.34-4.37-1.79-12,4.73-22.33C138.47,47.07,139.59,30.74,125,23.4s-67.56,5-78.22,29.82,5.33,31.13,20,35.32c13.27,3.8,20,7.73,26.08,16.83a28.51,28.51,0,0,0-1.32,5.93c-4.42,1.33-11.75,1.68-21.75-4.09-17.32-10-33.68-10.48-40.44,4.35s7.6,67.32,32.84,77S93.12,182,96.74,167.2c3.1-12.7,6.55-19.53,14.44-25.7a28.64,28.64,0,0,0,6.45,1.23c1.53,4.31,2.32,11.9-3.74,22.52-9.92,17.37-10.32,33.74,4.55,40.43s67.27-7.92,76.85-33.21-6.69-30.86-21.53-34.41c-13.43-3.22-20.31-6.85-26.8-15.67a28.24,28.24,0,0,0,1-5.38c4.23-1.49,12.14-2.37,23.05,4.59,16.87,10.74,33.2,11.94,40.6-2.59S207,51.43,182.17,40.65Z"/></clipPath><radialGradient id="radial-gradient-30" cx="137.98" cy="-10.76" r="279.08" gradientUnits="userSpaceOnUse"><stop offset="0.04" stop-color="#fff"/><stop offset="0.47" stop-color="#5cb0ac"/><stop offset="0.95" stop-color="#338687"/></radialGradient><radialGradient id="radial-gradient-31" cx="120.48" cy="60.93" r="80.31" gradientUnits="userSpaceOnUse"><stop offset="0" stop-color="#d1cdc7"/><stop offset="0.58" stop-color="#85786d"/><stop offset="0.8" stop-color="#877c72"/><stop offset="0.83" stop-color="#887d73"/><stop offset="1" stop-color="#645a4e"/></radialGradient><radialGradient id="radial-gradient-32" cx="120.47" cy="60.93" r="80.31" xlink:href="#radial-gradient-31"/><radialGradient id="radial-gradient-33" cx="120.47" cy="162.54" r="80.31" xlink:href="#radial-gradient-31"/><radialGradient id="radial-gradient-34" cx="120.48" cy="162.54" r="80.31" xlink:href="#radial-gradient-31"/><radialGradient id="radial-gradient-35" cx="127.97" cy="53.24" r="160.7" xlink:href="#radial-gradient-31"/><radialGradient id="radial-gradient-36" cx="99.47" cy="80.74" r="157.01" xlink:href="#radial-gradient-31"/><radialGradient id="radial-gradient-37" cx="94.81" cy="250.74" r="49.51" xlink:href="#radial-gradient"/><radialGradient id="radial-gradient-38" cx="275.14" cy="207.74" r="135.82" gradientUnits="userSpaceOnUse"><stop offset="0.8" stop-color="#fff"/><stop offset="0.88" stop-color="#5cb0ac"/><stop offset="1"/></radialGradient><radialGradient id="radial-gradient-39" cx="21.97" cy="237.99" r="81.76" gradientUnits="userSpaceOnUse"><stop offset="0.8" stop-color="#fff"/><stop offset="0.89" stop-color="#5cb0ac"/><stop offset="1" stop-color="#338687"/></radialGradient></defs><title>Asset 1</title><g class="cls-2"><g id="Layer_2" data-name="Layer 2"><g id="Layer_1-2" data-name="Layer 1"><path class="cls-1" d="M23.47,322s2.16-35.23,83.33-51.23h29.09S207,285.2,210.47,322c0,0-5.5,20.77-93.5,20.77S23.47,322,23.47,322Z"/><path class="cls-3" d="M105.31,288.4c5.66,4.47,12.63,5,19.83,3.34,10.12-2.31,21.18-13.72,14.41-20.17-2.32-.56-3.66-.83-3.66-.83H106.8c-2.51.49-5,1-7.31,1.54C98.49,274.36,98.31,282.87,105.31,288.4Z"/><path class="cls-1" d="M115.49,134.24s-15,88-15,141.5c0,0,2.31,14.34,19.4,14.34S140,275.74,140,275.74s-2.92-90.06-13.21-144Z"/><path class="cls-4" d="M126.76,131.71l-11.27,2.53s-5.95,34.91-10.37,74.12c1.49-1,3.25-1,5.3.3s4.36,3.66,6.81,3.46a39.43,39.43,0,0,1,6.24-.32c3.73.28,6.47,2.45,7.08,6.16.91,5.59,1.48,22.43,1.63,28.08.64,23.52.48,29.91-4.09,36.22a12.69,12.69,0,0,1-16.31,3.29c-5.12-3.13-7.55-9.08-8.77-14.73-1.58-7.29-1.62-14.55-1.57-21.83-.61,9.44-1,18.5-1,26.75,0,0,2.31,14.34,19.4,14.34S140,275.74,140,275.74,137.05,185.68,126.76,131.71Z"/><path class="cls-5" d="M125.14,90.57s-8-9.67,2.67-26.58S139.59,30.74,125,23.4s-67.56,5-78.22,29.82,5.33,31.13,20,35.32,21.33,8.53,28,19.86Z"/><path class="cls-6" d="M130.63,28.19c-5.51-6.74-13.39-7.1-21.65-6.83A86.45,86.45,0,0,0,79.56,28C63.91,34.27,48.45,45.61,44.05,62.4c0,.1.13.15.17.06A50.5,50.5,0,0,1,56.88,43.33C63,37.55,70.67,33.41,78.45,30.1a88.87,88.87,0,0,1,27.09-6.85c8.67-.75,17.86-.76,24.64,5.34C130.44,28.82,130.85,28.45,130.63,28.19Z"/><path class="cls-7" d="M128.36,25.44a27.15,27.15,0,0,1,1.21,22.48c-2.17,5.76-6.44,16.36-14.28,14.9-3.85-.72-3.53-4.5-5.54-7.06s-3.56-5.76-6.89-6.27c-11.24-1.7-20.93,6.58-28.77,13.41-4.35,3.78-13.87,14.24-20.6,9.57-7.2-5-6.93-15.87-3.7-23.11A39.16,39.16,0,0,1,52,45.25a30.38,30.38,0,0,0-5.15,8c-10.67,24.85,5.33,31.13,20,35.32s21.33,8.53,28,19.86l30.33-17.83s-8-9.67,2.67-26.58C137.58,48.49,139.33,33.48,128.36,25.44Z"/><path class="cls-8" d="M104.67,86.93c-3.64,2.19-7.33,5-11.56,6-6.3,1.45-13.18-6.79-24.21-9.75-8.34-2.24-18.21-2.4-22.92-11a27.1,27.1,0,0,1-2.56-6.58C42.26,80.4,55,85.15,66.81,88.54c14.66,4.2,21.33,8.53,28,19.86l30.33-17.83a15,15,0,0,1-2.65-6.85C116.77,82.26,109.53,84,104.67,86.93Z"/><path class="cls-9" d="M115.39,138.58s8.42,9.31-1.5,26.67-10.32,33.74,4.55,40.43,67.27-7.92,76.85-33.21-6.69-30.86-21.53-34.41-21.69-7.59-28.84-18.62Z"/><path class="cls-10" d="M175.63,186.38c-7.8,5.27-17,10.26-26.46,11.54-6,.81-18.91,1.27-19.73-7.3s10.38-12.27,16.1-15.9c6.74-4.28,3.12-14.12,2.28-20.45-.81-6.05.15-12.57,6.59-15,8.58-3.24,18.8-.09,28.11,1.26a89.47,89.47,0,0,0-8.76-2.48c-14.84-3.55-21.69-7.59-28.84-18.62l-29.53,19.14s8.42,9.31-1.5,26.67-10.32,33.74,4.55,40.43,67.27-7.92,76.85-33.21A41.6,41.6,0,0,0,198.06,161C193.77,171.47,183.35,181.16,175.63,186.38Z"/><path class="cls-11" d="M113.71,185.07c2.33-9.92,9.73-17.82,11.33-28,.53-3.41,1.24-7.25,3.88-9.74,3.14-2.95,6.94-5.18,10.23-8,6.41-5.47,12.1-6.67,20.15-4,2.1.69,4.48,1.74,7,2.66,3.79.3,7.65,1.05,11.45,1.74a8.84,8.84,0,0,0,1.14-.35c-1.69-.49-3.4-.93-5.09-1.33-14.84-3.55-21.69-7.59-28.84-18.62l-29.53,19.14s8.42,9.31-1.5,26.67-10.32,33.74,4.55,40.43c5.81,2.61,17.35,2,29.83-1.28C134.29,205.42,109.41,203.37,113.71,185.07Z"/><path class="cls-12" d="M195.6,157.19c-.84-4.27-3.75-7.88-6.95-10.66-.27-.24-.58.17-.35.42,3.15,3.35,5.59,7.17,6.22,11.8.54,4-.75,8.29-2.45,11.86-3.39,7.12-9.79,12.57-16.3,16.78-6.9,4.46-14.53,7.26-22.31,9.76-10.84,3.49-21.55,5-32.72,2.23-.11,0-.17.16-.06.2,10.91,4,22.43,2.21,33.25-1.09,8.64-2.64,16.89-6,24.4-11.05,6.83-4.62,13-10.79,16-18.59A21.35,21.35,0,0,0,195.6,157.19Z"/><path class="cls-13" d="M144.45,118.81s9.7-8,26.57,2.79,33.2,11.94,40.6-2.59S207,51.43,182.17,40.65,151,45.84,146.75,60.48s-8.63,21.3-20,27.91Z"/><path class="cls-6" d="M210.84,90.72c.59,1.43,1.14,2.89,1.63,4.38-1.2-10-3.67-16.62-8.1-26.68-3.74-8.46-8.79-16.62-15.85-22.78-6.57-5.73-16-9.31-24.71-7.06-8.5,2.19-12.93,10.86-14.14,18.8a.14.14,0,0,0,.28,0c2.29-8.08,6.23-16,15.37-17.84s18,2.89,24.27,8.92S200.4,62.64,203.8,70.64A129.42,129.42,0,0,1,210.84,90.72Z"/><path class="cls-14" d="M213.32,98.7a20.79,20.79,0,0,1-3.36,9c-6,8.52-11.56-1.5-13.67-7.27-2.5-6.82-5.43-17.21-14.39-17.26-7.34,0-15.28,5.16-22.52,2.32-5.82-2.29-9.24-7.4-10.68-13.37a57.07,57.07,0,0,1-1.49-13.23c-.15.52-.31,1-.46,1.55-4.26,14.65-8.63,21.3-20,27.91l17.69,30.42s9.7-8,26.57,2.79,33.2,11.94,40.6-2.59C213.76,114.81,214.27,107.39,213.32,98.7Z"/><path class="cls-15" d="M204.48,123.07c-18.34,8.14-22.54-2.53-33-6.53-5.74-2.19-12.33-4.11-17.36-8-4.32-3.37-6.24-8.87-9.12-13.35-3.15-4.87-8.74-6.45-12-11a52.61,52.61,0,0,1-6.25,4.22l17.69,30.42s9.7-8,26.57,2.79,33.2,11.94,40.6-2.59c1.38-2.71,2.08-6.78,2.15-11.65C213.16,114.11,209.17,121,204.48,123.07Z"/><path class="cls-16" d="M96.49,108.83s-9.35,8.38-26.67-1.62-33.68-10.48-40.44,4.35,7.6,67.32,32.84,77S93.12,182,96.74,167.2s7.69-21.65,18.75-28.75Z"/><path class="cls-17" d="M70.53,108.76c-8.17-4.68-17.71-9.49-27.45-8.09-6.66,1-11.09,6-13.15,12.09-2.51,7.48-1.82,15.81-.12,23.37,2.33,10.33,6.87,20,11.76,29.38,0,.06.14,0,.11-.06-7.28-15.14-15-32.92-11-50,1.52-6.51,5.67-12,12.55-13.26,9.39-1.69,18.83,3.46,27.14,7C70.6,109.26,70.76,108.89,70.53,108.76Z"/><path class="cls-18" d="M96.49,108.83s-9.34,8.37-26.66-1.62A46.83,46.83,0,0,0,78,113.59c7.24,4.33,5.14,19-2.67,22.4-31.68,13.77,7.7,37.42-10.84,37.69-18.2.26-28.6-21.76-32.76-37C29.64,129.05,28,120.7,28.82,113c-5.31,16.54,8.93,66.14,33.4,75.54,25.25,9.68,30.9-6.55,34.52-21.37s7.69-21.65,18.75-28.75Z"/><polygon class="cls-19" points="94.85 123.57 60.48 144.36 97.47 129.49 94.85 123.57"/><polygon class="cls-20" points="96.26 126.76 60.48 144.36 97.47 129.49 96.26 126.76"/><polygon class="cls-21" points="132.18 137.88 157.49 169.07 137.68 134.46 132.18 137.88"/><polygon class="cls-22" points="135.14 136.04 157.49 169.07 137.68 134.46 135.14 136.04"/><polygon class="cls-23" points="143.78 103.29 176.27 79.67 140.66 97.61 143.78 103.29"/><polygon class="cls-24" points="142.1 100.24 176.27 79.67 140.66 97.61 142.1 100.24"/><polygon class="cls-25" points="110.83 89.5 90.31 54.97 104.89 92.08 110.83 89.5"/><polygon class="cls-26" points="107.64 90.89 90.31 54.97 104.89 92.08 107.64 90.89"/><path class="cls-27" d="M96.49,108.83s-3.41,3-9.92,3.27c-1.33,7.28,2.45,18,7,22.63,3.45,3.54,7.2,7.79,4.61,13C96.73,150.57,94.07,153,93,156a59.86,59.86,0,0,0-2.74,11.6c-.73,5-2.3,11.15-6.28,14.67-9,8-24.11,4.28-33-2.18-.91-.66-1.79-1.36-2.65-2.08,4.14,4.82,8.81,8.55,13.93,10.52,25.25,9.68,30.9-6.55,34.52-21.37s7.69-21.65,18.75-28.75Z"/><circle class="cls-28" cx="119.74" cy="114.47" r="28.35" transform="translate(-0.71 0.75) rotate(-0.36)"/><circle class="cls-29" cx="119.74" cy="114.47" r="28.35" transform="translate(-0.71 0.75) rotate(-0.36)"/><path class="cls-30" d="M119.74,86.12a28.35,28.35,0,1,0,28.35,28.35A28.35,28.35,0,0,0,119.74,86.12Zm1.55,55.3a25.52,25.52,0,1,1,25.52-25.51A25.51,25.51,0,0,1,121.29,141.42Z"/><path class="cls-31" d="M99,131.71s-11.13-16.64,1.6-33.81,37.66-9.39,44.26,5.39c0,0-5.85-17-26.52-16.28C96.31,87.74,84.24,114.49,99,131.71Z"/><path class="cls-32" d="M141.63,98s11,16.75-1.94,33.79-37.75,9-44.21-5.84c0,0,5.69,17,26.36,16.55C143.85,142,156.18,115.35,141.63,98Z"/><path class="cls-33" d="M118.92,123.49a32.78,32.78,0,0,1-27.19-14.82,28.35,28.35,0,1,0,56.14,5.63,28.65,28.65,0,0,0-.88-7A32.87,32.87,0,0,1,118.92,123.49Z"/><g class="cls-34"><path class="cls-1" d="M182.17,40.65c-24.8-10.78-31.15,5.19-35.42,19.83-4.06,14-8.22,20.65-18.43,27a28.39,28.39,0,0,0-5.24-1.13c-1.34-4.37-1.79-12,4.73-22.33C138.47,47.07,139.59,30.74,125,23.4s-67.56,5-78.22,29.82,5.33,31.13,20,35.32c13.27,3.8,20,7.73,26.08,16.83a28.51,28.51,0,0,0-1.32,5.93c-4.42,1.33-11.75,1.68-21.75-4.09-17.32-10-33.68-10.48-40.44,4.35s7.6,67.32,32.84,77S93.12,182,96.74,167.2c3.1-12.7,6.55-19.53,14.44-25.7a28.64,28.64,0,0,0,6.45,1.23c1.53,4.31,2.32,11.9-3.74,22.52-9.92,17.37-10.32,33.74,4.55,40.43s67.27-7.92,76.85-33.21-6.69-30.86-21.53-34.41c-13.43-3.22-20.31-6.85-26.8-15.67a28.24,28.24,0,0,0,1-5.38c4.23-1.49,12.14-2.37,23.05,4.59,16.87,10.74,33.2,11.94,40.6-2.59S207,51.43,182.17,40.65Z"/><g class="cls-35"><path class="cls-36" d="M236.81,128.5a34.07,34.07,0,0,0-3.6-3.83,114.22,114.22,0,0,0-4.53-29.88,2.49,2.49,0,0,0-.06-5l-1.53-.07a115.08,115.08,0,0,0-65-68.94c-.22-1.94-.38-3.18-.41-3.43a2.5,2.5,0,1,0-5,.64s0,.31.1.78a114.5,114.5,0,0,0-74.16-.65.93.93,0,0,0,0-.13,2.5,2.5,0,1,0-5-.64c0,.21-.15,1.17-.32,2.67A115.12,115.12,0,0,0,13.49,81.83l-3,0h0a2.5,2.5,0,0,0,0,5h1a114.1,114.1,0,0,0-7.1,35.43,16.6,16.6,0,0,0-3.74,2.84,2.47,2.47,0,0,0,.16,3.5,2.51,2.51,0,0,0,3.51-.11,114.25,114.25,0,0,0,5.34,32.94,2.5,2.5,0,0,0,.84,4.85h.82a115.12,115.12,0,0,0,55.11,62.29c-.06,1-.09,1.65-.1,1.69a2.52,2.52,0,0,0,2.37,2.63h.13a2.49,2.49,0,0,0,2.43-2,114.36,114.36,0,0,0,96.73-.81c0,.24,0,.39,0,.4a2.49,2.49,0,0,0,2.49,2.37h.14a2.5,2.5,0,0,0,2.36-2.63s-.05-1-.14-2.62a115,115,0,0,0,56-69.4,2.49,2.49,0,0,0,1.17-4.45,113.19,113.19,0,0,0,3.1-21.94,2.48,2.48,0,0,0,1.72.71,2.45,2.45,0,0,0,1.53-.53A2.5,2.5,0,0,0,236.81,128.5Zm-80,50.29c1.47,1.87,2.9,3.7,4.2,5.59l-.89.43c-9.06,4.26-21.53,6.6-36.25,6.6-21.76,0-36.79-3.52-44.06-7.66h0c-.24-.13-.45-.27-.68-.41,1.1-1.53,2.28-3,3.48-4.55,3.2-4.06,6.51-8.27,8.29-13.34,2.49-7.1,3.12-25.65,3-42.52,16.92,0,34.83,0,51.63.08,0,1.11,0,2.23,0,3.36v.06h0c0,15.87.69,32.41,3,39C150.26,170.52,153.57,174.73,156.77,178.79ZM9.31,125.33a28.86,28.86,0,0,1,9.82-2.14c4.42-.24,34.36-.29,69.73-.27,0,1.14,0,2.29,0,3.43h0c0,15.55-.64,31.46-2.74,37.45-1.51,4.28-4.42,8-7.5,11.9-1.13,1.43-2.26,2.86-3.34,4.35l-.1-.11c-5.29-6-14.24-15.18-20.62-17.18-5.14-1.61-29.35-1.62-39.72-1.55A108.83,108.83,0,0,1,9.3,126.76C9.3,126.28,9.31,125.81,9.31,125.33Zm83.6-30c-.74-9.87-3.13-15.09-5.91-21.12a99.76,99.76,0,0,1-4.46-10.94L82.45,63c.36-.16.73-.32,1.12-.47,8.14-3.31,21.76-5.85,40.26-5.85,12.37,0,23.13,1.66,31.64,4.7h0c.58.21,1.14.44,1.7.66-.12.43-.24.84-.37,1.24a101.65,101.65,0,0,1-4.47,10.94c-2.77,6-5.17,11.25-5.9,21.12-.37,5-.74,13.37-.89,22.71-16.94,0-34.86-.07-51.75-.09C93.64,108.62,93.28,100.28,92.91,95.3ZM219.5,118.19l-15.16,0c-13.26,0-32.58-.09-53.81-.13.15-9,.5-17.14.88-22.34.67-9,2.79-13.59,5.46-19.42a104.07,104.07,0,0,0,4.67-11.44c.08-.23.15-.48.22-.73,1.22.64,2.38,1.3,3.46,2h0a24.91,24.91,0,0,1,9,9.71c3.54,7.3,9.42,17,19.48,17.43,5.79.22,21.56,1,29.67,1.35a108.74,108.74,0,0,1,4.67,26.24A17,17,0,0,0,219.5,118.19Zm-25.57-30c-5.62-.22-10.44-4.86-15.19-14.61-2.94-6.06-8.39-11-15.9-14.65,1.39-9.73.59-23.49-.22-32.49a110.07,110.07,0,0,1,59.07,63C213.21,89.08,199.3,88.43,193.93,88.22ZM158.08,56.93c-9.19-3.45-20.79-5.29-34.25-5.29-20,0-33.84,2.77-42.43,6.37C80,47.73,81.18,32,82,23.64a109.48,109.48,0,0,1,75.37.69C158.19,32.52,159.26,46.93,158.08,56.93ZM76.71,60.34a18.74,18.74,0,0,0-4.43,3.52c-7.9,9-15.26,15.43-19.2,16.66C49.68,81.59,33,81.9,18.93,81.86a110.13,110.13,0,0,1,57.86-56.2C75.92,35.05,75,50.28,76.71,60.34Zm-22.13,25C61.31,83.18,70.92,73,76.05,67.15c.16-.18.34-.37.53-.55l.18-.17.45-.39.22-.18c.17-.14.35-.27.54-.41l0,0a108.2,108.2,0,0,0,4.46,10.83c2.68,5.83,4.79,10.44,5.46,19.42.39,5.19.73,13.32.88,22.24-35.52,0-65.39,0-69.94.28a35.06,35.06,0,0,0-9.34,1.73,108.4,108.4,0,0,1,7.31-33.08C28,86.91,49.75,86.81,54.58,85.29Zm-1.5,82.24c3.78,1.18,10.7,7.11,18.23,15.56h0l1,1.1.17.18a28.89,28.89,0,0,0-4.11,12.82c-.61,8.7-1.22,19.09-1.61,25.86A110.14,110.14,0,0,1,16.65,166.2C31.14,166.12,49.49,166.4,53.08,167.53Zm20.24,30a23.72,23.72,0,0,1,3.09-10l.12.07.29.18.81.46.35.19c.29.16.6.32.92.47l.28.15,1.32.61h0c8.51,3.78,22.65,6.75,43.32,6.75,13.74,0,25.53-1.91,34.8-5.5h0q2.6-1,4.92-2.18a23.16,23.16,0,0,1,2.45,8.8c.65,9.27,1.3,20.47,1.68,27.14a109.31,109.31,0,0,1-96.09.86C72,219,72.65,207.22,73.32,197.53Zm97.68-.34a28,28,0,0,0-3.1-11,29.9,29.9,0,0,0,10.84-11.79c4.75-9.75,9.57-14.39,15.19-14.61,5.78-.22,21.46-1,29.61-1.35a110,110,0,0,1-51,63.59C172.16,215.3,171.58,205.48,171,197.19Zm22.73-42.35c-10.06.38-15.94,10.12-19.48,17.42a24,24,0,0,1-7.68,8.77h0l-1.25.86c-1.45-2.15-3-4.18-4.62-6.18-3.09-3.92-6-7.62-7.5-11.9-2.09-6-2.76-21.68-2.75-37.12h0c0-1.23,0-2.45,0-3.66l53.86.13,15.17,0c3.18,0,6.3,1.84,8.73,3.79a109.22,109.22,0,0,1-3.29,26.43C217.47,153.77,199.91,154.6,193.73,154.84Z"/></g></g><path class="cls-1" d="M119.74,228.94A114.47,114.47,0,1,1,234.21,114.47,114.6,114.6,0,0,1,119.74,228.94ZM119.74,5A109.47,109.47,0,1,0,229.21,114.47,109.6,109.6,0,0,0,119.74,5Z"/><path class="cls-37" d="M82.26,45.77a30.24,30.24,0,0,0-7,3.91,12.91,12.91,0,0,1,.51,6.55c.42-.47.83-.93,1.2-1.37,1.41-1.6,3.94-3.21,7.53-4.67A13,13,0,0,1,82.26,45.77Z"/><path class="cls-38" d="M164.7,47.12a54.91,54.91,0,0,0-6.38-2.76,10.06,10.06,0,0,1-1.87,4.69,46.31,46.31,0,0,1,9.75,4.75A35.4,35.4,0,0,1,164.7,47.12Z"/><path class="cls-39" d="M80.75,171.46A14.37,14.37,0,0,1,77,168.61c-.52-.61-1.11-1.27-1.73-2a8.1,8.1,0,0,1-3,4.15l1,1.09a23.56,23.56,0,0,0,8.23,5.47A13.52,13.52,0,0,1,80.75,171.46Z"/><path class="cls-40" d="M170.47,172.83a7.55,7.55,0,0,1-2.93-4.1,39.47,39.47,0,0,1-6.48,3.8c.54,2-.11,4.1-1.45,6.09A47,47,0,0,0,170.47,172.83Z"/><path class="cls-41" d="M89.84,110c0,1.34,0,2.68,0,4a3.44,3.44,0,0,1,2.28-.8,3.32,3.32,0,0,1,2.7,1.23c0-1.49,0-3,0-4.45Z"/><path class="cls-42" d="M146.47,110c0,1.36,0,2.72,0,4.1a3.36,3.36,0,0,1,2.36-.88,3.32,3.32,0,0,1,2.62,1.13q0-2.19,0-4.35Z"/><path class="cls-43" d="M102.13,280.32c.11.21,3.77,10.44,19.89,9.68s18-15.93,18-15.93,1.66,12.17-13.33,16C105.56,295.5,102.13,280.32,102.13,280.32Z"/><path class="cls-44" d="M145.72,274.49S204,288,209.22,321.24c0,0-14,9-21.25-7S166.47,281.24,145.72,274.49Z"/><path class="cls-45" d="M24.47,321.49s6-34.25,74-47.5c0,0-33,7.75-44.75,20.75S32,304.24,24.47,321.49Z"/></g></g></g></svg>