<svg width="14" height="13" viewBox="0 0 14 13" fill="none" xmlns="http://www.w3.org/2000/svg">
<path d="M3.10645 3.375C2.8578 3.375 2.61935 3.27623 2.44353 3.10041C2.26772 2.9246 2.16895 2.68614 2.16895 2.4375C2.16895 2.18886 2.26772 1.9504 2.44353 1.77459C2.61935 1.59877 2.8578 1.5 3.10645 1.5C3.35509 1.5 3.59354 1.59877 3.76936 1.77459C3.94517 1.9504 4.04395 2.18886 4.04395 2.4375C4.04395 2.68614 3.94517 2.9246 3.76936 3.10041C3.59354 3.27623 3.35509 3.375 3.10645 3.375ZM13.0502 6.2375L7.4252 0.6125C7.2002 0.3875 6.8877 0.25 6.54395 0.25H2.16895C1.4752 0.25 0.918945 0.80625 0.918945 1.5V5.875C0.918945 6.21875 1.05645 6.53125 1.2877 6.75625L6.90645 12.3813C7.1377 12.6062 7.4502 12.75 7.79395 12.75C8.1377 12.75 8.4502 12.6062 8.6752 12.3813L13.0502 8.00625C13.2814 7.78125 13.4189 7.46875 13.4189 7.125C13.4189 6.775 13.2752 6.4625 13.0502 6.2375Z" fill="#4ECB71"/>
</svg>
