<svg width="34" height="34" viewBox="0 0 34 34" fill="none" xmlns="http://www.w3.org/2000/svg">
<path opacity="0.4" fill-rule="evenodd" clip-rule="evenodd" d="M4.8216 1.00939C4.50057 1.17212 4.30677 1.4927 4.30677 1.86112C4.30677 2.22954 4.50057 2.55012 4.8216 2.71285C5.0274 2.81721 5.29335 2.82479 8.20186 2.80918C11.2765 2.79274 11.3633 2.78882 11.5359 2.65987C11.8541 2.42213 11.9704 2.20835 11.9704 1.86112C11.9704 1.51389 11.8541 1.3001 11.5359 1.06237C11.3633 0.933416 11.2765 0.929498 8.20186 0.913058C5.29335 0.897453 5.0274 0.905031 4.8216 1.00939ZM29.921 1.00669C29.7981 1.07046 29.632 1.22079 29.5519 1.34082C29.425 1.53078 29.4061 1.64085 29.4061 2.19172V2.8244L28.8124 2.82453C28.1238 2.82459 27.8546 2.9251 27.6261 3.26738C27.3207 3.72468 27.4996 4.38941 27.9952 4.63845C28.1597 4.72117 28.3752 4.75077 28.8124 4.75084L29.4061 4.75096V5.38365C29.4061 5.93452 29.425 6.04459 29.5519 6.23455C29.9425 6.81964 30.7177 6.80603 31.1653 6.20623C31.27 6.06578 31.3004 5.90812 31.3209 5.3972L31.3464 4.76252L31.9765 4.74069C32.4908 4.7229 32.6393 4.69452 32.7838 4.58644C33.102 4.34857 33.2182 4.13485 33.2182 3.78768C33.2182 3.44052 33.102 3.2268 32.7838 2.98893C32.6393 2.88085 32.4908 2.85246 31.9765 2.83468L31.3464 2.81284L31.3209 2.17817C31.2937 1.50002 31.228 1.33883 30.8699 1.07136C30.6324 0.893985 30.1956 0.864252 29.921 1.00669ZM0.905838 4.86251C0.58481 5.02524 0.391022 5.34582 0.391022 5.71425C0.391022 6.08267 0.58481 6.40325 0.905838 6.56598C1.1117 6.67033 1.37913 6.67791 4.3182 6.66231C7.42525 6.64587 7.51165 6.64201 7.68433 6.513C8.00254 6.27526 8.11886 6.06148 8.11886 5.71425C8.11886 5.36701 8.00254 5.15323 7.68433 4.91549C7.51165 4.78648 7.42525 4.78262 4.3182 4.76618C1.37913 4.75058 1.1117 4.75816 0.905838 4.86251ZM24.0794 28.107C23.9566 28.1708 23.7904 28.3211 23.7103 28.4411C23.5835 28.6311 23.5646 28.7412 23.5646 29.292V29.9247L22.9708 29.9248C22.2823 29.9249 22.0131 30.0254 21.7845 30.3677C21.4792 30.825 21.6581 31.4897 22.1537 31.7388C22.3181 31.8215 22.5337 31.8511 22.9708 31.8511L23.5646 31.8513V32.484C23.5646 33.0348 23.5835 33.1449 23.7103 33.3349C24.101 33.92 24.8761 33.9063 25.3237 33.3065C25.4285 33.1661 25.4589 33.0084 25.4793 32.4975L25.5048 31.8628L26.135 31.841C26.6493 31.8232 26.7978 31.7948 26.9423 31.6867C27.2604 31.4489 27.3767 31.2352 27.3767 30.888C27.3767 30.5408 27.2604 30.3271 26.9423 30.0892C26.7978 29.9812 26.6493 29.9528 26.135 29.935L25.5048 29.9132L25.4793 29.2785C25.4521 28.6003 25.3864 28.4391 25.0283 28.1717C24.7909 27.9943 24.3541 27.9646 24.0794 28.107Z" fill="white"/>
<path fill-rule="evenodd" clip-rule="evenodd" d="M17.2415 2.42035C16.4087 2.53305 15.2524 2.9829 14.4973 3.48805C13.7076 4.01631 10.3263 7.43564 9.98824 8.04771C9.59217 8.7651 9.43233 9.35675 9.39562 10.2419L9.36358 11.0125L12.0508 8.34382C14.8973 5.51691 15.0091 5.42386 15.8569 5.17469C16.3097 5.04169 17.2103 5.04169 17.6631 5.17469C18.5747 5.44261 19.3597 6.10015 19.7666 6.93666L20.0024 7.42138L20.4514 7.26585C21.0893 7.04487 21.9392 7.04622 22.576 7.26925C24.5091 7.94618 25.3797 9.95847 24.5707 11.8794C24.5404 11.9513 24.6562 12.0354 25.0262 12.2106C26.6507 12.9793 27.3453 14.9116 26.6181 16.6389C26.5839 16.7201 26.6816 16.7933 27.0693 16.9776C27.67 17.2629 28.3197 17.8897 28.587 18.4415C29.0914 19.4828 29.0806 20.5979 28.5564 21.6034C28.3934 21.9161 27.9529 22.3973 26.3438 24.0199C25.2388 25.1341 24.3347 26.0699 24.3347 26.0993C24.3347 26.1287 24.7175 26.1388 25.1853 26.1217C25.8858 26.0961 26.1264 26.06 26.5494 25.917C27.5306 25.5851 27.8078 25.3709 29.748 23.4456C31.6664 21.5417 32.0113 21.139 32.4488 20.2921C33.3785 18.4919 33.4423 16.2298 32.6148 14.4039C32.1089 13.288 32.1042 13.2826 27.2618 8.42326C22.2923 3.43623 22.2206 3.37258 21.0257 2.88433C20.1283 2.51764 19.3362 2.37296 18.2905 2.38471C17.8194 2.38997 17.3474 2.40603 17.2415 2.42035ZM16.1426 7.1139C16.0326 7.17421 13.7216 9.42771 11.0072 12.1216C6.29696 16.7963 6.06985 17.0116 6.02755 16.8417C6.00316 16.7438 5.90982 15.3344 5.8202 13.7097L5.65729 10.7556L5.44731 10.3406C4.84216 9.14431 3.23535 8.91531 2.34725 9.89875C1.9576 10.3302 1.88127 10.5842 1.76976 11.8207C1.58316 13.8895 1.45907 14.9144 0.934937 18.7187C0.437764 22.3273 0.427243 22.4403 0.424997 24.2094C0.423263 25.5733 0.443226 25.9436 0.544137 26.425C0.907981 28.1605 1.68792 29.548 3.08289 30.941C4.4382 32.2945 6.0891 33.1797 8.02978 33.5935C8.91249 33.7818 10.6965 33.8008 11.6069 33.6318C12.8934 33.3928 14.1943 32.8654 15.3109 32.1304C15.8967 31.7447 16.4669 31.1961 21.3652 26.3052C24.5126 23.1627 26.8187 20.8111 26.8823 20.6792C26.9425 20.5546 27.003 20.2793 27.0168 20.0673C27.0676 19.292 26.499 18.6366 25.7193 18.5719C25.0674 18.5179 25.0629 18.5212 22.762 20.8083C20.4855 23.0711 20.4927 23.0656 19.944 22.9626C19.3345 22.8483 19.0248 22.1634 19.3233 21.59C19.3916 21.459 20.6367 20.1669 22.0902 18.7187C23.8465 16.9689 24.7734 15.9996 24.8534 15.8289C25.0993 15.3043 24.9642 14.5659 24.5515 14.1787C24.1653 13.8164 23.4978 13.6987 23.0007 13.9051C22.8383 13.9725 21.8799 14.8842 20.0017 16.7579C17.5883 19.1655 17.2112 19.5171 17.0007 19.5558C16.2425 19.6951 15.6881 19.1406 15.8268 18.3816C15.8655 18.1699 16.2847 17.7253 19.2938 14.7051C21.1764 12.8154 22.7589 11.1827 22.8104 11.0767C22.9588 10.7717 22.9898 10.4882 22.9143 10.1272C22.8566 9.85187 22.7842 9.73371 22.507 9.46238C22.0119 8.97792 21.4593 8.88512 20.8683 9.18721C20.7448 9.2504 19.156 10.7942 17.3377 12.618C15.5195 14.4417 13.9246 15.9897 13.7937 16.058C13.2205 16.3567 12.5359 16.0469 12.4215 15.4371C12.3163 14.8762 12.2555 14.9514 15.2216 11.9758C17.0945 10.0968 18.0058 9.13808 18.0732 8.97561C18.3698 8.26066 18.0224 7.3905 17.3237 7.09856C17.0067 6.96607 16.3979 6.97397 16.1426 7.1139Z" fill="white"/>
</svg>
