<svg width="18" height="18" viewBox="0 0 18 18" fill="none" xmlns="http://www.w3.org/2000/svg">
<path opacity="0.3" d="M8.57235 3.42285C5.42254 3.42285 2.8584 5.98699 2.8584 9.13681C2.8584 12.2866 5.42254 14.8508 8.57235 14.8508C11.7222 14.8508 14.2863 12.2866 14.2863 9.13681C14.2863 5.98699 11.7222 3.42285 8.57235 3.42285ZM9.2866 12.708H7.85811V8.42256H9.2866V12.708ZM9.2866 6.99407H7.85811V5.56558H9.2866V6.99407Z" fill="black"/>
<path d="M7.85593 5.56341H9.28442V6.9919H7.85593V5.56341ZM7.85593 8.42039H9.28442V12.7059H7.85593V8.42039ZM8.57018 1.99219C4.62755 1.99219 1.42773 5.192 1.42773 9.13463C1.42773 13.0773 4.62755 16.2771 8.57018 16.2771C12.5128 16.2771 15.7126 13.0773 15.7126 9.13463C15.7126 5.192 12.5128 1.99219 8.57018 1.99219ZM8.57018 14.8486C5.42036 14.8486 2.85622 12.2844 2.85622 9.13463C2.85622 5.98481 5.42036 3.42068 8.57018 3.42068C11.72 3.42068 14.2841 5.98481 14.2841 9.13463C14.2841 12.2844 11.72 14.8486 8.57018 14.8486Z" fill="black"/>
</svg>
