<svg width="148" height="102" viewBox="0 0 148 102" fill="none" xmlns="http://www.w3.org/2000/svg">
<rect x="0.975586" y="0.429688" width="146.511" height="100.877" rx="12.0091" fill="#F5F5F5"/>
<path d="M16.3125 19.1875H22.4062C23.2765 19.1875 24.1111 19.5332 24.7264 20.1485C25.3418 20.7639 25.6875 21.5985 25.6875 22.4687C25.6875 23.3389 25.3418 24.1735 24.7264 24.7889C24.1111 25.4043 23.2765 25.75 22.4062 25.75H21M16.3125 19.1875L19.125 16.375M16.3125 19.1875L19.125 22M30.375 12.9462V34.1875L25.6875 32.3125L21 34.1875L16.3125 32.3125L11.625 34.1875V12.9462C11.625 11.5612 12.6325 10.375 14.0088 10.215C18.654 9.67575 23.346 9.67575 27.9913 10.215C29.3663 10.375 30.375 11.5612 30.375 12.9462Z" stroke="black" stroke-width="1.25" stroke-linecap="round" stroke-linejoin="round"/>
<path d="M21.859 48.7927V61.1299H20.1481L13.8772 52.0818H13.7627V61.1299H11.9013V48.7927H13.6242L19.9012 57.8528H20.0156V48.7927H21.859ZM28.3272 61.3166C27.4598 61.3166 26.7027 61.1178 26.0562 60.7203C25.4096 60.3227 24.9076 59.7665 24.5502 59.0516C24.1927 58.3368 24.014 57.5014 24.014 56.5456C24.014 55.5858 24.1927 54.7465 24.5502 54.0276C24.9076 53.3087 25.4096 52.7505 26.0562 52.3529C26.7027 51.9553 27.4598 51.7566 28.3272 51.7566C29.1947 51.7566 29.9517 51.9553 30.5983 52.3529C31.2448 52.7505 31.7468 53.3087 32.1043 54.0276C32.4617 54.7465 32.6404 55.5858 32.6404 56.5456C32.6404 57.5014 32.4617 58.3368 32.1043 59.0516C31.7468 59.7665 31.2448 60.3227 30.5983 60.7203C29.9517 61.1178 29.1947 61.3166 28.3272 61.3166ZM28.3332 59.8046C28.8955 59.8046 29.3613 59.656 29.7308 59.3588C30.1003 59.0616 30.3734 58.6661 30.5501 58.1721C30.7308 57.6781 30.8211 57.134 30.8211 56.5396C30.8211 55.9493 30.7308 55.4071 30.5501 54.9131C30.3734 54.4151 30.1003 54.0155 29.7308 53.7143C29.3613 53.4132 28.8955 53.2626 28.3332 53.2626C27.767 53.2626 27.2971 53.4132 26.9236 53.7143C26.5542 54.0155 26.2791 54.4151 26.0983 54.9131C25.9216 55.4071 25.8333 55.9493 25.8333 56.5396C25.8333 57.134 25.9216 57.6781 26.0983 58.1721C26.2791 58.6661 26.5542 59.0616 26.9236 59.3588C27.2971 59.656 27.767 59.8046 28.3332 59.8046ZM45.3872 64.5997V59.6901H45.2787C45.1703 59.8869 45.0137 60.1118 44.8089 60.3648C44.6081 60.6178 44.3309 60.8387 43.9775 61.0275C43.6241 61.2162 43.1663 61.3106 42.6041 61.3106C41.8571 61.3106 41.1904 61.1198 40.6041 60.7383C40.0218 60.3528 39.564 59.8046 39.2306 59.0938C38.9013 58.3789 38.7367 57.5215 38.7367 56.5215C38.7367 55.5215 38.9033 54.6661 39.2367 53.9553C39.574 53.2445 40.0358 52.7003 40.6222 52.3228C41.2085 51.9453 41.8732 51.7566 42.6161 51.7566C43.1904 51.7566 43.6522 51.8529 44.0016 52.0457C44.355 52.2345 44.6281 52.4553 44.8209 52.7083C45.0177 52.9614 45.1703 53.1842 45.2787 53.377H45.4293V51.877H47.1883V64.5997H45.3872ZM43.0017 59.7745C43.5197 59.7745 43.9575 59.6379 44.3149 59.3649C44.6763 59.0877 44.9494 58.7042 45.1341 58.2143C45.3229 57.7243 45.4173 57.154 45.4173 56.5035C45.4173 55.8609 45.3249 55.2987 45.1402 54.8167C44.9554 54.3348 44.6844 53.9593 44.3269 53.6903C43.9695 53.4212 43.5278 53.2866 43.0017 53.2866C42.4595 53.2866 42.0077 53.4272 41.6463 53.7083C41.2848 53.9894 41.0117 54.373 40.827 54.8589C40.6463 55.3448 40.5559 55.893 40.5559 56.5035C40.5559 57.1219 40.6483 57.6781 40.833 58.1721C41.0178 58.6661 41.2908 59.0576 41.6523 59.3468C42.0177 59.6319 42.4675 59.7745 43.0017 59.7745ZM55.4713 57.2926V51.877H57.2785V61.1299H55.5075V59.5275H55.4111C55.1982 60.0215 54.8569 60.4331 54.387 60.7624C53.9211 61.0877 53.3408 61.2504 52.6461 61.2504C52.0517 61.2504 51.5256 61.1198 51.0678 60.8588C50.614 60.5937 50.2565 60.2022 49.9955 59.6841C49.7385 59.1661 49.61 58.5255 49.61 57.7625V51.877H51.4111V57.5456C51.4111 58.1761 51.5858 58.6781 51.9352 59.0516C52.2846 59.4251 52.7384 59.6118 53.2967 59.6118C53.634 59.6118 53.9693 59.5275 54.3027 59.3588C54.64 59.1902 54.9191 58.9351 55.14 58.5938C55.3649 58.2524 55.4753 57.8187 55.4713 57.2926ZM63.6865 61.3166C62.7749 61.3166 61.9898 61.1219 61.3312 60.7323C60.6765 60.3387 60.1705 59.7865 59.8131 59.0757C59.4597 58.3609 59.283 57.5235 59.283 56.5637C59.283 55.6159 59.4597 54.7806 59.8131 54.0577C60.1705 53.3348 60.6685 52.7706 61.3071 52.365C61.9496 51.9594 62.7006 51.7566 63.56 51.7566C64.0821 51.7566 64.5881 51.8429 65.0781 52.0156C65.568 52.1883 66.0078 52.4594 66.3973 52.8288C66.7869 53.1983 67.0941 53.6782 67.319 54.2686C67.5439 54.8549 67.6563 55.5677 67.6563 56.4071V57.0456H60.3011V55.6962H65.8913C65.8913 55.2224 65.7949 54.8027 65.6022 54.4372C65.4094 54.0678 65.1383 53.7766 64.7889 53.5637C64.4436 53.3509 64.0379 53.2445 63.5721 53.2445C63.0661 53.2445 62.6243 53.369 62.2468 53.618C61.8733 53.8629 61.5842 54.1842 61.3793 54.5818C61.1785 54.9754 61.0781 55.4031 61.0781 55.8649V56.9191C61.0781 57.5376 61.1866 58.0637 61.4034 58.4974C61.6243 58.9311 61.9315 59.2624 62.3251 59.4914C62.7187 59.7163 63.1785 59.8287 63.7046 59.8287C64.046 59.8287 64.3572 59.7805 64.6383 59.6841C64.9194 59.5837 65.1624 59.4351 65.3672 59.2383C65.572 59.0416 65.7287 58.7986 65.8371 58.5094L67.5419 58.8167C67.4053 59.3187 67.1604 59.7584 66.807 60.1359C66.4576 60.5094 66.0178 60.8006 65.4877 61.0094C64.9616 61.2142 64.3612 61.3166 63.6865 61.3166ZM76.5884 54.136L74.9559 54.4252C74.8876 54.2163 74.7792 54.0176 74.6306 53.8288C74.486 53.6401 74.2893 53.4854 74.0403 53.365C73.7913 53.2445 73.48 53.1842 73.1066 53.1842C72.5965 53.1842 72.1708 53.2987 71.8295 53.5276C71.4881 53.7525 71.3174 54.0437 71.3174 54.4011C71.3174 54.7103 71.4319 54.9593 71.6608 55.1481C71.8897 55.3368 72.2592 55.4914 72.7692 55.6119L74.2391 55.9493C75.0905 56.146 75.725 56.4492 76.1426 56.8589C76.5603 57.2685 76.7691 57.8006 76.7691 58.4552C76.7691 59.0094 76.6085 59.5034 76.2872 59.9371C75.97 60.3668 75.5262 60.7042 74.9559 60.9492C74.3897 61.1941 73.733 61.3166 72.9861 61.3166C71.9499 61.3166 71.1046 61.0957 70.45 60.654C69.7954 60.2082 69.3938 59.5757 69.2452 58.7564L70.9861 58.4914C71.0945 58.9452 71.3174 59.2885 71.6548 59.5215C71.9921 59.7504 72.4319 59.8648 72.974 59.8648C73.5644 59.8648 74.0363 59.7424 74.3897 59.4974C74.7431 59.2484 74.9198 58.9452 74.9198 58.5878C74.9198 58.2986 74.8113 58.0556 74.5945 57.8589C74.3816 57.6621 74.0543 57.5135 73.6126 57.4131L72.0463 57.0697C71.1829 56.8729 70.5443 56.5597 70.1307 56.13C69.7211 55.7003 69.5163 55.1561 69.5163 54.4975C69.5163 53.9513 69.6689 53.4734 69.9741 53.0638C70.2793 52.6541 70.701 52.3349 71.2391 52.1059C71.7773 51.873 72.3937 51.7566 73.0885 51.7566C74.0885 51.7566 74.8756 51.9734 75.4499 52.4071C76.0242 52.8369 76.4037 53.4132 76.5884 54.136ZM83.0687 51.877V53.3228H78.0146V51.877H83.0687ZM79.37 49.6602H81.1712V58.4131C81.1712 58.7625 81.2234 59.0255 81.3278 59.2022C81.4322 59.3749 81.5667 59.4934 81.7314 59.5576C81.9001 59.6179 82.0828 59.648 82.2796 59.648C82.4242 59.648 82.5507 59.6379 82.6591 59.6179C82.7675 59.5978 82.8519 59.5817 82.9121 59.5697L83.2374 61.0576C83.133 61.0978 82.9844 61.1379 82.7916 61.1781C82.5989 61.2223 82.3579 61.2463 82.0687 61.2504C81.5949 61.2584 81.1531 61.1741 80.7435 60.9974C80.3338 60.8207 80.0025 60.5476 79.7495 60.1781C79.4965 59.8086 79.37 59.3448 79.37 58.7866V49.6602ZM85.0612 61.1299V51.877H86.8623V61.1299H85.0612ZM85.9708 50.4493C85.6575 50.4493 85.3885 50.3449 85.1636 50.1361C84.9427 49.9233 84.8322 49.6702 84.8322 49.3771C84.8322 49.0799 84.9427 48.8269 85.1636 48.6181C85.3885 48.4052 85.6575 48.2988 85.9708 48.2988C86.284 48.2988 86.5511 48.4052 86.772 48.6181C86.9969 48.8269 87.1093 49.0799 87.1093 49.3771C87.1093 49.6702 86.9969 49.9233 86.772 50.1361C86.5511 50.3449 86.284 50.4493 85.9708 50.4493ZM93.183 61.3166C92.3156 61.3166 91.5585 61.1178 90.912 60.7203C90.2654 60.3227 89.7634 59.7665 89.406 59.0516C89.0485 58.3368 88.8698 57.5014 88.8698 56.5456C88.8698 55.5858 89.0485 54.7465 89.406 54.0276C89.7634 53.3087 90.2654 52.7505 90.912 52.3529C91.5585 51.9553 92.3156 51.7566 93.183 51.7566C94.0505 51.7566 94.8075 51.9553 95.4541 52.3529C96.1006 52.7505 96.6026 53.3087 96.96 54.0276C97.3175 54.7465 97.4962 55.5858 97.4962 56.5456C97.4962 57.5014 97.3175 58.3368 96.96 59.0516C96.6026 59.7665 96.1006 60.3227 95.4541 60.7203C94.8075 61.1178 94.0505 61.3166 93.183 61.3166ZM93.189 59.8046C93.7513 59.8046 94.2171 59.656 94.5866 59.3588C94.9561 59.0616 95.2292 58.6661 95.4059 58.1721C95.5866 57.6781 95.6769 57.134 95.6769 56.5396C95.6769 55.9493 95.5866 55.4071 95.4059 54.9131C95.2292 54.4151 94.9561 54.0155 94.5866 53.7143C94.2171 53.4132 93.7513 53.2626 93.189 53.2626C92.6228 53.2626 92.1529 53.4132 91.7794 53.7143C91.4099 54.0155 91.1348 54.4151 90.9541 54.9131C90.7774 55.4071 90.6891 55.9493 90.6891 56.5396C90.6891 57.134 90.7774 57.6781 90.9541 58.1721C91.1348 58.6661 91.4099 59.0616 91.7794 59.3588C92.1529 59.656 92.6228 59.8046 93.189 59.8046ZM101.308 55.636V61.1299H99.5067V51.877H101.236V53.383H101.35C101.563 52.8931 101.896 52.4995 102.35 52.2023C102.808 51.9051 103.384 51.7566 104.079 51.7566C104.709 51.7566 105.262 51.8891 105.735 52.1541C106.209 52.4152 106.577 52.8047 106.838 53.3228C107.099 53.8409 107.229 54.4814 107.229 55.2444V61.1299H105.428V55.4613C105.428 54.7906 105.254 54.2665 104.904 53.889C104.555 53.5075 104.075 53.3168 103.464 53.3168C103.047 53.3168 102.675 53.4071 102.35 53.5878C102.029 53.7686 101.774 54.0336 101.585 54.383C101.4 54.7284 101.308 55.1461 101.308 55.636ZM116.579 54.136L114.946 54.4252C114.878 54.2163 114.769 54.0176 114.621 53.8288C114.476 53.6401 114.28 53.4854 114.031 53.365C113.782 53.2445 113.47 53.1842 113.097 53.1842C112.587 53.1842 112.161 53.2987 111.82 53.5276C111.478 53.7525 111.308 54.0437 111.308 54.4011C111.308 54.7103 111.422 54.9593 111.651 55.1481C111.88 55.3368 112.249 55.4914 112.759 55.6119L114.229 55.9493C115.081 56.146 115.715 56.4492 116.133 56.8589C116.551 57.2685 116.759 57.8006 116.759 58.4552C116.759 59.0094 116.599 59.5034 116.277 59.9371C115.96 60.3668 115.516 60.7042 114.946 60.9492C114.38 61.1941 113.723 61.3166 112.976 61.3166C111.94 61.3166 111.095 61.0957 110.44 60.654C109.786 60.2082 109.384 59.5757 109.235 58.7564L110.976 58.4914C111.085 58.9452 111.308 59.2885 111.645 59.5215C111.982 59.7504 112.422 59.8648 112.964 59.8648C113.555 59.8648 114.027 59.7424 114.38 59.4974C114.733 59.2484 114.91 58.9452 114.91 58.5878C114.91 58.2986 114.802 58.0556 114.585 57.8589C114.372 57.6621 114.045 57.5135 113.603 57.4131L112.037 57.0697C111.173 56.8729 110.535 56.5597 110.121 56.13C109.711 55.7003 109.507 55.1561 109.507 54.4975C109.507 53.9513 109.659 53.4734 109.964 53.0638C110.27 52.6541 110.691 52.3349 111.229 52.1059C111.768 51.873 112.384 51.7566 113.079 51.7566C114.079 51.7566 114.866 51.9734 115.44 52.4071C116.014 52.8369 116.394 53.4132 116.579 54.136ZM14.4494 82.3347C13.8631 82.3347 13.333 82.2263 12.8591 82.0094C12.3852 81.7885 12.0097 81.4693 11.7326 81.0516C11.4595 80.6339 11.323 80.1219 11.323 79.5155C11.323 78.9934 11.4234 78.5637 11.6242 78.2263C11.825 77.889 12.0961 77.6219 12.4374 77.4251C12.7788 77.2284 13.1603 77.0798 13.582 76.9794C14.0037 76.879 14.4334 76.8027 14.8711 76.7505C15.4253 76.6862 15.8751 76.634 16.2205 76.5938C16.5659 76.5497 16.8169 76.4794 16.9735 76.383C17.1301 76.2866 17.2084 76.13 17.2084 75.9131V75.871C17.2084 75.3449 17.0598 74.9372 16.7627 74.6481C16.4695 74.3589 16.0317 74.2144 15.4494 74.2144C14.843 74.2144 14.3651 74.3489 14.0157 74.618C13.6703 74.883 13.4314 75.1782 13.2989 75.5035L11.6061 75.118C11.8069 74.5557 12.1001 74.1019 12.4856 73.7565C12.8752 73.4071 13.323 73.1541 13.829 72.9975C14.335 72.8369 14.8671 72.7566 15.4253 72.7566C15.7948 72.7566 16.1864 72.8007 16.6 72.8891C17.0177 72.9734 17.4072 73.13 17.7687 73.359C18.1341 73.5879 18.4333 73.9152 18.6662 74.3409C18.8992 74.7625 19.0156 75.3107 19.0156 75.9854V82.1299H17.2566V80.8648H17.1843C17.0679 81.0978 16.8932 81.3267 16.6602 81.5516C16.4273 81.7765 16.1281 81.9632 15.7627 82.1118C15.3972 82.2604 14.9595 82.3347 14.4494 82.3347ZM14.841 80.8889C15.339 80.8889 15.7647 80.7905 16.1181 80.5938C16.4755 80.397 16.7466 80.14 16.9313 79.8227C17.1201 79.5014 17.2145 79.158 17.2145 78.7926V77.5998C17.1502 77.6641 17.0257 77.7243 16.841 77.7806C16.6602 77.8328 16.4534 77.879 16.2205 77.9191C15.9876 77.9553 15.7607 77.9894 15.5398 78.0215C15.3189 78.0496 15.1342 78.0737 14.9856 78.0938C14.6362 78.138 14.3169 78.2123 14.0278 78.3167C13.7426 78.4211 13.5137 78.5717 13.341 78.7685C13.1724 78.9613 13.088 79.2183 13.088 79.5396C13.088 79.9853 13.2527 80.3227 13.582 80.5516C13.9113 80.7765 14.331 80.8889 14.841 80.8889ZM28.3483 75.136L26.7158 75.4252C26.6475 75.2163 26.5391 75.0176 26.3905 74.8288C26.2459 74.6401 26.0491 74.4854 25.8002 74.365C25.5512 74.2445 25.2399 74.1842 24.8664 74.1842C24.3564 74.1842 23.9307 74.2987 23.5893 74.5276C23.248 74.7525 23.0773 75.0437 23.0773 75.4011C23.0773 75.7103 23.1918 75.9593 23.4207 76.1481C23.6496 76.3368 24.0191 76.4914 24.5291 76.6119L25.9989 76.9493C26.8503 77.146 27.4849 77.4492 27.9025 77.8589C28.3202 78.2685 28.529 78.8006 28.529 79.4552C28.529 80.0094 28.3684 80.5034 28.0471 80.9371C27.7298 81.3668 27.2861 81.7042 26.7158 81.9492C26.1495 82.1941 25.4929 82.3166 24.746 82.3166C23.7098 82.3166 22.8645 82.0957 22.2099 81.654C21.5552 81.2082 21.1536 80.5757 21.0051 79.7564L22.746 79.4914C22.8544 79.9452 23.0773 80.2885 23.4146 80.5215C23.752 80.7504 24.1917 80.8648 24.7339 80.8648C25.3243 80.8648 25.7961 80.7424 26.1495 80.4974C26.5029 80.2484 26.6797 79.9452 26.6797 79.5878C26.6797 79.2986 26.5712 79.0556 26.3544 78.8589C26.1415 78.6621 25.8142 78.5135 25.3724 78.4131L23.8062 78.0697C22.9428 77.8729 22.3042 77.5597 21.8906 77.13C21.4809 76.7003 21.2761 76.1561 21.2761 75.4975C21.2761 74.9513 21.4287 74.4734 21.734 74.0638C22.0392 73.6541 22.4609 73.3349 22.999 73.1059C23.5371 72.873 24.1536 72.7566 24.8484 72.7566C25.8483 72.7566 26.6355 72.9734 27.2098 73.4071C27.7841 73.8369 28.1636 74.4132 28.3483 75.136ZM32.166 78.9914L32.154 76.7926H32.4672L36.1539 72.877H38.3105L34.1057 77.3348H33.8226L32.166 78.9914ZM30.5094 82.1299V69.7927H32.3106V82.1299H30.5094ZM36.3527 82.1299L33.0395 77.7324L34.2804 76.4734L38.5635 82.1299H36.3527ZM43.5589 82.3166C42.6472 82.3166 41.8621 82.1219 41.2035 81.7323C40.5489 81.3387 40.0429 80.7865 39.6854 80.0757C39.332 79.3609 39.1553 78.5235 39.1553 77.5637C39.1553 76.6159 39.332 75.7806 39.6854 75.0577C40.0429 74.3348 40.5409 73.7706 41.1794 73.365C41.822 72.9594 42.5729 72.7566 43.4324 72.7566C43.9545 72.7566 44.4605 72.8429 44.9504 73.0156C45.4404 73.1883 45.8801 73.4594 46.2697 73.8288C46.6592 74.1983 46.9664 74.6782 47.1913 75.2686C47.4162 75.8549 47.5287 76.5677 47.5287 77.4071V78.0456H40.1734V76.6962H45.7637C45.7637 76.2224 45.6673 75.8027 45.4745 75.4372C45.2817 75.0678 45.0107 74.7766 44.6613 74.5637C44.3159 74.3509 43.9103 74.2445 43.4444 74.2445C42.9384 74.2445 42.4966 74.369 42.1191 74.618C41.7457 74.8629 41.4565 75.1842 41.2517 75.5818C41.0509 75.9754 40.9505 76.4031 40.9505 76.8649V77.9191C40.9505 78.5376 41.0589 79.0637 41.2758 79.4974C41.4967 79.9311 41.8039 80.2624 42.1975 80.4914C42.591 80.7163 43.0509 80.8287 43.5769 80.8287C43.9183 80.8287 44.2295 80.7805 44.5107 80.6841C44.7918 80.5837 45.0348 80.4351 45.2396 80.2383C45.4444 80.0416 45.601 79.7986 45.7094 79.5094L47.4142 79.8167C47.2777 80.3187 47.0327 80.7584 46.6793 81.1359C46.3299 81.5094 45.8902 81.8006 45.36 82.0094C44.834 82.2142 44.2336 82.3166 43.5589 82.3166ZM52.9909 82.3106C52.244 82.3106 51.5773 82.1198 50.991 81.7383C50.4087 81.3528 49.9508 80.8046 49.6175 80.0938C49.2882 79.3789 49.1235 78.5215 49.1235 77.5215C49.1235 76.5215 49.2902 75.6661 49.6235 74.9553C49.9609 74.2445 50.4227 73.7003 51.009 73.3228C51.5954 72.9453 52.26 72.7566 53.003 72.7566C53.5773 72.7566 54.0391 72.8529 54.3885 73.0457C54.7419 73.2345 55.015 73.4553 55.2078 73.7083C55.4046 73.9614 55.5572 74.1842 55.6656 74.377H55.774V69.7927H57.5752V82.1299H55.8162V80.6901H55.6656C55.5572 80.8869 55.4005 81.1118 55.1957 81.3648C54.9949 81.6178 54.7178 81.8387 54.3644 82.0275C54.011 82.2162 53.5532 82.3106 52.9909 82.3106ZM53.3885 80.7745C53.9066 80.7745 54.3443 80.6379 54.7018 80.3649C55.0632 80.0877 55.3363 79.7042 55.521 79.2143C55.7098 78.7243 55.8041 78.154 55.8041 77.5035C55.8041 76.8609 55.7118 76.2987 55.527 75.8167C55.3423 75.3348 55.0712 74.9593 54.7138 74.6903C54.3564 74.4212 53.9146 74.2866 53.3885 74.2866C52.8464 74.2866 52.3946 74.4272 52.0331 74.7083C51.6717 74.9894 51.3986 75.373 51.2139 75.8589C51.0331 76.3448 50.9428 76.893 50.9428 77.5035C50.9428 78.1219 51.0352 78.6781 51.2199 79.1721C51.4046 79.6661 51.6777 80.0576 52.0391 80.3468C52.4046 80.6319 52.8544 80.7745 53.3885 80.7745ZM68.5328 82.3166C67.6373 82.3166 66.8662 82.1138 66.2196 81.7082C65.5771 81.2986 65.0831 80.7343 64.7377 80.0155C64.3923 79.2966 64.2197 78.4733 64.2197 77.5456C64.2197 76.6059 64.3964 75.7766 64.7498 75.0577C65.1032 74.3348 65.6012 73.7706 66.2437 73.365C66.8863 72.9594 67.6433 72.7566 68.5148 72.7566C69.2176 72.7566 69.8441 72.8871 70.3942 73.1481C70.9444 73.4051 71.3882 73.7666 71.7256 74.2324C72.0669 74.6983 72.2697 75.2425 72.334 75.8649H70.581C70.4846 75.4312 70.2637 75.0577 69.9184 74.7445C69.577 74.4312 69.1192 74.2746 68.5449 74.2746C68.0429 74.2746 67.6031 74.4071 67.2256 74.6722C66.8521 74.9332 66.561 75.3067 66.3522 75.7926C66.1433 76.2746 66.0389 76.8448 66.0389 77.5035C66.0389 78.1781 66.1413 78.7605 66.3461 79.2504C66.5509 79.7404 66.8401 80.1199 67.2136 80.3889C67.5911 80.658 68.0349 80.7926 68.5449 80.7926C68.8862 80.7926 69.1955 80.7303 69.4726 80.6058C69.7537 80.4773 69.9886 80.2946 70.1774 80.0576C70.3702 79.8207 70.5047 79.5356 70.581 79.2022H72.334C72.2697 79.8006 72.0749 80.3347 71.7496 80.8046C71.4244 81.2745 70.9886 81.6439 70.4424 81.913C69.9003 82.1821 69.2637 82.3166 68.5328 82.3166ZM76.0613 69.7927V82.1299H74.2601V69.7927H76.0613ZM81.1772 82.3347C80.5909 82.3347 80.0607 82.2263 79.5869 82.0094C79.113 81.7885 78.7375 81.4693 78.4604 81.0516C78.1873 80.6339 78.0507 80.1219 78.0507 79.5155C78.0507 78.9934 78.1511 78.5637 78.3519 78.2263C78.5527 77.889 78.8238 77.6219 79.1652 77.4251C79.5065 77.2284 79.8881 77.0798 80.3097 76.9794C80.7314 76.879 81.1611 76.8027 81.5989 76.7505C82.1531 76.6862 82.6029 76.634 82.9482 76.5938C83.2936 76.5497 83.5446 76.4794 83.7012 76.383C83.8579 76.2866 83.9362 76.13 83.9362 75.9131V75.871C83.9362 75.3449 83.7876 74.9372 83.4904 74.6481C83.1972 74.3589 82.7595 74.2144 82.1772 74.2144C81.5708 74.2144 81.0929 74.3489 80.7435 74.618C80.3981 74.883 80.1591 75.1782 80.0266 75.5035L78.3339 75.118C78.5347 74.5557 78.8278 74.1019 79.2134 73.7565C79.6029 73.4071 80.0507 73.1541 80.5567 72.9975C81.0627 72.8369 81.5949 72.7566 82.1531 72.7566C82.5225 72.7566 82.9141 72.8007 83.3278 72.8891C83.7454 72.9734 84.135 73.13 84.4964 73.359C84.8619 73.5879 85.1611 73.9152 85.394 74.3409C85.6269 74.7625 85.7434 75.3107 85.7434 75.9854V82.1299H83.9844V80.8648H83.9121C83.7956 81.0978 83.6209 81.3267 83.388 81.5516C83.1551 81.7765 82.8559 81.9632 82.4904 82.1118C82.125 82.2604 81.6872 82.3347 81.1772 82.3347ZM81.5687 80.8889C82.0667 80.8889 82.4924 80.7905 82.8458 80.5938C83.2033 80.397 83.4743 80.14 83.6591 79.8227C83.8478 79.5014 83.9422 79.158 83.9422 78.7926V77.5998C83.8779 77.6641 83.7534 77.7243 83.5687 77.7806C83.388 77.8328 83.1812 77.879 82.9482 77.9191C82.7153 77.9553 82.4884 77.9894 82.2675 78.0215C82.0467 78.0496 81.8619 78.0737 81.7133 78.0938C81.3639 78.138 81.0447 78.2123 80.7555 78.3167C80.4704 78.4211 80.2415 78.5717 80.0688 78.7685C79.9001 78.9613 79.8158 79.2183 79.8158 79.5396C79.8158 79.9853 79.9804 80.3227 80.3097 80.5516C80.639 80.7765 81.0587 80.8889 81.5687 80.8889ZM88.1424 82.1299V72.877H89.9436V82.1299H88.1424ZM89.0521 71.4493C88.7388 71.4493 88.4697 71.3449 88.2448 71.1361C88.024 70.9233 87.9135 70.6702 87.9135 70.3771C87.9135 70.0799 88.024 69.8269 88.2448 69.6181C88.4697 69.4052 88.7388 69.2988 89.0521 69.2988C89.3653 69.2988 89.6324 69.4052 89.8532 69.6181C90.0781 69.8269 90.1906 70.0799 90.1906 70.3771C90.1906 70.6702 90.0781 70.9233 89.8532 71.1361C89.6324 71.3449 89.3653 71.4493 89.0521 71.4493ZM92.3668 82.1299V72.877H94.0956V74.383H94.2101C94.4029 73.873 94.7181 73.4754 95.1559 73.1903C95.5936 72.9011 96.1177 72.7566 96.7281 72.7566C97.3466 72.7566 97.8646 72.9011 98.2823 73.1903C98.704 73.4794 99.0152 73.877 99.216 74.383H99.3124C99.5333 73.8891 99.8847 73.4955 100.367 73.2023C100.849 72.9051 101.423 72.7566 102.089 72.7566C102.929 72.7566 103.614 73.0196 104.144 73.5457C104.678 74.0718 104.945 74.8649 104.945 75.9252V82.1299H103.144V76.0938C103.144 75.4673 102.973 75.0135 102.632 74.7324C102.29 74.4513 101.883 74.3107 101.409 74.3107C100.822 74.3107 100.367 74.4915 100.041 74.8529C99.716 75.2103 99.5534 75.6702 99.5534 76.2324V82.1299H97.7582V75.9794C97.7582 75.4774 97.6016 75.0738 97.2884 74.7686C96.9751 74.4634 96.5675 74.3107 96.0655 74.3107C95.7241 74.3107 95.4089 74.4011 95.1197 74.5818C94.8346 74.7585 94.6037 75.0055 94.427 75.3228C94.2543 75.64 94.1679 76.0075 94.1679 76.4252V82.1299H92.3668Z" fill="black"/>
</svg>
