<?xml version="1.0" standalone="no"?>
<!DOCTYPE svg PUBLIC "-//W3C//DTD SVG 20010904//EN"
 "http://www.w3.org/TR/2001/REC-SVG-20010904/DTD/svg10.dtd">
<svg version="1.0" xmlns="http://www.w3.org/2000/svg"
 width="225.000000pt" height="225.000000pt" viewBox="0 0 225.000000 225.000000"
 preserveAspectRatio="xMidYMid meet">

<g transform="translate(0.000000,225.000000) scale(0.100000,-0.100000)"
fill="#000000" stroke="none">
<path d="M1086 2089 c-25 -19 -26 -25 -26 -109 l0 -88 -53 -6 c-147 -19 -317
-108 -433 -228 -112 -116 -191 -272 -210 -415 l-7 -53 -88 0 c-83 0 -89 -1
-108 -26 -26 -33 -26 -45 0 -78 19 -25 25 -26 108 -26 l87 0 12 -72 c15 -87
65 -214 111 -283 48 -71 146 -170 216 -218 77 -53 200 -103 293 -119 l72 -12
0 -87 c0 -91 8 -111 50 -124 20 -6 59 9 72 29 4 6 8 50 8 99 l0 87 29 0 c38 0
192 45 244 72 219 111 380 324 419 556 l12 72 87 0 c91 0 111 8 124 50 6 20
-9 59 -29 72 -6 4 -49 8 -97 8 l-85 0 -12 73 c-15 86 -65 213 -111 282 -48 71
-146 170 -216 218 -77 53 -200 103 -292 119 l-73 12 0 87 c0 83 -1 89 -26 108
-15 12 -32 21 -39 21 -7 0 -24 -9 -39 -21z m-26 -420 c0 -88 17 -119 65 -119
48 0 65 31 65 119 0 44 3 82 8 84 14 9 152 -32 219 -65 94 -46 225 -177 271
-271 33 -67 74 -205 65 -219 -2 -5 -40 -8 -84 -8 -88 0 -119 -17 -119 -65 0
-48 31 -65 119 -65 44 0 82 -3 84 -7 10 -16 -34 -157 -70 -226 -50 -96 -163
-210 -258 -259 -77 -40 -163 -68 -207 -68 l-28 0 0 80 c0 89 -17 120 -65 120
-48 0 -65 -31 -65 -119 0 -44 -3 -82 -7 -84 -15 -9 -153 32 -219 65 -84 41
-190 139 -243 223 -41 64 -86 182 -93 240 l-3 30 88 5 c95 5 117 18 117 67 0
46 -32 63 -119 63 -44 0 -82 3 -84 8 -9 14 32 154 65 220 45 92 178 225 270
270 66 33 206 74 221 65 4 -2 7 -40 7 -84z"/>
<path d="M1026 1386 c-98 -37 -166 -128 -173 -233 -6 -84 8 -140 50 -195 50
-65 113 -100 194 -105 84 -6 140 8 195 50 65 50 100 113 105 194 3 38 0 87 -6
110 -16 57 -66 121 -124 157 -40 24 -61 30 -125 33 -50 2 -90 -2 -116 -11z
m179 -142 c74 -48 83 -155 20 -219 -57 -57 -143 -57 -200 0 -57 57 -57 143 1
200 18 19 43 36 56 38 36 8 97 -2 123 -19z"/>
</g>
</svg>
