<svg width="129" height="39" viewBox="0 0 129 39" fill="none" xmlns="http://www.w3.org/2000/svg">
<rect width="129" height="39" rx="15" fill="#777777"/>
<path d="M29.5203 26V17.299H26.1673V15.92H34.3363V17.299H30.9833V26H29.5203ZM34.7593 26V18.44H36.0613V20.274L35.8793 20.036C35.9726 19.7933 36.094 19.5717 36.2433 19.371C36.3926 19.1657 36.5653 18.9977 36.7613 18.867C36.9526 18.727 37.165 18.6197 37.3983 18.545C37.6363 18.4657 37.879 18.419 38.1263 18.405C38.3736 18.3863 38.6116 18.398 38.8403 18.44V19.812C38.593 19.7467 38.3176 19.728 38.0143 19.756C37.7156 19.784 37.4403 19.8797 37.1883 20.043C36.9503 20.197 36.7613 20.3837 36.6213 20.603C36.486 20.8223 36.388 21.0673 36.3273 21.338C36.2666 21.604 36.2363 21.8863 36.2363 22.185V26H34.7593ZM42.0896 26.21C41.5296 26.21 41.0606 26.1073 40.6826 25.902C40.3046 25.692 40.0176 25.4167 39.8216 25.076C39.6303 24.7307 39.5346 24.3527 39.5346 23.942C39.5346 23.5593 39.6023 23.2233 39.7376 22.934C39.8729 22.6447 40.0736 22.3997 40.3396 22.199C40.6056 21.9937 40.9323 21.828 41.3196 21.702C41.6556 21.604 42.0359 21.5177 42.4606 21.443C42.8853 21.3683 43.3309 21.2983 43.7976 21.233C44.2689 21.1677 44.7356 21.1023 45.1976 21.037L44.6656 21.331C44.6749 20.7383 44.5489 20.2997 44.2876 20.015C44.0309 19.7257 43.5876 19.581 42.9576 19.581C42.5609 19.581 42.1969 19.6743 41.8656 19.861C41.5343 20.043 41.3033 20.3463 41.1726 20.771L39.8076 20.351C39.9943 19.7023 40.3489 19.1867 40.8716 18.804C41.3989 18.4213 42.0989 18.23 42.9716 18.23C43.6483 18.23 44.2363 18.3467 44.7356 18.58C45.2396 18.8087 45.6083 19.1727 45.8416 19.672C45.9629 19.9193 46.0376 20.1807 46.0656 20.456C46.0936 20.7313 46.1076 21.0277 46.1076 21.345V26H44.8126V24.271L45.0646 24.495C44.7519 25.0737 44.3529 25.5053 43.8676 25.79C43.3869 26.07 42.7943 26.21 42.0896 26.21ZM42.3486 25.013C42.7639 25.013 43.1209 24.9407 43.4196 24.796C43.7183 24.6467 43.9586 24.4577 44.1406 24.229C44.3226 24.0003 44.4416 23.7623 44.4976 23.515C44.5769 23.291 44.6213 23.039 44.6306 22.759C44.6446 22.479 44.6516 22.255 44.6516 22.087L45.1276 22.262C44.6656 22.332 44.2456 22.395 43.8676 22.451C43.4896 22.507 43.1466 22.563 42.8386 22.619C42.5353 22.6703 42.2646 22.7333 42.0266 22.808C41.8259 22.878 41.6463 22.962 41.4876 23.06C41.3336 23.158 41.2099 23.277 41.1166 23.417C41.0279 23.557 40.9836 23.7273 40.9836 23.928C40.9836 24.124 41.0326 24.306 41.1306 24.474C41.2286 24.6373 41.3779 24.768 41.5786 24.866C41.7793 24.964 42.0359 25.013 42.3486 25.013ZM51.1593 26.21C50.3846 26.21 49.7266 26.0373 49.1853 25.692C48.644 25.3467 48.2286 24.873 47.9393 24.271C47.6546 23.669 47.51 22.9853 47.5053 22.22C47.51 21.4407 47.6593 20.7523 47.9533 20.155C48.2473 19.553 48.6673 19.0817 49.2133 18.741C49.7593 18.4003 50.415 18.23 51.1803 18.23C52.0063 18.23 52.711 18.4353 53.2943 18.846C53.8823 19.2567 54.2696 19.819 54.4563 20.533L53.0003 20.953C52.8556 20.5283 52.6176 20.1993 52.2863 19.966C51.9596 19.728 51.584 19.609 51.1593 19.609C50.6786 19.609 50.2843 19.7233 49.9763 19.952C49.6683 20.176 49.4396 20.484 49.2903 20.876C49.141 21.268 49.064 21.716 49.0593 22.22C49.064 22.9993 49.2413 23.6293 49.5913 24.11C49.946 24.5907 50.4686 24.831 51.1593 24.831C51.6306 24.831 52.011 24.7237 52.3003 24.509C52.5943 24.2897 52.8183 23.977 52.9723 23.571L54.4563 23.921C54.209 24.6583 53.8006 25.2253 53.2313 25.622C52.662 26.014 51.9713 26.21 51.1593 26.21ZM55.8753 26L55.8823 15.92H57.3663V22.08L60.3343 18.44H62.1963L59.0603 22.22L62.5183 26H60.5303L57.3663 22.36V26H55.8753ZM70.2339 26.21C69.2259 26.21 68.3672 25.9907 67.6579 25.552C66.9485 25.1087 66.4049 24.4927 66.0269 23.704C65.6535 22.9153 65.4669 22.0007 65.4669 20.96C65.4669 19.9193 65.6535 19.0047 66.0269 18.216C66.4049 17.4273 66.9485 16.8137 67.6579 16.375C68.3672 15.9317 69.2259 15.71 70.2339 15.71C71.2372 15.71 72.0935 15.9317 72.8029 16.375C73.5169 16.8137 74.0605 17.4273 74.4339 18.216C74.8072 19.0047 74.9939 19.9193 74.9939 20.96C74.9939 22.0007 74.8072 22.9153 74.4339 23.704C74.0605 24.4927 73.5169 25.1087 72.8029 25.552C72.0935 25.9907 71.2372 26.21 70.2339 26.21ZM70.2339 24.817C70.9479 24.8263 71.5405 24.67 72.0119 24.348C72.4879 24.0213 72.8449 23.5687 73.0829 22.99C73.3209 22.4067 73.4399 21.73 73.4399 20.96C73.4399 20.19 73.3209 19.518 73.0829 18.944C72.8449 18.3653 72.4879 17.915 72.0119 17.593C71.5405 17.271 70.9479 17.1077 70.2339 17.103C69.5199 17.0937 68.9249 17.25 68.4489 17.572C67.9775 17.894 67.6229 18.3467 67.3849 18.93C67.1469 19.5133 67.0255 20.19 67.0209 20.96C67.0162 21.73 67.1329 22.4043 67.3709 22.983C67.6089 23.557 67.9659 24.005 68.4419 24.327C68.9225 24.649 69.5199 24.8123 70.2339 24.817ZM76.3902 26V18.44H77.6922V20.274L77.5102 20.036C77.6035 19.7933 77.7248 19.5717 77.8742 19.371C78.0235 19.1657 78.1962 18.9977 78.3922 18.867C78.5835 18.727 78.7958 18.6197 79.0292 18.545C79.2672 18.4657 79.5098 18.419 79.7572 18.405C80.0045 18.3863 80.2425 18.398 80.4712 18.44V19.812C80.2238 19.7467 79.9485 19.728 79.6452 19.756C79.3465 19.784 79.0712 19.8797 78.8192 20.043C78.5812 20.197 78.3922 20.3837 78.2522 20.603C78.1168 20.8223 78.0188 21.0673 77.9582 21.338C77.8975 21.604 77.8672 21.8863 77.8672 22.185V26H76.3902ZM84.6705 26.21C83.9658 26.21 83.3568 26.035 82.8435 25.685C82.3348 25.335 81.9405 24.859 81.6605 24.257C81.3852 23.6503 81.2475 22.969 81.2475 22.213C81.2475 21.4523 81.3875 20.7733 81.6675 20.176C81.9475 19.574 82.3442 19.1003 82.8575 18.755C83.3755 18.405 83.9892 18.23 84.6985 18.23C85.4125 18.23 86.0122 18.405 86.4975 18.755C86.9875 19.1003 87.3562 19.574 87.6035 20.176C87.8555 20.778 87.9815 21.457 87.9815 22.213C87.9815 22.969 87.8555 23.648 87.6035 24.25C87.3515 24.852 86.9805 25.3303 86.4905 25.685C86.0005 26.035 85.3938 26.21 84.6705 26.21ZM84.8735 24.887C85.3542 24.887 85.7462 24.7727 86.0495 24.544C86.3528 24.3153 86.5745 24.0003 86.7145 23.599C86.8545 23.1977 86.9245 22.7357 86.9245 22.213C86.9245 21.6903 86.8522 21.2283 86.7075 20.827C86.5675 20.4257 86.3482 20.113 86.0495 19.889C85.7555 19.665 85.3798 19.553 84.9225 19.553C84.4372 19.553 84.0382 19.672 83.7255 19.91C83.4128 20.148 83.1795 20.4677 83.0255 20.869C82.8762 21.2703 82.8015 21.7183 82.8015 22.213C82.8015 22.7123 82.8762 23.165 83.0255 23.571C83.1795 23.9723 83.4082 24.292 83.7115 24.53C84.0195 24.768 84.4068 24.887 84.8735 24.887ZM86.9245 26V20.561H86.7565V15.92H88.2265V26H86.9245ZM93.5381 26.21C92.7867 26.21 92.1264 26.0467 91.5571 25.72C90.9924 25.3887 90.5514 24.929 90.2341 24.341C89.9214 23.7483 89.7651 23.0623 89.7651 22.283C89.7651 21.457 89.9191 20.7407 90.2271 20.134C90.5397 19.5273 90.9737 19.0583 91.5291 18.727C92.0844 18.3957 92.7307 18.23 93.4681 18.23C94.2381 18.23 94.8937 18.4097 95.4351 18.769C95.9764 19.1237 96.3801 19.63 96.6461 20.288C96.9167 20.946 97.0241 21.7277 96.9681 22.633H95.5051V22.101C95.4957 21.2237 95.3277 20.575 95.0011 20.155C94.6791 19.735 94.1867 19.525 93.5241 19.525C92.7914 19.525 92.2407 19.756 91.8721 20.218C91.5034 20.68 91.3191 21.3473 91.3191 22.22C91.3191 23.0507 91.5034 23.6947 91.8721 24.152C92.2407 24.6047 92.7727 24.831 93.4681 24.831C93.9254 24.831 94.3197 24.7283 94.6511 24.523C94.9871 24.313 95.2484 24.0143 95.4351 23.627L96.8701 24.082C96.5761 24.7587 96.1304 25.2837 95.5331 25.657C94.9357 26.0257 94.2707 26.21 93.5381 26.21ZM90.8431 22.633V21.492H96.2401V22.633H90.8431ZM98.5386 26V18.44H99.8406V20.274L99.6586 20.036C99.7519 19.7933 99.8733 19.5717 100.023 19.371C100.172 19.1657 100.345 18.9977 100.541 18.867C100.732 18.727 100.944 18.6197 101.178 18.545C101.416 18.4657 101.658 18.419 101.906 18.405C102.153 18.3863 102.391 18.398 102.62 18.44V19.812C102.372 19.7467 102.097 19.728 101.794 19.756C101.495 19.784 101.22 19.8797 100.968 20.043C100.73 20.197 100.541 20.3837 100.401 20.603C100.265 20.8223 100.167 21.0673 100.107 21.338C100.046 21.604 100.016 21.8863 100.016 22.185V26H98.5386Z" fill="white"/>
</svg>
