<svg width="99" height="68" viewBox="0 0 99 68" fill="none" xmlns="http://www.w3.org/2000/svg">
<rect y="0.0224609" width="98.6963" height="67.9548" rx="8.08986" fill="#F5F5F5"/>
<g clip-path="url(#clip0_5_1552)">
<path d="M17.6642 20.081C18.6898 19.3982 19.4684 18.4035 19.885 17.244C20.3015 16.0844 20.3339 14.8216 19.9772 13.6423C19.6205 12.4629 18.8938 11.4297 17.9045 10.6953C16.9152 9.96096 15.7158 9.56445 14.4837 9.56445C13.2516 9.56445 12.0523 9.96096 11.063 10.6953C10.0736 11.4297 9.34693 12.4629 8.99026 13.6423C8.6336 14.8216 8.66594 16.0844 9.08248 17.244C9.49903 18.4035 10.2777 19.3982 11.3033 20.081C9.44806 20.7647 7.86368 22.03 6.78652 23.6881C6.72991 23.7722 6.69058 23.8668 6.67084 23.9662C6.65109 24.0657 6.65131 24.1681 6.67149 24.2675C6.69166 24.3669 6.7314 24.4613 6.78837 24.5451C6.84534 24.629 6.91843 24.7008 7.00337 24.7562C7.08831 24.8116 7.18341 24.8495 7.28316 24.8679C7.3829 24.8862 7.48529 24.8845 7.58438 24.8629C7.68346 24.8413 7.77727 24.8002 7.86034 24.7421C7.94341 24.6839 8.01409 24.6098 8.06827 24.5241C8.76309 23.4554 9.71385 22.5773 10.8342 21.9693C11.9546 21.3614 13.2091 21.043 14.4837 21.043C15.7584 21.043 17.0129 21.3614 18.1332 21.9693C19.2536 22.5773 20.2044 23.4554 20.8992 24.5241C21.0114 24.6909 21.1848 24.8068 21.3818 24.8468C21.5789 24.8868 21.7837 24.8477 21.9521 24.7378C22.1205 24.628 22.2389 24.4563 22.2818 24.2599C22.3246 24.0634 22.2884 23.858 22.1809 23.6881C21.1038 22.03 19.5194 20.7647 17.6642 20.081ZM10.275 15.306C10.275 14.4736 10.5218 13.6598 10.9843 12.9677C11.4468 12.2756 12.1041 11.7362 12.8731 11.4176C13.6422 11.0991 14.4884 11.0157 15.3048 11.1781C16.1212 11.3405 16.8712 11.7413 17.4598 12.3299C18.0484 12.9185 18.4492 13.6685 18.6116 14.4849C18.774 15.3013 18.6906 16.1475 18.3721 16.9166C18.0536 17.6856 17.5141 18.343 16.822 18.8054C16.1299 19.2679 15.3161 19.5147 14.4837 19.5147C13.3679 19.5134 12.2981 19.0696 11.5091 18.2806C10.7201 17.4916 10.2763 16.4218 10.275 15.306ZM30.3756 24.7469C30.2056 24.8578 29.9985 24.8966 29.8 24.8548C29.6014 24.813 29.4275 24.694 29.3167 24.5241C28.6227 23.4548 27.6721 22.5762 26.5515 21.9686C25.4309 21.3609 24.176 21.0435 22.9012 21.0452C22.6983 21.0452 22.5036 20.9645 22.3601 20.821C22.2166 20.6775 22.136 20.4829 22.136 20.2799C22.136 20.077 22.2166 19.8824 22.3601 19.7388C22.5036 19.5953 22.6983 19.5147 22.9012 19.5147C23.521 19.5141 24.133 19.3767 24.6936 19.1121C25.2541 18.8476 25.7492 18.4625 26.1437 17.9844C26.5381 17.5063 26.8221 16.947 26.9753 16.3465C27.1286 15.7459 27.1473 15.1189 27.0301 14.5103C26.9129 13.9017 26.6627 13.3264 26.2975 12.8257C25.9322 12.3249 25.4609 11.9111 24.9171 11.6136C24.3734 11.3161 23.7706 11.1425 23.1519 11.1049C22.5333 11.0674 21.914 11.167 21.3382 11.3966C21.2444 11.4372 21.1433 11.4586 21.0411 11.4594C20.9388 11.4603 20.8374 11.4406 20.7429 11.4017C20.6483 11.3627 20.5626 11.3051 20.4906 11.2324C20.4187 11.1597 20.3621 11.0734 20.3241 10.9784C20.2861 10.8835 20.2676 10.7819 20.2695 10.6796C20.2715 10.5774 20.2939 10.4766 20.3355 10.3831C20.377 10.2897 20.4369 10.2056 20.5116 10.1357C20.5862 10.0658 20.6741 10.0115 20.7701 9.97618C22.0876 9.45071 23.5531 9.4318 24.8839 9.9231C26.2146 10.4144 27.3162 11.3811 27.9762 12.6367C28.6362 13.8923 28.8078 15.3478 28.458 16.7225C28.1081 18.0972 27.2616 19.2936 26.0817 20.081C27.9369 20.7647 29.5213 22.03 30.5984 23.6881C30.7093 23.858 30.7481 24.0651 30.7063 24.2637C30.6645 24.4622 30.5455 24.6361 30.3756 24.7469Z" fill="black"/>
</g>
<path d="M6.95144 33.2296V32.1501H13.3834V33.2296H10.7903V40.4609H9.54045V33.2296H6.95144ZM14.0601 40.4609V34.2278H15.2328V35.218H15.2978C15.4114 34.8825 15.6116 34.6187 15.8983 34.4267C16.1878 34.2319 16.5152 34.1345 16.8804 34.1345C16.9561 34.1345 17.0454 34.1372 17.1482 34.1426C17.2537 34.148 17.3362 34.1548 17.3957 34.1629V35.3235C17.3471 35.31 17.2605 35.2951 17.136 35.2789C17.0116 35.2599 16.8871 35.2504 16.7627 35.2504C16.4759 35.2504 16.2203 35.3113 15.9957 35.4331C15.7739 35.5521 15.598 35.7185 15.4682 35.9322C15.3383 36.1432 15.2734 36.384 15.2734 36.6545V40.4609H14.0601ZM20.2039 40.5989C19.8089 40.5989 19.4518 40.5259 19.1326 40.3798C18.8133 40.231 18.5604 40.0159 18.3737 39.7346C18.1898 39.4532 18.0978 39.1083 18.0978 38.6998C18.0978 38.3481 18.1654 38.0586 18.3007 37.8313C18.436 37.6041 18.6186 37.4242 18.8485 37.2916C19.0785 37.1591 19.3355 37.059 19.6195 36.9913C19.9036 36.9237 20.1931 36.8723 20.488 36.8371C20.8613 36.7938 21.1643 36.7587 21.397 36.7316C21.6296 36.7019 21.7987 36.6545 21.9042 36.5896C22.0097 36.5247 22.0625 36.4192 22.0625 36.2731V36.2447C22.0625 35.8903 21.9624 35.6157 21.7622 35.4209C21.5647 35.2261 21.2698 35.1287 20.8775 35.1287C20.469 35.1287 20.1471 35.2193 19.9117 35.4006C19.6791 35.5791 19.5181 35.778 19.4288 35.9971L18.2885 35.7374C18.4238 35.3587 18.6213 35.053 18.881 34.8203C19.1434 34.5849 19.445 34.4145 19.7859 34.309C20.1268 34.2008 20.4853 34.1467 20.8613 34.1467C21.1102 34.1467 21.374 34.1764 21.6526 34.2359C21.934 34.2928 22.1964 34.3983 22.4399 34.5525C22.686 34.7067 22.8876 34.9272 23.0445 35.2139C23.2014 35.498 23.2799 35.8673 23.2799 36.3218V40.4609H22.0949V39.6088H22.0462C21.9678 39.7657 21.8501 39.9199 21.6932 40.0714C21.5363 40.2229 21.3347 40.3487 21.0885 40.4488C20.8424 40.5489 20.5475 40.5989 20.2039 40.5989ZM20.4677 39.625C20.8031 39.625 21.0899 39.5587 21.328 39.4261C21.5687 39.2936 21.7514 39.1204 21.8758 38.9067C22.0029 38.6903 22.0665 38.459 22.0665 38.2128V37.4093C22.0232 37.4526 21.9394 37.4932 21.8149 37.5311C21.6932 37.5662 21.5539 37.5973 21.397 37.6244C21.24 37.6487 21.0872 37.6717 20.9384 37.6934C20.7896 37.7123 20.6652 37.7285 20.5651 37.7421C20.3297 37.7718 20.1146 37.8219 19.9198 37.8922C19.7278 37.9626 19.5736 38.064 19.4572 38.1966C19.3436 38.3264 19.2868 38.4996 19.2868 38.716C19.2868 39.0163 19.3977 39.2435 19.6195 39.3977C19.8414 39.5492 20.1241 39.625 20.4677 39.625ZM24.896 40.4609V34.2278H26.1093V40.4609H24.896ZM25.5087 33.2661C25.2977 33.2661 25.1165 33.1957 24.965 33.0551C24.8162 32.9117 24.7418 32.7412 24.7418 32.5438C24.7418 32.3436 24.8162 32.1731 24.965 32.0324C25.1165 31.8891 25.2977 31.8174 25.5087 31.8174C25.7198 31.8174 25.8997 31.8891 26.0484 32.0324C26.1999 32.1731 26.2757 32.3436 26.2757 32.5438C26.2757 32.7412 26.1999 32.9117 26.0484 33.0551C25.8997 33.1957 25.7198 33.2661 25.5087 33.2661ZM28.955 36.76V40.4609H27.7417V34.2278H28.9063V35.2423H28.9834C29.1268 34.9123 29.3513 34.6472 29.657 34.447C29.9654 34.2468 30.3537 34.1467 30.8217 34.1467C31.2464 34.1467 31.6184 34.2359 31.9376 34.4145C32.2569 34.5903 32.5044 34.8528 32.6803 35.2018C32.8561 35.5507 32.944 35.9822 32.944 36.4963V40.4609H31.7307V36.6423C31.7307 36.1906 31.613 35.8375 31.3776 35.5832C31.1423 35.3262 30.819 35.1977 30.4078 35.1977C30.1264 35.1977 29.8762 35.2586 29.657 35.3803C29.4406 35.502 29.2688 35.6806 29.1417 35.916C29.0172 36.1486 28.955 36.43 28.955 36.76ZM37.2577 40.5867C36.6436 40.5867 36.1147 40.4555 35.671 40.1931C35.23 39.928 34.8892 39.556 34.6484 39.0772C34.4103 38.5956 34.2913 38.0315 34.2913 37.385C34.2913 36.7465 34.4103 36.1838 34.6484 35.6968C34.8892 35.2099 35.2246 34.8298 35.6548 34.5565C36.0876 34.2833 36.5935 34.1467 37.1725 34.1467C37.5242 34.1467 37.865 34.2048 38.1951 34.3212C38.5252 34.4375 38.8214 34.6201 39.0838 34.869C39.3462 35.1179 39.5532 35.4412 39.7047 35.8389C39.8562 36.2338 39.9319 36.714 39.9319 37.2795V37.7096H34.9771V36.8006H38.7429C38.7429 36.4814 38.678 36.1987 38.5481 35.9525C38.4183 35.7036 38.2357 35.5075 38.0003 35.3641C37.7677 35.2207 37.4944 35.149 37.1806 35.149C36.8397 35.149 36.5421 35.2329 36.2878 35.4006C36.0362 35.5656 35.8415 35.782 35.7035 36.0499C35.5682 36.315 35.5006 36.6031 35.5006 36.9142V37.6244C35.5006 38.041 35.5736 38.3954 35.7197 38.6876C35.8685 38.9798 36.0755 39.203 36.3406 39.3572C36.6057 39.5087 36.9155 39.5844 37.2699 39.5844C37.4998 39.5844 37.7095 39.5519 37.8989 39.487C38.0882 39.4194 38.2519 39.3193 38.3899 39.1867C38.5279 39.0542 38.6334 38.8905 38.7064 38.6957L39.8548 38.9027C39.7628 39.2408 39.5978 39.5371 39.3597 39.7914C39.1244 40.043 38.8281 40.2391 38.471 40.3798C38.1166 40.5177 37.7122 40.5867 37.2577 40.5867ZM43.6115 40.5827C43.1083 40.5827 42.6593 40.4542 42.2643 40.1972C41.872 39.9375 41.5636 39.5682 41.339 39.0893C41.1172 38.6078 41.0063 38.0302 41.0063 37.3566C41.0063 36.6829 41.1186 36.1067 41.3431 35.6278C41.5704 35.149 41.8815 34.7824 42.2764 34.5281C42.6714 34.2738 43.1192 34.1467 43.6197 34.1467C44.0065 34.1467 44.3176 34.2116 44.553 34.3415C44.7911 34.4686 44.975 34.6174 45.1049 34.7878C45.2374 34.9583 45.3402 35.1084 45.4133 35.2383H45.4863V32.1501H46.6997V40.4609H45.5147V39.4911H45.4133C45.3402 39.6236 45.2347 39.7751 45.0968 39.9456C44.9615 40.116 44.7748 40.2648 44.5368 40.392C44.2987 40.5191 43.9903 40.5827 43.6115 40.5827ZM43.8794 39.5479C44.2284 39.5479 44.5232 39.4559 44.764 39.2719C45.0075 39.0853 45.1915 38.8269 45.3159 38.4969C45.4431 38.1668 45.5066 37.7826 45.5066 37.3444C45.5066 36.9115 45.4444 36.5328 45.32 36.2081C45.1955 35.8835 45.0129 35.6305 44.7721 35.4493C44.5314 35.268 44.2338 35.1774 43.8794 35.1774C43.5141 35.1774 43.2098 35.2721 42.9663 35.4615C42.7228 35.6508 42.5389 35.9092 42.4144 36.2365C42.2927 36.5639 42.2318 36.9332 42.2318 37.3444C42.2318 37.761 42.294 38.1357 42.4185 38.4685C42.5429 38.8012 42.7269 39.065 42.9704 39.2598C43.2166 39.4518 43.5196 39.5479 43.8794 39.5479ZM7.2639 56.7984V48.2278H8.44884V49.2383H8.55029C8.62063 49.1084 8.72208 48.9583 8.85464 48.7878C8.98721 48.6174 9.17117 48.4686 9.40653 48.3415C9.6419 48.2116 9.95301 48.1467 10.3399 48.1467C10.8431 48.1467 11.2922 48.2738 11.6871 48.5281C12.0821 48.7824 12.3919 49.149 12.6164 49.6278C12.8437 50.1067 12.9573 50.6829 12.9573 51.3566C12.9573 52.0302 12.845 52.6078 12.6205 53.0893C12.3959 53.5682 12.0875 53.9375 11.6953 54.1972C11.303 54.4542 10.8552 54.5827 10.3521 54.5827C9.9733 54.5827 9.66354 54.5191 9.42277 54.392C9.1847 54.2648 8.99803 54.116 8.86276 53.9456C8.72749 53.7751 8.62334 53.6236 8.55029 53.4911H8.47725V56.7984H7.2639ZM8.4529 51.3444C8.4529 51.7826 8.51648 52.1668 8.64363 52.4969C8.77078 52.8269 8.95474 53.0853 9.19552 53.2719C9.43629 53.4559 9.73118 53.5479 10.0802 53.5479C10.4427 53.5479 10.7457 53.4518 10.9892 53.2598C11.2326 53.065 11.4166 52.8012 11.541 52.4685C11.6682 52.1357 11.7318 51.761 11.7318 51.3444C11.7318 50.9332 11.6696 50.5639 11.5451 50.2365C11.4234 49.9092 11.2394 49.6508 10.9932 49.4615C10.7497 49.2721 10.4454 49.1774 10.0802 49.1774C9.72847 49.1774 9.43088 49.268 9.1874 49.4493C8.94663 49.6305 8.76402 49.8835 8.63957 50.2081C8.51512 50.5328 8.4529 50.9115 8.4529 51.3444ZM14.3167 54.4609V48.2278H15.4895V49.218H15.5544C15.668 48.8825 15.8682 48.6187 16.155 48.4267C16.4445 48.2319 16.7718 48.1345 17.1371 48.1345C17.2128 48.1345 17.3021 48.1372 17.4049 48.1426C17.5104 48.148 17.5929 48.1548 17.6524 48.1629V49.3235C17.6037 49.31 17.5172 49.2951 17.3927 49.2789C17.2683 49.2599 17.1438 49.2504 17.0194 49.2504C16.7326 49.2504 16.4769 49.3113 16.2524 49.4331C16.0306 49.5521 15.8547 49.7185 15.7249 49.9322C15.595 50.1432 15.5301 50.384 15.5301 50.6545V54.4609H14.3167ZM21.1048 54.5867C20.5204 54.5867 20.0105 54.4528 19.5749 54.185C19.1393 53.9172 18.8012 53.5425 18.5604 53.0609C18.3196 52.5794 18.1992 52.0167 18.1992 51.3728C18.1992 50.7262 18.3196 50.1608 18.5604 49.6765C18.8012 49.1923 19.1393 48.8162 19.5749 48.5484C20.0105 48.2806 20.5204 48.1467 21.1048 48.1467C21.6891 48.1467 22.1991 48.2806 22.6346 48.5484C23.0702 48.8162 23.4084 49.1923 23.6491 49.6765C23.8899 50.1608 24.0103 50.7262 24.0103 51.3728C24.0103 52.0167 23.8899 52.5794 23.6491 53.0609C23.4084 53.5425 23.0702 53.9172 22.6346 54.185C22.1991 54.4528 21.6891 54.5867 21.1048 54.5867ZM21.1088 53.5682C21.4876 53.5682 21.8014 53.4681 22.0503 53.2679C22.2992 53.0677 22.4831 52.8012 22.6022 52.4685C22.7239 52.1357 22.7848 51.7691 22.7848 51.3687C22.7848 50.971 22.7239 50.6058 22.6022 50.2731C22.4831 49.9376 22.2992 49.6684 22.0503 49.4655C21.8014 49.2626 21.4876 49.1612 21.1088 49.1612C20.7274 49.1612 20.4109 49.2626 20.1593 49.4655C19.9104 49.6684 19.725 49.9376 19.6033 50.2731C19.4843 50.6058 19.4248 50.971 19.4248 51.3687C19.4248 51.7691 19.4843 52.1357 19.6033 52.4685C19.725 52.8012 19.9104 53.0677 20.1593 53.2679C20.4109 53.4681 20.7274 53.5682 21.1088 53.5682ZM28.3311 48.2278V49.2018H24.8087V48.2278H28.3311ZM25.7745 54.4609V47.5055C25.7745 47.1159 25.8598 46.7926 26.0302 46.5356C26.2006 46.2759 26.4265 46.0825 26.7079 45.9553C26.9892 45.8255 27.2949 45.7606 27.625 45.7606C27.8685 45.7606 28.0768 45.7808 28.2499 45.8214C28.4231 45.8593 28.5516 45.8945 28.6354 45.9269L28.3514 46.909C28.2946 46.8927 28.2215 46.8738 28.1322 46.8522C28.043 46.8278 27.9347 46.8156 27.8076 46.8156C27.5127 46.8156 27.3017 46.8887 27.1745 47.0348C27.0501 47.1809 26.9879 47.3919 26.9879 47.6678V54.4609H25.7745ZM32.0239 54.5867C31.4098 54.5867 30.8809 54.4555 30.4372 54.1931C29.9962 53.928 29.6553 53.556 29.4146 53.0772C29.1765 52.5956 29.0575 52.0315 29.0575 51.385C29.0575 50.7465 29.1765 50.1838 29.4146 49.6968C29.6553 49.2099 29.9908 48.8298 30.421 48.5565C30.8538 48.2833 31.3597 48.1467 31.9387 48.1467C32.2904 48.1467 32.6312 48.2048 32.9613 48.3212C33.2913 48.4375 33.5876 48.6201 33.85 48.869C34.1124 49.1179 34.3194 49.4412 34.4709 49.8389C34.6224 50.2338 34.6981 50.714 34.6981 51.2795V51.7096H29.7433V50.8006H33.5091C33.5091 50.4814 33.4442 50.1987 33.3143 49.9525C33.1845 49.7036 33.0019 49.5075 32.7665 49.3641C32.5338 49.2207 32.2606 49.149 31.9468 49.149C31.6059 49.149 31.3083 49.2329 31.054 49.4006C30.8024 49.5656 30.6076 49.782 30.4697 50.0499C30.3344 50.315 30.2668 50.6031 30.2668 50.9142V51.6244C30.2668 52.041 30.3398 52.3954 30.4859 52.6876C30.6347 52.9798 30.8416 53.203 31.1068 53.3572C31.3719 53.5087 31.6816 53.5844 32.036 53.5844C32.266 53.5844 32.4757 53.5519 32.665 53.487C32.8544 53.4194 33.0181 53.3193 33.1561 53.1867C33.294 53.0542 33.3995 52.8905 33.4726 52.6957L34.621 52.9027C34.529 53.2408 34.364 53.5371 34.1259 53.7914C33.8906 54.043 33.5943 54.2391 33.2372 54.3798C32.8828 54.5177 32.4784 54.5867 32.0239 54.5867ZM40.7151 49.7496L39.6154 49.9444C39.5694 49.8037 39.4964 49.6698 39.3963 49.5426C39.2989 49.4155 39.1663 49.3113 38.9986 49.2302C38.8309 49.149 38.6212 49.1084 38.3696 49.1084C38.026 49.1084 37.7392 49.1855 37.5093 49.3397C37.2793 49.4912 37.1644 49.6874 37.1644 49.9281C37.1644 50.1364 37.2415 50.3042 37.3957 50.4313C37.5499 50.5585 37.7988 50.6626 38.1423 50.7438L39.1325 50.971C39.706 51.1036 40.1335 51.3079 40.4148 51.5838C40.6962 51.8598 40.8369 52.2182 40.8369 52.6592C40.8369 53.0325 40.7287 53.3653 40.5122 53.6575C40.2985 53.9469 39.9996 54.1742 39.6154 54.3392C39.234 54.5042 38.7916 54.5867 38.2884 54.5867C37.5905 54.5867 37.021 54.4379 36.58 54.1404C36.139 53.8401 35.8685 53.414 35.7684 52.8621L36.9412 52.6835C37.0142 52.9892 37.1644 53.2205 37.3916 53.3774C37.6189 53.5317 37.9151 53.6088 38.2803 53.6088C38.678 53.6088 38.9959 53.5262 39.234 53.3612C39.472 53.1935 39.5911 52.9892 39.5911 52.7485C39.5911 52.5537 39.518 52.39 39.3719 52.2574C39.2285 52.1249 39.0081 52.0248 38.7105 51.9571L37.6554 51.7258C37.0737 51.5933 36.6436 51.3823 36.3649 51.0928C36.089 50.8033 35.951 50.4367 35.951 49.9931C35.951 49.6251 36.0538 49.3032 36.2594 49.0273C36.465 48.7513 36.7491 48.5362 37.1116 48.382C37.4741 48.2251 37.8894 48.1467 38.3574 48.1467C39.0311 48.1467 39.5613 48.2928 39.9482 48.5849C40.335 48.8744 40.5907 49.2626 40.7151 49.7496ZM46.8417 49.7496L45.742 49.9444C45.696 49.8037 45.623 49.6698 45.5229 49.5426C45.4255 49.4155 45.2929 49.3113 45.1252 49.2302C44.9574 49.149 44.7478 49.1084 44.4962 49.1084C44.1526 49.1084 43.8658 49.1855 43.6359 49.3397C43.4059 49.4912 43.291 49.6874 43.291 49.9281C43.291 50.1364 43.3681 50.3042 43.5223 50.4313C43.6765 50.5585 43.9254 50.6626 44.2689 50.7438L45.2591 50.971C45.8326 51.1036 46.2601 51.3079 46.5414 51.5838C46.8228 51.8598 46.9635 52.2182 46.9635 52.6592C46.9635 53.0325 46.8552 53.3653 46.6388 53.6575C46.4251 53.9469 46.1261 54.1742 45.742 54.3392C45.3605 54.5042 44.9182 54.5867 44.415 54.5867C43.717 54.5867 43.1476 54.4379 42.7066 54.1404C42.2656 53.8401 41.9951 53.414 41.895 52.8621L43.0678 52.6835C43.1408 52.9892 43.291 53.2205 43.5182 53.3774C43.7454 53.5317 44.0417 53.6088 44.4069 53.6088C44.8046 53.6088 45.1225 53.5262 45.3605 53.3612C45.5986 53.1935 45.7176 52.9892 45.7176 52.7485C45.7176 52.5537 45.6446 52.39 45.4985 52.2574C45.3551 52.1249 45.1346 52.0248 44.8371 51.9571L43.782 51.7258C43.2003 51.5933 42.7702 51.3823 42.4915 51.0928C42.2156 50.8033 42.0776 50.4367 42.0776 49.9931C42.0776 49.6251 42.1804 49.3032 42.386 49.0273C42.5916 48.7513 42.8757 48.5362 43.2382 48.382C43.6007 48.2251 44.016 48.1467 44.484 48.1467C45.1576 48.1467 45.6879 48.2928 46.0747 48.5849C46.4616 48.8744 46.7173 49.2626 46.8417 49.7496ZM48.2975 54.4609V48.2278H49.5109V54.4609H48.2975ZM48.9103 47.2661C48.6993 47.2661 48.518 47.1957 48.3665 47.0551C48.2177 46.9117 48.1433 46.7412 48.1433 46.5438C48.1433 46.3436 48.2177 46.1731 48.3665 46.0324C48.518 45.8891 48.6993 45.8174 48.9103 45.8174C49.1213 45.8174 49.3012 45.8891 49.45 46.0324C49.6015 46.1731 49.6773 46.3436 49.6773 46.5438C49.6773 46.7412 49.6015 46.9117 49.45 47.0551C49.3012 47.1957 49.1213 47.2661 48.9103 47.2661ZM53.7687 54.5867C53.1844 54.5867 52.6744 54.4528 52.2389 54.185C51.8033 53.9172 51.4651 53.5425 51.2244 53.0609C50.9836 52.5794 50.8632 52.0167 50.8632 51.3728C50.8632 50.7262 50.9836 50.1608 51.2244 49.6765C51.4651 49.1923 51.8033 48.8162 52.2389 48.5484C52.6744 48.2806 53.1844 48.1467 53.7687 48.1467C54.3531 48.1467 54.8631 48.2806 55.2986 48.5484C55.7342 48.8162 56.0723 49.1923 56.3131 49.6765C56.5539 50.1608 56.6743 50.7262 56.6743 51.3728C56.6743 52.0167 56.5539 52.5794 56.3131 53.0609C56.0723 53.5425 55.7342 53.9172 55.2986 54.185C54.8631 54.4528 54.3531 54.5867 53.7687 54.5867ZM53.7728 53.5682C54.1515 53.5682 54.4654 53.4681 54.7143 53.2679C54.9631 53.0677 55.1471 52.8012 55.2661 52.4685C55.3879 52.1357 55.4488 51.7691 55.4488 51.3687C55.4488 50.971 55.3879 50.6058 55.2661 50.2731C55.1471 49.9376 54.9631 49.6684 54.7143 49.4655C54.4654 49.2626 54.1515 49.1612 53.7728 49.1612C53.3913 49.1612 53.0748 49.2626 52.8232 49.4655C52.5743 49.6684 52.389 49.9376 52.2673 50.2731C52.1482 50.6058 52.0887 50.971 52.0887 51.3687C52.0887 51.7691 52.1482 52.1357 52.2673 52.4685C52.389 52.8012 52.5743 53.0677 52.8232 53.2679C53.0748 53.4681 53.3913 53.5682 53.7728 53.5682ZM59.242 50.76V54.4609H58.0286V48.2278H59.1933V49.2423H59.2704C59.4138 48.9123 59.6383 48.6472 59.944 48.447C60.2524 48.2468 60.6407 48.1467 61.1087 48.1467C61.5334 48.1467 61.9054 48.2359 62.2246 48.4145C62.5439 48.5903 62.7914 48.8528 62.9672 49.2018C63.1431 49.5507 63.231 49.9822 63.231 50.4963V54.4609H62.0177V50.6423C62.0177 50.1906 61.9 49.8375 61.6646 49.5832C61.4293 49.3262 61.106 49.1977 60.6948 49.1977C60.4134 49.1977 60.1632 49.2586 59.944 49.3803C59.7276 49.502 59.5558 49.6806 59.4287 49.916C59.3042 50.1486 59.242 50.43 59.242 50.76ZM66.6722 54.5989C66.2772 54.5989 65.9201 54.5259 65.6009 54.3798C65.2817 54.231 65.0287 54.0159 64.842 53.7346C64.6581 53.4532 64.5661 53.1083 64.5661 52.6998C64.5661 52.3481 64.6337 52.0586 64.769 51.8313C64.9043 51.6041 65.0869 51.4242 65.3168 51.2916C65.5468 51.1591 65.8038 51.059 66.0879 50.9913C66.3719 50.9237 66.6614 50.8723 66.9563 50.8371C67.3296 50.7938 67.6326 50.7587 67.8653 50.7316C68.0979 50.7019 68.267 50.6545 68.3725 50.5896C68.478 50.5247 68.5308 50.4192 68.5308 50.2731V50.2447C68.5308 49.8903 68.4307 49.6157 68.2305 49.4209C68.033 49.2261 67.7381 49.1287 67.3458 49.1287C66.9373 49.1287 66.6154 49.2193 66.38 49.4006C66.1474 49.5791 65.9864 49.778 65.8971 49.9971L64.7568 49.7374C64.8921 49.3587 65.0896 49.053 65.3493 48.8203C65.6117 48.5849 65.9134 48.4145 66.2542 48.309C66.5951 48.2008 66.9536 48.1467 67.3296 48.1467C67.5785 48.1467 67.8423 48.1764 68.1209 48.2359C68.4023 48.2928 68.6647 48.3983 68.9082 48.5525C69.1544 48.7067 69.3559 48.9272 69.5128 49.2139C69.6697 49.498 69.7482 49.8673 69.7482 50.3218V54.4609H68.5632V53.6088H68.5145C68.4361 53.7657 68.3184 53.9199 68.1615 54.0714C68.0046 54.2229 67.803 54.3487 67.5569 54.4488C67.3107 54.5489 67.0158 54.5989 66.6722 54.5989ZM66.936 53.625C67.2714 53.625 67.5582 53.5587 67.7963 53.4261C68.0371 53.2936 68.2197 53.1204 68.3441 52.9067C68.4713 52.6903 68.5348 52.459 68.5348 52.2128V51.4093C68.4916 51.4526 68.4077 51.4932 68.2832 51.5311C68.1615 51.5662 68.0222 51.5973 67.8653 51.6244C67.7084 51.6487 67.5555 51.6717 67.4067 51.6934C67.2579 51.7123 67.1335 51.7285 67.0334 51.7421C66.798 51.7718 66.5829 51.8219 66.3881 51.8922C66.1961 51.9626 66.0419 52.064 65.9255 52.1966C65.8119 52.3264 65.7551 52.4996 65.7551 52.716C65.7551 53.0163 65.866 53.2435 66.0879 53.3977C66.3097 53.5492 66.5924 53.625 66.936 53.625ZM72.5776 46.1501V54.4609H71.3643V46.1501H72.5776ZM78.8807 49.7496L77.781 49.9444C77.735 49.8037 77.662 49.6698 77.5619 49.5426C77.4645 49.4155 77.3319 49.3113 77.1642 49.2302C76.9965 49.149 76.7868 49.1084 76.5352 49.1084C76.1916 49.1084 75.9049 49.1855 75.6749 49.3397C75.445 49.4912 75.33 49.6874 75.33 49.9281C75.33 50.1364 75.4071 50.3042 75.5613 50.4313C75.7155 50.5585 75.9644 50.6626 76.308 50.7438L77.2981 50.971C77.8717 51.1036 78.2991 51.3079 78.5805 51.5838C78.8618 51.8598 79.0025 52.2182 79.0025 52.6592C79.0025 53.0325 78.8943 53.3653 78.6778 53.6575C78.4641 53.9469 78.1652 54.1742 77.781 54.3392C77.3996 54.5042 76.9572 54.5867 76.4541 54.5867C75.7561 54.5867 75.1866 54.4379 74.7456 54.1404C74.3047 53.8401 74.0341 53.414 73.934 52.8621L75.1068 52.6835C75.1798 52.9892 75.33 53.2205 75.5572 53.3774C75.7845 53.5317 76.0807 53.6088 76.4459 53.6088C76.8436 53.6088 77.1615 53.5262 77.3996 53.3612C77.6376 53.1935 77.7567 52.9892 77.7567 52.7485C77.7567 52.5537 77.6836 52.39 77.5375 52.2574C77.3942 52.1249 77.1737 52.0248 76.8761 51.9571L75.821 51.7258C75.2394 51.5933 74.8092 51.3823 74.5306 51.0928C74.2546 50.8033 74.1166 50.4367 74.1166 49.9931C74.1166 49.6251 74.2194 49.3032 74.425 49.0273C74.6307 48.7513 74.9147 48.5362 75.2772 48.382C75.6397 48.2251 76.055 48.1467 76.523 48.1467C77.1967 48.1467 77.7269 48.2928 78.1138 48.5849C78.5006 48.8744 78.7563 49.2626 78.8807 49.7496Z" fill="black"/>
<defs>
<clipPath id="clip0_5_1552">
<rect width="24.4872" height="24.4872" fill="white" transform="translate(6.44818 4.97461)"/>
</clipPath>
</defs>
</svg>
