<svg width="100" height="68" viewBox="0 0 100 68" fill="none" xmlns="http://www.w3.org/2000/svg">
<g clip-path="url(#clip0_5_1560)">
<rect x="0.751953" y="0.0224609" width="98.6963" height="67.9548" rx="8.08986" fill="#F5F5F5"/>
<path d="M19.3405 7.02126C19.5954 6.96267 19.8622 6.98491 20.104 7.08489C20.3457 7.18487 20.5503 7.35764 20.6893 7.5792L21.9412 9.57794C22.0422 9.73893 22.1782 9.87499 22.3392 9.97593L24.3379 11.2278C24.56 11.3668 24.7332 11.5715 24.8334 11.8135C24.9336 12.0555 24.9559 12.3227 24.8971 12.5779L24.3682 14.8752C24.3255 15.0608 24.3255 15.2538 24.3682 15.4394L24.8971 17.7379C24.9553 17.9928 24.9328 18.2595 24.8326 18.5009C24.7324 18.7424 24.5595 18.9467 24.3379 19.0855L22.3392 20.3387C22.178 20.4394 22.0419 20.5755 21.9412 20.7367L20.6893 22.7354C20.5504 22.9572 20.3459 23.1302 20.1042 23.2304C19.8625 23.3306 19.5955 23.3531 19.3405 23.2946L17.042 22.7656C16.8567 22.7231 16.6642 22.7231 16.479 22.7656L14.1805 23.2946C13.9254 23.3531 13.6585 23.3306 13.4167 23.2304C13.175 23.1302 12.9705 22.9572 12.8316 22.7354L11.5797 20.7367C11.4784 20.5756 11.3419 20.4395 11.1805 20.3387L9.183 19.0868C8.96121 18.9479 8.78819 18.7434 8.68798 18.5017C8.58776 18.2599 8.56533 17.993 8.62381 17.7379L9.15151 15.4394C9.19419 15.2538 9.19419 15.0608 9.15151 14.8752L8.62255 12.5779C8.56391 12.3226 8.58639 12.0553 8.68685 11.8132C8.78731 11.5712 8.96074 11.3666 9.183 11.2278L11.1805 9.97593C11.3419 9.87514 11.4784 9.73907 11.5797 9.57794L12.8316 7.5792C12.9706 7.35788 13.175 7.18527 13.4164 7.0853C13.6579 6.98533 13.9245 6.96295 14.1792 7.02126L16.479 7.54897C16.6642 7.59145 16.8567 7.59145 17.042 7.54897L19.3405 7.02126Z" stroke="black" stroke-width="1.25945"/>
<path d="M13.6297 15.8321L16.1926 18.2868L19.8891 12.0273" stroke="black" stroke-width="1.25945" stroke-linecap="round" stroke-linejoin="round"/>
<path d="M10.893 40.5746C10.3357 40.5746 9.8379 40.4785 9.39964 40.2864C8.96408 40.0944 8.61915 39.8279 8.36485 39.487C8.11325 39.1434 7.97798 38.7458 7.95904 38.294H9.23326C9.24949 38.5401 9.33201 38.7539 9.4808 38.9351C9.6323 39.1137 9.82979 39.2516 10.0733 39.349C10.3168 39.4464 10.5873 39.4951 10.8849 39.4951C11.2122 39.4951 11.5017 39.4383 11.7533 39.3247C12.0076 39.2111 12.2064 39.0528 12.3498 38.8499C12.4932 38.6443 12.5649 38.4076 12.5649 38.1398C12.5649 37.8611 12.4932 37.6163 12.3498 37.4053C12.2091 37.1915 12.0022 37.0238 11.7289 36.9021C11.4584 36.7803 11.1311 36.7194 10.7469 36.7194H10.0449V35.6968H10.7469C11.0553 35.6968 11.3258 35.6414 11.5585 35.5305C11.7939 35.4195 11.9778 35.2653 12.1104 35.0678C12.243 34.8676 12.3092 34.6336 12.3092 34.3658C12.3092 34.1088 12.2511 33.8856 12.1347 33.6962C12.0211 33.5041 11.8588 33.354 11.6478 33.2458C11.4395 33.1376 11.1933 33.0835 10.9092 33.0835C10.6387 33.0835 10.3857 33.1335 10.1504 33.2336C9.91771 33.331 9.72834 33.4717 9.58225 33.6556C9.43616 33.8369 9.35771 34.0547 9.34688 34.309H8.13354C8.14707 33.8599 8.27963 33.4649 8.53122 33.124C8.78553 32.7832 9.12099 32.5167 9.53761 32.3246C9.95423 32.1325 10.4168 32.0365 10.9255 32.0365C11.4584 32.0365 11.9183 32.1407 12.3052 32.349C12.6947 32.5546 12.995 32.8292 13.2061 33.1727C13.4198 33.5163 13.5253 33.8924 13.5226 34.3009C13.5253 34.7662 13.3954 35.1612 13.133 35.4858C12.8733 35.8105 12.527 36.0282 12.0942 36.1392V36.2041C12.6461 36.2879 13.0735 36.5071 13.3765 36.8615C13.6822 37.2159 13.8337 37.6555 13.831 38.1803C13.8337 38.6375 13.7065 39.0474 13.4495 39.4099C13.1952 39.7724 12.8476 40.0578 12.4066 40.2662C11.9657 40.4718 11.4611 40.5746 10.893 40.5746ZM18.2583 40.5989C17.6171 40.5962 17.0693 40.4271 16.6148 40.0917C16.1603 39.7562 15.8127 39.2679 15.5719 38.6267C15.3311 37.9855 15.2107 37.2132 15.2107 36.3096C15.2107 35.4087 15.3311 34.639 15.5719 34.0006C15.8154 33.3621 16.1643 32.8752 16.6188 32.5397C17.076 32.2042 17.6225 32.0365 18.2583 32.0365C18.894 32.0365 19.4392 32.2056 19.8937 32.5438C20.3482 32.8792 20.6958 33.3662 20.9366 34.0046C21.1801 34.6404 21.3018 35.4087 21.3018 36.3096C21.3018 37.2159 21.1814 37.9896 20.9406 38.6308C20.6999 39.2692 20.3522 39.7575 19.8977 40.0957C19.4432 40.4312 18.8967 40.5989 18.2583 40.5989ZM18.2583 39.5154C18.821 39.5154 19.2606 39.2408 19.5771 38.6916C19.8964 38.1425 20.056 37.3484 20.056 36.3096C20.056 35.6197 19.9829 35.0367 19.8369 34.5606C19.6935 34.0817 19.4865 33.7192 19.216 33.473C18.9481 33.2241 18.6289 33.0997 18.2583 33.0997C17.6983 33.0997 17.2587 33.3756 16.9394 33.9275C16.6202 34.4794 16.4592 35.2734 16.4565 36.3096C16.4565 37.0022 16.5282 37.5879 16.6716 38.0667C16.8177 38.5428 17.0246 38.904 17.2925 39.1502C17.5603 39.3937 17.8822 39.5154 18.2583 39.5154ZM26.4301 36.4232V37.4742H22.7454V36.4232H26.4301ZM30.3806 40.5827C29.8774 40.5827 29.4283 40.4542 29.0333 40.1972C28.6411 39.9375 28.3326 39.5682 28.1081 39.0893C27.8863 38.6078 27.7753 38.0302 27.7753 37.3566C27.7753 36.6829 27.8876 36.1067 28.1122 35.6278C28.3394 35.149 28.6505 34.7824 29.0455 34.5281C29.4405 34.2738 29.8882 34.1467 30.3887 34.1467C30.7756 34.1467 31.0867 34.2116 31.322 34.3415C31.5601 34.4686 31.7441 34.6174 31.8739 34.7878C32.0065 34.9583 32.1093 35.1084 32.1823 35.2383H32.2554V32.1501H33.4687V40.4609H32.2838V39.4911H32.1823C32.1093 39.6236 32.0038 39.7751 31.8658 39.9456C31.7306 40.116 31.5439 40.2648 31.3058 40.392C31.0677 40.5191 30.7593 40.5827 30.3806 40.5827ZM30.6484 39.5479C30.9974 39.5479 31.2923 39.4559 31.5331 39.2719C31.7765 39.0853 31.9605 38.8269 32.085 38.4969C32.2121 38.1668 32.2757 37.7826 32.2757 37.3444C32.2757 36.9115 32.2135 36.5328 32.089 36.2081C31.9646 35.8835 31.782 35.6305 31.5412 35.4493C31.3004 35.268 31.0028 35.1774 30.6484 35.1774C30.2832 35.1774 29.9788 35.2721 29.7354 35.4615C29.4919 35.6508 29.3079 35.9092 29.1835 36.2365C29.0617 36.5639 29.0009 36.9332 29.0009 37.3444C29.0009 37.761 29.0631 38.1357 29.1875 38.4685C29.312 38.8012 29.4959 39.065 29.7394 39.2598C29.9856 39.4518 30.2886 39.5479 30.6484 39.5479ZM37.0144 40.5989C36.6194 40.5989 36.2623 40.5259 35.9431 40.3798C35.6239 40.231 35.3709 40.0159 35.1843 39.7346C35.0003 39.4532 34.9083 39.1083 34.9083 38.6998C34.9083 38.3481 34.9759 38.0586 35.1112 37.8313C35.2465 37.6041 35.4291 37.4242 35.659 37.2916C35.889 37.1591 36.146 37.059 36.4301 36.9913C36.7141 36.9237 37.0036 36.8723 37.2985 36.8371C37.6718 36.7938 37.9748 36.7587 38.2075 36.7316C38.4401 36.7019 38.6092 36.6545 38.7147 36.5896C38.8202 36.5247 38.873 36.4192 38.873 36.2731V36.2447C38.873 35.8903 38.7729 35.6157 38.5727 35.4209C38.3752 35.2261 38.0803 35.1287 37.6881 35.1287C37.2795 35.1287 36.9576 35.2193 36.7222 35.4006C36.4896 35.5791 36.3286 35.778 36.2393 35.9971L35.099 35.7374C35.2343 35.3587 35.4318 35.053 35.6915 34.8203C35.9539 34.5849 36.2556 34.4145 36.5964 34.309C36.9373 34.2008 37.2958 34.1467 37.6718 34.1467C37.9207 34.1467 38.1845 34.1764 38.4631 34.2359C38.7445 34.2928 39.0069 34.3983 39.2504 34.5525C39.4966 34.7067 39.6981 34.9272 39.855 35.2139C40.0119 35.498 40.0904 35.8673 40.0904 36.3218V40.4609H38.9055V39.6088H38.8568C38.7783 39.7657 38.6606 39.9199 38.5037 40.0714C38.3468 40.2229 38.1453 40.3487 37.8991 40.4488C37.6529 40.5489 37.358 40.5989 37.0144 40.5989ZM37.2782 39.625C37.6137 39.625 37.9004 39.5587 38.1385 39.4261C38.3793 39.2936 38.5619 39.1204 38.6863 38.9067C38.8135 38.6903 38.8771 38.459 38.8771 38.2128V37.4093C38.8338 37.4526 38.7499 37.4932 38.6255 37.5311C38.5037 37.5662 38.3644 37.5973 38.2075 37.6244C38.0506 37.6487 37.8977 37.6717 37.7489 37.6934C37.6001 37.7123 37.4757 37.7285 37.3756 37.7421C37.1402 37.7718 36.9251 37.8219 36.7304 37.8922C36.5383 37.9626 36.3841 38.064 36.2677 38.1966C36.1541 38.3264 36.0973 38.4996 36.0973 38.716C36.0973 39.0163 36.2082 39.2435 36.4301 39.3977C36.6519 39.5492 36.9346 39.625 37.2782 39.625ZM42.2503 42.7984C42.069 42.7984 41.904 42.7835 41.7552 42.7537C41.6064 42.7267 41.4955 42.6969 41.4224 42.6644L41.7146 41.6702C41.9365 41.7297 42.1339 41.7554 42.3071 41.7473C42.4802 41.7392 42.6331 41.6743 42.7656 41.5525C42.9009 41.4308 43.0199 41.232 43.1228 40.956L43.2729 40.5421L40.9923 34.2278H42.2909L43.8694 39.065H43.9344L45.5129 34.2278H46.8155L44.2468 41.2928C44.1278 41.6175 43.9763 41.8921 43.7923 42.1166C43.6084 42.3439 43.3892 42.5143 43.1349 42.6279C42.8806 42.7415 42.5857 42.7984 42.2503 42.7984ZM9.36717 54.4609L7.53295 48.2278H8.78688L10.0083 52.8053H10.0692L11.2947 48.2278H12.5487L13.7661 52.785H13.8269L15.0403 48.2278H16.2942L14.464 54.4609H13.2263L11.9602 49.9606H11.8669L10.6008 54.4609H9.36717ZM19.2596 54.5989C18.8646 54.5989 18.5075 54.5259 18.1883 54.3798C17.8691 54.231 17.6161 54.0159 17.4294 53.7346C17.2455 53.4532 17.1535 53.1083 17.1535 52.6998C17.1535 52.3481 17.2211 52.0586 17.3564 51.8313C17.4917 51.6041 17.6743 51.4242 17.9042 51.2916C18.1342 51.1591 18.3912 51.059 18.6752 50.9913C18.9593 50.9237 19.2488 50.8723 19.5437 50.8371C19.917 50.7938 20.22 50.7587 20.4527 50.7316C20.6853 50.7019 20.8544 50.6545 20.9599 50.5896C21.0654 50.5247 21.1182 50.4192 21.1182 50.2731V50.2447C21.1182 49.8903 21.0181 49.6157 20.8179 49.4209C20.6204 49.2261 20.3255 49.1287 19.9332 49.1287C19.5247 49.1287 19.2028 49.2193 18.9674 49.4006C18.7348 49.5791 18.5738 49.778 18.4845 49.9971L17.3442 49.7374C17.4795 49.3587 17.677 49.053 17.9367 48.8203C18.1991 48.5849 18.5007 48.4145 18.8416 48.309C19.1825 48.2008 19.541 48.1467 19.917 48.1467C20.1659 48.1467 20.4297 48.1764 20.7083 48.2359C20.9897 48.2928 21.2521 48.3983 21.4956 48.5525C21.7417 48.7067 21.9433 48.9272 22.1002 49.2139C22.2571 49.498 22.3356 49.8673 22.3356 50.3218V54.4609H21.1506V53.6088H21.1019C21.0235 53.7657 20.9058 53.9199 20.7489 54.0714C20.592 54.2229 20.3904 54.3487 20.1442 54.4488C19.8981 54.5489 19.6032 54.5989 19.2596 54.5989ZM19.5234 53.625C19.8588 53.625 20.1456 53.5587 20.3837 53.4261C20.6244 53.2936 20.8071 53.1204 20.9315 52.9067C21.0587 52.6903 21.1222 52.459 21.1222 52.2128V51.4093C21.0789 51.4526 20.9951 51.4932 20.8706 51.5311C20.7489 51.5662 20.6096 51.5973 20.4527 51.6244C20.2957 51.6487 20.1429 51.6717 19.9941 51.6934C19.8453 51.7123 19.7209 51.7285 19.6208 51.7421C19.3854 51.7718 19.1703 51.8219 18.9755 51.8922C18.7835 51.9626 18.6293 52.064 18.5129 52.1966C18.3993 52.3264 18.3425 52.4996 18.3425 52.716C18.3425 53.0163 18.4534 53.2435 18.6752 53.3977C18.8971 53.5492 19.1798 53.625 19.5234 53.625ZM23.9517 54.4609V48.2278H25.1244V49.218H25.1894C25.303 48.8825 25.5032 48.6187 25.79 48.4267C26.0794 48.2319 26.4068 48.1345 26.772 48.1345C26.8477 48.1345 26.937 48.1372 27.0398 48.1426C27.1453 48.148 27.2278 48.1548 27.2874 48.1629V49.3235C27.2387 49.31 27.1521 49.2951 27.0277 49.2789C26.9032 49.2599 26.7788 49.2504 26.6543 49.2504C26.3675 49.2504 26.1119 49.3113 25.8873 49.4331C25.6655 49.5521 25.4897 49.7185 25.3598 49.9322C25.23 50.1432 25.165 50.384 25.165 50.6545V54.4609H23.9517ZM28.3374 54.4609V48.2278H29.5101V49.218H29.5751C29.6887 48.8825 29.8889 48.6187 30.1757 48.4267C30.4651 48.2319 30.7925 48.1345 31.1577 48.1345C31.2334 48.1345 31.3227 48.1372 31.4255 48.1426C31.531 48.148 31.6135 48.1548 31.6731 48.1629V49.3235C31.6244 49.31 31.5378 49.2951 31.4133 49.2789C31.2889 49.2599 31.1645 49.2504 31.04 49.2504C30.7532 49.2504 30.4976 49.3113 30.273 49.4331C30.0512 49.5521 29.8754 49.7185 29.7455 49.9322C29.6156 50.1432 29.5507 50.384 29.5507 50.6545V54.4609H28.3374ZM34.4812 54.5989C34.0862 54.5989 33.7291 54.5259 33.4099 54.3798C33.0907 54.231 32.8377 54.0159 32.651 53.7346C32.4671 53.4532 32.3751 53.1083 32.3751 52.6998C32.3751 52.3481 32.4427 52.0586 32.578 51.8313C32.7133 51.6041 32.8959 51.4242 33.1258 51.2916C33.3558 51.1591 33.6128 51.059 33.8969 50.9913C34.1809 50.9237 34.4704 50.8723 34.7653 50.8371C35.1386 50.7938 35.4416 50.7587 35.6743 50.7316C35.9069 50.7019 36.076 50.6545 36.1815 50.5896C36.287 50.5247 36.3398 50.4192 36.3398 50.2731V50.2447C36.3398 49.8903 36.2397 49.6157 36.0395 49.4209C35.842 49.2261 35.5471 49.1287 35.1548 49.1287C34.7463 49.1287 34.4244 49.2193 34.189 49.4006C33.9564 49.5791 33.7954 49.778 33.7061 49.9971L32.5658 49.7374C32.7011 49.3587 32.8986 49.053 33.1583 48.8203C33.4207 48.5849 33.7224 48.4145 34.0632 48.309C34.4041 48.2008 34.7626 48.1467 35.1386 48.1467C35.3875 48.1467 35.6513 48.1764 35.9299 48.2359C36.2113 48.2928 36.4737 48.3983 36.7172 48.5525C36.9634 48.7067 37.1649 48.9272 37.3218 49.2139C37.4787 49.498 37.5572 49.8673 37.5572 50.3218V54.4609H36.3722V53.6088H36.3235C36.2451 53.7657 36.1274 53.9199 35.9705 54.0714C35.8136 54.2229 35.612 54.3487 35.3659 54.4488C35.1197 54.5489 34.8248 54.5989 34.4812 54.5989ZM34.745 53.625C35.0804 53.625 35.3672 53.5587 35.6053 53.4261C35.8461 53.2936 36.0287 53.1204 36.1531 52.9067C36.2803 52.6903 36.3438 52.459 36.3438 52.2128V51.4093C36.3006 51.4526 36.2167 51.4932 36.0922 51.5311C35.9705 51.5662 35.8312 51.5973 35.6743 51.6244C35.5174 51.6487 35.3645 51.6717 35.2157 51.6934C35.0669 51.7123 34.9425 51.7285 34.8424 51.7421C34.607 51.7718 34.3919 51.8219 34.1971 51.8922C34.0051 51.9626 33.8509 52.064 33.7345 52.1966C33.6209 52.3264 33.5641 52.4996 33.5641 52.716C33.5641 53.0163 33.675 53.2435 33.8969 53.3977C34.1187 53.5492 34.4014 53.625 34.745 53.625ZM40.3866 50.76V54.4609H39.1733V48.2278H40.3379V49.2423H40.415C40.5584 48.9123 40.783 48.6472 41.0887 48.447C41.3971 48.2468 41.7853 48.1467 42.2533 48.1467C42.6781 48.1467 43.05 48.2359 43.3693 48.4145C43.6885 48.5903 43.936 48.8528 44.1119 49.2018C44.2877 49.5507 44.3757 49.9822 44.3757 50.4963V54.4609H43.1623V50.6423C43.1623 50.1906 43.0446 49.8375 42.8093 49.5832C42.5739 49.3262 42.2506 49.1977 41.8394 49.1977C41.558 49.1977 41.3078 49.2586 41.0887 49.3803C40.8722 49.502 40.7005 49.6806 40.5733 49.916C40.4489 50.1486 40.3866 50.43 40.3866 50.76ZM48.9125 48.2278V49.2018H45.5078V48.2278H48.9125ZM46.4209 46.7345H47.6342V52.6308C47.6342 52.8661 47.6694 53.0433 47.7398 53.1624C47.8101 53.2787 47.9007 53.3585 48.0116 53.4018C48.1253 53.4424 48.2484 53.4627 48.3809 53.4627C48.4783 53.4627 48.5635 53.4559 48.6366 53.4424C48.7096 53.4288 48.7664 53.418 48.807 53.4099L49.0261 54.4122C48.9558 54.4393 48.8557 54.4663 48.7259 54.4934C48.596 54.5232 48.4337 54.5394 48.2389 54.5421C47.9197 54.5475 47.6221 54.4907 47.3461 54.3717C47.0702 54.2526 46.847 54.0687 46.6766 53.8198C46.5061 53.5709 46.4209 53.2584 46.4209 52.8824V46.7345ZM51.0217 56.7984C50.8404 56.7984 50.6754 56.7835 50.5266 56.7537C50.3778 56.7267 50.2669 56.6969 50.1938 56.6644L50.486 55.6702C50.7079 55.7297 50.9053 55.7554 51.0785 55.7473C51.2516 55.7392 51.4045 55.6743 51.537 55.5525C51.6723 55.4308 51.7913 55.232 51.8941 54.956L52.0443 54.5421L49.7637 48.2278H51.0623L52.6408 53.065H52.7058L54.2843 48.2278H55.5869L53.0182 55.2928C52.8992 55.6175 52.7477 55.8921 52.5637 56.1166C52.3798 56.3439 52.1606 56.5143 51.9063 56.6279C51.652 56.7415 51.3571 56.7984 51.0217 56.7984Z" fill="black"/>
</g>
<defs>
<clipPath id="clip0_5_1560">
<rect x="0.751953" y="0.0224609" width="98.6963" height="67.9548" rx="8.08986" fill="white"/>
</clipPath>
</defs>
</svg>
