<svg width="148" height="102" viewBox="0 0 148 102" fill="none" xmlns="http://www.w3.org/2000/svg">
<g clip-path="url(#clip0_5_1580)">
<rect x="0.503906" y="0.460938" width="146.511" height="100.877" rx="12.0091" fill="#F5F5F5"/>
<path d="M28.0976 10.8502C28.4761 10.7633 28.8722 10.7963 29.231 10.9447C29.5899 11.0931 29.8936 11.3496 30.1 11.6785L31.9584 14.6456C32.1082 14.8845 32.3102 15.0865 32.5492 15.2363L35.5162 17.0947C35.8458 17.301 36.1029 17.6049 36.2517 17.9641C36.4005 18.3234 36.4336 18.7201 36.3464 19.099L35.5611 22.5091C35.4978 22.7847 35.4978 23.0711 35.5611 23.3467L36.3464 26.7588C36.4327 27.1371 36.3992 27.533 36.2505 27.8914C36.1017 28.2499 35.8451 28.5532 35.5162 28.7592L32.5492 30.6195C32.3099 30.769 32.1079 30.971 31.9584 31.2103L30.1 34.1774C29.8938 34.5066 29.5902 34.7635 29.2314 34.9122C28.8725 35.061 28.4763 35.0943 28.0976 35.0075L24.6856 34.2222C24.4106 34.1592 24.1249 34.1592 23.8499 34.2222L20.4378 35.0075C20.0592 35.0943 19.6629 35.061 19.3041 34.9122C18.9452 34.7635 18.6416 34.5066 18.4355 34.1774L16.5771 31.2103C16.4267 30.9712 16.224 30.7692 15.9844 30.6195L13.0192 28.7611C12.69 28.555 12.4331 28.2514 12.2844 27.8925C12.1356 27.5337 12.1023 27.1374 12.1891 26.7588L12.9725 23.3467C13.0358 23.0711 13.0358 22.7847 12.9725 22.5091L12.1872 19.099C12.1002 18.7199 12.1336 18.323 12.2827 17.9638C12.4318 17.6045 12.6893 17.3008 13.0192 17.0947L15.9844 15.2363C16.2241 15.0867 16.4267 14.8847 16.5771 14.6456L18.4355 11.6785C18.6418 11.3499 18.9452 11.0937 19.3036 10.9453C19.6621 10.7969 20.0578 10.7637 20.436 10.8502L23.8499 11.6336C24.1249 11.6967 24.4106 11.6967 24.6856 11.6336L28.0976 10.8502Z" stroke="black" stroke-width="1.86961"/>
<path d="M19.6193 23.9284L23.424 27.5722L28.9113 18.2803" stroke="black" stroke-width="1.86961" stroke-linecap="round" stroke-linejoin="round"/>
<path d="M15.558 61.3288C14.7307 61.3288 13.9918 61.1863 13.3412 60.9011C12.6946 60.616 12.1826 60.2204 11.8051 59.7144C11.4316 59.2044 11.2308 58.614 11.2027 57.9433H13.0942C13.1183 58.3088 13.2408 58.6261 13.4617 58.8951C13.6866 59.1602 13.9797 59.365 14.3412 59.5096C14.7026 59.6542 15.1042 59.7264 15.546 59.7264C16.0319 59.7264 16.4616 59.6421 16.8351 59.4734C17.2126 59.3048 17.5078 59.0698 17.7206 58.7686C17.9335 58.4634 18.0399 58.112 18.0399 57.7144C18.0399 57.3008 17.9335 56.9373 17.7206 56.6241C17.5118 56.3068 17.2046 56.0578 16.7989 55.8771C16.3973 55.6964 15.9114 55.606 15.3411 55.606H14.299V54.088H15.3411C15.799 54.088 16.2006 54.0057 16.5459 53.841C16.8953 53.6764 17.1684 53.4474 17.3652 53.1543C17.562 52.8571 17.6604 52.5097 17.6604 52.1121C17.6604 51.7306 17.574 51.3993 17.4013 51.1182C17.2327 50.833 16.9917 50.6101 16.6785 50.4495C16.3692 50.2889 16.0038 50.2085 15.5821 50.2085C15.1805 50.2085 14.805 50.2828 14.4556 50.4314C14.1102 50.576 13.8291 50.7848 13.6123 51.0579C13.3954 51.327 13.2789 51.6503 13.2629 52.0278H11.4617C11.4818 51.3611 11.6786 50.7748 12.052 50.2688C12.4295 49.7628 12.9275 49.3672 13.546 49.0821C14.1645 48.7969 14.8512 48.6544 15.6062 48.6544C16.3973 48.6544 17.0801 48.809 17.6544 49.1182C18.2327 49.4234 18.6784 49.831 18.9917 50.3411C19.3089 50.8511 19.4656 51.4093 19.4615 52.0157C19.4656 52.7065 19.2728 53.2928 18.8832 53.7747C18.4977 54.2567 17.9837 54.58 17.3411 54.7446V54.841C18.1604 54.9655 18.7949 55.2908 19.2447 55.8169C19.6985 56.343 19.9234 56.9956 19.9194 57.7747C19.9234 58.4534 19.7346 59.0618 19.3531 59.5999C18.9756 60.1381 18.4596 60.5618 17.805 60.871C17.1503 61.1762 16.4014 61.3288 15.558 61.3288ZM26.4915 61.365C25.5398 61.361 24.7265 61.11 24.0518 60.612C23.3771 60.114 22.8611 59.3891 22.5037 58.4373C22.1462 57.4855 21.9675 56.339 21.9675 54.9976C21.9675 53.6603 22.1462 52.5177 22.5037 51.57C22.8651 50.6222 23.3832 49.8993 24.0579 49.4013C24.7366 48.9033 25.5478 48.6544 26.4915 48.6544C27.4353 48.6544 28.2445 48.9054 28.9192 49.4073C29.5939 49.9053 30.11 50.6282 30.4674 51.576C30.8288 52.5197 31.0095 53.6603 31.0095 54.9976C31.0095 56.343 30.8308 57.4915 30.4734 58.4433C30.116 59.3911 29.5999 60.116 28.9252 60.618C28.2506 61.116 27.4393 61.365 26.4915 61.365ZM26.4915 59.7566C27.3269 59.7566 27.9795 59.3489 28.4493 58.5337C28.9232 57.7184 29.1602 56.5398 29.1602 54.9976C29.1602 53.9735 29.0517 53.1081 28.8349 52.4013C28.622 51.6904 28.3148 51.1523 27.9132 50.7868C27.5156 50.4174 27.0417 50.2326 26.4915 50.2326C25.6602 50.2326 25.0076 50.6423 24.5337 51.4615C24.0599 52.2808 23.8209 53.4595 23.8169 54.9976C23.8169 56.0257 23.9233 56.8952 24.1362 57.606C24.353 58.3128 24.6603 58.849 25.0578 59.2144C25.4554 59.5758 25.9333 59.7566 26.4915 59.7566ZM38.6224 55.1663V56.7265H33.1526V55.1663H38.6224ZM44.4867 61.3409C43.7397 61.3409 43.0731 61.1501 42.4867 60.7686C41.9044 60.3831 41.4466 59.8349 41.1133 59.124C40.784 58.4092 40.6193 57.5518 40.6193 56.5518C40.6193 55.5518 40.786 54.6964 41.1193 53.9856C41.4566 53.2748 41.9185 52.7306 42.5048 52.3531C43.0912 51.9756 43.7558 51.7868 44.4988 51.7868C45.073 51.7868 45.5349 51.8832 45.8843 52.076C46.2377 52.2647 46.5108 52.4856 46.7035 52.7386C46.9003 52.9916 47.0529 53.2145 47.1614 53.4073H47.2698V48.823H49.071V61.1602H47.312V59.7204H47.1614C47.0529 59.9172 46.8963 60.1421 46.6915 60.3951C46.4907 60.6481 46.2136 60.869 45.8602 61.0577C45.5068 61.2465 45.049 61.3409 44.4867 61.3409ZM44.8843 59.8048C45.4024 59.8048 45.8401 59.6682 46.1975 59.3951C46.559 59.118 46.8321 58.7345 47.0168 58.2445C47.2055 57.7546 47.2999 57.1843 47.2999 56.5337C47.2999 55.8912 47.2075 55.3289 47.0228 54.847C46.8381 54.3651 46.567 53.9896 46.2096 53.7205C45.8522 53.4515 45.4104 53.3169 44.8843 53.3169C44.3421 53.3169 43.8903 53.4575 43.5289 53.7386C43.1675 54.0197 42.8944 54.4032 42.7096 54.8892C42.5289 55.3751 42.4386 55.9233 42.4386 56.5337C42.4386 57.1522 42.5309 57.7084 42.7157 58.2024C42.9004 58.6963 43.1735 59.0879 43.5349 59.3771C43.9004 59.6622 44.3502 59.8048 44.8843 59.8048ZM54.3344 61.365C53.7481 61.365 53.218 61.2565 52.7441 61.0397C52.2702 60.8188 51.8947 60.4995 51.6176 60.0819C51.3445 59.6642 51.208 59.1522 51.208 58.5457C51.208 58.0237 51.3084 57.594 51.5092 57.2566C51.71 56.9193 51.9811 56.6522 52.3224 56.4554C52.6638 56.2586 53.0453 56.11 53.467 56.0096C53.8887 55.9092 54.3184 55.8329 54.7561 55.7807C55.3103 55.7165 55.7601 55.6643 56.1055 55.6241C56.4509 55.5799 56.7019 55.5097 56.8585 55.4133C57.0151 55.3169 57.0934 55.1603 57.0934 54.9434V54.9012C57.0934 54.3751 56.9448 53.9675 56.6476 53.6784C56.3545 53.3892 55.9167 53.2446 55.3344 53.2446C54.728 53.2446 54.2501 53.3792 53.9007 53.6482C53.5553 53.9133 53.3164 54.2085 53.1838 54.5338L51.4911 54.1482C51.6919 53.586 51.9851 53.1322 52.3706 52.7868C52.7602 52.4374 53.2079 52.1844 53.714 52.0278C54.22 51.8671 54.7521 51.7868 55.3103 51.7868C55.6798 51.7868 56.0713 51.831 56.485 51.9194C56.9027 52.0037 57.2922 52.1603 57.6537 52.3892C58.0191 52.6181 58.3183 52.9454 58.5512 53.3711C58.7842 53.7928 58.9006 54.341 58.9006 55.0157V61.1602H57.1416V59.8951H57.0693C56.9529 60.128 56.7782 60.357 56.5452 60.5819C56.3123 60.8067 56.0131 60.9935 55.6477 61.1421C55.2822 61.2907 54.8445 61.365 54.3344 61.365ZM54.726 59.9192C55.224 59.9192 55.6497 59.8208 56.0031 59.624C56.3605 59.4273 56.6316 59.1702 56.8163 58.853C57.0051 58.5317 57.0994 58.1883 57.0994 57.8229V56.6301C57.0352 56.6944 56.9107 56.7546 56.726 56.8108C56.5452 56.863 56.3384 56.9092 56.1055 56.9494C55.8726 56.9855 55.6457 57.0197 55.4248 57.0518C55.2039 57.0799 55.0192 57.104 54.8706 57.1241C54.5212 57.1683 54.2019 57.2426 53.9128 57.347C53.6276 57.4514 53.3987 57.602 53.226 57.7988C53.0573 57.9915 52.973 58.2486 52.973 58.5698C52.973 59.0156 53.1377 59.353 53.467 59.5819C53.7963 59.8068 54.216 59.9192 54.726 59.9192ZM62.1069 64.63C61.8378 64.63 61.5928 64.6079 61.372 64.5637C61.1511 64.5236 60.9864 64.4794 60.878 64.4312L61.3117 62.9553C61.641 63.0437 61.9342 63.0818 62.1912 63.0698C62.4482 63.0577 62.6751 62.9613 62.8719 62.7806C63.0727 62.5999 63.2494 62.3047 63.402 61.8951L63.6249 61.2806L60.2394 51.9073H62.1671L64.5105 59.0879H64.6068L66.9502 51.9073H68.8839L65.0707 62.3951C64.894 62.877 64.6691 63.2846 64.396 63.6179C64.1229 63.9553 63.7976 64.2083 63.4201 64.377C63.0426 64.5456 62.6049 64.63 62.1069 64.63ZM13.293 82.1602L10.5701 72.9073H12.4316L14.2448 79.7024H14.3351L16.1544 72.9073H18.0158L19.823 79.6722H19.9133L21.7145 72.9073H23.5759L20.8591 82.1602H19.0218L17.1423 75.4796H17.0038L15.1243 82.1602H13.293ZM27.978 82.365C27.3916 82.365 26.8615 82.2565 26.3876 82.0397C25.9137 81.8188 25.5383 81.4995 25.2611 81.0819C24.9881 80.6642 24.8515 80.1522 24.8515 79.5457C24.8515 79.0237 24.9519 78.594 25.1527 78.2566C25.3535 77.9193 25.6246 77.6522 25.966 77.4554C26.3073 77.2586 26.6888 77.11 27.1105 77.0096C27.5322 76.9092 27.9619 76.8329 28.3996 76.7807C28.9539 76.7165 29.4036 76.6643 29.749 76.6241C30.0944 76.5799 30.3454 76.5097 30.502 76.4133C30.6586 76.3169 30.737 76.1603 30.737 75.9434V75.9012C30.737 75.3751 30.5884 74.9675 30.2912 74.6784C29.998 74.3892 29.5603 74.2446 28.9779 74.2446C28.3715 74.2446 27.8936 74.3792 27.5442 74.6482C27.1989 74.9133 26.9599 75.2085 26.8274 75.5338L25.1346 75.1482C25.3354 74.586 25.6286 74.1322 26.0141 73.7868C26.4037 73.4374 26.8515 73.1844 27.3575 73.0278C27.8635 72.8671 28.3956 72.7868 28.9539 72.7868C29.3233 72.7868 29.7149 72.831 30.1285 72.9194C30.5462 73.0037 30.9357 73.1603 31.2972 73.3892C31.6626 73.6181 31.9618 73.9454 32.1948 74.3711C32.4277 74.7928 32.5442 75.341 32.5442 76.0157V82.1602H30.7851V80.8951H30.7129C30.5964 81.128 30.4217 81.357 30.1888 81.5819C29.9558 81.8067 29.6567 81.9935 29.2912 82.1421C28.9257 82.2907 28.488 82.365 27.978 82.365ZM28.3695 80.9192C28.8675 80.9192 29.2932 80.8208 29.6466 80.624C30.004 80.4273 30.2751 80.1702 30.4599 79.853C30.6486 79.5317 30.743 79.1883 30.743 78.8229V77.6301C30.6787 77.6944 30.5542 77.7546 30.3695 77.8108C30.1888 77.863 29.9819 77.9092 29.749 77.9494C29.5161 77.9855 29.2892 78.0197 29.0683 78.0518C28.8474 78.0799 28.6627 78.104 28.5141 78.1241C28.1647 78.1683 27.8454 78.2426 27.5563 78.347C27.2712 78.4514 27.0422 78.602 26.8696 78.7988C26.7009 78.9915 26.6165 79.2486 26.6165 79.5698C26.6165 80.0156 26.7812 80.353 27.1105 80.5819C27.4398 80.8068 27.8595 80.9192 28.3695 80.9192ZM34.9432 82.1602V72.9073H36.6841V74.3772H36.7805C36.9492 73.8792 37.2464 73.4876 37.6721 73.2025C38.1018 72.9133 38.5877 72.7688 39.1299 72.7688C39.2423 72.7688 39.3749 72.7728 39.5275 72.7808C39.6841 72.7888 39.8066 72.7989 39.8949 72.8109V74.5338C39.8226 74.5137 39.6941 74.4916 39.5094 74.4675C39.3247 74.4394 39.1399 74.4254 38.9552 74.4254C38.5295 74.4254 38.15 74.5157 37.8166 74.6964C37.4873 74.8731 37.2263 75.1201 37.0335 75.4374C36.8408 75.7506 36.7444 76.1081 36.7444 76.5097V82.1602H34.9432ZM41.4536 82.1602V72.9073H43.1946V74.3772H43.291C43.4596 73.8792 43.7568 73.4876 44.1825 73.2025C44.6122 72.9133 45.0981 72.7688 45.6403 72.7688C45.7528 72.7688 45.8853 72.7728 46.0379 72.7808C46.1945 72.7888 46.317 72.7989 46.4054 72.8109V74.5338C46.3331 74.5137 46.2046 74.4916 46.0198 74.4675C45.8351 74.4394 45.6503 74.4254 45.4656 74.4254C45.0399 74.4254 44.6604 74.5157 44.3271 74.6964C43.9978 74.8731 43.7367 75.1201 43.544 75.4374C43.3512 75.7506 43.2548 76.1081 43.2548 76.5097V82.1602H41.4536ZM50.574 82.365C49.9876 82.365 49.4575 82.2565 48.9836 82.0397C48.5097 81.8188 48.1342 81.4995 47.8571 81.0819C47.584 80.6642 47.4475 80.1522 47.4475 79.5457C47.4475 79.0237 47.5479 78.594 47.7487 78.2566C47.9495 77.9193 48.2206 77.6522 48.5619 77.4554C48.9033 77.2586 49.2848 77.11 49.7065 77.0096C50.1282 76.9092 50.5579 76.8329 50.9956 76.7807C51.5498 76.7165 51.9996 76.6643 52.345 76.6241C52.6904 76.5799 52.9414 76.5097 53.098 76.4133C53.2546 76.3169 53.3329 76.1603 53.3329 75.9434V75.9012C53.3329 75.3751 53.1844 74.9675 52.8872 74.6784C52.594 74.3892 52.1563 74.2446 51.5739 74.2446C50.9675 74.2446 50.4896 74.3792 50.1402 74.6482C49.7949 74.9133 49.5559 75.2085 49.4234 75.5338L47.7306 75.1482C47.9314 74.586 48.2246 74.1322 48.6101 73.7868C48.9997 73.4374 49.4475 73.1844 49.9535 73.0278C50.4595 72.8671 50.9916 72.7868 51.5498 72.7868C51.9193 72.7868 52.3109 72.831 52.7245 72.9194C53.1422 73.0037 53.5317 73.1603 53.8932 73.3892C54.2586 73.6181 54.5578 73.9454 54.7907 74.3711C55.0237 74.7928 55.1401 75.341 55.1401 76.0157V82.1602H53.3811V80.8951H53.3088C53.1924 81.128 53.0177 81.357 52.7848 81.5819C52.5518 81.8067 52.2526 81.9935 51.8872 82.1421C51.5217 82.2907 51.084 82.365 50.574 82.365ZM50.9655 80.9192C51.4635 80.9192 51.8892 80.8208 52.2426 80.624C52.6 80.4273 52.8711 80.1702 53.0558 79.853C53.2446 79.5317 53.339 79.1883 53.339 78.8229V77.6301C53.2747 77.6944 53.1502 77.7546 52.9655 77.8108C52.7848 77.863 52.5779 77.9092 52.345 77.9494C52.1121 77.9855 51.8852 78.0197 51.6643 78.0518C51.4434 78.0799 51.2587 78.104 51.1101 78.1241C50.7607 78.1683 50.4414 78.2426 50.1523 78.347C49.8671 78.4514 49.6382 78.602 49.4655 78.7988C49.2969 78.9915 49.2125 79.2486 49.2125 79.5698C49.2125 80.0156 49.3772 80.353 49.7065 80.5819C50.0358 80.8068 50.4555 80.9192 50.9655 80.9192ZM59.3404 76.6663V82.1602H57.5392V72.9073H59.2681V74.4133H59.3825C59.5954 73.9234 59.9287 73.5298 60.3825 73.2326C60.8403 72.9354 61.4166 72.7868 62.1114 72.7868C62.7419 72.7868 63.2941 72.9194 63.768 73.1844C64.2419 73.4454 64.6094 73.835 64.8704 74.3531C65.1314 74.8711 65.262 75.5117 65.262 76.2747V82.1602H63.4608V76.4916C63.4608 75.8209 63.2861 75.2968 62.9367 74.9193C62.5873 74.5378 62.1074 74.347 61.497 74.347C61.0793 74.347 60.7078 74.4374 60.3825 74.6181C60.0612 74.7988 59.8062 75.0639 59.6175 75.4133C59.4327 75.7587 59.3404 76.1763 59.3404 76.6663ZM71.9968 72.9073V74.3531H66.9426V72.9073H71.9968ZM68.298 70.6905H70.0992V79.4433C70.0992 79.7927 70.1514 80.0558 70.2558 80.2325C70.3603 80.4052 70.4948 80.5236 70.6594 80.5879C70.8281 80.6481 71.0108 80.6783 71.2076 80.6783C71.3522 80.6783 71.4787 80.6682 71.5871 80.6481C71.6956 80.6281 71.7799 80.612 71.8402 80.5999L72.1654 82.0879C72.061 82.128 71.9124 82.1682 71.7197 82.2083C71.5269 82.2525 71.2859 82.2766 70.9968 82.2806C70.5229 82.2887 70.0811 82.2043 69.6715 82.0276C69.2619 81.8509 68.9306 81.5778 68.6776 81.2084C68.4245 80.8389 68.298 80.375 68.298 79.8168V70.6905ZM75.1277 85.63C74.8587 85.63 74.6137 85.6079 74.3928 85.5637C74.1719 85.5236 74.0073 85.4794 73.8989 85.4312L74.3326 83.9553C74.6619 84.0437 74.9551 84.0818 75.2121 84.0698C75.4691 84.0577 75.696 83.9613 75.8928 83.7806C76.0936 83.5999 76.2703 83.3047 76.4229 82.8951L76.6458 82.2806L73.2603 72.9073H75.188L77.5313 80.0879H77.6277L79.971 72.9073H81.9047L78.0915 83.3951C77.9148 83.877 77.6899 84.2846 77.4169 84.6179C77.1438 84.9553 76.8185 85.2083 76.441 85.377C76.0635 85.5456 75.6257 85.63 75.1277 85.63Z" fill="black"/>
</g>
<defs>
<clipPath id="clip0_5_1580">
<rect x="0.503906" y="0.460938" width="146.511" height="100.877" rx="12.0091" fill="white"/>
</clipPath>
</defs>
</svg>
