<svg xmlns="http://www.w3.org/2000/svg" viewBox="0 0 195.18 108.79"><defs><style>.cls-1{isolation:isolate;}.cls-2,.cls-3{fill:#f0f;}.cls-2,.cls-3,.cls-4,.cls-5,.cls-6,.cls-7{stroke:#020202;stroke-miterlimit:10;}.cls-3,.cls-5,.cls-7{mix-blend-mode:multiply;}.cls-4,.cls-5{fill:#ff1e00;}.cls-6,.cls-7{fill:#ff0;}</style></defs><title>Asset 1</title><g class="cls-1"><g id="Layer_2" data-name="Layer 2"><g id="Layer_1-2" data-name="Layer 1"><path class="cls-2" d="M104.26,72.47a85.88,85.88,0,0,1-17.87-1.76,112.4,112.4,0,0,1-12.12-3.55C61.47,62.87,47,58,11.9,64a1.74,1.74,0,0,1-2-1.49,1.79,1.79,0,0,1,1.42-2.06c35.88-6.11,50.81-1.11,64,3.3A112,112,0,0,0,87.09,67.2c20.63,4.46,44.8-.23,51.83-7.26,1.41-1.41,2-2.82,1.8-4.17-.9-5.64-27-6.65-50.58-4.35a1.73,1.73,0,0,1-1.88-1.62,1.78,1.78,0,0,1,1.56-2c12.27-1.19,52.46-4.2,54.31,7.34.29,1.78,0,4.51-2.82,7.36C134.66,69.18,119.17,72.47,104.26,72.47Z"/><path class="cls-2" d="M104.26,72.82a86.57,86.57,0,0,1-18-1.76A112.23,112.23,0,0,1,74.2,67.51l0,0c-8.31-2.78-17.73-5.93-33.25-5.93A173,173,0,0,0,12,64.34a2.09,2.09,0,0,1-2.39-1.78,2.15,2.15,0,0,1,1.71-2.47A178,178,0,0,1,41,57.25c16.08,0,25.85,3.27,34.46,6.15a110.36,110.36,0,0,0,11.74,3.45,81.25,81.25,0,0,0,17.08,1.74c14.78,0,29.26-3.74,34.41-8.9,1.33-1.33,1.91-2.63,1.71-3.86-.51-3.21-11-5.21-27.27-5.21-7.29,0-15.21.4-22.93,1.16a2.09,2.09,0,0,1-2.27-2,2.14,2.14,0,0,1,1.88-2.34c4.84-.47,14.4-1.26,24.14-1.26,19.33,0,29.62,3,30.56,8.89.3,1.87,0,4.71-2.92,7.67C135.46,68.88,120.82,72.82,104.26,72.82Zm-63.36-12c15.64,0,25.12,3.17,33.48,6l.05,0a111.39,111.39,0,0,0,12,3.52,85.12,85.12,0,0,0,17.8,1.75c16.38,0,30.82-3.85,36.8-9.82,2.74-2.75,3-5.35,2.72-7.06-.87-5.42-11.19-8.29-29.86-8.29-9.71,0-19.25.79-24.07,1.25a1.43,1.43,0,0,0-1.24,1.58,1.39,1.39,0,0,0,1.5,1.3c7.73-.76,15.68-1.15,23-1.15,8.13,0,27.14.56,28,5.79.24,1.48-.4,3-1.9,4.48-5.37,5.37-19.72,9.11-34.92,9.11A81.34,81.34,0,0,1,87,67.54a107.4,107.4,0,0,1-11.81-3.47C66.65,61.21,56.94,58,41,58A176.55,176.55,0,0,0,11.4,60.79a1.44,1.44,0,0,0-1.13,1.66,1.39,1.39,0,0,0,1.57,1.19A173.33,173.33,0,0,1,40.9,60.85Z"/><path class="cls-2" d="M34.07,52.78a1.24,1.24,0,0,1-.33,0l-.36-.07C22.14,50.37,6.74,47.22,2.21,39.91a8.69,8.69,0,0,1-1.12-6.69c1.16-5.17,8.62-9.4,22.81-12.92a184.84,184.84,0,0,1,19.94-3.71,1.74,1.74,0,0,1,1.91,1.58,1.78,1.78,0,0,1-1.51,2C29.67,21.92,6,27.25,4.45,34A5,5,0,0,0,5.11,38C8.85,44,24,47.09,34,49.14l.36.08a1.8,1.8,0,0,1,1.37,2.11A1.77,1.77,0,0,1,34.07,52.78Z"/><path class="cls-2" d="M34.07,53.13a1.84,1.84,0,0,1-.41,0L33.3,53C22,50.7,6.52,47.54,1.91,40.09a9,9,0,0,1-1.16-7C1.94,27.83,9.48,23.52,23.81,20a188.08,188.08,0,0,1,19.94-3.71l.29,0a2.09,2.09,0,0,1,2.06,1.91,2.12,2.12,0,0,1-1.82,2.38C28.73,22.39,6.21,27.86,4.8,34.12a4.64,4.64,0,0,0,.61,3.65c3.66,5.9,18.73,9,28.7,11l.37.08a2.16,2.16,0,0,1,1.64,2.52A2.12,2.12,0,0,1,34.07,53.13Zm10-36.2h-.16A186.46,186.46,0,0,0,24,20.64C9.94,24.13,2.57,28.27,1.44,33.3a8.29,8.29,0,0,0,1.07,6.42C7,46.91,22.27,50,33.45,52.32l.36.08.26,0a1.41,1.41,0,0,0,1.35-1.16,1.46,1.46,0,0,0-1.09-1.7L34,49.49C23.88,47.42,8.63,44.31,4.8,38.14A5.38,5.38,0,0,1,4.11,34c.72-3.19,5.84-6.24,15.24-9.09a156.15,156.15,0,0,1,24.84-5.06,1.43,1.43,0,0,0,1.21-1.6A1.4,1.4,0,0,0,44,16.93Z"/><path class="cls-2" d="M72.12,52.48c-25.07,0-51.7-6.61-51.7-18.85s26.63-18.85,51.7-18.85,51.7,6.61,51.7,18.85S97.18,52.48,72.12,52.48Zm0-32.78c-29.09,0-47,8.11-47,13.93S43,47.56,72.12,47.56s46.95-8.11,46.95-13.93S101.21,19.7,72.12,19.7Z"/><path class="cls-2" d="M72.12,52.83c-25.24,0-52.06-6.73-52.06-19.2s26.82-19.2,52.06-19.2,52.06,6.73,52.06,19.2S97.36,52.83,72.12,52.83Zm0-37.69C59.21,15.14,46.4,16.89,37,20c-13.4,4.36-16.21,9.84-16.21,13.68S23.58,43,37,47.31c9.42,3.06,22.23,4.81,35.14,4.81s25.72-1.75,35.14-4.81c13.4-4.36,16.21-9.84,16.21-13.68S120.66,24.31,107.26,20C97.84,16.89,85,15.14,72.12,15.14Zm0,32.78c-13.14,0-25.4-1.71-34.5-4.81-8-2.72-12.81-6.27-12.81-9.48s4.79-6.75,12.81-9.48c9.1-3.1,21.36-4.8,34.5-4.8s25.39,1.7,34.5,4.8c8,2.73,12.81,6.27,12.81,9.48s-4.79,6.76-12.81,9.48C97.51,46.21,85.26,47.92,72.12,47.92Zm0-27.86c-13.07,0-25.24,1.69-34.27,4.76-7.61,2.59-12.33,6-12.33,8.81s4.72,6.23,12.33,8.81c9,3.08,21.2,4.77,34.27,4.77s25.24-1.69,34.27-4.77c7.61-2.58,12.33-6,12.33-8.81s-4.72-6.22-12.33-8.81C97.36,21.75,85.18,20.06,72.12,20.06Z"/><path class="cls-2" d="M69.19,47.08c-25.06,0-51.7-6.61-51.7-18.85S44.13,9.38,69.19,9.38,120.9,16,120.9,28.23,94.26,47.08,69.19,47.08Zm0-32.78c-29.09,0-46.95,8.11-46.95,13.93s17.86,13.93,47,13.93,47-8.11,47-13.93S98.29,14.3,69.19,14.3Z"/><path class="cls-2" d="M69.19,47.43c-25.24,0-52.06-6.73-52.06-19.2S44,9,69.19,9s52.06,6.73,52.06,19.2S94.43,47.43,69.19,47.43Zm0-37.69c-12.91,0-25.72,1.75-35.14,4.82-13.4,4.35-16.21,9.83-16.21,13.67s2.81,9.33,16.21,13.68c9.42,3.06,22.23,4.81,35.14,4.81S94.91,45,104.33,41.91c13.4-4.35,16.21-9.84,16.21-13.68s-2.81-9.32-16.21-13.67C94.91,11.49,82.1,9.74,69.19,9.74Zm0,32.78c-13.14,0-25.39-1.71-34.5-4.8-8-2.73-12.81-6.28-12.81-9.49s4.79-6.75,12.81-9.48c9.11-3.1,21.36-4.8,34.5-4.8s25.4,1.7,34.5,4.8c8,2.73,12.81,6.27,12.81,9.48s-4.79,6.76-12.81,9.49C94.59,40.81,82.33,42.52,69.19,42.52Zm0-27.86c-13.06,0-25.24,1.69-34.27,4.76-7.6,2.59-12.33,6-12.33,8.81S27.32,34.46,34.92,37c9,3.08,21.2,4.77,34.27,4.77S94.43,40.12,103.46,37c7.61-2.58,12.33-6,12.33-8.81s-4.72-6.22-12.33-8.81C94.43,16.35,82.26,14.66,69.19,14.66Z"/><path class="cls-2" d="M76.19,47.08c-25.06,0-51.7-6.61-51.7-18.85S51.13,9.38,76.19,9.38s51.7,6.61,51.7,18.85S101.25,47.08,76.19,47.08Zm0-32.78c-29.09,0-47,8.11-47,13.93s17.87,13.93,47,13.93,47-8.11,47-13.93S105.28,14.3,76.19,14.3Z"/><path class="cls-2" d="M76.19,47.43c-25.24,0-52.06-6.73-52.06-19.2S51,9,76.19,9s52.06,6.73,52.06,19.2S101.43,47.43,76.19,47.43Zm0-37.69c-12.91,0-25.72,1.75-35.14,4.82-13.4,4.35-16.21,9.83-16.21,13.67s2.81,9.33,16.21,13.68c9.42,3.06,22.23,4.81,35.14,4.81s25.72-1.75,35.14-4.81c13.4-4.35,16.21-9.84,16.21-13.68s-2.81-9.32-16.21-13.67C101.91,11.49,89.1,9.74,76.19,9.74Zm0,32.78c-13.14,0-25.4-1.71-34.5-4.8-8-2.73-12.81-6.28-12.81-9.49s4.79-6.75,12.81-9.48c9.1-3.1,21.36-4.8,34.5-4.8s25.39,1.7,34.5,4.8c8,2.73,12.81,6.27,12.81,9.48s-4.79,6.76-12.81,9.49C101.59,40.81,89.33,42.52,76.19,42.52Zm0-27.86c-13.07,0-25.24,1.69-34.27,4.76-7.61,2.59-12.33,6-12.33,8.81S34.31,34.46,41.92,37c9,3.08,21.2,4.77,34.27,4.77s25.24-1.69,34.27-4.77c7.61-2.58,12.33-6,12.33-8.81s-4.72-6.22-12.33-8.81C101.43,16.35,89.26,14.66,76.19,14.66Z"/><path class="cls-2" d="M72.12,42c-25.07,0-51.7-6.61-51.7-18.85S47.05,4.3,72.12,4.3s51.7,6.61,51.7,18.85S97.18,42,72.12,42Zm0-32.78c-29.09,0-47,8.11-47,13.93S43,37.08,72.12,37.08,119.07,29,119.07,23.15,101.21,9.22,72.12,9.22Z"/><path class="cls-2" d="M72.12,42.35c-25.24,0-52.06-6.73-52.06-19.2S46.88,3.94,72.12,3.94s52.06,6.74,52.06,19.21S97.36,42.35,72.12,42.35Zm0-37.7C59.21,4.65,46.4,6.41,37,9.47c-13.4,4.35-16.21,9.84-16.21,13.68S23.58,32.47,37,36.82c9.42,3.07,22.23,4.82,35.14,4.82s25.72-1.75,35.14-4.82c13.4-4.35,16.21-9.83,16.21-13.67s-2.81-9.33-16.21-13.68C97.84,6.41,85,4.65,72.12,4.65Zm0,32.78c-13.14,0-25.4-1.7-34.5-4.8-8-2.73-12.81-6.27-12.81-9.48s4.79-6.76,12.81-9.48c9.1-3.1,21.36-4.81,34.5-4.81s25.39,1.71,34.5,4.81c8,2.72,12.81,6.27,12.81,9.48s-4.79,6.75-12.81,9.48C97.51,35.73,85.26,37.43,72.12,37.43Zm0-27.86c-13.07,0-25.24,1.69-34.27,4.77-7.61,2.58-12.33,6-12.33,8.81S30.24,29.37,37.85,32c9,3.07,21.2,4.76,34.27,4.76S97.36,35,106.39,32c7.61-2.59,12.33-6,12.33-8.81s-4.72-6.23-12.33-8.81C97.36,11.26,85.18,9.57,72.12,9.57Z"/><path class="cls-2" d="M72.48,35.9c-24.86,0-51.28-6.14-51.28-17.53S47.62.85,72.48.85,123.75,7,123.75,18.37,97.33,35.9,72.48,35.9Zm0-30.48c-28.85,0-46.57,7.55-46.57,13s17.72,13,46.57,13S119,23.78,119,18.37,101.33,5.42,72.48,5.42Z"/><path class="cls-2" d="M72.48,36.25c-25,0-51.63-6.26-51.63-17.88S47.45.5,72.48.5,124.1,6.76,124.1,18.37,97.5,36.25,72.48,36.25Zm0-35C59.67,1.21,47,2.84,37.62,5.69c-13.27,4-16.06,9.13-16.06,12.68S24.35,27,37.62,31.06c9.34,2.85,22.05,4.48,34.86,4.48S98,33.91,107.33,31.06c13.28-4,16.06-9.13,16.06-12.69s-2.78-8.64-16.06-12.68C98,2.84,85.28,1.21,72.48,1.21Zm0,30.47c-30.21,0-46.92-7.87-46.92-13.31S42.27,5.07,72.48,5.07s46.91,7.86,46.91,13.3S102.69,31.68,72.48,31.68Zm0-25.9c-13,0-25,1.57-34,4.43-7.53,2.4-12.21,5.53-12.21,8.16,0,5.14,18,12.6,46.21,12.6,13,0,25-1.57,34-4.43,7.53-2.4,12.21-5.53,12.21-8.17C118.68,13.24,100.68,5.78,72.48,5.78Z"/><path class="cls-3" d="M144.13,55.18c-1.2-7.48-18.51-8.85-33.89-8.56,6.81-2.6,11.66-6,13.11-10.29,2.88-2.34,4.54-5,4.54-8.1s-1.61-5.67-4.4-8a7.35,7.35,0,0,0,.26-1.88c0-8.19-13.71-13.67-30.66-16.09a31.46,31.46,0,0,1,4,1.94.93.93,0,0,1-.2,1.65c-3.14.61-6.48-.42-9.63-.64C82.86,4.9,78.44,4.62,74,4.62c-3.68,0-7.36.13-11,.44a88.42,88.42,0,0,1,11.16.33c5.53.55,12.08,1.13,17,4,3.24,1.87,7.65,6.35,6,10.76a9.27,9.27,0,0,1-.88,1.72,69.64,69.64,0,0,1,13.49,3.88c-8,3.13-20.84,5.6-37.33,5.6a147.8,147.8,0,0,1-15.87-.83c3.92,1.09,7.87,2.06,11.86,2.84s9.81.83,14.73,2.17c12-.84,23.35-3.09,31-6.65-5.42,3.27-15.18,6.29-28.32,7.57a12,12,0,0,1,3.84,2.49c2.82,2.85,1.16,5.56-1.4,7.6.83-.07,1.66-.1,2.48-.19-.85.12-1.75.22-2.63.32a22.74,22.74,0,0,1-5,2.83,51.22,51.22,0,0,1-9.26,3,141.77,141.77,0,0,0,15.81-1.07,1.53,1.53,0,0,0,.38,0c23.62-2.3,49.68-1.29,50.58,4.35.22,1.35-.39,2.76-1.8,4.17-7,7-31.2,11.72-51.83,7.26a112,112,0,0,1-11.77-3.46c-13.17-4.41-28.1-9.41-64-3.3A1.79,1.79,0,0,0,9.92,62.5a1.74,1.74,0,0,0,2,1.49C47,58,61.47,62.87,74.27,67.16a112.4,112.4,0,0,0,12.12,3.55,85.88,85.88,0,0,0,17.87,1.76c14.91,0,30.4-3.29,37.05-9.93C144.16,59.69,144.42,57,144.13,55.18ZM122.88,27a3.33,3.33,0,0,1,.26,1.25,3.43,3.43,0,0,1-.34,1.42,10.37,10.37,0,0,0-.77-1.26A11.47,11.47,0,0,0,122.88,27Z"/><path class="cls-4" d="M179,61.36a51.78,51.78,0,0,1-11.65,7.5,72.92,72.92,0,0,1-9.42,3.27c-10.29,3.06-21.95,6.52-38.74,28.43-.45.59-1.4.52-2.12-.16a1.81,1.81,0,0,1-.49-2.28c17.19-22.42,29.18-26,39.77-29.13a70.11,70.11,0,0,0,9.15-3.17c15-6.79,26.21-22.34,25.82-31.19a5.69,5.69,0,0,0-1.62-4.09c-4.16-3.87-20.14,8.25-32.56,21.7-.51.55-1.46.4-2.15-.31a1.73,1.73,0,0,1-.34-2.27c6.45-7,28.16-29.18,36.67-21.26a9.88,9.88,0,0,1,3.08,7C194.72,43.8,187.73,54,179,61.36Z"/><path class="cls-4" d="M179.18,61.63a51.56,51.56,0,0,1-11.69,7.53,73.37,73.37,0,0,1-9.41,3.28h0c-6.68,2-14.25,4.23-23.39,11.91a103.8,103.8,0,0,0-15.24,16.44c-.55.72-1.69.62-2.55-.18a2.17,2.17,0,0,1-.58-2.74A106,106,0,0,1,131.92,81c9.46-8,17.31-10.29,24.24-12.34a68.81,68.81,0,0,0,9.12-3.17,48.22,48.22,0,0,0,11.17-7.11c8.7-7.32,14.81-17.34,14.52-23.84a5.31,5.31,0,0,0-1.48-3.81c-2.37-2.2-9.8,1.45-19.39,9.52a141.28,141.28,0,0,0-12.75,12.22c-.63.68-1.77.49-2.59-.37a2.07,2.07,0,0,1-.4-2.72,156,156,0,0,1,13.39-12.9c11.38-9.57,19.35-12.36,23.7-8.32a10.28,10.28,0,0,1,3.22,7.32C195,43.18,188.93,53.44,179.18,61.63Zm-45,22.18c9.2-7.73,16.82-10,23.54-12h0a71.4,71.4,0,0,0,9.35-3.26,51,51,0,0,0,11.6-7.47c9.63-8.1,15.65-18.19,15.32-25.72a9.42,9.42,0,0,0-2.94-6.74c-4-3.73-11.92-.81-22.9,8.42a155.26,155.26,0,0,0-13.36,12.87,1.39,1.39,0,0,0,.29,1.82c.55.57,1.31.69,1.71.25a145,145,0,0,1,12.79-12.26c4.79-4,16.33-13,20.19-9.4a6.08,6.08,0,0,1,1.76,4.38c.3,6.75-5.74,16.72-14.68,24.24a48.9,48.9,0,0,1-11.27,7.18,70.23,70.23,0,0,1-9.18,3.19c-6.89,2-14.69,4.35-24.08,12.25a105.24,105.24,0,0,0-15.58,16.8,1.48,1.48,0,0,0,.4,1.83c.57.53,1.33.61,1.69.13A103.79,103.79,0,0,1,134.2,83.81Z"/><path class="cls-4" d="M125,81a1,1,0,0,1-.22.14l-.26.12c-8.1,3.8-19.18,9-26.56,5.65a10.83,10.83,0,0,1-5-4.56c-2.65-4.53-1-11.46,5.09-21.18a114.78,114.78,0,0,1,9.35-12.7,1.49,1.49,0,0,1,2.14.26A1.75,1.75,0,0,1,110,51C102.54,59.57,92,75.37,95.5,81.32A6.3,6.3,0,0,0,98.4,84c6.09,2.76,17-2.36,24.23-5.76l.26-.12a1.86,1.86,0,0,1,2.16.94A1.52,1.52,0,0,1,125,81Z"/><path class="cls-4" d="M125.21,81.28a1.06,1.06,0,0,1-.26.17l-.26.12c-8.14,3.83-19.28,9.06-26.79,5.65a11.42,11.42,0,0,1-5.16-4.75C90,77.81,91.69,70.78,97.82,61a113.83,113.83,0,0,1,9.35-12.7,1.23,1.23,0,0,1,.15-.16,1.88,1.88,0,0,1,2.45.44,2.11,2.11,0,0,1,.46,2.73c-7.94,9.13-17.68,24.45-14.48,29.94a5.87,5.87,0,0,0,2.71,2.49c6,2.71,16.81-2.39,24-5.76l.26-.12a2.22,2.22,0,0,1,2.59,1.12A1.81,1.81,0,0,1,125.21,81.28ZM107.78,48.65l-.09.08a114.2,114.2,0,0,0-9.32,12.68c-6,9.62-7.69,16.43-5.12,20.84A10.53,10.53,0,0,0,98,86.63c7.25,3.3,18.27-1.88,26.31-5.66l.27-.12.17-.11a1.22,1.22,0,0,0,0-1.56,1.49,1.49,0,0,0-1.73-.76l-.26.12c-7.27,3.42-18.25,8.57-24.46,5.75a6.69,6.69,0,0,1-3.1-2.86c-1.63-2.79-.58-7.67,3.12-14.49a95.51,95.51,0,0,1,11.35-16.17A1.39,1.39,0,0,0,109.4,49,1.23,1.23,0,0,0,107.78,48.65Z"/><path class="cls-4" d="M147.18,62c-14.75,12.4-34.67,20.52-42.55,11.15s3.54-27.6,18.29-40S157.59,12.59,165.47,22,161.92,49.56,147.18,62Zm-21.1-25.09C109,51.26,103.68,66.31,107.42,70.76S126.9,72.59,144,58.2s22.41-29.44,18.67-33.9S143.2,22.48,126.08,36.87Z"/><path class="cls-4" d="M147.4,62.23c-14.84,12.49-34.95,20.6-43,11.06s3.42-28,18.27-40.45,35-20.61,43-11.06S162.25,49.75,147.4,62.23ZM123.15,33.38c-7.6,6.39-14,14.07-17.58,21.07-5.08,10-3.2,15.55-.73,18.49s7.65,5.74,18.33,2.45c7.52-2.32,16.18-7.31,23.78-13.7s14-14.07,17.58-21.07c5.08-10,3.2-15.55.73-18.49s-7.66-5.75-18.34-2.45C139.41,22,130.74,27,123.15,33.38Zm21.09,25.09c-7.73,6.5-16,11.26-23.39,13.39-6.47,1.88-11.57,1.54-13.64-.92s-1.53-7.54,1.44-13.6c3.36-6.87,9.47-14.24,17.2-20.74s16-11.26,23.4-13.39c6.47-1.88,11.57-1.54,13.63.92s1.53,7.54-1.43,13.59C158.09,44.6,152,52,144.24,58.47ZM126.31,37.14c-7.69,6.47-13.76,13.78-17.1,20.61-2.81,5.74-3.41,10.66-1.58,12.84s6.79,2.43,12.92.64c7.3-2.11,15.55-6.84,23.24-13.3s13.76-13.78,17.09-20.61c2.81-5.74,3.42-10.66,1.59-12.84s-6.79-2.43-12.93-.64C142.25,26,134,30.68,126.31,37.14Z"/><path class="cls-4" d="M142,59.28C127.23,71.67,107.31,79.8,99.43,70.43s3.55-27.61,18.29-40S152.39,9.9,160.27,19.27,156.73,46.87,142,59.28Zm-21.1-25.09c-17.11,14.39-22.4,29.44-18.65,33.89s19.47,1.82,36.59-12.57,22.4-29.43,18.66-33.89S138,19.79,120.88,34.19Z"/><path class="cls-4" d="M142.21,59.55c-14.85,12.48-35,20.6-43,11s3.43-28,18.27-40.45,35-20.6,43-11S157.06,47.06,142.21,59.55ZM118,30.7c-7.6,6.39-14,14.07-17.58,21.07-5.08,9.95-3.2,15.55-.73,18.48S107.29,76,118,72.7c7.51-2.32,16.17-7.31,23.77-13.7s14-14.06,17.58-21.07c5.08-10,3.2-15.55.73-18.48S152.41,13.7,141.73,17C134.21,19.32,125.55,24.31,118,30.7ZM139,55.78c-7.73,6.51-16,11.26-23.38,13.4-6.48,1.88-11.58,1.53-13.64-.93s-1.53-7.53,1.43-13.59c3.36-6.88,9.48-14.24,17.21-20.74s16-11.26,23.39-13.4c6.47-1.88,11.57-1.53,13.64.93S159.22,29,156.25,35C152.89,41.92,146.78,49.28,139,55.78ZM121.11,34.46c-7.68,6.46-13.76,13.78-17.09,20.6-2.81,5.74-3.42,10.66-1.59,12.84s6.79,2.43,12.93.65c7.29-2.12,15.54-6.84,23.23-13.31s13.76-13.78,17.1-20.6C158.5,28.9,159.1,24,157.27,21.8s-6.79-2.43-12.92-.65C137.05,23.27,128.8,28,121.11,34.46Z"/><path class="cls-4" d="M146.1,55.81C131.35,68.21,111.43,76.34,103.55,67s3.54-27.61,18.29-40,34.67-20.52,42.55-11.15S160.84,43.41,146.1,55.81ZM125,30.73c-17.11,14.39-22.4,29.44-18.66,33.89s19.48,1.82,36.59-12.57,22.41-29.44,18.67-33.89S142.12,16.33,125,30.73Z"/><path class="cls-4" d="M146.33,56.08c-14.85,12.49-35,20.61-43,11.06s3.42-28,18.27-40.45,35-20.6,43-11.06S161.17,43.6,146.33,56.08ZM122.07,27.23c-7.6,6.39-14,14.07-17.58,21.07-5.08,10-3.2,15.55-.73,18.49s7.65,5.75,18.33,2.45c7.52-2.32,16.18-7.31,23.78-13.7s14-14.07,17.58-21.07c5.08-10,3.2-15.55.73-18.48s-7.65-5.75-18.34-2.45C138.33,15.85,129.67,20.85,122.07,27.23Zm21.09,25.09c-7.73,6.5-16,11.26-23.39,13.4-6.47,1.88-11.57,1.53-13.64-.93s-1.53-7.54,1.44-13.59c3.36-6.88,9.47-14.24,17.2-20.75s16-11.25,23.4-13.39c6.47-1.88,11.57-1.53,13.63.92s1.54,7.54-1.43,13.6C157,38.45,150.9,45.82,143.16,52.32ZM125.23,31c-7.69,6.46-13.76,13.78-17.1,20.6-2.81,5.74-3.41,10.66-1.58,12.84s6.79,2.43,12.93.65C126.77,63,135,58.24,142.71,51.78S156.47,38,159.8,31.18c2.81-5.74,3.42-10.66,1.59-12.85s-6.79-2.42-12.93-.64C141.17,19.81,132.92,24.53,125.23,31Z"/><path class="cls-4" d="M140.43,53.94c-14.75,12.4-34.67,20.52-42.55,11.15s3.54-27.6,18.29-40,34.68-20.52,42.55-11.15S155.18,41.54,140.43,53.94ZM119.34,28.85c-17.12,14.39-22.41,29.44-18.66,33.89s19.47,1.83,36.59-12.57,22.4-29.43,18.66-33.89S136.45,14.46,119.34,28.85Z"/><path class="cls-4" d="M140.66,54.21c-14.85,12.48-35,20.6-43,11.06s3.43-28,18.27-40.46,35-20.6,43-11S155.51,41.72,140.66,54.21ZM116.4,25.36c-7.6,6.38-14,14.06-17.58,21.07-5.08,10-3.2,15.55-.73,18.48s7.66,5.75,18.34,2.45c7.51-2.31,16.18-7.31,23.77-13.69s14-14.07,17.58-21.08c5.08-10,3.2-15.55.73-18.48s-7.65-5.75-18.33-2.45C132.66,14,124,19,116.4,25.36Zm21.1,25.09c-7.74,6.5-16,11.25-23.39,13.39-6.48,1.88-11.58,1.53-13.64-.92s-1.53-7.54,1.43-13.6c3.37-6.87,9.48-14.24,17.21-20.74s16-11.26,23.39-13.39c6.47-1.89,11.57-1.54,13.64.92s1.53,7.54-1.44,13.59C151.34,36.58,145.23,43.94,137.5,50.45ZM119.57,29.12c-7.69,6.46-13.76,13.78-17.1,20.6-2.81,5.74-3.42,10.67-1.58,12.85s6.78,2.42,12.92.64c7.29-2.12,15.54-6.84,23.23-13.31s13.76-13.78,17.1-20.6c2.81-5.74,3.41-10.66,1.58-12.84s-6.78-2.43-12.92-.65C135.5,17.93,127.25,22.66,119.57,29.12Z"/><path class="cls-4" d="M136.72,49.09C122.09,61.39,102.6,69.76,95.27,61s4.27-26.47,18.89-38.77,34.12-20.67,41.45-12S151.34,36.8,136.72,49.09ZM117.1,25.77C100.13,40,94.56,54.58,98,58.72s18.76,1.15,35.74-13.13,22.54-28.8,19.05-32.95S134.08,11.49,117.1,25.77Z"/><path class="cls-4" d="M137,49.36c-14.73,12.39-34.41,20.75-41.89,11.86S99.21,34.38,113.94,22s34.4-20.75,41.87-11.86S151.67,37,137,49.36ZM114.39,22.54c-7.53,6.34-14,13.87-17.62,20.67-5.21,9.66-3.58,14.94-1.29,17.66s7.21,5.24,17.62,1.77c7.33-2.45,15.85-7.48,23.39-13.82s14-13.87,17.62-20.67c5.21-9.66,3.58-14.94,1.29-17.66s-7.21-5.24-17.62-1.76C130.45,11.17,121.93,16.21,114.39,22.54ZM134,45.87c-17.77,14.94-32.67,17.18-36.17,13s1.27-18.45,19-33.39,32.66-17.19,36.16-13S151.78,30.92,134,45.87ZM117.33,26c-7.62,6.41-13.71,13.59-17.15,20.21-2.88,5.56-3.62,10.27-1.93,12.29,3.31,3.93,18.7.74,35.3-13.22,7.62-6.41,13.71-13.59,17.15-20.21,2.88-5.56,3.62-10.27,1.93-12.29C149.32,8.89,133.93,12.08,117.33,26Z"/><path class="cls-5" d="M191.28,28.4c-5.51-5.13-16.58,2.39-25.44,10.22,2.33-5.36,3-10.4,1.09-14.37a11.6,11.6,0,0,0-2.54-8.44,11.58,11.58,0,0,0-7.73-3.93,9.35,9.35,0,0,0-1-1.57c-5.28-6.27-16.87-3.68-28.4,2.85a23.26,23.26,0,0,1,3.61-.49c.6,0,1.28.88.94,1.35-1.45,2-4.08,2.89-6.07,4.28-2.81,1.93-5.59,3.9-8.2,6.09a80.74,80.74,0,0,0-6.2,5.79,53.07,53.07,0,0,1,6.78-5.27c3.61-2.31,7.83-5.11,12.6-5.38,3.11-.18,8.59,1.07,10.45,5.26a10.86,10.86,0,0,1,.58,1.75,45.09,45.09,0,0,1,10.44-3.7c-2.68,6.35-8.66,14.59-18.36,22.75a87.12,87.12,0,0,1-9.88,7.22c3-1.11,6-2.31,8.81-3.69s6.31-4.22,10.07-5.63c6.49-6.56,11.75-13.92,14-20.42-1.09,5.18-4.89,12.32-11.8,19.81a9.3,9.3,0,0,1,3.86,0c3.5.78,4.27,3.68,4.07,6.51.44-.46.91-.9,1.34-1.37-.43.51-.89,1-1.34,1.54a17.23,17.23,0,0,1-1.1,4.62A32.83,32.83,0,0,1,148.24,61a83.58,83.58,0,0,0,8.61-8.64,1.28,1.28,0,0,0,.25-.15c12.42-13.45,28.4-25.57,32.56-21.7a5.69,5.69,0,0,1,1.62,4.09c.39,8.85-10.81,24.4-25.82,31.19A70.11,70.11,0,0,1,156.31,69c-10.59,3.14-22.58,6.71-39.77,29.13a1.81,1.81,0,0,0,.49,2.28c.72.68,1.67.75,2.12.16,16.79-21.91,28.45-25.37,38.74-28.43a72.92,72.92,0,0,0,9.42-3.27A51.78,51.78,0,0,0,179,61.36c8.77-7.38,15.76-17.56,15.4-25.93A9.88,9.88,0,0,0,191.28,28.4ZM160.63,17.33a4.38,4.38,0,0,1,1,.83,4.47,4.47,0,0,1,.71,1.25,13.31,13.31,0,0,0-1.27-.58A11.09,11.09,0,0,0,160.63,17.33Z"/><path class="cls-6" d="M120.56,68.36a51.43,51.43,0,0,1-11.65,7.5,71.5,71.5,0,0,1-9.42,3.28c-10.29,3-21.95,6.51-38.73,28.42-.46.59-1.41.52-2.13-.15a1.82,1.82,0,0,1-.49-2.29C75.33,82.7,87.32,79.14,97.91,76a70.16,70.16,0,0,0,9.15-3.18c15-6.78,26.21-22.33,25.82-31.19a5.71,5.71,0,0,0-1.62-4.09c-4.16-3.87-20.14,8.25-32.56,21.7-.51.55-1.46.4-2.15-.31a1.73,1.73,0,0,1-.34-2.27c6.45-7,28.16-29.17,36.67-21.26a9.9,9.9,0,0,1,3.08,7C136.32,50.8,129.33,61,120.56,68.36Z"/><path class="cls-6" d="M120.78,68.63a51.22,51.22,0,0,1-11.69,7.53,71.87,71.87,0,0,1-9.41,3.28h0c-6.68,2-14.25,4.23-23.39,11.91A103.31,103.31,0,0,0,61,107.8c-.56.73-1.7.62-2.56-.18a2.17,2.17,0,0,1-.58-2.74A106.44,106.44,0,0,1,73.52,88c9.46-8,17.31-10.28,24.24-12.34a70.23,70.23,0,0,0,9.12-3.16,48.61,48.61,0,0,0,11.17-7.12c8.7-7.31,14.81-17.34,14.52-23.84a5.3,5.3,0,0,0-1.48-3.8c-2.37-2.2-9.8,1.44-19.39,9.51A142.68,142.68,0,0,0,99,59.49c-.63.68-1.77.49-2.59-.36a2.07,2.07,0,0,1-.4-2.72A154.31,154.31,0,0,1,109.35,43.5c11.38-9.56,19.35-12.36,23.7-8.31a10.27,10.27,0,0,1,3.22,7.31C136.6,50.18,130.53,60.44,120.78,68.63Zm-45,22.19c9.2-7.74,16.82-10,23.54-12h0a71.35,71.35,0,0,0,9.35-3.25,51.32,51.32,0,0,0,11.6-7.47C130,60,136,49.89,135.65,42.37a9.47,9.47,0,0,0-2.94-6.75c-4-3.72-11.92-.81-22.9,8.43A157,157,0,0,0,96.45,56.91a1.39,1.39,0,0,0,.29,1.82c.55.57,1.31.69,1.71.26a142.13,142.13,0,0,1,12.79-12.26c4.79-4,16.33-13,20.19-9.4a6.06,6.06,0,0,1,1.76,4.37c.3,6.76-5.74,16.73-14.68,24.24a48.57,48.57,0,0,1-11.27,7.18,70.23,70.23,0,0,1-9.18,3.19c-6.89,2-14.69,4.36-24.08,12.25a105.67,105.67,0,0,0-15.58,16.8,1.48,1.48,0,0,0,.4,1.83c.58.54,1.33.61,1.69.13A104.12,104.12,0,0,1,75.8,90.82Z"/><path class="cls-6" d="M66.59,88a.74.74,0,0,1-.22.14l-.26.13c-8.1,3.8-19.18,9-26.56,5.65a10.91,10.91,0,0,1-4.95-4.57c-2.65-4.53-1-11.45,5.09-21.17A115.8,115.8,0,0,1,49,55.48a1.48,1.48,0,0,1,2.14.27A1.74,1.74,0,0,1,51.57,58c-7.43,8.56-17.94,24.35-14.47,30.3A6.25,6.25,0,0,0,40,91c6.09,2.76,17-2.36,24.23-5.75l.26-.13a1.86,1.86,0,0,1,2.16.95A1.51,1.51,0,0,1,66.59,88Z"/><path class="cls-6" d="M66.81,88.29a1.45,1.45,0,0,1-.26.17l-.26.12c-8.14,3.82-19.28,9-26.79,5.64a11.37,11.37,0,0,1-5.16-4.75c-2.71-4.65-1.05-11.69,5.08-21.5a113.31,113.31,0,0,1,9.35-12.71,2.09,2.09,0,0,1,.15-.15,1.86,1.86,0,0,1,2.45.43,2.11,2.11,0,0,1,.46,2.73C43.89,67.4,34.15,82.73,37.35,88.21a5.89,5.89,0,0,0,2.71,2.5c6,2.7,16.81-2.39,24-5.76l.26-.13a2.23,2.23,0,0,1,2.59,1.12A1.82,1.82,0,0,1,66.81,88.29ZM49.38,55.65l-.09.08A114.2,114.2,0,0,0,40,68.41C34,78,32.28,84.85,34.85,89.25a10.47,10.47,0,0,0,4.76,4.38c7.25,3.3,18.27-1.88,26.31-5.66l.27-.12a.82.82,0,0,0,.17-.11,1.2,1.2,0,0,0,0-1.55,1.5,1.5,0,0,0-1.73-.77l-.26.13C57.14,89,46.16,94.12,40,91.29a6.72,6.72,0,0,1-3.1-2.85c-1.63-2.8-.58-7.67,3.12-14.5A95.91,95.91,0,0,1,51.32,57.77,1.39,1.39,0,0,0,51,56,1.23,1.23,0,0,0,49.38,55.65Z"/><path class="cls-6" d="M88.78,69C74,81.36,54.11,89.48,46.23,80.12s3.54-27.61,18.29-40S99.19,19.59,107.07,29,103.52,56.56,88.78,69ZM67.68,43.88C50.57,58.27,45.28,73.32,49,77.77S68.5,79.59,85.61,65.2,108,35.76,104.28,31.31,84.8,29.48,67.68,43.88Z"/><path class="cls-6" d="M89,69.23c-14.85,12.49-35,20.61-43,11.06s3.42-28,18.27-40.45,35-20.6,43-11.06S103.85,56.75,89,69.23ZM64.75,40.38c-7.6,6.39-14,14.07-17.58,21.07-5.08,10-3.2,15.55-.73,18.49s7.65,5.75,18.33,2.45c7.52-2.32,16.18-7.31,23.78-13.7s14-14.07,17.58-21.07c5.08-10,3.2-15.55.73-18.49s-7.65-5.74-18.34-2.45C81,29,72.34,34,64.75,40.38ZM85.84,65.47c-7.73,6.5-16,11.26-23.39,13.39C56,80.74,50.88,80.4,48.81,77.94s-1.53-7.54,1.44-13.59c3.36-6.88,9.47-14.24,17.21-20.75s16-11.25,23.39-13.39c6.47-1.88,11.57-1.53,13.63.92s1.53,7.54-1.43,13.6C99.69,51.6,93.58,59,85.84,65.47ZM67.91,44.15c-7.69,6.46-13.76,13.78-17.1,20.6C48,70.49,47.4,75.41,49.23,77.59S56,80,62.16,78.24c7.29-2.12,15.54-6.85,23.23-13.31s13.76-13.78,17.09-20.6c2.81-5.74,3.42-10.67,1.59-12.85s-6.79-2.42-12.93-.64C83.85,33,75.6,37.68,67.91,44.15Z"/><path class="cls-6" d="M83.58,66.28C68.83,78.68,48.91,86.8,41,77.43s3.55-27.6,18.29-40S94,16.91,101.87,26.27,98.33,53.88,83.58,66.28ZM62.49,41.19C45.37,55.58,40.08,70.63,43.83,75.08S63.3,76.91,80.42,62.52s22.4-29.44,18.66-33.9S79.6,26.8,62.49,41.19Z"/><path class="cls-6" d="M83.81,66.55C69,79,48.85,87.15,40.82,77.61s3.43-28,18.27-40.45,35-20.61,43-11.06S98.66,54.06,83.81,66.55ZM59.55,37.7C52,44.09,45.55,51.77,42,58.77c-5.08,10-3.2,15.55-.73,18.49S48.9,83,59.58,79.71C67.09,77.39,75.75,72.4,83.35,66s14-14.07,17.58-21.07c5.08-10,3.2-15.55.73-18.49S94,20.7,83.33,24C75.81,26.32,67.15,31.31,59.55,37.7ZM80.64,62.79c-7.73,6.5-16,11.26-23.38,13.39-6.48,1.88-11.58,1.54-13.64-.92s-1.53-7.54,1.43-13.6c3.37-6.87,9.48-14.24,17.21-20.74s16-11.26,23.39-13.39c6.47-1.88,11.57-1.54,13.64.92S100.82,36,97.85,42C94.49,48.92,88.38,56.29,80.64,62.79ZM62.71,41.46C55,47.93,49,55.24,45.62,62.06,42.81,67.81,42.2,72.73,44,74.91s6.79,2.43,12.93.64c7.29-2.11,15.54-6.84,23.23-13.3S94,48.46,97.29,41.64C100.1,35.9,100.7,31,98.87,28.8S92.08,26.37,86,28.15C78.65,30.27,70.4,35,62.71,41.46Z"/><path class="cls-6" d="M87.7,62.82C73,75.22,53,83.34,45.15,74s3.54-27.6,18.29-40S98.11,13.44,106,22.81,102.45,50.42,87.7,62.82ZM66.6,37.73C49.49,52.12,44.2,67.17,47.94,71.62s19.48,1.83,36.59-12.57,22.41-29.43,18.67-33.89S83.72,23.34,66.6,37.73Z"/><path class="cls-6" d="M87.93,63.09c-14.85,12.48-35,20.6-43,11s3.42-28,18.27-40.44,35-20.61,43-11.06S102.77,50.6,87.93,63.09ZM63.67,34.24c-7.6,6.39-14,14.07-17.58,21.07-5.08,10-3.2,15.55-.73,18.48S53,79.54,63.69,76.24c7.52-2.31,16.18-7.31,23.78-13.7s14-14.06,17.58-21.07c5.08-9.95,3.2-15.55.73-18.48s-7.65-5.75-18.34-2.45C79.93,22.86,71.27,27.85,63.67,34.24ZM84.76,59.33c-7.73,6.5-16,11.25-23.39,13.39C54.9,74.6,49.8,74.25,47.73,71.8s-1.53-7.54,1.44-13.6c3.36-6.87,9.47-14.24,17.2-20.74s16-11.26,23.4-13.39c6.47-1.88,11.57-1.54,13.63.92s1.54,7.54-1.43,13.59C98.61,45.46,92.5,52.82,84.76,59.33ZM66.83,38c-7.69,6.46-13.76,13.78-17.1,20.6-2.81,5.74-3.41,10.67-1.58,12.85s6.79,2.42,12.93.64C68.37,70,76.62,65.25,84.31,58.78S98.07,45,101.41,38.18c2.8-5.74,3.41-10.66,1.58-12.84s-6.79-2.43-12.93-.65C82.77,26.81,74.52,31.54,66.83,38Z"/><path class="cls-6" d="M82,60.94C67.28,73.34,47.36,81.46,39.48,72.09s3.54-27.6,18.29-40,34.68-20.52,42.55-11.15S96.78,48.54,82,60.94ZM60.94,35.85C43.82,50.24,38.53,65.29,42.28,69.74s19.47,1.83,36.59-12.56,22.4-29.44,18.66-33.89S78.05,21.46,60.94,35.85Z"/><path class="cls-6" d="M82.26,61.21c-14.85,12.49-35,20.6-43,11.06s3.43-28,18.27-40.45,35-20.61,43-11.06S97.11,48.73,82.26,61.21ZM58,32.36c-7.6,6.39-14,14.07-17.58,21.07-5.08,10-3.2,15.55-.73,18.49S47.35,77.66,58,74.37c7.51-2.32,16.18-7.31,23.77-13.7s14-14.07,17.58-21.07c5.08-10,3.2-15.55.74-18.49s-7.66-5.74-18.34-2.45C74.26,21,65.6,26,58,32.36ZM79.1,57.45c-7.74,6.5-16,11.26-23.39,13.39-6.48,1.88-11.58,1.54-13.64-.92s-1.53-7.54,1.43-13.59C46.87,49.45,53,42.08,60.71,35.58s16-11.26,23.39-13.39c6.47-1.88,11.57-1.54,13.64.92s1.53,7.54-1.43,13.6C92.94,43.58,86.83,51,79.1,57.45ZM61.17,36.12c-7.69,6.47-13.76,13.78-17.1,20.61-2.81,5.74-3.42,10.66-1.58,12.84s6.78,2.43,12.92.64C62.7,68.1,71,63.37,78.64,56.91S92.4,43.13,95.74,36.3c2.81-5.74,3.41-10.66,1.58-12.84S90.54,21,84.4,22.82C77.1,24.93,68.85,29.66,61.17,36.12Z"/><path class="cls-6" d="M78.32,56.1C63.69,68.39,44.2,76.76,36.87,68.05s4.27-26.48,18.9-38.78S89.88,8.61,97.21,17.32,92.94,43.8,78.32,56.1ZM58.7,32.77C41.73,47,36.16,61.58,39.64,65.72S58.4,66.87,75.38,52.6,97.92,23.79,94.44,19.65,75.68,18.5,58.7,32.77Z"/><path class="cls-6" d="M78.55,56.37C63.82,68.75,44.14,77.11,36.66,68.22S40.81,41.38,55.54,29,89.94,8.26,97.41,17.14,93.27,44,78.55,56.37ZM56,29.55c-7.53,6.33-14,13.87-17.62,20.66-5.21,9.67-3.58,14.94-1.29,17.66s7.21,5.24,17.62,1.77C62,67.2,70.55,62.16,78.09,55.82S92.05,42,95.71,35.15c5.21-9.66,3.58-14.93,1.29-17.66s-7.21-5.23-17.62-1.76C72.05,18.17,63.53,23.21,56,29.55ZM75.6,52.87c-17.77,14.94-32.67,17.19-36.17,13s1.27-18.45,19-33.39,32.66-17.19,36.16-13S93.38,37.92,75.6,52.87ZM58.93,33c-7.62,6.41-13.71,13.59-17.14,20.21-2.89,5.57-3.63,10.28-1.94,12.29,3.31,3.94,18.7.74,35.3-13.21,7.62-6.42,13.71-13.59,17.15-20.21,2.88-5.57,3.62-10.28,1.93-12.3C90.92,15.89,75.53,19.09,58.93,33Z"/><path class="cls-7" d="M132.88,35.4c-5.51-5.13-16.58,2.39-25.44,10.22,2.33-5.36,3-10.4,1.09-14.36A11.1,11.1,0,0,0,98.26,18.89a9,9,0,0,0-1.05-1.57c-5.28-6.27-16.87-3.69-28.4,2.84a23.26,23.26,0,0,1,3.61-.49c.6,0,1.28.88.94,1.36-1.45,2-4.08,2.89-6.07,4.27-2.81,1.94-5.59,3.91-8.2,6.1a78.68,78.68,0,0,0-6.2,5.78,53.07,53.07,0,0,1,6.78-5.27c3.62-2.31,7.83-5.11,12.6-5.38,3.11-.18,8.59,1.07,10.45,5.27a11.52,11.52,0,0,1,.59,1.74,44.79,44.79,0,0,1,10.43-3.69c-2.68,6.34-8.66,14.59-18.36,22.75a86.9,86.9,0,0,1-9.87,7.21c3-1.1,6-2.31,8.81-3.69s6.3-4.22,10.06-5.62c6.49-6.57,11.75-13.92,14-20.43-1.09,5.19-4.89,12.33-11.8,19.81a9.3,9.3,0,0,1,3.86,0c3.5.79,4.27,3.68,4.07,6.51.44-.46.91-.9,1.34-1.37-.43.51-.89,1-1.34,1.55a17.23,17.23,0,0,1-1.1,4.62A33.07,33.07,0,0,1,89.84,68a85.61,85.61,0,0,0,8.61-8.64,1,1,0,0,0,.25-.16c12.42-13.45,28.4-25.57,32.56-21.7a5.71,5.71,0,0,1,1.62,4.09c.39,8.86-10.81,24.41-25.82,31.19A70.16,70.16,0,0,1,97.91,76c-10.59,3.14-22.58,6.7-39.77,29.12a1.82,1.82,0,0,0,.49,2.29c.72.67,1.67.74,2.13.15C77.54,85.65,89.2,82.19,99.49,79.14a71.5,71.5,0,0,0,9.42-3.28,51.43,51.43,0,0,0,11.65-7.5C129.33,61,136.32,50.8,136,42.43A9.9,9.9,0,0,0,132.88,35.4ZM102.23,24.34a4.34,4.34,0,0,1,1,.82,4.39,4.39,0,0,1,.71,1.26,11.28,11.28,0,0,0-1.27-.59A10.56,10.56,0,0,0,102.23,24.34Z"/></g></g></g></svg>