<svg width="20" height="22" viewBox="0 0 20 22" fill="none" xmlns="http://www.w3.org/2000/svg">
<path d="M5.50944 3.75659C5.50944 3.96338 5.34389 4.13086 5.13948 4.13086C4.93507 4.13086 4.76951 3.96338 4.76951 3.75659C4.76951 3.5498 4.93507 3.38232 5.13948 3.38232C5.34389 3.38232 5.50944 3.5498 5.50944 3.75659ZM1.86216 18.0933V21.4993H1.40604V18.0933H0.821524C0.706649 18.0933 0.60191 18.0454 0.52589 17.9685C0.44818 17.8916 0.400879 17.7856 0.400879 17.6694V14.9949C0.400879 14.8787 0.44818 14.771 0.524201 14.6941C0.530958 14.6873 0.536026 14.6821 0.542783 14.677C0.617114 14.6103 0.715096 14.5693 0.819835 14.5693H1.26582V11.6316H1.96859C1.96521 11.1479 1.91284 10.9258 1.428 10.8796C1.32833 10.8711 1.254 10.7805 1.26413 10.6797C1.27258 10.5789 1.36211 10.5037 1.46178 10.5139C2.27098 10.5908 2.33348 10.9172 2.33348 11.6316H2.97881V14.5693H3.87416V1.08203C3.87416 0.921387 3.93836 0.776123 4.04309 0.671875C4.14783 0.565918 4.29143 0.500977 4.45022 0.500977H15.4478C15.6066 0.500977 15.7502 0.567627 15.855 0.673584C15.9597 0.779541 16.0239 0.924805 16.0239 1.08716V14.5745H16.8871V13.0039C16.8871 12.9971 16.8871 12.9919 16.8871 12.9851C16.8871 12.9783 16.8871 12.9731 16.8871 12.9663V11.5906C16.8871 11.4641 16.9885 11.3599 17.1152 11.3599H18.5005C18.6255 11.3599 18.7285 11.4624 18.7285 11.5906V12.9407C18.7302 12.9543 18.7319 12.968 18.7319 12.9817C18.7319 12.9954 18.7302 13.009 18.7285 13.0227V14.571H18.9802C19.0951 14.571 19.1998 14.6189 19.2759 14.6958C19.3519 14.7727 19.3992 14.8787 19.3992 14.9966V17.6694C19.3992 17.7856 19.3519 17.8916 19.2759 17.9685C19.1998 18.0454 19.0951 18.0933 18.9802 18.0933H18.3771V21.4104H17.921V18.0933H1.86216ZM10.4524 15.0325V15.3708H9.4456V15.0325H6.41662V16.2356H13.4814V15.0325H10.4524ZM13.9376 15.0325V16.4663C13.9376 16.5928 13.8362 16.697 13.7095 16.697H6.18855C6.06354 16.697 5.96049 16.5945 5.96049 16.4663V15.0325H0.857001V17.6335H18.9464V15.0325H13.9376ZM6.41155 2.66626H13.4831C13.6081 2.66626 13.7213 2.71753 13.8024 2.80127C13.8852 2.88501 13.9359 2.99951 13.9359 3.12427V14.5676H15.5678V1.08374C15.5678 1.04956 15.5543 1.0188 15.5323 0.996582C15.5103 0.974365 15.4799 0.960693 15.4461 0.960693H4.44854C4.41644 0.960693 4.38603 0.974365 4.36407 0.996582C4.34211 1.0188 4.32859 1.04956 4.32859 1.08203V14.5676H5.96049V3.12256C5.96049 2.9978 6.01117 2.8833 6.09226 2.80127C6.17504 2.71753 6.28823 2.66626 6.41155 2.66626ZM13.4814 3.12769H6.41662V14.5676H13.4814V3.12769ZM5.26787 1.48193C5.47228 1.48193 5.63783 1.64941 5.63783 1.8562C5.63783 2.06299 5.47228 2.23047 5.26787 2.23047C5.06346 2.23047 4.8979 2.06299 4.8979 1.8562C4.8979 1.64941 5.06346 1.48193 5.26787 1.48193ZM14.5812 1.48193C14.7856 1.48193 14.9512 1.64941 14.9512 1.8562C14.9512 2.06299 14.7856 2.23047 14.5812 2.23047C14.3768 2.23047 14.2112 2.06299 14.2112 1.8562C14.2112 1.64941 14.3768 1.48193 14.5812 1.48193ZM12.7179 1.48193C12.9223 1.48193 13.0878 1.64941 13.0878 1.8562C13.0878 2.06299 12.9223 2.23047 12.7179 2.23047C12.5134 2.23047 12.3479 2.06299 12.3479 1.8562C12.3479 1.64941 12.5134 1.48193 12.7179 1.48193ZM10.8562 1.48193C11.0606 1.48193 11.2262 1.64941 11.2262 1.8562C11.2262 2.06299 11.0606 2.23047 10.8562 2.23047C10.6518 2.23047 10.4862 2.06299 10.4862 1.8562C10.4862 1.64941 10.6518 1.48193 10.8562 1.48193ZM8.99286 1.48193C9.19727 1.48193 9.36282 1.64941 9.36282 1.8562C9.36282 2.06299 9.19727 2.23047 8.99286 2.23047C8.78845 2.23047 8.62289 2.06299 8.62289 1.8562C8.62289 1.64941 8.78845 1.48193 8.99286 1.48193ZM7.12952 1.48193C7.33393 1.48193 7.49948 1.64941 7.49948 1.8562C7.49948 2.06299 7.33393 2.23047 7.12952 2.23047C6.92511 2.23047 6.75955 2.06299 6.75955 1.8562C6.75955 1.64941 6.92511 1.48193 7.12952 1.48193ZM15.0795 11.2949C15.0795 11.5017 14.914 11.6692 14.7096 11.6692C14.5052 11.6692 14.3396 11.5017 14.3396 11.2949C14.3396 11.0881 14.5052 10.9207 14.7096 10.9207C14.914 10.9207 15.0795 11.0881 15.0795 11.2949ZM15.0795 9.40991C15.0795 9.6167 14.914 9.78418 14.7096 9.78418C14.5052 9.78418 14.3396 9.6167 14.3396 9.40991C14.3396 9.20312 14.5052 9.03564 14.7096 9.03564C14.914 9.03564 15.0795 9.20312 15.0795 9.40991ZM15.0795 7.5249C15.0795 7.73169 14.914 7.89917 14.7096 7.89917C14.5052 7.89917 14.3396 7.73169 14.3396 7.5249C14.3396 7.31812 14.5052 7.15063 14.7096 7.15063C14.914 7.15063 15.0795 7.31982 15.0795 7.5249ZM15.0795 5.6416C15.0795 5.84839 14.914 6.01587 14.7096 6.01587C14.5052 6.01587 14.3396 5.84839 14.3396 5.6416C14.3396 5.43481 14.5052 5.26733 14.7096 5.26733C14.914 5.26733 15.0795 5.43481 15.0795 5.6416ZM15.0795 3.75659C15.0795 3.96338 14.914 4.13086 14.7096 4.13086C14.5052 4.13086 14.3396 3.96338 14.3396 3.75659C14.3396 3.5498 14.5052 3.38232 14.7096 3.38232C14.914 3.38232 15.0795 3.5498 15.0795 3.75659ZM5.50944 11.2949C5.50944 11.5017 5.34389 11.6692 5.13948 11.6692C4.93507 11.6692 4.76951 11.5017 4.76951 11.2949C4.76951 11.0881 4.93507 10.9207 5.13948 10.9207C5.34389 10.9207 5.50944 11.0881 5.50944 11.2949ZM5.50944 9.40991C5.50944 9.6167 5.34389 9.78418 5.13948 9.78418C4.93507 9.78418 4.76951 9.6167 4.76951 9.40991C4.76951 9.20312 4.93507 9.03564 5.13948 9.03564C5.34389 9.03564 5.50944 9.20312 5.50944 9.40991ZM5.50944 7.5249C5.50944 7.73169 5.34389 7.89917 5.13948 7.89917C4.93507 7.89917 4.76951 7.73169 4.76951 7.5249C4.76951 7.31812 4.93507 7.15063 5.13948 7.15063C5.34389 7.15063 5.50944 7.31982 5.50944 7.5249ZM5.50944 5.6416C5.50944 5.84839 5.34389 6.01587 5.13948 6.01587C4.93507 6.01587 4.76951 5.84839 4.76951 5.6416C4.76951 5.43481 4.93507 5.26733 5.13948 5.26733C5.34389 5.26733 5.50944 5.43481 5.50944 5.6416ZM17.345 12.7527H18.2741V11.823H17.345V12.7527ZM18.2741 13.2124H17.345V14.5642H18.2741V13.2124ZM17.1355 16.1177C17.3348 16.1177 17.497 16.2817 17.497 16.4834C17.497 16.6851 17.3348 16.8491 17.1355 16.8491C16.9361 16.8491 16.774 16.6851 16.774 16.4834C16.774 16.2817 16.9361 16.1177 17.1355 16.1177ZM4.09715 16.1177C4.2965 16.1177 4.45867 16.2817 4.45867 16.4834C4.45867 16.6851 4.2965 16.8491 4.09715 16.8491C3.89781 16.8491 3.73563 16.6851 3.73563 16.4834C3.73395 16.2817 3.89612 16.1177 4.09715 16.1177ZM2.70345 16.1177C2.90279 16.1177 3.06497 16.2817 3.06497 16.4834C3.06497 16.6851 2.90279 16.8491 2.70345 16.8491C2.50411 16.8491 2.34193 16.6851 2.34193 16.4834C2.34024 16.2817 2.50242 16.1177 2.70345 16.1177ZM15.7418 16.1177C15.9411 16.1177 16.1033 16.2817 16.1033 16.4834C16.1033 16.6851 15.9411 16.8491 15.7418 16.8491C15.5424 16.8491 15.3802 16.6851 15.3802 16.4834C15.3802 16.2817 15.5424 16.1177 15.7418 16.1177ZM4.01438 21.4343H3.55825V19.8689C3.55825 19.7476 3.60724 19.6382 3.68664 19.5596L3.68833 19.5579C3.76773 19.4775 3.87585 19.428 3.9941 19.428H15.8803C16.0002 19.428 16.1084 19.4775 16.1861 19.5579L16.1878 19.5596C16.2672 19.6399 16.3161 19.7493 16.3161 19.8689V21.4343H15.86V19.8894H4.01438V21.4343Z" fill="#ABABAB"/>
</svg>
