<svg width="25" height="24" viewBox="0 0 25 24" fill="none" xmlns="http://www.w3.org/2000/svg">
<path d="M12.7 2C7.17695 2 2.69995 6.477 2.69995 12C2.69995 17.523 7.17695 22 12.7 22C18.223 22 22.7 17.523 22.7 12C22.7 6.477 18.223 2 12.7 2Z" stroke="#9F9F9F" stroke-width="1.5" stroke-linecap="round" stroke-linejoin="round"/>
<path d="M4.97095 18.346C4.97095 18.346 7.19995 15.5 12.6999 15.5C18.1999 15.5 20.4299 18.346 20.4299 18.346M12.6999 12C13.4956 12 14.2587 11.6839 14.8213 11.1213C15.3839 10.5587 15.6999 9.79565 15.6999 9C15.6999 8.20435 15.3839 7.44129 14.8213 6.87868C14.2587 6.31607 13.4956 6 12.6999 6C11.9043 6 11.1412 6.31607 10.5786 6.87868C10.016 7.44129 9.69995 8.20435 9.69995 9C9.69995 9.79565 10.016 10.5587 10.5786 11.1213C11.1412 11.6839 11.9043 12 12.6999 12V12Z" stroke="#9F9F9F" stroke-width="1.5" stroke-linecap="round" stroke-linejoin="round"/>
</svg>
