<svg width="30" height="20" viewBox="0 0 30 20" fill="none" xmlns="http://www.w3.org/2000/svg">
<g clip-path="url(#clip0_53_1108)">
<path fill-rule="evenodd" clip-rule="evenodd" d="M22.8835 5.28706L18.6401 5.2615V2.16895C18.6401 1.70891 18.4679 1.29231 18.187 0.990718C17.9085 0.686575 17.5238 0.5 17.099 0.5H5.33667C4.91187 0.5 4.52718 0.686575 4.2487 0.990718C3.97021 1.29231 3.79557 1.70891 3.79557 2.16895C3.79557 2.41942 3.98202 2.62133 4.2133 2.62133C4.44458 2.62133 4.63102 2.41942 4.63102 2.16895C4.63102 1.95938 4.71126 1.76769 4.8387 1.62967C4.96615 1.49166 5.14315 1.40476 5.33667 1.40476H17.099C17.2926 1.40476 17.4696 1.49166 17.597 1.62967C17.7244 1.76769 17.8047 1.95938 17.8047 2.16895V16.3308H15.4494C15.2181 16.3308 15.0317 16.5327 15.0317 16.7832C15.0317 17.0336 15.2181 17.2355 15.4494 17.2355H18.2224C18.4537 17.2355 18.6401 17.0336 18.6401 16.7832V16.2694H21.1606C21.3518 11.5616 27.5941 10.9124 28.2289 16.2694H29.6001L29.1777 11.3571L24.6771 9.49139L22.8835 5.28706ZM1.2255 10.0946C0.878581 10.0946 0.600098 9.8901 0.600098 9.63963C0.600098 9.38916 0.880941 9.18469 1.2255 9.18469H6.86361C7.21053 9.18469 7.48901 9.38916 7.48901 9.63963C7.48901 9.8901 7.20817 10.0946 6.86361 10.0946H1.2255ZM2.51644 7.64609C2.25684 7.64609 2.04679 7.44418 2.04679 7.1937C2.04679 6.94323 2.25684 6.74132 2.51644 6.74132H6.86597C7.12557 6.74132 7.33561 6.94323 7.33561 7.1937C7.33561 7.44418 7.12557 7.64609 6.86597 7.64609H2.51644ZM3.11353 5.19761C2.85392 5.19761 2.64388 4.9957 2.64388 4.74522C2.64388 4.49475 2.85392 4.29284 3.11353 4.29284H6.86361C7.12321 4.29284 7.33325 4.49475 7.33325 4.74522C7.33325 4.9957 7.12321 5.19761 6.86361 5.19761H3.11353ZM6.84473 16.3282C7.07601 16.3282 7.26245 16.5301 7.26245 16.7806C7.26245 17.0311 7.07601 17.233 6.84473 17.233H5.33667C4.91423 17.233 4.52954 17.0336 4.2487 16.7193C3.97021 16.4049 3.79557 15.9755 3.79557 15.5206V12.198C3.79557 11.9475 3.98202 11.7456 4.2133 11.7456C4.44458 11.7456 4.63102 11.9475 4.63102 12.198V15.5206C4.63102 15.7378 4.71362 15.9448 4.84814 16.0956C4.97559 16.2388 5.14787 16.3308 5.33431 16.3308H6.84473V16.3282ZM11.0928 13.3737C9.53044 13.3737 8.2631 14.7462 8.2631 16.4381C8.2631 18.1301 9.53044 19.5026 11.0928 19.5026C12.6551 19.5026 13.9224 18.1301 13.9224 16.4381C13.9201 14.7462 12.6551 13.3737 11.0928 13.3737ZM11.0928 15.2599C10.4933 15.2599 10.0048 15.7864 10.0048 16.4381C10.0048 17.0873 10.491 17.6164 11.0928 17.6164C11.6922 17.6164 12.1807 17.0899 12.1807 16.4381C12.1784 15.7864 11.6922 15.2599 11.0928 15.2599ZM24.6865 13.3737C23.1242 13.3737 21.8569 14.7462 21.8569 16.4381C21.8569 18.1301 23.1242 19.5026 24.6865 19.5026C26.2489 19.5026 27.5162 18.1301 27.5162 16.4381C27.5162 14.7462 26.2489 13.3737 24.6865 13.3737ZM24.6865 15.2599C24.0871 15.2599 23.5986 15.7864 23.5986 16.4381C23.5986 17.0873 24.0847 17.6164 24.6865 17.6164C25.2883 17.6164 25.7745 17.0899 25.7745 16.4381C25.7745 15.7864 25.2883 15.2599 24.6865 15.2599ZM21.7908 6.58542L19.6833 6.55986V9.4965H23.2162L21.7908 6.58542Z" fill="#ABABAB"/>
</g>
<defs>
<clipPath id="clip0_53_1108">
<rect width="29" height="19" fill="white" transform="translate(0.600098 0.5)"/>
</clipPath>
</defs>
</svg>
