<svg width="20" height="20" viewBox="0 0 20 20" fill="none" xmlns="http://www.w3.org/2000/svg">
<rect width="20" height="20" rx="5" fill="#1E1E1E"/>
<path d="M7.16442 7.63636H8.087V10.4702C8.087 10.7884 8.01101 11.0668 7.85902 11.3054C7.70845 11.544 7.49751 11.7301 7.22621 11.8636C6.9549 11.9957 6.63885 12.0618 6.27805 12.0618C5.91584 12.0618 5.59908 11.9957 5.32777 11.8636C5.05646 11.7301 4.84553 11.544 4.69496 11.3054C4.54439 11.0668 4.46911 10.7884 4.46911 10.4702V7.63636H5.39169V10.3913C5.39169 10.5575 5.42791 10.7053 5.50036 10.8345C5.57422 10.9638 5.67791 11.0653 5.81143 11.1392C5.94496 11.2131 6.1005 11.25 6.27805 11.25C6.45703 11.25 6.61257 11.2131 6.74467 11.1392C6.8782 11.0653 6.98118 10.9638 7.05362 10.8345C7.12749 10.7053 7.16442 10.5575 7.16442 10.3913V7.63636ZM11.2132 8.89134C11.1962 8.71946 11.123 8.58594 10.9938 8.49077C10.8645 8.3956 10.6891 8.34801 10.4675 8.34801C10.3169 8.34801 10.1898 8.36932 10.0861 8.41193C9.98242 8.45312 9.90288 8.51065 9.84748 8.58452C9.7935 8.65838 9.76651 8.74219 9.76651 8.83594C9.76367 8.91406 9.78001 8.98224 9.81552 9.04048C9.85245 9.09872 9.90288 9.14915 9.9668 9.19176C10.0307 9.23295 10.1046 9.26918 10.1884 9.30043C10.2722 9.33026 10.3617 9.35582 10.4569 9.37713L10.8489 9.47088C11.0392 9.51349 11.214 9.57031 11.373 9.64134C11.5321 9.71236 11.6699 9.79972 11.7864 9.90341C11.9029 10.0071 11.9931 10.1293 12.057 10.2699C12.1223 10.4105 12.1557 10.5717 12.1571 10.7536C12.1557 11.0206 12.0875 11.2521 11.9526 11.4482C11.8191 11.6428 11.6259 11.794 11.373 11.902C11.1216 12.0085 10.8184 12.0618 10.4632 12.0618C10.111 12.0618 9.80415 12.0078 9.54279 11.8999C9.28285 11.7919 9.07972 11.6321 8.93342 11.4205C8.78853 11.2074 8.71254 10.9439 8.70543 10.63H9.59819C9.60813 10.7763 9.65004 10.8984 9.7239 10.9964C9.79918 11.093 9.89933 11.1662 10.0243 11.2159C10.1507 11.2642 10.2935 11.2884 10.4526 11.2884C10.6088 11.2884 10.7445 11.2656 10.8596 11.2202C10.976 11.1747 11.0662 11.1115 11.1301 11.0305C11.1941 10.9496 11.226 10.8565 11.226 10.7514C11.226 10.6534 11.1969 10.571 11.1387 10.5043C11.0819 10.4375 10.998 10.3807 10.8873 10.3338C10.7779 10.2869 10.6436 10.2443 10.4846 10.206L10.0094 10.0866C9.64151 9.99716 9.35103 9.85724 9.13796 9.6669C8.92489 9.47656 8.81907 9.22017 8.82049 8.89773C8.81907 8.63352 8.88938 8.4027 9.03143 8.20526C9.17489 8.00781 9.37163 7.85369 9.62163 7.7429C9.87163 7.6321 10.1557 7.5767 10.4739 7.5767C10.7978 7.5767 11.0804 7.6321 11.3219 7.7429C11.5648 7.85369 11.7537 8.00781 11.8887 8.20526C12.0236 8.4027 12.0932 8.63139 12.0975 8.89134H11.2132ZM16.6278 9.16406H15.6946C15.6776 9.04332 15.6428 8.93608 15.5902 8.84233C15.5376 8.74716 15.4702 8.66619 15.3878 8.59943C15.3054 8.53267 15.2102 8.48153 15.1023 8.44602C14.9957 8.41051 14.88 8.39276 14.755 8.39276C14.5291 8.39276 14.3324 8.44886 14.1648 8.56108C13.9972 8.67187 13.8672 8.83381 13.7749 9.04688C13.6825 9.25852 13.6364 9.51562 13.6364 9.81818C13.6364 10.1293 13.6825 10.3906 13.7749 10.6023C13.8686 10.8139 13.9993 10.9737 14.1669 11.0817C14.3345 11.1896 14.5284 11.2436 14.7486 11.2436C14.8722 11.2436 14.9865 11.2273 15.0916 11.1946C15.1982 11.1619 15.2926 11.1143 15.375 11.0518C15.4574 10.9879 15.5256 10.9105 15.5795 10.8196C15.6349 10.7287 15.6733 10.625 15.6946 10.5085L16.6278 10.5128C16.6037 10.7131 16.5433 10.9062 16.4467 11.0923C16.3516 11.277 16.223 11.4425 16.0611 11.5888C15.9006 11.7337 15.7088 11.8487 15.4858 11.9339C15.2642 12.0178 15.0135 12.0597 14.7337 12.0597C14.3445 12.0597 13.9964 11.9716 13.6896 11.7955C13.3842 11.6193 13.1428 11.3643 12.9652 11.0305C12.7891 10.6967 12.701 10.2926 12.701 9.81818C12.701 9.34233 12.7905 8.9375 12.9695 8.60369C13.1484 8.26989 13.3913 8.01562 13.6982 7.84091C14.005 7.66477 14.3501 7.5767 14.7337 7.5767C14.9865 7.5767 15.2209 7.61222 15.4368 7.68324C15.6541 7.75426 15.8466 7.85795 16.0142 7.99432C16.1818 8.12926 16.3182 8.29474 16.4233 8.49077C16.5298 8.68679 16.598 8.91122 16.6278 9.16406Z" fill="white"/>
</svg>
