<svg width="32" height="32" viewBox="0 0 32 32" fill="none" xmlns="http://www.w3.org/2000/svg">
<circle cx="16" cy="16" r="16" fill="#232F4B"/>
<path opacity="0.4" fill-rule="evenodd" clip-rule="evenodd" d="M14.6645 18.9156C14.4664 19.0203 14.4556 19.0591 14.438 19.7276C14.4206 20.3872 14.402 20.47 14.2315 20.6496C14.1162 20.7713 13.8876 20.8805 13.7479 20.8809C13.5238 20.8815 13.3215 21.0376 13.2837 21.2393C13.256 21.3867 13.338 21.5781 13.4661 21.6652C13.6548 21.7934 14.0923 21.745 14.4537 21.556C14.6642 21.4459 14.9676 21.149 15.0896 20.9339C15.2514 20.6487 15.294 20.4072 15.294 19.7748C15.294 19.2715 15.2884 19.2072 15.2353 19.0975C15.1927 19.0095 15.1434 18.9602 15.0554 18.9176C14.9064 18.8455 14.7983 18.8449 14.6645 18.9156ZM15.9947 18.9235C15.7774 19.0481 15.7781 19.0433 15.7782 20.2968C15.7782 21.536 15.7788 21.5402 15.9746 21.671C16.1774 21.8064 16.4723 21.7271 16.5827 21.5072C16.6276 21.4179 16.6325 21.2979 16.6326 20.2968C16.6326 19.2694 16.6286 19.1781 16.5798 19.0863C16.5156 18.9657 16.3406 18.8599 16.2054 18.8599C16.1505 18.8599 16.0558 18.8885 15.9947 18.9235ZM17.3532 18.9182C17.2678 18.9604 17.2169 19.0119 17.1752 19.098C17.1224 19.2071 17.1168 19.2723 17.1168 19.7748C17.1168 20.4072 17.1594 20.6487 17.3211 20.9339C17.4432 21.149 17.7466 21.4459 17.957 21.556C18.3184 21.745 18.7559 21.7934 18.9446 21.6652C19.0727 21.5781 19.1547 21.3867 19.1271 21.2393C19.0892 21.0376 18.887 20.8815 18.6629 20.8809C18.5231 20.8805 18.2946 20.7713 18.1792 20.6496C18.0087 20.47 17.9902 20.3872 17.9728 19.7276C17.9551 19.0556 17.9444 19.0185 17.7402 18.9142C17.6013 18.8434 17.5023 18.8444 17.3532 18.9182Z" fill="white"/>
<path fill-rule="evenodd" clip-rule="evenodd" d="M10.3146 10.6688C10.2312 10.6889 10.0532 10.7598 9.91901 10.8263C9.49341 11.0372 9.17119 11.4148 8.99511 11.9089L8.92915 12.094L8.92049 14.419C8.91072 17.0355 8.9069 16.9775 9.11719 17.4059C9.33823 17.8563 9.78412 18.223 10.2811 18.363C10.3739 18.3892 10.6148 18.4136 10.8721 18.423L11.3065 18.4389L11.3069 17.8156C11.3074 17.1057 11.3325 16.9478 11.4993 16.6084C11.653 16.2957 11.98 15.9728 12.3034 15.8145C12.7342 15.6036 12.5614 15.6126 16.2054 15.6126C19.8494 15.6126 19.6767 15.6036 20.1074 15.8145C20.4308 15.9728 20.7578 16.2957 20.9115 16.6084C21.0783 16.9478 21.1034 17.1057 21.1039 17.8156L21.1043 18.4389L21.5387 18.423C21.796 18.4136 22.0369 18.3892 22.1297 18.363C22.6267 18.223 23.0726 17.8563 23.2936 17.4059C23.5039 16.9775 23.5001 17.0355 23.4903 14.419L23.4817 12.094L23.4157 11.9089C23.2345 11.4003 22.9136 11.031 22.4667 10.8165C22.3205 10.7464 22.1329 10.6751 22.05 10.6581C21.8129 10.6096 10.5167 10.6198 10.3146 10.6688ZM19.2991 12.3236C19.5025 12.4757 19.5592 12.6951 19.446 12.8915C19.3365 13.0814 19.2481 13.1085 18.7688 13.099C18.4077 13.0919 18.3463 13.0837 18.2802 13.0339C18.0779 12.8815 18.045 12.6097 18.2043 12.4073C18.3108 12.2718 18.4024 12.25 18.8309 12.2578C19.1735 12.2641 19.2301 12.272 19.2991 12.3236ZM21.3316 12.3006C21.3861 12.3279 21.4609 12.3952 21.4979 12.4501C21.5895 12.586 21.5768 12.8395 21.4728 12.9508C21.3439 13.0888 21.2784 13.1051 20.8536 13.1051C20.4894 13.1051 20.4499 13.1 20.3609 13.0405C20.0877 12.858 20.1117 12.453 20.4043 12.3082C20.5647 12.2288 21.1788 12.2238 21.3316 12.3006ZM12.9331 16.4968C12.6547 16.5515 12.3588 16.7868 12.2408 17.0473C12.1799 17.1819 12.1745 17.2367 12.1661 17.8118L12.157 18.4313H16.2054H20.2538L20.2447 17.8118C20.2363 17.2367 20.2309 17.1819 20.17 17.0473C20.0949 16.8814 19.8901 16.669 19.7223 16.5828C19.6592 16.5504 19.5389 16.5109 19.4549 16.495C19.2659 16.4592 13.1162 16.4609 12.9331 16.4968Z" fill="white"/>
<rect x="8.91312" y="8.91361" width="14.5624" height="14.5624" stroke="white" stroke-width="0.0488943"/>
</svg>
