<svg width="33" height="17" viewBox="0 0 33 17" fill="none" xmlns="http://www.w3.org/2000/svg">
<path d="M24.2973 0.822021H18.0091V3.96616H24.2973C26.8912 3.96616 29.0135 6.08845 29.0135 8.68236C29.0135 11.2763 26.8912 13.3986 24.2973 13.3986H18.0091V16.5427H24.2973C28.6362 16.5427 32.1577 13.0213 32.1577 8.68236C32.1577 4.34345 28.6362 0.822021 24.2973 0.822021ZM14.8649 13.3986H8.57665C5.98273 13.3986 3.86044 11.2763 3.86044 8.68236C3.86044 6.08845 5.98273 3.96616 8.57665 3.96616H14.8649V0.822021H8.57665C4.23774 0.822021 0.716309 4.34345 0.716309 8.68236C0.716309 13.0213 4.23774 16.5427 8.57665 16.5427H14.8649V13.3986ZM10.1487 7.11029H22.7253V10.2544H10.1487V7.11029ZM24.2973 0.822021H18.0091V3.96616H24.2973C26.8912 3.96616 29.0135 6.08845 29.0135 8.68236C29.0135 11.2763 26.8912 13.3986 24.2973 13.3986H18.0091V16.5427H24.2973C28.6362 16.5427 32.1577 13.0213 32.1577 8.68236C32.1577 4.34345 28.6362 0.822021 24.2973 0.822021ZM14.8649 13.3986H8.57665C5.98273 13.3986 3.86044 11.2763 3.86044 8.68236C3.86044 6.08845 5.98273 3.96616 8.57665 3.96616H14.8649V0.822021H8.57665C4.23774 0.822021 0.716309 4.34345 0.716309 8.68236C0.716309 13.0213 4.23774 16.5427 8.57665 16.5427H14.8649V13.3986ZM10.1487 7.11029H22.7253V10.2544H10.1487V7.11029Z" fill="black"/>
</svg>
