<svg width="27" height="27" viewBox="0 0 27 27" fill="none" xmlns="http://www.w3.org/2000/svg">
<g clip-path="url(#clip0_22_10664)">
<path d="M22.5127 18.8204H24.7178V21.0256H2.6665V18.8204H4.87163V11.1025C4.87163 8.76315 5.80093 6.51962 7.4551 4.86545C9.10927 3.21128 11.3528 2.28198 13.6921 2.28198C16.0315 2.28198 18.275 3.21128 19.9292 4.86545C21.5834 6.51962 22.5127 8.76315 22.5127 11.1025V18.8204ZM20.3075 18.8204V11.1025C20.3075 9.34799 19.6106 7.66534 18.3699 6.42471C17.1293 5.18409 15.4467 4.48711 13.6921 4.48711C11.9376 4.48711 10.255 5.18409 9.01436 6.42471C7.77374 7.66534 7.07676 9.34799 7.07676 11.1025V18.8204H20.3075ZM10.3845 23.2307H16.9998V25.4358H10.3845V23.2307Z" fill="black"/>
</g>
<defs>
<clipPath id="clip0_22_10664">
<rect width="26.4615" height="26.4615" fill="white" transform="translate(0.461426 0.0769043)"/>
</clipPath>
</defs>
</svg>
