<svg width="174" height="116" viewBox="0 0 174 116" fill="none" xmlns="http://www.w3.org/2000/svg">
<rect x="0.302734" width="172.884" height="116" rx="8" fill="black"/>
<path d="M26.6758 67.835H27.9883C27.9199 68.4639 27.7399 69.0267 27.4482 69.5234C27.1566 70.0202 26.7441 70.4144 26.2109 70.7061C25.6777 70.9932 25.0124 71.1367 24.2148 71.1367C23.6315 71.1367 23.1006 71.0273 22.6221 70.8086C22.1481 70.5898 21.7402 70.2799 21.3984 69.8789C21.0566 69.4733 20.7923 68.988 20.6055 68.4229C20.4232 67.8532 20.332 67.2197 20.332 66.5225V65.5312C20.332 64.834 20.4232 64.2028 20.6055 63.6377C20.7923 63.068 21.0589 62.5804 21.4053 62.1748C21.7562 61.7692 22.1777 61.457 22.6699 61.2383C23.1621 61.0195 23.7158 60.9102 24.3311 60.9102C25.083 60.9102 25.7188 61.0514 26.2383 61.334C26.7578 61.6165 27.1611 62.0085 27.4482 62.5098C27.7399 63.0065 27.9199 63.583 27.9883 64.2393H26.6758C26.612 63.7744 26.4935 63.3757 26.3203 63.043C26.1471 62.7057 25.901 62.446 25.582 62.2637C25.263 62.0814 24.846 61.9902 24.3311 61.9902C23.889 61.9902 23.4993 62.0745 23.1621 62.2432C22.8294 62.4118 22.5492 62.651 22.3213 62.9609C22.098 63.2708 21.9294 63.6423 21.8154 64.0752C21.7015 64.5081 21.6445 64.9889 21.6445 65.5176V66.5225C21.6445 67.0101 21.6947 67.4681 21.7949 67.8965C21.8997 68.3249 22.057 68.7008 22.2666 69.0244C22.4762 69.348 22.7428 69.6032 23.0664 69.79C23.39 69.9723 23.7728 70.0635 24.2148 70.0635C24.7754 70.0635 25.222 69.9746 25.5547 69.7969C25.8874 69.6191 26.138 69.3639 26.3066 69.0312C26.4798 68.6986 26.6029 68.2998 26.6758 67.835ZM34.2061 69.7354V65.9277C34.2061 65.6361 34.1468 65.3831 34.0283 65.1689C33.9144 64.9502 33.7412 64.7816 33.5088 64.6631C33.2764 64.5446 32.9893 64.4854 32.6475 64.4854C32.3285 64.4854 32.0482 64.54 31.8066 64.6494C31.5697 64.7588 31.3828 64.9023 31.2461 65.0801C31.1139 65.2578 31.0479 65.4492 31.0479 65.6543H29.7832C29.7832 65.39 29.8516 65.1279 29.9883 64.8682C30.125 64.6084 30.321 64.3737 30.5762 64.1641C30.8359 63.9499 31.1458 63.7812 31.5059 63.6582C31.8704 63.5306 32.276 63.4668 32.7227 63.4668C33.2604 63.4668 33.7344 63.5579 34.1445 63.7402C34.5592 63.9225 34.8828 64.1982 35.1152 64.5674C35.3522 64.932 35.4707 65.39 35.4707 65.9414V69.3867C35.4707 69.6328 35.4912 69.8949 35.5322 70.1729C35.5778 70.4508 35.6439 70.6901 35.7305 70.8906V71H34.4111C34.3473 70.8542 34.2972 70.6605 34.2607 70.4189C34.2243 70.1729 34.2061 69.945 34.2061 69.7354ZM34.4248 66.5156L34.4385 67.4043H33.1602C32.8001 67.4043 32.4788 67.4339 32.1963 67.4932C31.9137 67.5479 31.6768 67.6322 31.4854 67.7461C31.2939 67.86 31.1481 68.0036 31.0479 68.1768C30.9476 68.3454 30.8975 68.5436 30.8975 68.7715C30.8975 69.0039 30.9499 69.2158 31.0547 69.4072C31.1595 69.5986 31.3167 69.7513 31.5264 69.8652C31.7406 69.9746 32.0026 70.0293 32.3125 70.0293C32.6999 70.0293 33.0417 69.9473 33.3379 69.7832C33.6341 69.6191 33.8688 69.4186 34.042 69.1816C34.2197 68.9447 34.3154 68.7145 34.3291 68.4912L34.8691 69.0996C34.8372 69.291 34.7507 69.5029 34.6094 69.7354C34.4681 69.9678 34.279 70.1911 34.042 70.4053C33.8096 70.6149 33.5316 70.7904 33.208 70.9316C32.889 71.0684 32.529 71.1367 32.1279 71.1367C31.6266 71.1367 31.1868 71.0387 30.8086 70.8428C30.4349 70.6468 30.1432 70.3848 29.9336 70.0566C29.7285 69.724 29.626 69.3525 29.626 68.9424C29.626 68.5459 29.7035 68.1973 29.8584 67.8965C30.0133 67.5911 30.2367 67.3382 30.5283 67.1377C30.82 66.9326 31.1709 66.7777 31.5811 66.6729C31.9912 66.568 32.4492 66.5156 32.9551 66.5156H34.4248ZM39.084 60.5V71H37.8125V60.5H39.084ZM42.7383 60.5V71H41.4668V60.5H42.7383ZM54.2373 68.4844C54.2373 68.252 54.2008 68.0469 54.1279 67.8691C54.0596 67.6868 53.9365 67.5228 53.7588 67.377C53.5856 67.2311 53.3441 67.0921 53.0342 66.96C52.7288 66.8278 52.3415 66.6934 51.8721 66.5566C51.3799 66.4108 50.9355 66.249 50.5391 66.0713C50.1426 65.889 49.8031 65.6816 49.5205 65.4492C49.238 65.2168 49.0215 64.9502 48.8711 64.6494C48.7207 64.3486 48.6455 64.0046 48.6455 63.6172C48.6455 63.2298 48.7253 62.8721 48.8848 62.5439C49.0443 62.2158 49.2721 61.931 49.5684 61.6895C49.8691 61.4434 50.2269 61.252 50.6416 61.1152C51.0563 60.9785 51.5189 60.9102 52.0293 60.9102C52.7767 60.9102 53.4102 61.0537 53.9297 61.3408C54.4538 61.6234 54.8525 61.9948 55.126 62.4551C55.3994 62.9108 55.5361 63.3984 55.5361 63.918H54.2236C54.2236 63.5443 54.1439 63.2139 53.9844 62.9268C53.8249 62.6351 53.5833 62.4072 53.2598 62.2432C52.9362 62.0745 52.526 61.9902 52.0293 61.9902C51.5599 61.9902 51.1725 62.0609 50.8672 62.2021C50.5618 62.3434 50.334 62.5348 50.1836 62.7764C50.0378 63.0179 49.9648 63.2936 49.9648 63.6035C49.9648 63.8132 50.0081 64.0046 50.0947 64.1777C50.1859 64.3464 50.3249 64.5036 50.5117 64.6494C50.7031 64.7952 50.9447 64.9297 51.2363 65.0527C51.5326 65.1758 51.8857 65.2943 52.2959 65.4082C52.861 65.5677 53.3486 65.7454 53.7588 65.9414C54.1689 66.1374 54.5062 66.3584 54.7705 66.6045C55.0394 66.846 55.2376 67.1217 55.3652 67.4316C55.4974 67.737 55.5635 68.0833 55.5635 68.4707C55.5635 68.8763 55.4814 69.2432 55.3174 69.5713C55.1533 69.8994 54.9186 70.1797 54.6133 70.4121C54.3079 70.6445 53.9411 70.8245 53.5127 70.9521C53.0889 71.0752 52.6149 71.1367 52.0908 71.1367C51.6305 71.1367 51.1771 71.0729 50.7305 70.9453C50.2884 70.8177 49.8851 70.6263 49.5205 70.3711C49.1605 70.1159 48.8711 69.8014 48.6523 69.4277C48.4382 69.0495 48.3311 68.612 48.3311 68.1152H49.6436C49.6436 68.457 49.7096 68.751 49.8418 68.9971C49.974 69.2386 50.154 69.4391 50.3818 69.5986C50.6143 69.7581 50.8763 69.8766 51.168 69.9541C51.4642 70.027 51.7718 70.0635 52.0908 70.0635C52.5511 70.0635 52.9408 69.9997 53.2598 69.8721C53.5788 69.7445 53.8203 69.5622 53.9844 69.3252C54.153 69.0882 54.2373 68.8079 54.2373 68.4844ZM61.8291 69.291V63.6035H63.1006V71H61.8906L61.8291 69.291ZM62.0684 67.7324L62.5947 67.7188C62.5947 68.2109 62.5423 68.6667 62.4375 69.0859C62.3372 69.5007 62.1732 69.8607 61.9453 70.166C61.7174 70.4714 61.4189 70.7106 61.0498 70.8838C60.6807 71.0524 60.2318 71.1367 59.7031 71.1367C59.3431 71.1367 59.0127 71.0843 58.7119 70.9795C58.4157 70.8747 58.1605 70.7129 57.9463 70.4941C57.7321 70.2754 57.5658 69.9906 57.4473 69.6396C57.3333 69.2887 57.2764 68.8672 57.2764 68.375V63.6035H58.541V68.3887C58.541 68.7214 58.5775 68.9971 58.6504 69.2158C58.7279 69.43 58.8304 69.6009 58.958 69.7285C59.0902 69.8516 59.236 69.9382 59.3955 69.9883C59.5596 70.0384 59.7282 70.0635 59.9014 70.0635C60.4391 70.0635 60.8652 69.9609 61.1797 69.7559C61.4941 69.5462 61.7197 69.266 61.8564 68.915C61.9977 68.5596 62.0684 68.1654 62.0684 67.7324ZM66.543 65.0254V73.8438H65.2715V63.6035H66.4336L66.543 65.0254ZM71.5264 67.2402V67.3838C71.5264 67.9215 71.4626 68.4206 71.335 68.8809C71.2074 69.3366 71.0205 69.7331 70.7744 70.0703C70.5329 70.4076 70.2344 70.6696 69.8789 70.8564C69.5234 71.0433 69.1156 71.1367 68.6553 71.1367C68.1859 71.1367 67.7712 71.0592 67.4111 70.9043C67.0511 70.7493 66.7458 70.5238 66.4951 70.2275C66.2445 69.9313 66.0439 69.5758 65.8936 69.1611C65.7477 68.7464 65.6475 68.2793 65.5928 67.7598V66.9941C65.6475 66.4473 65.75 65.9574 65.9004 65.5244C66.0508 65.0915 66.249 64.7223 66.4951 64.417C66.7458 64.1071 67.0488 63.8724 67.4043 63.7129C67.7598 63.5488 68.1699 63.4668 68.6348 63.4668C69.0996 63.4668 69.512 63.5579 69.8721 63.7402C70.2321 63.918 70.5352 64.1732 70.7812 64.5059C71.0273 64.8385 71.2119 65.2373 71.335 65.7021C71.4626 66.1624 71.5264 66.6751 71.5264 67.2402ZM70.2549 67.3838V67.2402C70.2549 66.8711 70.2161 66.5247 70.1387 66.2012C70.0612 65.873 69.9404 65.5859 69.7764 65.3398C69.6169 65.0892 69.4118 64.8932 69.1611 64.752C68.9105 64.6061 68.612 64.5332 68.2656 64.5332C67.9466 64.5332 67.6686 64.5879 67.4316 64.6973C67.1992 64.8066 67.001 64.9548 66.8369 65.1416C66.6729 65.3239 66.5384 65.5335 66.4336 65.7705C66.3333 66.0029 66.2581 66.2445 66.208 66.4951V68.2656C66.2992 68.5846 66.4268 68.8854 66.5908 69.168C66.7549 69.446 66.9736 69.6715 67.2471 69.8447C67.5205 70.0133 67.8646 70.0977 68.2793 70.0977C68.6211 70.0977 68.915 70.027 69.1611 69.8857C69.4118 69.7399 69.6169 69.5417 69.7764 69.291C69.9404 69.0404 70.0612 68.7533 70.1387 68.4297C70.2161 68.1016 70.2549 67.7529 70.2549 67.3838ZM74.6543 65.0254V73.8438H73.3828V63.6035H74.5449L74.6543 65.0254ZM79.6377 67.2402V67.3838C79.6377 67.9215 79.5739 68.4206 79.4463 68.8809C79.3187 69.3366 79.1318 69.7331 78.8857 70.0703C78.6442 70.4076 78.3457 70.6696 77.9902 70.8564C77.6348 71.0433 77.2269 71.1367 76.7666 71.1367C76.2972 71.1367 75.8825 71.0592 75.5225 70.9043C75.1624 70.7493 74.8571 70.5238 74.6064 70.2275C74.3558 69.9313 74.1553 69.5758 74.0049 69.1611C73.859 68.7464 73.7588 68.2793 73.7041 67.7598V66.9941C73.7588 66.4473 73.8613 65.9574 74.0117 65.5244C74.1621 65.0915 74.3604 64.7223 74.6064 64.417C74.8571 64.1071 75.1602 63.8724 75.5156 63.7129C75.8711 63.5488 76.2812 63.4668 76.7461 63.4668C77.2109 63.4668 77.6234 63.5579 77.9834 63.7402C78.3434 63.918 78.6465 64.1732 78.8926 64.5059C79.1387 64.8385 79.3232 65.2373 79.4463 65.7021C79.5739 66.1624 79.6377 66.6751 79.6377 67.2402ZM78.3662 67.3838V67.2402C78.3662 66.8711 78.3275 66.5247 78.25 66.2012C78.1725 65.873 78.0518 65.5859 77.8877 65.3398C77.7282 65.0892 77.5231 64.8932 77.2725 64.752C77.0218 64.6061 76.7233 64.5332 76.377 64.5332C76.0579 64.5332 75.7799 64.5879 75.543 64.6973C75.3105 64.8066 75.1123 64.9548 74.9482 65.1416C74.7842 65.3239 74.6497 65.5335 74.5449 65.7705C74.4447 66.0029 74.3695 66.2445 74.3193 66.4951V68.2656C74.4105 68.5846 74.5381 68.8854 74.7021 69.168C74.8662 69.446 75.085 69.6715 75.3584 69.8447C75.6318 70.0133 75.9759 70.0977 76.3906 70.0977C76.7324 70.0977 77.0264 70.027 77.2725 69.8857C77.5231 69.7399 77.7282 69.5417 77.8877 69.291C78.0518 69.0404 78.1725 68.7533 78.25 68.4297C78.3275 68.1016 78.3662 67.7529 78.3662 67.3838ZM81.166 67.3838V67.2266C81.166 66.6934 81.2435 66.1989 81.3984 65.7432C81.5534 65.2829 81.7767 64.8841 82.0684 64.5469C82.36 64.2051 82.7132 63.9408 83.1279 63.7539C83.5426 63.5625 84.0075 63.4668 84.5225 63.4668C85.042 63.4668 85.5091 63.5625 85.9238 63.7539C86.3431 63.9408 86.6986 64.2051 86.9902 64.5469C87.2865 64.8841 87.512 65.2829 87.667 65.7432C87.8219 66.1989 87.8994 66.6934 87.8994 67.2266V67.3838C87.8994 67.917 87.8219 68.4115 87.667 68.8672C87.512 69.3229 87.2865 69.7217 86.9902 70.0635C86.6986 70.4007 86.3454 70.665 85.9307 70.8564C85.5205 71.0433 85.0557 71.1367 84.5361 71.1367C84.0166 71.1367 83.5495 71.0433 83.1348 70.8564C82.7201 70.665 82.3646 70.4007 82.0684 70.0635C81.7767 69.7217 81.5534 69.3229 81.3984 68.8672C81.2435 68.4115 81.166 67.917 81.166 67.3838ZM82.4307 67.2266V67.3838C82.4307 67.7529 82.474 68.1016 82.5605 68.4297C82.6471 68.7533 82.777 69.0404 82.9502 69.291C83.1279 69.5417 83.349 69.7399 83.6133 69.8857C83.8776 70.027 84.1852 70.0977 84.5361 70.0977C84.8825 70.0977 85.1855 70.027 85.4453 69.8857C85.7096 69.7399 85.9284 69.5417 86.1016 69.291C86.2747 69.0404 86.4046 68.7533 86.4912 68.4297C86.5824 68.1016 86.6279 67.7529 86.6279 67.3838V67.2266C86.6279 66.862 86.5824 66.5179 86.4912 66.1943C86.4046 65.8662 86.2725 65.5768 86.0947 65.3262C85.9215 65.071 85.7028 64.8704 85.4385 64.7246C85.1787 64.5788 84.8734 64.5059 84.5225 64.5059C84.1761 64.5059 83.8708 64.5788 83.6064 64.7246C83.3467 64.8704 83.1279 65.071 82.9502 65.3262C82.777 65.5768 82.6471 65.8662 82.5605 66.1943C82.474 66.5179 82.4307 66.862 82.4307 67.2266ZM91 64.7656V71H89.7354V63.6035H90.9658L91 64.7656ZM93.3105 63.5625L93.3037 64.7383C93.1989 64.7155 93.0986 64.7018 93.0029 64.6973C92.9118 64.6882 92.807 64.6836 92.6885 64.6836C92.3968 64.6836 92.1393 64.7292 91.916 64.8203C91.6927 64.9115 91.5036 65.0391 91.3486 65.2031C91.1937 65.3672 91.0706 65.5632 90.9795 65.791C90.8929 66.0143 90.8359 66.2604 90.8086 66.5293L90.4531 66.7344C90.4531 66.2878 90.4964 65.8685 90.583 65.4766C90.6742 65.0846 90.8132 64.7383 91 64.4375C91.1868 64.1322 91.4238 63.8952 91.7109 63.7266C92.0026 63.5534 92.349 63.4668 92.75 63.4668C92.8411 63.4668 92.946 63.4782 93.0645 63.501C93.1829 63.5192 93.265 63.5397 93.3105 63.5625ZM98.168 63.6035V64.5742H94.1689V63.6035H98.168ZM95.5225 61.8057H96.7871V69.168C96.7871 69.4186 96.8258 69.6077 96.9033 69.7354C96.9808 69.863 97.0811 69.9473 97.2041 69.9883C97.3271 70.0293 97.4593 70.0498 97.6006 70.0498C97.7054 70.0498 97.8148 70.0407 97.9287 70.0225C98.0472 69.9997 98.1361 69.9814 98.1953 69.9678L98.2021 71C98.1019 71.0319 97.9697 71.0615 97.8057 71.0889C97.6462 71.1208 97.4525 71.1367 97.2246 71.1367C96.9147 71.1367 96.6299 71.0752 96.3701 70.9521C96.1104 70.8291 95.903 70.624 95.748 70.3369C95.5977 70.0452 95.5225 69.6533 95.5225 69.1611V61.8057Z" fill="#D9D9D9" fill-opacity="0.83"/>
<g clip-path="url(#clip0_250_669)">
<path d="M21.1588 32.9373L25.7885 32.9881C26.779 32.9961 27.6084 32.7831 27.6823 31.7428L27.8939 29.7232C27.9371 28.0439 28.9073 27.677 30.2013 27.4645L38.7118 27.8544C39.7023 27.8624 40.353 28.4377 40.2792 29.4781L40.0518 32.3373C39.9827 33.3799 40.7972 33.6127 41.7877 33.6207L46.61 33.4609C47.6005 33.4689 48.1875 32.771 48.2614 31.7307C48.4044 29.6477 47.9936 27.6611 46.7959 25.9087C45.3303 23.7705 42.2283 22.9403 40.9298 22.5797C39.6314 22.2191 37.1589 21.9832 34.5198 21.9531C31.8759 21.9207 29.7536 21.9877 28.4036 22.3254C27.0558 22.6583 23.5018 23.2991 21.7387 25.3977C20.2972 27.1201 19.648 29.429 19.5049 31.512C19.4145 32.55 20.1659 32.9222 21.1588 32.9373Z" fill="#F24E1E"/>
</g>
<path d="M20.0157 82.6V80.794H23.3897V91H21.3737V82.6H20.0157ZM27.134 85.596C26.2007 85.1107 25.734 84.3593 25.734 83.342C25.734 82.838 25.86 82.3807 26.112 81.97C26.3733 81.55 26.7607 81.2187 27.274 80.976C27.7967 80.724 28.4313 80.598 29.178 80.598C29.9247 80.598 30.5547 80.724 31.068 80.976C31.5907 81.2187 31.978 81.55 32.23 81.97C32.4913 82.3807 32.622 82.838 32.622 83.342C32.622 83.8553 32.496 84.308 32.244 84.7C31.992 85.0827 31.656 85.3813 31.236 85.596C31.7493 85.82 32.1507 86.1467 32.44 86.576C32.7293 87.0053 32.874 87.514 32.874 88.102C32.874 88.7367 32.7107 89.292 32.384 89.768C32.0667 90.2347 31.628 90.594 31.068 90.846C30.508 91.098 29.878 91.224 29.178 91.224C28.478 91.224 27.848 91.098 27.288 90.846C26.7373 90.594 26.2987 90.2347 25.972 89.768C25.6547 89.292 25.496 88.7367 25.496 88.102C25.496 87.514 25.6407 87.0053 25.93 86.576C26.2193 86.1373 26.6207 85.8107 27.134 85.596ZM30.718 83.622C30.718 83.1647 30.578 82.81 30.298 82.558C30.0273 82.306 29.654 82.18 29.178 82.18C28.7113 82.18 28.338 82.306 28.058 82.558C27.7873 82.81 27.652 83.1693 27.652 83.636C27.652 84.056 27.792 84.392 28.072 84.644C28.3613 84.896 28.73 85.022 29.178 85.022C29.626 85.022 29.9947 84.896 30.284 84.644C30.5733 84.3827 30.718 84.042 30.718 83.622ZM29.178 86.45C28.646 86.45 28.212 86.5853 27.876 86.856C27.5493 87.1267 27.386 87.514 27.386 88.018C27.386 88.4847 27.5447 88.8673 27.862 89.166C28.1887 89.4553 28.6273 89.6 29.178 89.6C29.7287 89.6 30.1627 89.4507 30.48 89.152C30.7973 88.8533 30.956 88.4753 30.956 88.018C30.956 87.5233 30.7927 87.1407 30.466 86.87C30.1393 86.59 29.71 86.45 29.178 86.45ZM34.5221 85.764C34.5221 84.1493 34.8114 82.8847 35.3901 81.97C35.9781 81.0553 36.9487 80.598 38.3021 80.598C39.6554 80.598 40.6214 81.0553 41.2001 81.97C41.7881 82.8847 42.0821 84.1493 42.0821 85.764C42.0821 87.388 41.7881 88.662 41.2001 89.586C40.6214 90.51 39.6554 90.972 38.3021 90.972C36.9487 90.972 35.9781 90.51 35.3901 89.586C34.8114 88.662 34.5221 87.388 34.5221 85.764ZM40.1501 85.764C40.1501 85.0733 40.1034 84.4947 40.0101 84.028C39.9261 83.552 39.7487 83.1647 39.4781 82.866C39.2167 82.5673 38.8247 82.418 38.3021 82.418C37.7794 82.418 37.3827 82.5673 37.1121 82.866C36.8507 83.1647 36.6734 83.552 36.5801 84.028C36.4961 84.4947 36.4541 85.0733 36.4541 85.764C36.4541 86.4733 36.4961 87.0707 36.5801 87.556C36.6641 88.032 36.8414 88.4193 37.1121 88.718C37.3827 89.0073 37.7794 89.152 38.3021 89.152C38.8247 89.152 39.2214 89.0073 39.4921 88.718C39.7627 88.4193 39.9401 88.032 40.0241 87.556C40.1081 87.0707 40.1501 86.4733 40.1501 85.764ZM43.6729 85.764C43.6729 84.1493 43.9622 82.8847 44.5409 81.97C45.1289 81.0553 46.0995 80.598 47.4529 80.598C48.8062 80.598 49.7722 81.0553 50.3509 81.97C50.9389 82.8847 51.2329 84.1493 51.2329 85.764C51.2329 87.388 50.9389 88.662 50.3509 89.586C49.7722 90.51 48.8062 90.972 47.4529 90.972C46.0995 90.972 45.1289 90.51 44.5409 89.586C43.9622 88.662 43.6729 87.388 43.6729 85.764ZM49.3009 85.764C49.3009 85.0733 49.2542 84.4947 49.1609 84.028C49.0769 83.552 48.8995 83.1647 48.6289 82.866C48.3675 82.5673 47.9755 82.418 47.4529 82.418C46.9302 82.418 46.5335 82.5673 46.2629 82.866C46.0015 83.1647 45.8242 83.552 45.7309 84.028C45.6469 84.4947 45.6049 85.0733 45.6049 85.764C45.6049 86.4733 45.6469 87.0707 45.7309 87.556C45.8149 88.032 45.9922 88.4193 46.2629 88.718C46.5335 89.0073 46.9302 89.152 47.4529 89.152C47.9755 89.152 48.3722 89.0073 48.6429 88.718C48.9135 88.4193 49.0909 88.032 49.1749 87.556C49.2589 87.0707 49.3009 86.4733 49.3009 85.764ZM56.0216 82.6V80.794H59.3956V91H57.3796V82.6H56.0216ZM63.1398 85.596C62.2065 85.1107 61.7398 84.3593 61.7398 83.342C61.7398 82.838 61.8658 82.3807 62.1178 81.97C62.3792 81.55 62.7665 81.2187 63.2798 80.976C63.8025 80.724 64.4372 80.598 65.1838 80.598C65.9305 80.598 66.5605 80.724 67.0738 80.976C67.5965 81.2187 67.9838 81.55 68.2358 81.97C68.4972 82.3807 68.6278 82.838 68.6278 83.342C68.6278 83.8553 68.5018 84.308 68.2498 84.7C67.9978 85.0827 67.6618 85.3813 67.2418 85.596C67.7552 85.82 68.1565 86.1467 68.4458 86.576C68.7352 87.0053 68.8798 87.514 68.8798 88.102C68.8798 88.7367 68.7165 89.292 68.3898 89.768C68.0725 90.2347 67.6338 90.594 67.0738 90.846C66.5138 91.098 65.8838 91.224 65.1838 91.224C64.4838 91.224 63.8538 91.098 63.2938 90.846C62.7432 90.594 62.3045 90.2347 61.9778 89.768C61.6605 89.292 61.5018 88.7367 61.5018 88.102C61.5018 87.514 61.6465 87.0053 61.9358 86.576C62.2252 86.1373 62.6265 85.8107 63.1398 85.596ZM66.7238 83.622C66.7238 83.1647 66.5838 82.81 66.3038 82.558C66.0332 82.306 65.6598 82.18 65.1838 82.18C64.7172 82.18 64.3438 82.306 64.0638 82.558C63.7932 82.81 63.6578 83.1693 63.6578 83.636C63.6578 84.056 63.7978 84.392 64.0778 84.644C64.3672 84.896 64.7358 85.022 65.1838 85.022C65.6318 85.022 66.0005 84.896 66.2898 84.644C66.5792 84.3827 66.7238 84.042 66.7238 83.622ZM65.1838 86.45C64.6518 86.45 64.2178 86.5853 63.8818 86.856C63.5552 87.1267 63.3918 87.514 63.3918 88.018C63.3918 88.4847 63.5505 88.8673 63.8678 89.166C64.1945 89.4553 64.6332 89.6 65.1838 89.6C65.7345 89.6 66.1685 89.4507 66.4858 89.152C66.8032 88.8533 66.9618 88.4753 66.9618 88.018C66.9618 87.5233 66.7985 87.1407 66.4718 86.87C66.1452 86.59 65.7158 86.45 65.1838 86.45ZM70.5279 85.764C70.5279 84.1493 70.8173 82.8847 71.3959 81.97C71.9839 81.0553 72.9546 80.598 74.3079 80.598C75.6613 80.598 76.6273 81.0553 77.2059 81.97C77.7939 82.8847 78.0879 84.1493 78.0879 85.764C78.0879 87.388 77.7939 88.662 77.2059 89.586C76.6273 90.51 75.6613 90.972 74.3079 90.972C72.9546 90.972 71.9839 90.51 71.3959 89.586C70.8173 88.662 70.5279 87.388 70.5279 85.764ZM76.1559 85.764C76.1559 85.0733 76.1093 84.4947 76.0159 84.028C75.9319 83.552 75.7546 83.1647 75.4839 82.866C75.2226 82.5673 74.8306 82.418 74.3079 82.418C73.7853 82.418 73.3886 82.5673 73.1179 82.866C72.8566 83.1647 72.6793 83.552 72.5859 84.028C72.5019 84.4947 72.4599 85.0733 72.4599 85.764C72.4599 86.4733 72.5019 87.0707 72.5859 87.556C72.6699 88.032 72.8473 88.4193 73.1179 88.718C73.3886 89.0073 73.7853 89.152 74.3079 89.152C74.8306 89.152 75.2273 89.0073 75.4979 88.718C75.7686 88.4193 75.9459 88.032 76.0299 87.556C76.1139 87.0707 76.1559 86.4733 76.1559 85.764ZM79.6787 85.764C79.6787 84.1493 79.9681 82.8847 80.5467 81.97C81.1347 81.0553 82.1054 80.598 83.4587 80.598C84.8121 80.598 85.7781 81.0553 86.3567 81.97C86.9447 82.8847 87.2387 84.1493 87.2387 85.764C87.2387 87.388 86.9447 88.662 86.3567 89.586C85.7781 90.51 84.8121 90.972 83.4587 90.972C82.1054 90.972 81.1347 90.51 80.5467 89.586C79.9681 88.662 79.6787 87.388 79.6787 85.764ZM85.3067 85.764C85.3067 85.0733 85.2601 84.4947 85.1667 84.028C85.0827 83.552 84.9054 83.1647 84.6347 82.866C84.3734 82.5673 83.9814 82.418 83.4587 82.418C82.9361 82.418 82.5394 82.5673 82.2687 82.866C82.0074 83.1647 81.8301 83.552 81.7367 84.028C81.6527 84.4947 81.6107 85.0733 81.6107 85.764C81.6107 86.4733 81.6527 87.0707 81.7367 87.556C81.8207 88.032 81.9981 88.4193 82.2687 88.718C82.5394 89.0073 82.9361 89.152 83.4587 89.152C83.9814 89.152 84.3781 89.0073 84.6487 88.718C84.9194 88.4193 85.0967 88.032 85.1807 87.556C85.2647 87.0707 85.3067 86.4733 85.3067 85.764ZM92.8814 88.788C93.7774 88.0413 94.4914 87.4207 95.0234 86.926C95.5554 86.422 95.9988 85.8993 96.3534 85.358C96.7081 84.8167 96.8854 84.2847 96.8854 83.762C96.8854 83.286 96.7734 82.9127 96.5494 82.642C96.3254 82.3713 95.9801 82.236 95.5134 82.236C95.0468 82.236 94.6874 82.3947 94.4354 82.712C94.1834 83.02 94.0528 83.4447 94.0434 83.986H92.1394C92.1768 82.866 92.5081 82.0167 93.1334 81.438C93.7681 80.8593 94.5708 80.57 95.5414 80.57C96.6054 80.57 97.4221 80.8547 97.9914 81.424C98.5608 81.984 98.8454 82.726 98.8454 83.65C98.8454 84.378 98.6494 85.0733 98.2574 85.736C97.8654 86.3987 97.4174 86.9773 96.9134 87.472C96.4094 87.9573 95.7514 88.5453 94.9394 89.236H99.0694V90.86H92.1534V89.404L92.8814 88.788ZM100.32 89.012V87.472L104.898 80.92H107.18V87.304H108.412V89.012H107.18V91H105.22V89.012H100.32ZM105.346 83.02L102.476 87.304H105.346V83.02ZM110.376 88.788C111.272 88.0413 111.986 87.4207 112.518 86.926C113.05 86.422 113.494 85.8993 113.848 85.358C114.203 84.8167 114.38 84.2847 114.38 83.762C114.38 83.286 114.268 82.9127 114.044 82.642C113.82 82.3713 113.475 82.236 113.008 82.236C112.542 82.236 112.182 82.3947 111.93 82.712C111.678 83.02 111.548 83.4447 111.538 83.986H109.634C109.672 82.866 110.003 82.0167 110.628 81.438C111.263 80.8593 112.066 80.57 113.036 80.57C114.1 80.57 114.917 80.8547 115.486 81.424C116.056 81.984 116.34 82.726 116.34 83.65C116.34 84.378 116.144 85.0733 115.752 85.736C115.36 86.3987 114.912 86.9773 114.408 87.472C113.904 87.9573 113.246 88.5453 112.434 89.236H116.564V90.86H109.648V89.404L110.376 88.788ZM117.815 89.012V87.472L122.393 80.92H124.675V87.304H125.907V89.012H124.675V91H122.715V89.012H117.815ZM122.841 83.02L119.971 87.304H122.841V83.02Z" fill="#F4F4F4"/>
<defs>
<clipPath id="clip0_250_669">
<rect width="27" height="27" fill="white" transform="translate(52.5898 23.394) rotate(116.348)"/>
</clipPath>
</defs>
</svg>
