<svg width="37" height="33" viewBox="0 0 37 33" fill="none" xmlns="http://www.w3.org/2000/svg">
<path fill-rule="evenodd" clip-rule="evenodd" d="M0.388672 14.8938C0.388672 8.15781 0.388672 4.78894 2.77223 2.69724C5.15375 0.60376 8.9894 0.60376 16.6587 0.60376H20.7262C28.3954 0.60376 32.2311 0.60376 34.6126 2.69724C36.9962 4.78894 36.9962 8.15781 36.9962 14.8938V18.4663C36.9962 25.2022 36.9962 28.5711 34.6126 30.6628C32.2311 32.7563 28.3954 32.7563 20.7262 32.7563H16.6587C8.9894 32.7563 5.15375 32.7563 2.77223 30.6628C0.388672 28.5711 0.388672 25.2022 0.388672 18.4663V14.8938ZM30.8949 8.64188C30.8949 9.3525 30.5735 10.034 30.0014 10.5365C29.4293 11.039 28.6534 11.3213 27.8443 11.3213C27.0352 11.3213 26.2593 11.039 25.6872 10.5365C25.1151 10.034 24.7937 9.3525 24.7937 8.64188C24.7937 7.93127 25.1151 7.24976 25.6872 6.74728C26.2593 6.2448 27.0352 5.96251 27.8443 5.96251C28.6534 5.96251 29.4293 6.2448 30.0014 6.74728C30.5735 7.24976 30.8949 7.93127 30.8949 8.64188ZM22.7599 18.4663C22.7599 19.4137 22.3314 20.3224 21.5686 20.9924C20.8058 21.6624 19.7712 22.0388 18.6924 22.0388C17.6137 22.0388 16.5791 21.6624 15.8163 20.9924C15.0535 20.3224 14.6249 19.4137 14.6249 18.4663C14.6249 17.5188 15.0535 16.6101 15.8163 15.9401C16.5791 15.2701 17.6137 14.8938 18.6924 14.8938C19.7712 14.8938 20.8058 15.2701 21.5686 15.9401C22.3314 16.6101 22.7599 17.5188 22.7599 18.4663ZM26.8274 18.4663C26.8274 20.3612 25.9703 22.1786 24.4447 23.5185C22.9191 24.8585 20.85 25.6113 18.6924 25.6113C16.5349 25.6113 14.4657 24.8585 12.9401 23.5185C11.4145 22.1786 10.5574 20.3612 10.5574 18.4663C10.5574 16.5713 11.4145 14.7539 12.9401 13.414C14.4657 12.074 16.5349 11.3213 18.6924 11.3213C20.85 11.3213 22.9191 12.074 24.4447 13.414C25.9703 14.7539 26.8274 16.5713 26.8274 18.4663Z" fill="black"/>
</svg>
