<svg width="38" height="38" viewBox="0 0 38 38" fill="none" xmlns="http://www.w3.org/2000/svg">
<circle cx="18.7833" cy="18.8731" r="18.2452" fill="white"/>
<path d="M23.7832 27.2067C23.0888 27.2067 22.4985 26.9636 22.0124 26.4775C21.5263 25.9914 21.2832 25.4011 21.2832 24.7067C21.2832 24.6095 21.2901 24.5086 21.304 24.4042C21.3179 24.2998 21.3388 24.2061 21.3665 24.1234L15.4915 20.7067C15.2554 20.915 14.9915 21.0784 14.6999 21.1967C14.4082 21.315 14.1026 21.3739 13.7832 21.3734C13.0888 21.3734 12.4985 21.1303 12.0124 20.6442C11.5263 20.1581 11.2832 19.5678 11.2832 18.8734C11.2832 18.1789 11.5263 17.5886 12.0124 17.1025C12.4985 16.6164 13.0888 16.3734 13.7832 16.3734C14.1026 16.3734 14.4082 16.4325 14.6999 16.5509C14.9915 16.6692 15.2554 16.8323 15.4915 17.04L21.3665 13.6234C21.3388 13.54 21.3179 13.4464 21.304 13.3425C21.2901 13.2387 21.2832 13.1378 21.2832 13.04C21.2832 12.3456 21.5263 11.7553 22.0124 11.2692C22.4985 10.7831 23.0888 10.54 23.7832 10.54C24.4776 10.54 25.0679 10.7831 25.554 11.2692C26.0401 11.7553 26.2832 12.3456 26.2832 13.04C26.2832 13.7345 26.0401 14.3248 25.554 14.8109C25.0679 15.297 24.4776 15.54 23.7832 15.54C23.4638 15.54 23.1582 15.4812 22.8665 15.3634C22.5749 15.2456 22.311 15.0823 22.0749 14.8734L16.1999 18.29C16.2276 18.3734 16.2485 18.4673 16.2624 18.5717C16.2763 18.6761 16.2832 18.7767 16.2832 18.8734C16.2832 18.97 16.2763 19.0709 16.2624 19.1759C16.2485 19.2809 16.2276 19.3745 16.1999 19.4567L22.0749 22.8734C22.311 22.665 22.5749 22.502 22.8665 22.3842C23.1582 22.2664 23.4638 22.2073 23.7832 22.2067C24.4776 22.2067 25.0679 22.4498 25.554 22.9359C26.0401 23.422 26.2832 24.0123 26.2832 24.7067C26.2832 25.4011 26.0401 25.9914 25.554 26.4775C25.0679 26.9636 24.4776 27.2067 23.7832 27.2067Z" fill="black"/>
</svg>
