<svg width="43" height="43" viewBox="0 0 43 43" fill="none" xmlns="http://www.w3.org/2000/svg">
<circle cx="21.5" cy="21.5" r="21.5" fill="#F1F1F1"/>
<path d="M24.681 23.1635H23.8818L23.5985 22.8903C24.6242 21.7006 25.1879 20.1818 25.1868 18.611C25.1868 17.3104 24.8012 16.039 24.0786 14.9577C23.356 13.8763 22.329 13.0334 21.1275 12.5357C19.9259 12.038 18.6037 11.9078 17.3281 12.1615C16.0525 12.4152 14.8808 13.0415 13.9612 13.9612C13.0415 14.8808 12.4152 16.0525 12.1615 17.3281C11.9078 18.6037 12.038 19.9259 12.5357 21.1275C13.0334 22.329 13.8763 23.356 14.9577 24.0786C16.039 24.8012 17.3104 25.1868 18.611 25.1868C20.2398 25.1868 21.737 24.5899 22.8903 23.5985L23.1635 23.8818V24.681L28.2218 29.7292L29.7292 28.2218L24.681 23.1635ZM18.611 23.1635C16.0919 23.1635 14.0585 21.13 14.0585 18.611C14.0585 16.0919 16.0919 14.0585 18.611 14.0585C21.13 14.0585 23.1635 16.0919 23.1635 18.611C23.1635 21.13 21.13 23.1635 18.611 23.1635Z" fill="black"/>
</svg>
