<svg width="27" height="27" viewBox="0 0 27 27" fill="none" xmlns="http://www.w3.org/2000/svg">
<g clip-path="url(#clip0_22_10662)">
<path d="M13.4102 2.28198C19.4996 2.28198 24.4358 7.21816 24.4358 13.3076C24.4358 19.3971 19.4996 24.3333 13.4102 24.3333C7.3207 24.3333 2.38452 19.3971 2.38452 13.3076H4.58965C4.58965 18.1788 8.53903 22.1281 13.4102 22.1281C18.2813 22.1281 22.2307 18.1788 22.2307 13.3076C22.2307 8.43649 18.2813 4.48711 13.4102 4.48711C10.6934 4.48711 8.26339 5.71537 6.64593 7.64596L8.99991 9.99993H2.38452V3.38455L5.0825 6.08142C7.1035 3.75501 10.0848 2.28198 13.4102 2.28198ZM14.5127 7.7948V12.8501L18.0883 16.4257L16.5282 17.9858L12.3076 13.763V7.7948H14.5127Z" fill="black"/>
</g>
<defs>
<clipPath id="clip0_22_10662">
<rect width="26.4615" height="26.4615" fill="white" transform="translate(0.179443 0.0769043)"/>
</clipPath>
</defs>
</svg>
