<svg width="25" height="25" viewBox="0 0 25 25" fill="none" xmlns="http://www.w3.org/2000/svg">
<path d="M23.631 0.339355C24.302 0.339355 24.8466 0.883966 24.8466 1.555V18.5741C24.8466 19.2451 24.302 19.7897 23.631 19.7897H5.9494L0.533691 24.0445V1.555C0.533691 0.883966 1.0783 0.339355 1.74934 0.339355H23.631ZM22.4153 2.77065H2.96499V19.0421L5.10817 17.3584H22.4153V2.77065ZM10.8849 5.70279L11.4283 6.53916C9.40062 7.63689 9.43588 9.39836 9.43588 9.77764C9.6243 9.75333 9.82246 9.74847 10.0194 9.7667C11.1159 9.86882 11.9802 10.7696 11.9802 11.888C11.9802 13.0623 11.0272 14.0154 9.85285 14.0154C9.20004 14.0154 8.57642 13.7176 8.18255 13.2982C7.55649 12.6344 7.21975 11.888 7.21975 10.6784C7.21975 8.55105 8.71257 6.64492 10.8849 5.70279V5.70279ZM16.9632 5.70279L17.5066 6.53916C15.4789 7.63689 15.5141 9.39836 15.5141 9.77764C15.7025 9.75333 15.9007 9.74847 16.0976 9.7667C17.1941 9.86882 18.0585 10.7696 18.0585 11.888C18.0585 13.0623 17.1054 14.0154 15.9311 14.0154C15.2783 14.0154 14.6547 13.7176 14.2608 13.2982C13.6347 12.6344 13.298 11.888 13.298 10.6784C13.298 8.55105 14.7908 6.64492 16.9632 5.70279V5.70279Z" fill="black"/>
</svg>
