<svg width="21" height="22" viewBox="0 0 21 22" fill="none" xmlns="http://www.w3.org/2000/svg">
<g clip-path="url(#clip0_474_633)">
<path d="M13.1069 1.75659H3.67446C2.73121 1.75659 1.95947 2.52833 1.95947 3.47157V14.619C1.95947 15.0906 2.34534 15.4765 2.81696 15.4765C3.28858 15.4765 3.67446 15.0906 3.67446 14.619V4.32907C3.67446 3.85745 4.06033 3.47157 4.53195 3.47157H13.1069C13.5785 3.47157 13.9644 3.0857 13.9644 2.61408C13.9644 2.14246 13.5785 1.75659 13.1069 1.75659ZM16.5368 5.18656H7.10442C6.16118 5.18656 5.38944 5.9583 5.38944 6.90154V18.9064C5.38944 19.8497 6.16118 20.6214 7.10442 20.6214H16.5368C17.4801 20.6214 18.2518 19.8497 18.2518 18.9064V6.90154C18.2518 5.9583 17.4801 5.18656 16.5368 5.18656ZM15.6793 18.9064H7.96191C7.49029 18.9064 7.10442 18.5205 7.10442 18.0489V7.75903C7.10442 7.28741 7.49029 6.90154 7.96191 6.90154H15.6793C16.151 6.90154 16.5368 7.28741 16.5368 7.75903V18.0489C16.5368 18.5205 16.151 18.9064 15.6793 18.9064Z" fill="black"/>
</g>
<defs>
<clipPath id="clip0_474_633">
<rect width="20.5798" height="20.5798" fill="white" transform="translate(0.244141 0.898926)"/>
</clipPath>
</defs>
</svg>
