<svg width="174" height="116" viewBox="0 0 174 116" fill="none" xmlns="http://www.w3.org/2000/svg">
<rect x="0.813477" width="172.884" height="116" rx="8" fill="black"/>
<path d="M27.501 69.9268V71H22.2305V69.9268H27.501ZM22.4971 61.0469V71H21.1777V61.0469H22.4971ZM26.8037 65.3262V66.3994H22.2305V65.3262H26.8037ZM27.4326 61.0469V62.127H22.2305V61.0469H27.4326ZM30.4512 65.0732V71H29.1797V63.6035H30.3828L30.4512 65.0732ZM30.1914 67.0215L29.6035 67.001C29.6081 66.4951 29.6742 66.028 29.8018 65.5996C29.9294 65.1667 30.1185 64.7907 30.3691 64.4717C30.6198 64.1527 30.932 63.9066 31.3057 63.7334C31.6794 63.5557 32.1123 63.4668 32.6045 63.4668C32.9508 63.4668 33.2699 63.5169 33.5615 63.6172C33.8532 63.7129 34.1061 63.8656 34.3203 64.0752C34.5345 64.2848 34.7008 64.5537 34.8193 64.8818C34.9378 65.21 34.9971 65.6064 34.9971 66.0713V71H33.7324V66.1328C33.7324 65.7454 33.6663 65.4355 33.5342 65.2031C33.4066 64.9707 33.2243 64.8021 32.9873 64.6973C32.7503 64.5879 32.4723 64.5332 32.1533 64.5332C31.7796 64.5332 31.4674 64.5993 31.2168 64.7314C30.9661 64.8636 30.7656 65.0459 30.6152 65.2783C30.4648 65.5107 30.3555 65.7773 30.2871 66.0781C30.2233 66.3743 30.1914 66.6888 30.1914 67.0215ZM34.9834 66.3242L34.1357 66.584C34.1403 66.1784 34.2064 65.7887 34.334 65.415C34.4661 65.0413 34.6553 64.7087 34.9014 64.417C35.152 64.1253 35.4596 63.8952 35.8242 63.7266C36.1888 63.5534 36.6058 63.4668 37.0752 63.4668C37.4717 63.4668 37.8226 63.5192 38.1279 63.624C38.4378 63.7288 38.6976 63.8906 38.9072 64.1094C39.1214 64.3236 39.2832 64.5993 39.3926 64.9365C39.502 65.2738 39.5566 65.6748 39.5566 66.1396V71H38.2852V66.126C38.2852 65.7113 38.2191 65.39 38.0869 65.1621C37.9593 64.9297 37.777 64.7679 37.54 64.6768C37.3076 64.5811 37.0296 64.5332 36.7061 64.5332C36.4281 64.5332 36.182 64.5811 35.9678 64.6768C35.7536 64.7725 35.5736 64.9046 35.4277 65.0732C35.2819 65.2373 35.1702 65.4264 35.0928 65.6406C35.0199 65.8548 34.9834 66.0827 34.9834 66.3242ZM46.082 69.7354V65.9277C46.082 65.6361 46.0228 65.3831 45.9043 65.1689C45.7904 64.9502 45.6172 64.7816 45.3848 64.6631C45.1523 64.5446 44.8652 64.4854 44.5234 64.4854C44.2044 64.4854 43.9242 64.54 43.6826 64.6494C43.4456 64.7588 43.2588 64.9023 43.1221 65.0801C42.9899 65.2578 42.9238 65.4492 42.9238 65.6543H41.6592C41.6592 65.39 41.7275 65.1279 41.8643 64.8682C42.001 64.6084 42.1969 64.3737 42.4521 64.1641C42.7119 63.9499 43.0218 63.7812 43.3818 63.6582C43.7464 63.5306 44.152 63.4668 44.5986 63.4668C45.1364 63.4668 45.6104 63.5579 46.0205 63.7402C46.4352 63.9225 46.7588 64.1982 46.9912 64.5674C47.2282 64.932 47.3467 65.39 47.3467 65.9414V69.3867C47.3467 69.6328 47.3672 69.8949 47.4082 70.1729C47.4538 70.4508 47.5199 70.6901 47.6064 70.8906V71H46.2871C46.2233 70.8542 46.1732 70.6605 46.1367 70.4189C46.1003 70.1729 46.082 69.945 46.082 69.7354ZM46.3008 66.5156L46.3145 67.4043H45.0361C44.6761 67.4043 44.3548 67.4339 44.0723 67.4932C43.7897 67.5479 43.5527 67.6322 43.3613 67.7461C43.1699 67.86 43.0241 68.0036 42.9238 68.1768C42.8236 68.3454 42.7734 68.5436 42.7734 68.7715C42.7734 69.0039 42.8258 69.2158 42.9307 69.4072C43.0355 69.5986 43.1927 69.7513 43.4023 69.8652C43.6165 69.9746 43.8786 70.0293 44.1885 70.0293C44.5758 70.0293 44.9176 69.9473 45.2139 69.7832C45.5101 69.6191 45.7448 69.4186 45.918 69.1816C46.0957 68.9447 46.1914 68.7145 46.2051 68.4912L46.7451 69.0996C46.7132 69.291 46.6266 69.5029 46.4854 69.7354C46.3441 69.9678 46.1549 70.1911 45.918 70.4053C45.6855 70.6149 45.4076 70.7904 45.084 70.9316C44.765 71.0684 44.4049 71.1367 44.0039 71.1367C43.5026 71.1367 43.0628 71.0387 42.6846 70.8428C42.3109 70.6468 42.0192 70.3848 41.8096 70.0566C41.6045 69.724 41.502 69.3525 41.502 68.9424C41.502 68.5459 41.5794 68.1973 41.7344 67.8965C41.8893 67.5911 42.1126 67.3382 42.4043 67.1377C42.696 66.9326 43.0469 66.7777 43.457 66.6729C43.8672 66.568 44.3252 66.5156 44.8311 66.5156H46.3008ZM50.96 63.6035V71H49.6885V63.6035H50.96ZM49.5928 61.6416C49.5928 61.4365 49.6543 61.2633 49.7773 61.1221C49.9049 60.9808 50.0918 60.9102 50.3379 60.9102C50.5794 60.9102 50.764 60.9808 50.8916 61.1221C51.0238 61.2633 51.0898 61.4365 51.0898 61.6416C51.0898 61.8376 51.0238 62.0062 50.8916 62.1475C50.764 62.2842 50.5794 62.3525 50.3379 62.3525C50.0918 62.3525 49.9049 62.2842 49.7773 62.1475C49.6543 62.0062 49.5928 61.8376 49.5928 61.6416ZM54.6143 60.5V71H53.3428V60.5H54.6143ZM66.1133 68.4844C66.1133 68.252 66.0768 68.0469 66.0039 67.8691C65.9355 67.6868 65.8125 67.5228 65.6348 67.377C65.4616 67.2311 65.2201 67.0921 64.9102 66.96C64.6048 66.8278 64.2174 66.6934 63.748 66.5566C63.2559 66.4108 62.8115 66.249 62.415 66.0713C62.0186 65.889 61.679 65.6816 61.3965 65.4492C61.1139 65.2168 60.8975 64.9502 60.7471 64.6494C60.5967 64.3486 60.5215 64.0046 60.5215 63.6172C60.5215 63.2298 60.6012 62.8721 60.7607 62.5439C60.9202 62.2158 61.1481 61.931 61.4443 61.6895C61.7451 61.4434 62.1029 61.252 62.5176 61.1152C62.9323 60.9785 63.3949 60.9102 63.9053 60.9102C64.6527 60.9102 65.2861 61.0537 65.8057 61.3408C66.3298 61.6234 66.7285 61.9948 67.002 62.4551C67.2754 62.9108 67.4121 63.3984 67.4121 63.918H66.0996C66.0996 63.5443 66.0199 63.2139 65.8604 62.9268C65.7008 62.6351 65.4593 62.4072 65.1357 62.2432C64.8122 62.0745 64.402 61.9902 63.9053 61.9902C63.4359 61.9902 63.0485 62.0609 62.7432 62.2021C62.4378 62.3434 62.21 62.5348 62.0596 62.7764C61.9137 63.0179 61.8408 63.2936 61.8408 63.6035C61.8408 63.8132 61.8841 64.0046 61.9707 64.1777C62.0618 64.3464 62.2008 64.5036 62.3877 64.6494C62.5791 64.7952 62.8206 64.9297 63.1123 65.0527C63.4085 65.1758 63.7617 65.2943 64.1719 65.4082C64.737 65.5677 65.2246 65.7454 65.6348 65.9414C66.0449 66.1374 66.3822 66.3584 66.6465 66.6045C66.9154 66.846 67.1136 67.1217 67.2412 67.4316C67.3734 67.737 67.4395 68.0833 67.4395 68.4707C67.4395 68.8763 67.3574 69.2432 67.1934 69.5713C67.0293 69.8994 66.7946 70.1797 66.4893 70.4121C66.1839 70.6445 65.8171 70.8245 65.3887 70.9521C64.9648 71.0752 64.4909 71.1367 63.9668 71.1367C63.5065 71.1367 63.0531 71.0729 62.6064 70.9453C62.1644 70.8177 61.7611 70.6263 61.3965 70.3711C61.0365 70.1159 60.7471 69.8014 60.5283 69.4277C60.3141 69.0495 60.207 68.612 60.207 68.1152H61.5195C61.5195 68.457 61.5856 68.751 61.7178 68.9971C61.8499 69.2386 62.0299 69.4391 62.2578 69.5986C62.4902 69.7581 62.7523 69.8766 63.0439 69.9541C63.3402 70.027 63.6478 70.0635 63.9668 70.0635C64.4271 70.0635 64.8167 69.9997 65.1357 69.8721C65.4548 69.7445 65.6963 69.5622 65.8604 69.3252C66.029 69.0882 66.1133 68.8079 66.1133 68.4844ZM73.7051 69.291V63.6035H74.9766V71H73.7666L73.7051 69.291ZM73.9443 67.7324L74.4707 67.7188C74.4707 68.2109 74.4183 68.6667 74.3135 69.0859C74.2132 69.5007 74.0492 69.8607 73.8213 70.166C73.5934 70.4714 73.2949 70.7106 72.9258 70.8838C72.5566 71.0524 72.1077 71.1367 71.5791 71.1367C71.2191 71.1367 70.8887 71.0843 70.5879 70.9795C70.2917 70.8747 70.0365 70.7129 69.8223 70.4941C69.6081 70.2754 69.4417 69.9906 69.3232 69.6396C69.2093 69.2887 69.1523 68.8672 69.1523 68.375V63.6035H70.417V68.3887C70.417 68.7214 70.4535 68.9971 70.5264 69.2158C70.6038 69.43 70.7064 69.6009 70.834 69.7285C70.9661 69.8516 71.112 69.9382 71.2715 69.9883C71.4355 70.0384 71.6042 70.0635 71.7773 70.0635C72.3151 70.0635 72.7412 69.9609 73.0557 69.7559C73.3701 69.5462 73.5957 69.266 73.7324 68.915C73.8737 68.5596 73.9443 68.1654 73.9443 67.7324ZM78.4189 65.0254V73.8438H77.1475V63.6035H78.3096L78.4189 65.0254ZM83.4023 67.2402V67.3838C83.4023 67.9215 83.3385 68.4206 83.2109 68.8809C83.0833 69.3366 82.8965 69.7331 82.6504 70.0703C82.4089 70.4076 82.1104 70.6696 81.7549 70.8564C81.3994 71.0433 80.9915 71.1367 80.5312 71.1367C80.0618 71.1367 79.6471 71.0592 79.2871 70.9043C78.9271 70.7493 78.6217 70.5238 78.3711 70.2275C78.1204 69.9313 77.9199 69.5758 77.7695 69.1611C77.6237 68.7464 77.5234 68.2793 77.4688 67.7598V66.9941C77.5234 66.4473 77.626 65.9574 77.7764 65.5244C77.9268 65.0915 78.125 64.7223 78.3711 64.417C78.6217 64.1071 78.9248 63.8724 79.2803 63.7129C79.6357 63.5488 80.0459 63.4668 80.5107 63.4668C80.9756 63.4668 81.388 63.5579 81.748 63.7402C82.1081 63.918 82.4111 64.1732 82.6572 64.5059C82.9033 64.8385 83.0879 65.2373 83.2109 65.7021C83.3385 66.1624 83.4023 66.6751 83.4023 67.2402ZM82.1309 67.3838V67.2402C82.1309 66.8711 82.0921 66.5247 82.0146 66.2012C81.9372 65.873 81.8164 65.5859 81.6523 65.3398C81.4928 65.0892 81.2878 64.8932 81.0371 64.752C80.7865 64.6061 80.488 64.5332 80.1416 64.5332C79.8226 64.5332 79.5446 64.5879 79.3076 64.6973C79.0752 64.8066 78.877 64.9548 78.7129 65.1416C78.5488 65.3239 78.4144 65.5335 78.3096 65.7705C78.2093 66.0029 78.1341 66.2445 78.084 66.4951V68.2656C78.1751 68.5846 78.3027 68.8854 78.4668 69.168C78.6309 69.446 78.8496 69.6715 79.123 69.8447C79.3965 70.0133 79.7406 70.0977 80.1553 70.0977C80.4971 70.0977 80.791 70.027 81.0371 69.8857C81.2878 69.7399 81.4928 69.5417 81.6523 69.291C81.8164 69.0404 81.9372 68.7533 82.0146 68.4297C82.0921 68.1016 82.1309 67.7529 82.1309 67.3838ZM86.5303 65.0254V73.8438H85.2588V63.6035H86.4209L86.5303 65.0254ZM91.5137 67.2402V67.3838C91.5137 67.9215 91.4499 68.4206 91.3223 68.8809C91.1947 69.3366 91.0078 69.7331 90.7617 70.0703C90.5202 70.4076 90.2217 70.6696 89.8662 70.8564C89.5107 71.0433 89.1029 71.1367 88.6426 71.1367C88.1732 71.1367 87.7585 71.0592 87.3984 70.9043C87.0384 70.7493 86.7331 70.5238 86.4824 70.2275C86.2318 69.9313 86.0312 69.5758 85.8809 69.1611C85.735 68.7464 85.6348 68.2793 85.5801 67.7598V66.9941C85.6348 66.4473 85.7373 65.9574 85.8877 65.5244C86.0381 65.0915 86.2363 64.7223 86.4824 64.417C86.7331 64.1071 87.0361 63.8724 87.3916 63.7129C87.7471 63.5488 88.1572 63.4668 88.6221 63.4668C89.0869 63.4668 89.4993 63.5579 89.8594 63.7402C90.2194 63.918 90.5225 64.1732 90.7686 64.5059C91.0146 64.8385 91.1992 65.2373 91.3223 65.7021C91.4499 66.1624 91.5137 66.6751 91.5137 67.2402ZM90.2422 67.3838V67.2402C90.2422 66.8711 90.2035 66.5247 90.126 66.2012C90.0485 65.873 89.9277 65.5859 89.7637 65.3398C89.6042 65.0892 89.3991 64.8932 89.1484 64.752C88.8978 64.6061 88.5993 64.5332 88.2529 64.5332C87.9339 64.5332 87.6559 64.5879 87.4189 64.6973C87.1865 64.8066 86.9883 64.9548 86.8242 65.1416C86.6602 65.3239 86.5257 65.5335 86.4209 65.7705C86.3206 66.0029 86.2454 66.2445 86.1953 66.4951V68.2656C86.2865 68.5846 86.4141 68.8854 86.5781 69.168C86.7422 69.446 86.9609 69.6715 87.2344 69.8447C87.5078 70.0133 87.8519 70.0977 88.2666 70.0977C88.6084 70.0977 88.9023 70.027 89.1484 69.8857C89.3991 69.7399 89.6042 69.5417 89.7637 69.291C89.9277 69.0404 90.0485 68.7533 90.126 68.4297C90.2035 68.1016 90.2422 67.7529 90.2422 67.3838ZM93.042 67.3838V67.2266C93.042 66.6934 93.1195 66.1989 93.2744 65.7432C93.4294 65.2829 93.6527 64.8841 93.9443 64.5469C94.236 64.2051 94.5892 63.9408 95.0039 63.7539C95.4186 63.5625 95.8835 63.4668 96.3984 63.4668C96.918 63.4668 97.3851 63.5625 97.7998 63.7539C98.2191 63.9408 98.5745 64.2051 98.8662 64.5469C99.1624 64.8841 99.388 65.2829 99.543 65.7432C99.6979 66.1989 99.7754 66.6934 99.7754 67.2266V67.3838C99.7754 67.917 99.6979 68.4115 99.543 68.8672C99.388 69.3229 99.1624 69.7217 98.8662 70.0635C98.5745 70.4007 98.2214 70.665 97.8066 70.8564C97.3965 71.0433 96.9316 71.1367 96.4121 71.1367C95.8926 71.1367 95.4255 71.0433 95.0107 70.8564C94.596 70.665 94.2406 70.4007 93.9443 70.0635C93.6527 69.7217 93.4294 69.3229 93.2744 68.8672C93.1195 68.4115 93.042 67.917 93.042 67.3838ZM94.3066 67.2266V67.3838C94.3066 67.7529 94.3499 68.1016 94.4365 68.4297C94.5231 68.7533 94.653 69.0404 94.8262 69.291C95.0039 69.5417 95.2249 69.7399 95.4893 69.8857C95.7536 70.027 96.0612 70.0977 96.4121 70.0977C96.7585 70.0977 97.0615 70.027 97.3213 69.8857C97.5856 69.7399 97.8044 69.5417 97.9775 69.291C98.1507 69.0404 98.2806 68.7533 98.3672 68.4297C98.4583 68.1016 98.5039 67.7529 98.5039 67.3838V67.2266C98.5039 66.862 98.4583 66.5179 98.3672 66.1943C98.2806 65.8662 98.1484 65.5768 97.9707 65.3262C97.7975 65.071 97.5788 64.8704 97.3145 64.7246C97.0547 64.5788 96.7493 64.5059 96.3984 64.5059C96.0521 64.5059 95.7467 64.5788 95.4824 64.7246C95.2227 64.8704 95.0039 65.071 94.8262 65.3262C94.653 65.5768 94.5231 65.8662 94.4365 66.1943C94.3499 66.5179 94.3066 66.862 94.3066 67.2266ZM102.876 64.7656V71H101.611V63.6035H102.842L102.876 64.7656ZM105.187 63.5625L105.18 64.7383C105.075 64.7155 104.975 64.7018 104.879 64.6973C104.788 64.6882 104.683 64.6836 104.564 64.6836C104.273 64.6836 104.015 64.7292 103.792 64.8203C103.569 64.9115 103.38 65.0391 103.225 65.2031C103.07 65.3672 102.947 65.5632 102.855 65.791C102.769 66.0143 102.712 66.2604 102.685 66.5293L102.329 66.7344C102.329 66.2878 102.372 65.8685 102.459 65.4766C102.55 65.0846 102.689 64.7383 102.876 64.4375C103.063 64.1322 103.3 63.8952 103.587 63.7266C103.879 63.5534 104.225 63.4668 104.626 63.4668C104.717 63.4668 104.822 63.4782 104.94 63.501C105.059 63.5192 105.141 63.5397 105.187 63.5625ZM110.044 63.6035V64.5742H106.045V63.6035H110.044ZM107.398 61.8057H108.663V69.168C108.663 69.4186 108.702 69.6077 108.779 69.7354C108.857 69.863 108.957 69.9473 109.08 69.9883C109.203 70.0293 109.335 70.0498 109.477 70.0498C109.581 70.0498 109.691 70.0407 109.805 70.0225C109.923 69.9997 110.012 69.9814 110.071 69.9678L110.078 71C109.978 71.0319 109.846 71.0615 109.682 71.0889C109.522 71.1208 109.328 71.1367 109.101 71.1367C108.791 71.1367 108.506 71.0752 108.246 70.9521C107.986 70.8291 107.779 70.624 107.624 70.3369C107.474 70.0452 107.398 69.6533 107.398 69.1611V61.8057Z" fill="#D9D9D9" fill-opacity="0.83"/>
<g clip-path="url(#clip0_250_659)">
<path d="M31.6962 35.9015V25.6517L28.5175 22.7437L25.667 21.1299V34.0927C25.667 35.0935 26.4779 35.9015 27.4758 35.9015H31.6962Z" fill="#4285F4"/>
<path d="M46.166 35.9014H50.3864C51.3874 35.9014 52.1952 35.0904 52.1952 34.0926V21.1299L48.9666 22.9783L46.166 25.6516V35.9014Z" fill="#34A853"/>
<path d="M31.6962 25.6519L31.2637 21.647L31.6962 17.814L38.9312 23.2403L46.1663 17.814L46.6501 21.4401L46.1663 25.6519L38.9312 31.0782L31.6962 25.6519Z" fill="#EA4335"/>
<path d="M46.166 17.8139V25.6518L52.1952 21.1299V18.7182C52.1952 16.4814 49.6419 15.2063 47.8543 16.5477L46.166 17.8139Z" fill="#FBBC04"/>
<path d="M25.667 21.13L28.4399 23.2098L31.6962 25.6518V17.8139L30.0079 16.5478C28.2173 15.2062 25.667 16.4815 25.667 18.7182V21.13Z" fill="#C5221F"/>
</g>
<path d="M20.4845 87.094C20.4845 86.31 20.6385 85.6147 20.9465 85.008C21.2638 84.4013 21.6885 83.9347 22.2205 83.608C22.7618 83.2813 23.3638 83.118 24.0265 83.118C24.6051 83.118 25.1091 83.2347 25.5385 83.468C25.9771 83.7013 26.3271 83.9953 26.5885 84.35V83.244H28.5625V91H26.5885V89.866C26.3365 90.23 25.9865 90.5333 25.5385 90.776C25.0998 91.0093 24.5911 91.126 24.0125 91.126C23.3591 91.126 22.7618 90.958 22.2205 90.622C21.6885 90.286 21.2638 89.8147 20.9465 89.208C20.6385 88.592 20.4845 87.8873 20.4845 87.094ZM26.5885 87.122C26.5885 86.646 26.4951 86.24 26.3085 85.904C26.1218 85.5587 25.8698 85.2973 25.5525 85.12C25.2351 84.9333 24.8945 84.84 24.5305 84.84C24.1665 84.84 23.8305 84.9287 23.5225 85.106C23.2145 85.2833 22.9625 85.5447 22.7665 85.89C22.5798 86.226 22.4865 86.6273 22.4865 87.094C22.4865 87.5607 22.5798 87.9713 22.7665 88.326C22.9625 88.6713 23.2145 88.9373 23.5225 89.124C23.8398 89.3107 24.1758 89.404 24.5305 89.404C24.8945 89.404 25.2351 89.3153 25.5525 89.138C25.8698 88.9513 26.1218 88.69 26.3085 88.354C26.4951 88.0087 26.5885 87.598 26.5885 87.122ZM32.5367 84.378C32.7887 84.0047 33.1341 83.7013 33.5727 83.468C34.0207 83.2347 34.5294 83.118 35.0987 83.118C35.7614 83.118 36.3587 83.2813 36.8907 83.608C37.4321 83.9347 37.8567 84.4013 38.1647 85.008C38.4821 85.6053 38.6407 86.3007 38.6407 87.094C38.6407 87.8873 38.4821 88.592 38.1647 89.208C37.8567 89.8147 37.4321 90.286 36.8907 90.622C36.3587 90.958 35.7614 91.126 35.0987 91.126C34.5201 91.126 34.0114 91.014 33.5727 90.79C33.1434 90.5567 32.7981 90.258 32.5367 89.894V91H30.5767V80.64H32.5367V84.378ZM36.6387 87.094C36.6387 86.6273 36.5407 86.226 36.3447 85.89C36.1581 85.5447 35.9061 85.2833 35.5887 85.106C35.2807 84.9287 34.9447 84.84 34.5807 84.84C34.2261 84.84 33.8901 84.9333 33.5727 85.12C33.2647 85.2973 33.0127 85.5587 32.8167 85.904C32.6301 86.2493 32.5367 86.6553 32.5367 87.122C32.5367 87.5887 32.6301 87.9947 32.8167 88.34C33.0127 88.6853 33.2647 88.9513 33.5727 89.138C33.8901 89.3153 34.2261 89.404 34.5807 89.404C34.9447 89.404 35.2807 89.3107 35.5887 89.124C35.9061 88.9373 36.1581 88.6713 36.3447 88.326C36.5407 87.9807 36.6387 87.57 36.6387 87.094ZM39.661 87.122C39.661 86.3193 39.8244 85.6193 40.151 85.022C40.4777 84.4153 40.9304 83.9487 41.509 83.622C42.0877 83.286 42.7504 83.118 43.497 83.118C44.4584 83.118 45.2517 83.3607 45.877 83.846C46.5117 84.322 46.9364 84.994 47.151 85.862H45.037C44.925 85.526 44.7337 85.2647 44.463 85.078C44.2017 84.882 43.875 84.784 43.483 84.784C42.923 84.784 42.4797 84.9893 42.153 85.4C41.8264 85.8013 41.663 86.3753 41.663 87.122C41.663 87.8593 41.8264 88.4333 42.153 88.844C42.4797 89.2453 42.923 89.446 43.483 89.446C44.2764 89.446 44.7944 89.0913 45.037 88.382H47.151C46.9364 89.222 46.5117 89.8893 45.877 90.384C45.2424 90.8787 44.449 91.126 43.497 91.126C42.7504 91.126 42.0877 90.9627 41.509 90.636C40.9304 90.3 40.4777 89.8333 40.151 89.236C39.8244 88.6293 39.661 87.9247 39.661 87.122ZM56.1489 81.816C57.2316 81.816 58.1696 82.0167 58.9629 82.418C59.7562 82.8193 60.3629 83.384 60.7829 84.112C61.2122 84.84 61.4269 85.68 61.4269 86.632C61.4269 87.3973 61.2916 88.1207 61.0209 88.802C60.7596 89.4833 60.3769 90.034 59.8729 90.454C59.3689 90.874 58.7716 91.084 58.0809 91.084C57.5956 91.084 57.2036 90.986 56.9049 90.79C56.6062 90.5847 56.4149 90.2953 56.3309 89.922C56.0602 90.286 55.7102 90.5753 55.2809 90.79C54.8516 90.9953 54.3989 91.098 53.9229 91.098C53.2136 91.098 52.6582 90.888 52.2569 90.468C51.8556 90.0387 51.6549 89.4553 51.6549 88.718C51.6549 88.018 51.7996 87.3647 52.0889 86.758C52.3782 86.1513 52.7796 85.666 53.2929 85.302C53.8062 84.9287 54.3849 84.742 55.0289 84.742C55.8316 84.742 56.3822 85.022 56.6809 85.582L56.8069 84.854H58.4449L57.7869 88.634C57.7589 88.8113 57.7449 88.9747 57.7449 89.124C57.7449 89.348 57.7916 89.516 57.8849 89.628C57.9782 89.74 58.1369 89.796 58.3609 89.796C58.6969 89.796 58.9769 89.6373 59.2009 89.32C59.4342 89.0027 59.6069 88.606 59.7189 88.13C59.8402 87.654 59.9009 87.178 59.9009 86.702C59.9009 85.5727 59.5556 84.7 58.8649 84.084C58.1742 83.4587 57.1989 83.146 55.9389 83.146C54.8656 83.146 53.8949 83.4073 53.0269 83.93C52.1589 84.4433 51.4776 85.148 50.9829 86.044C50.4976 86.9307 50.2549 87.92 50.2549 89.012C50.2549 90.1693 50.5956 91.0607 51.2769 91.686C51.9676 92.3113 52.9429 92.624 54.2029 92.624C55.1082 92.624 55.9062 92.4607 56.5969 92.134L56.8769 93.422C55.9902 93.7953 55.0056 93.982 53.9229 93.982C52.8776 93.982 51.9629 93.7813 51.1789 93.38C50.3949 92.988 49.7882 92.428 49.3589 91.7C48.9296 90.972 48.7149 90.1273 48.7149 89.166C48.7149 87.794 49.0322 86.548 49.6669 85.428C50.3109 84.308 51.1976 83.426 52.3269 82.782C53.4656 82.138 54.7396 81.816 56.1489 81.816ZM54.5389 89.642C54.8749 89.642 55.1829 89.544 55.4629 89.348C55.7429 89.152 55.9622 88.8907 56.1209 88.564C56.2889 88.2373 56.3729 87.8873 56.3729 87.514C56.3729 87.122 56.2656 86.8047 56.0509 86.562C55.8362 86.3193 55.5376 86.198 55.1549 86.198C54.8096 86.198 54.5062 86.3053 54.2449 86.52C53.9836 86.7253 53.7782 86.996 53.6289 87.332C53.4889 87.668 53.4189 88.0227 53.4189 88.396C53.4189 88.7787 53.5122 89.082 53.6989 89.306C53.8856 89.53 54.1656 89.642 54.5389 89.642ZM66.5358 83.118C67.1145 83.118 67.6232 83.2347 68.0618 83.468C68.5005 83.692 68.8458 83.986 69.0978 84.35V83.244H71.0718V91.056C71.0718 91.7747 70.9272 92.414 70.6378 92.974C70.3485 93.5433 69.9145 93.9913 69.3358 94.318C68.7572 94.654 68.0572 94.822 67.2358 94.822C66.1345 94.822 65.2292 94.5653 64.5198 94.052C63.8198 93.5387 63.4232 92.8387 63.3298 91.952H65.2758C65.3785 92.3067 65.5978 92.5867 65.9338 92.792C66.2792 93.0067 66.6945 93.114 67.1798 93.114C67.7492 93.114 68.2112 92.9413 68.5658 92.596C68.9205 92.26 69.0978 91.7467 69.0978 91.056V89.852C68.8458 90.216 68.4958 90.5193 68.0478 90.762C67.6092 91.0047 67.1052 91.126 66.5358 91.126C65.8825 91.126 65.2852 90.958 64.7438 90.622C64.2025 90.286 63.7732 89.8147 63.4558 89.208C63.1478 88.592 62.9938 87.8873 62.9938 87.094C62.9938 86.31 63.1478 85.6147 63.4558 85.008C63.7732 84.4013 64.1978 83.9347 64.7298 83.608C65.2712 83.2813 65.8732 83.118 66.5358 83.118ZM69.0978 87.122C69.0978 86.646 69.0045 86.24 68.8178 85.904C68.6312 85.5587 68.3792 85.2973 68.0618 85.12C67.7445 84.9333 67.4038 84.84 67.0398 84.84C66.6758 84.84 66.3398 84.9287 66.0318 85.106C65.7238 85.2833 65.4718 85.5447 65.2758 85.89C65.0892 86.226 64.9958 86.6273 64.9958 87.094C64.9958 87.5607 65.0892 87.9713 65.2758 88.326C65.4718 88.6713 65.7238 88.9373 66.0318 89.124C66.3492 89.3107 66.6852 89.404 67.0398 89.404C67.4038 89.404 67.7445 89.3153 68.0618 89.138C68.3792 88.9513 68.6312 88.69 68.8178 88.354C69.0045 88.0087 69.0978 87.598 69.0978 87.122ZM82.7181 83.132C83.6701 83.132 84.4355 83.426 85.0141 84.014C85.6021 84.5927 85.8961 85.4047 85.8961 86.45V91H83.9361V86.716C83.9361 86.1093 83.7821 85.6473 83.4741 85.33C83.1661 85.0033 82.7461 84.84 82.2141 84.84C81.6821 84.84 81.2575 85.0033 80.9401 85.33C80.6321 85.6473 80.4781 86.1093 80.4781 86.716V91H78.5181V86.716C78.5181 86.1093 78.3641 85.6473 78.0561 85.33C77.7481 85.0033 77.3281 84.84 76.7961 84.84C76.2548 84.84 75.8255 85.0033 75.5081 85.33C75.2001 85.6473 75.0461 86.1093 75.0461 86.716V91H73.0861V83.244H75.0461V84.182C75.2981 83.8553 75.6201 83.5987 76.0121 83.412C76.4135 83.2253 76.8521 83.132 77.3281 83.132C77.9348 83.132 78.4761 83.2627 78.9521 83.524C79.4281 83.776 79.7968 84.14 80.0581 84.616C80.3101 84.168 80.6741 83.8087 81.1501 83.538C81.6355 83.2673 82.1581 83.132 82.7181 83.132ZM87.352 87.094C87.352 86.31 87.506 85.6147 87.814 85.008C88.1314 84.4013 88.556 83.9347 89.088 83.608C89.6294 83.2813 90.2314 83.118 90.894 83.118C91.4727 83.118 91.9767 83.2347 92.406 83.468C92.8447 83.7013 93.1947 83.9953 93.456 84.35V83.244H95.43V91H93.456V89.866C93.204 90.23 92.854 90.5333 92.406 90.776C91.9674 91.0093 91.4587 91.126 90.88 91.126C90.2267 91.126 89.6294 90.958 89.088 90.622C88.556 90.286 88.1314 89.8147 87.814 89.208C87.506 88.592 87.352 87.8873 87.352 87.094ZM93.456 87.122C93.456 86.646 93.3627 86.24 93.176 85.904C92.9894 85.5587 92.7374 85.2973 92.42 85.12C92.1027 84.9333 91.762 84.84 91.398 84.84C91.034 84.84 90.698 84.9287 90.39 85.106C90.082 85.2833 89.83 85.5447 89.634 85.89C89.4474 86.226 89.354 86.6273 89.354 87.094C89.354 87.5607 89.4474 87.9713 89.634 88.326C89.83 88.6713 90.082 88.9373 90.39 89.124C90.7074 89.3107 91.0434 89.404 91.398 89.404C91.762 89.404 92.1027 89.3153 92.42 89.138C92.7374 88.9513 92.9894 88.69 93.176 88.354C93.3627 88.0087 93.456 87.598 93.456 87.122ZM98.4383 82.32C98.093 82.32 97.8037 82.2127 97.5703 81.998C97.3463 81.774 97.2343 81.4987 97.2343 81.172C97.2343 80.8453 97.3463 80.5747 97.5703 80.36C97.8037 80.136 98.093 80.024 98.4383 80.024C98.7837 80.024 99.0683 80.136 99.2923 80.36C99.5257 80.5747 99.6423 80.8453 99.6423 81.172C99.6423 81.4987 99.5257 81.774 99.2923 81.998C99.0683 82.2127 98.7837 82.32 98.4383 82.32ZM99.4043 83.244V91H97.4443V83.244H99.4043ZM103.401 80.64V91H101.441V80.64H103.401ZM106.305 91.098C105.951 91.098 105.657 90.9907 105.423 90.776C105.199 90.552 105.087 90.2767 105.087 89.95C105.087 89.6233 105.199 89.3527 105.423 89.138C105.657 88.914 105.951 88.802 106.305 88.802C106.651 88.802 106.935 88.914 107.159 89.138C107.383 89.3527 107.495 89.6233 107.495 89.95C107.495 90.2767 107.383 90.552 107.159 90.776C106.935 90.9907 106.651 91.098 106.305 91.098ZM108.67 87.122C108.67 86.3193 108.833 85.6193 109.16 85.022C109.487 84.4153 109.939 83.9487 110.518 83.622C111.097 83.286 111.759 83.118 112.506 83.118C113.467 83.118 114.261 83.3607 114.886 83.846C115.521 84.322 115.945 84.994 116.16 85.862H114.046C113.934 85.526 113.743 85.2647 113.472 85.078C113.211 84.882 112.884 84.784 112.492 84.784C111.932 84.784 111.489 84.9893 111.162 85.4C110.835 85.8013 110.672 86.3753 110.672 87.122C110.672 87.8593 110.835 88.4333 111.162 88.844C111.489 89.2453 111.932 89.446 112.492 89.446C113.285 89.446 113.803 89.0913 114.046 88.382H116.16C115.945 89.222 115.521 89.8893 114.886 90.384C114.251 90.8787 113.458 91.126 112.506 91.126C111.759 91.126 111.097 90.9627 110.518 90.636C109.939 90.3 109.487 89.8333 109.16 89.236C108.833 88.6293 108.67 87.9247 108.67 87.122ZM121.14 91.126C120.393 91.126 119.721 90.9627 119.124 90.636C118.527 90.3 118.055 89.8287 117.71 89.222C117.374 88.6153 117.206 87.9153 117.206 87.122C117.206 86.3287 117.379 85.6287 117.724 85.022C118.079 84.4153 118.559 83.9487 119.166 83.622C119.773 83.286 120.449 83.118 121.196 83.118C121.943 83.118 122.619 83.286 123.226 83.622C123.833 83.9487 124.309 84.4153 124.654 85.022C125.009 85.6287 125.186 86.3287 125.186 87.122C125.186 87.9153 125.004 88.6153 124.64 89.222C124.285 89.8287 123.8 90.3 123.184 90.636C122.577 90.9627 121.896 91.126 121.14 91.126ZM121.14 89.418C121.495 89.418 121.826 89.334 122.134 89.166C122.451 88.9887 122.703 88.7273 122.89 88.382C123.077 88.0367 123.17 87.6167 123.17 87.122C123.17 86.3847 122.974 85.82 122.582 85.428C122.199 85.0267 121.728 84.826 121.168 84.826C120.608 84.826 120.137 85.0267 119.754 85.428C119.381 85.82 119.194 86.3847 119.194 87.122C119.194 87.8593 119.376 88.4287 119.74 88.83C120.113 89.222 120.58 89.418 121.14 89.418ZM136.356 83.132C137.308 83.132 138.073 83.426 138.652 84.014C139.24 84.5927 139.534 85.4047 139.534 86.45V91H137.574V86.716C137.574 86.1093 137.42 85.6473 137.112 85.33C136.804 85.0033 136.384 84.84 135.852 84.84C135.32 84.84 134.895 85.0033 134.578 85.33C134.27 85.6473 134.116 86.1093 134.116 86.716V91H132.156V86.716C132.156 86.1093 132.002 85.6473 131.694 85.33C131.386 85.0033 130.966 84.84 130.434 84.84C129.892 84.84 129.463 85.0033 129.146 85.33C128.838 85.6473 128.684 86.1093 128.684 86.716V91H126.724V83.244H128.684V84.182C128.936 83.8553 129.258 83.5987 129.65 83.412C130.051 83.2253 130.49 83.132 130.966 83.132C131.572 83.132 132.114 83.2627 132.59 83.524C133.066 83.776 133.434 84.14 133.696 84.616C133.948 84.168 134.312 83.8087 134.788 83.538C135.273 83.2673 135.796 83.132 136.356 83.132Z" fill="#F4F4F4"/>
<defs>
<clipPath id="clip0_250_659">
<rect width="26.53" height="20" fill="white" transform="translate(25.666 16)"/>
</clipPath>
</defs>
</svg>
