<svg width="16" height="16" viewBox="0 0 16 16" fill="none" xmlns="http://www.w3.org/2000/svg">
<path d="M12.9169 10.0686C13.3494 9.04078 13.449 7.90325 13.2016 6.81593C12.9542 5.72861 12.3722 4.74617 11.5375 4.00674C10.7028 3.26732 9.65731 2.80809 8.54808 2.69362C7.43885 2.57915 6.32164 2.8152 5.35352 3.36858L4.69219 2.21058C5.70394 1.63232 6.84965 1.32949 8.01499 1.33229C9.18033 1.3351 10.3246 1.64345 11.3335 2.22658C14.3269 3.95458 15.4735 7.65458 14.0782 10.7399L14.9729 11.2559L12.1962 12.7319L12.0862 9.58924L12.9169 10.0686ZM3.08352 5.93124C2.65095 6.95904 2.55138 8.09657 2.7988 9.18389C3.04622 10.2712 3.6282 11.2536 4.4629 11.9931C5.29761 12.7325 6.34307 13.1917 7.4523 13.3062C8.56152 13.4207 9.67873 13.1846 10.6469 12.6312L11.3082 13.7892C10.2964 14.3675 9.15073 14.6703 7.98539 14.6675C6.82005 14.6647 5.67581 14.3564 4.66686 13.7732C1.67352 12.0452 0.526855 8.34524 1.92219 5.25991L1.02686 4.74458L3.80352 3.26858L3.91352 6.41124L3.08286 5.93191L3.08352 5.93124ZM8.94352 9.88524L7.05619 7.99991L5.17086 9.88524L4.22819 8.94257L7.05686 6.11458L8.94286 7.99991L10.8289 6.11458L11.7715 7.05724L8.94286 9.88524H8.94352Z" fill="white"/>
</svg>
