<svg width="30" height="30" viewBox="0 0 30 30" fill="none" xmlns="http://www.w3.org/2000/svg">
<g clip-path="url(#clip0_391_489)">
<path d="M23.1997 8.61225H29.2779V11.0435H23.1997V8.61225ZM20.7684 14.6905H29.2779V17.1218H20.7684V14.6905ZM24.4153 20.7687H29.2779V23.2H24.4153V20.7687ZM2.53369 26.847C2.53369 24.2677 3.55831 21.794 5.38213 19.9702C7.20596 18.1464 9.67959 17.1218 12.2589 17.1218C14.8382 17.1218 17.3118 18.1464 19.1356 19.9702C20.9594 21.794 21.9841 24.2677 21.9841 26.847H19.5528C19.5528 24.9125 18.7843 23.0573 17.4164 21.6894C16.0486 20.3215 14.1933 19.5531 12.2589 19.5531C10.3244 19.5531 8.46919 20.3215 7.10132 21.6894C5.73345 23.0573 4.96499 24.9125 4.96499 26.847H2.53369ZM12.2589 15.9061C8.229 15.9061 4.96499 12.6421 4.96499 8.61225C4.96499 4.58237 8.229 1.31836 12.2589 1.31836C16.2887 1.31836 19.5528 4.58237 19.5528 8.61225C19.5528 12.6421 16.2887 15.9061 12.2589 15.9061ZM12.2589 13.4748C14.9455 13.4748 17.1215 11.2988 17.1215 8.61225C17.1215 5.92566 14.9455 3.74965 12.2589 3.74965C9.57229 3.74965 7.39628 5.92566 7.39628 8.61225C7.39628 11.2988 9.57229 13.4748 12.2589 13.4748Z" fill="black"/>
</g>
<defs>
<clipPath id="clip0_391_489">
<rect width="29.1755" height="29.1755" fill="white" transform="translate(0.102539 0.102783)"/>
</clipPath>
</defs>
</svg>
