<svg width="30" height="30" viewBox="0 0 30 30" fill="none" xmlns="http://www.w3.org/2000/svg">
<path d="M7.39645 10.2124V8.99677C7.39645 7.06231 8.16492 5.20708 9.53278 3.83921C10.9007 2.47134 12.7559 1.70288 14.6903 1.70288C16.6248 1.70288 18.48 2.47134 19.8479 3.83921C21.2158 5.20708 21.9842 7.06231 21.9842 8.99677V10.2124H24.4155C24.7379 10.2124 25.0471 10.3405 25.2751 10.5685C25.5031 10.7964 25.6312 11.1057 25.6312 11.4281V26.0158C25.6312 26.3382 25.5031 26.6475 25.2751 26.8754C25.0471 27.1034 24.7379 27.2315 24.4155 27.2315H4.96516C4.64275 27.2315 4.33354 27.1034 4.10557 26.8754C3.87759 26.6475 3.74951 26.3382 3.74951 26.0158V11.4281C3.74951 11.1057 3.87759 10.7964 4.10557 10.5685C4.33354 10.3405 4.64275 10.2124 4.96516 10.2124H7.39645ZM23.1999 12.6437H6.18081V24.8002H23.1999V12.6437ZM13.4747 19.6118C13.0112 19.3442 12.6489 18.9311 12.4441 18.4367C12.2393 17.9422 12.2034 17.3939 12.3419 16.877C12.4804 16.36 12.7857 15.9032 13.2103 15.5774C13.6349 15.2515 14.1551 15.0749 14.6903 15.0749C15.2256 15.0749 15.7458 15.2515 16.1704 15.5774C16.595 15.9032 16.9003 16.36 17.0388 16.877C17.1773 17.3939 17.1414 17.9422 16.9366 18.4367C16.7317 18.9311 16.3695 19.3442 15.906 19.6118V22.3689H13.4747V19.6118ZM9.82775 10.2124H19.5529V8.99677C19.5529 7.70713 19.0406 6.47031 18.1287 5.5584C17.2168 4.64648 15.98 4.13418 14.6903 4.13418C13.4007 4.13418 12.1639 4.64648 11.252 5.5584C10.3401 6.47031 9.82775 7.70713 9.82775 8.99677V10.2124Z" fill="black"/>
</svg>
