<svg width="22" height="22" viewBox="0 0 22 22" fill="none" xmlns="http://www.w3.org/2000/svg">
<g clip-path="url(#clip0_22_10635)">
<path d="M4.58333 10.0837H11.9167V11.9171H4.58333V14.6671L0 11.0004L4.58333 7.33374V10.0837ZM3.66667 16.5004H6.149C7.20746 17.4339 8.51279 18.0421 9.90837 18.2521C11.3039 18.4621 12.7305 18.2649 14.0168 17.6843C15.303 17.1036 16.3945 16.1642 17.1601 14.9786C17.9256 13.793 18.3329 12.4117 18.3329 11.0004C18.3329 9.58913 17.9256 8.20782 17.1601 7.02225C16.3945 5.83667 15.303 4.89719 14.0168 4.31653C12.7305 3.73588 11.3039 3.53872 9.90837 3.74871C8.51279 3.95871 7.20746 4.56693 6.149 5.50041H3.66667C4.51977 4.36115 5.6268 3.43654 6.89981 2.80004C8.17282 2.16353 9.57673 1.83267 11 1.83374C16.0627 1.83374 20.1667 5.93766 20.1667 11.0004C20.1667 16.0632 16.0627 20.1671 11 20.1671C9.57673 20.1681 8.17282 19.8373 6.89981 19.2008C5.6268 18.5643 4.51977 17.6397 3.66667 16.5004Z" fill="#FF2120"/>
</g>
<defs>
<clipPath id="clip0_22_10635">
<rect width="22" height="22" fill="white"/>
</clipPath>
</defs>
</svg>
