<svg width="196" height="198" viewBox="0 0 196 198" fill="none" xmlns="http://www.w3.org/2000/svg">
<g opacity="0.52">
<path d="M70.4432 64.1566L89.708 64.0919L89.7008 61.751L70.4576 61.8101L70.4432 64.1566Z" fill="white"/>
<path d="M70.3926 72.7622L89.7366 72.6765L89.7294 70.3164L70.4071 70.3963L70.3926 72.7622Z" fill="white"/>
<path d="M70.3366 81.4729L89.7605 81.3659L89.7532 78.9863L70.3513 79.0875L70.3366 81.4729Z" fill="white"/>
<path d="M70.2842 90.2409L89.7887 90.1122L89.7813 87.7129L70.2989 87.8357L70.2842 90.2409Z" fill="white"/>
<path d="M70.2299 99.0749L89.8155 98.9242L89.8081 96.5049L70.2447 96.6495L70.2299 99.0749Z" fill="white"/>
<path d="M70.1203 116.98L89.8704 116.784L89.8628 114.324L70.1353 114.514L70.1203 116.98Z" fill="white"/>
<path d="M69.9512 144.406L89.9531 144.139L89.9454 141.616L69.9667 141.876L69.9512 144.406Z" fill="white"/>
<path d="M70.1757 107.98L89.8431 107.807L89.8357 105.367L70.1906 105.534L70.1757 107.98Z" fill="white"/>
<path d="M70.0658 126.049L89.8991 125.83L89.8914 123.35L70.081 123.562L70.0658 126.049Z" fill="white"/>
<path d="M70.0075 135.182L89.9248 134.939L89.9171 132.438L70.0229 132.674L70.0075 135.182Z" fill="white"/>
<path d="M69.8978 153.698L89.9851 153.407L89.9773 150.862L69.9134 151.146L69.8978 153.698Z" fill="white"/>
<path d="M69.839 163.07L90.0126 162.755L90.0047 160.188L69.8549 160.497L69.839 163.07Z" fill="white"/>
<path d="M69.7805 172.531L90.0409 172.19L90.033 169.602L69.7964 169.935L69.7805 172.531Z" fill="white"/>
<path d="M69.7215 182.07L90.0696 181.704L90.0616 179.093L69.7376 179.452L69.7215 182.07Z" fill="white"/>
<path d="M45.0293 72.9031L64.4952 72.8169L64.5163 70.4492L45.0724 70.5297L45.0293 72.9031Z" fill="white"/>
<path d="M44.8693 81.6161L64.416 81.5084L64.4373 79.1211L44.9128 79.2229L44.8693 81.6161Z" fill="white"/>
<path d="M44.7114 90.4116L64.3397 90.2821L64.3612 87.875L44.7552 87.9986L44.7114 90.4116Z" fill="white"/>
<path d="M44.5471 99.2693L64.2576 99.1176L64.2793 96.6904L44.5913 96.836L44.5471 99.2693Z" fill="white"/>
<path d="M44.2225 117.235L64.0996 117.038L64.1217 114.569L44.2675 114.76L44.2225 117.235Z" fill="white"/>
<path d="M43.7206 144.748L63.8528 144.48L63.8754 141.948L43.7667 142.21L43.7206 144.748Z" fill="white"/>
<path d="M44.3853 108.221L64.1787 108.047L64.2006 105.6L44.4298 105.768L44.3853 108.221Z" fill="white"/>
<path d="M44.0565 126.33L64.0179 126.109L64.0401 123.62L44.1018 123.834L44.0565 126.33Z" fill="white"/>
<path d="M43.8915 135.503L63.9381 135.259L63.9605 132.749L43.9373 132.987L43.8915 135.503Z" fill="white"/>
<path d="M43.552 154.073L63.7708 153.78L63.7936 151.227L43.5986 151.513L43.552 154.073Z" fill="white"/>
<path d="M43.3821 163.488L63.6881 163.17L63.7112 160.595L43.4291 160.906L43.3821 163.488Z" fill="white"/>
<path d="M43.2099 172.982L63.6041 172.639L63.6272 170.041L43.2572 170.377L43.2099 172.982Z" fill="white"/>
<path d="M43.0357 182.553L63.5186 182.184L63.542 179.564L43.0835 179.926L43.0357 182.553Z" fill="white"/>
</g>
<path d="M2.82653 93.2218C2.85236 92.1315 3.97187 91.2344 5.34414 91.2344H57.2131C58.6038 91.2344 59.9695 92.1784 59.9695 93.2835V192.059C59.9695 192.59 59.5841 193.1 59.1104 193.475C58.6367 193.851 57.9348 194.061 57.2658 194.059L3.034 193.942C2.35915 193.94 1.69845 193.724 1.22648 193.34C0.754499 192.957 0.488366 192.427 0.500962 191.891L2.82653 93.2218Z" fill="#CA3939"/>
<path d="M41.0246 102.87L55.801 102.855L55.9182 96.8359H41.1275L41.0246 102.87Z" fill="url(#paint0_linear_137_394)"/>
<path d="M24.4607 102.867L39.2222 102.851L39.3234 96.8359H24.5475L24.4607 102.867Z" fill="url(#paint1_linear_137_394)"/>
<path d="M7.91473 102.864L22.6614 102.849L22.7465 96.8359H7.98556L7.91473 102.864Z" fill="url(#paint2_linear_137_394)"/>
<path d="M40.8427 113.674L55.5933 113.681L55.71 107.702L40.9452 107.697L40.8427 113.674Z" fill="url(#paint3_linear_137_394)"/>
<path d="M24.3071 113.645L39.043 113.652L39.1438 107.676L24.3937 107.671L24.3071 113.645Z" fill="url(#paint4_linear_137_394)"/>
<path d="M7.79086 113.642L22.5119 113.649L22.5967 107.676L7.86141 107.671L7.79086 113.642Z" fill="url(#paint5_linear_137_394)"/>
<path d="M40.6578 124.393L55.3827 124.406L55.4991 118.447L40.76 118.438L40.6578 124.393Z" fill="url(#paint6_linear_137_394)"/>
<path d="M24.1525 124.389L38.8627 124.401L38.9631 118.445L24.2387 118.436L24.1525 124.389Z" fill="url(#paint7_linear_137_394)"/>
<path d="M7.66376 124.359L22.3592 124.371L22.4436 118.419L7.73402 118.409L7.66376 124.359Z" fill="url(#paint8_linear_137_394)"/>
<path d="M40.476 135.08L55.1754 135.097L55.2913 129.159L40.5777 129.145L40.476 135.08Z" fill="url(#paint9_linear_137_394)"/>
<path d="M23.9991 135.05L38.6838 135.067L38.7839 129.132L24.085 129.117L23.9991 135.05Z" fill="url(#paint10_linear_137_394)"/>
<path d="M7.539 135.046L22.2089 135.063L22.2931 129.131L7.60899 129.116L7.539 135.046Z" fill="url(#paint11_linear_137_394)"/>
<path d="M40.2882 145.747L54.9621 145.769L55.0777 139.851L40.3897 139.832L40.2882 145.747Z" fill="url(#paint12_linear_137_394)"/>
<path d="M23.8463 145.738L38.5055 145.76L38.6052 139.845L23.9319 139.826L23.8463 145.738Z" fill="url(#paint13_linear_137_394)"/>
<path d="M7.41042 145.708L22.055 145.729L22.1389 139.818L7.48019 139.799L7.41042 145.708Z" fill="url(#paint14_linear_137_394)"/>
<path d="M40.1102 156.377L54.7587 156.403L54.8739 150.506L40.2113 150.482L40.1102 156.377Z" fill="url(#paint15_linear_137_394)"/>
<path d="M23.688 156.347L38.3219 156.373L38.4213 150.479L23.7734 150.455L23.688 156.347Z" fill="url(#paint16_linear_137_394)"/>
<path d="M7.28773 156.317L21.907 156.344L21.9906 150.452L7.3573 150.429L7.28773 156.317Z" fill="url(#paint17_linear_137_394)"/>
<path d="M39.9294 166.942L54.5525 166.973L54.6674 161.096L40.0301 161.067L39.9294 166.942Z" fill="url(#paint18_linear_137_394)"/>
<path d="M23.5351 166.909L38.1438 166.94L38.2428 161.067L23.6201 161.038L23.5351 166.909Z" fill="url(#paint19_linear_137_394)"/>
<path d="M7.16037 166.88L21.7544 166.911L21.8378 161.04L7.22971 161.012L7.16037 166.88Z" fill="url(#paint20_linear_137_394)"/>
<path d="M39.7415 177.489L54.3394 177.524L54.4539 171.668L39.842 171.635L39.7415 177.489Z" fill="url(#paint21_linear_137_394)"/>
<path d="M23.3813 177.458L37.9646 177.494L38.0634 171.64L23.466 171.607L23.3813 177.458Z" fill="url(#paint22_linear_137_394)"/>
<path d="M7.03548 177.429L21.6044 177.465L21.6874 171.614L7.10454 171.581L7.03548 177.429Z" fill="url(#paint23_linear_137_394)"/>
<path d="M39.5667 187.981L54.1395 188.022L54.2534 182.185L39.6667 182.147L39.5667 187.981Z" fill="url(#paint24_linear_137_394)"/>
<path d="M23.2295 187.931L37.7878 187.971L37.8863 182.137L23.3139 182.1L23.2295 187.931Z" fill="url(#paint25_linear_137_394)"/>
<path d="M6.91322 187.896L21.4571 187.936L21.5398 182.105L6.982 182.067L6.91322 187.896Z" fill="url(#paint26_linear_137_394)"/>
<path d="M138.221 95.5812C138.247 94.4909 139.367 93.5938 140.739 93.5938H192.608C193.998 93.5938 195.364 94.5378 195.364 95.6428V194.418C195.364 194.949 194.979 195.459 194.505 195.835C194.031 196.21 193.33 196.42 192.661 196.419L138.429 196.301C137.754 196.3 137.093 196.083 136.621 195.7C136.149 195.316 135.883 194.787 135.896 194.251L138.221 95.5812Z" fill="#F4BA64"/>
<g opacity="0.5">
<path d="M176.418 105.238L191.195 105.222L191.312 99.2031H176.521L176.418 105.238Z" fill="black"/>
<path d="M159.856 105.235L174.617 105.219L174.718 99.2031H159.942L159.856 105.235Z" fill="white"/>
<path d="M143.31 105.231L158.056 105.216L158.141 99.2031H143.38L143.31 105.231Z" fill="white"/>
<path d="M176.235 116.037L190.986 116.045L191.102 110.065L176.337 110.061L176.235 116.037Z" fill="black"/>
<path d="M159.701 116.034L174.437 116.042L174.538 110.065L159.787 110.061L159.701 116.034Z" fill="white"/>
<path d="M143.186 116.031L157.907 116.039L157.992 110.065L143.257 110.061L143.186 116.031Z" fill="white"/>
<path d="M176.049 126.762L190.774 126.774L190.891 120.815L176.151 120.806L176.049 126.762Z" fill="black"/>
<path d="M159.544 126.78L174.254 126.792L174.355 120.837L159.63 120.827L159.544 126.78Z" fill="white"/>
<path d="M143.054 126.754L157.75 126.766L157.834 120.813L143.124 120.804L143.054 126.754Z" fill="white"/>
<path d="M175.87 137.47L190.569 137.487L190.685 131.549L175.972 131.534L175.87 137.47Z" fill="black"/>
<path d="M159.394 137.462L174.078 137.479L174.179 131.544L159.48 131.529L159.394 137.462Z" fill="white"/>
<path d="M142.93 137.432L157.6 137.449L157.685 131.517L143.001 131.503L142.93 137.432Z" fill="white"/>
<path d="M175.684 148.12L190.358 148.142L190.474 142.224L175.786 142.205L175.684 148.12Z" fill="black"/>
<path d="M159.238 148.095L173.897 148.116L173.996 142.202L159.323 142.183L159.238 148.095Z" fill="white"/>
<path d="M142.805 148.063L157.45 148.085L157.534 142.173L142.875 142.154L142.805 148.063Z" fill="white"/>
<path d="M175.501 158.748L190.15 158.774L190.265 152.877L175.602 152.854L175.501 158.748Z" fill="black"/>
<path d="M159.083 158.719L173.717 158.745L173.816 152.851L159.168 152.827L159.083 158.719Z" fill="white"/>
<path d="M142.679 158.687L157.299 158.714L157.382 152.823L142.749 152.799L142.679 158.687Z" fill="white"/>
<path d="M175.325 169.355L189.948 169.386L190.063 163.509L175.425 163.48L175.325 169.355Z" fill="black"/>
<path d="M158.932 169.324L173.541 169.355L173.64 163.482L159.017 163.453L158.932 169.324Z" fill="white"/>
<path d="M142.557 169.269L157.151 169.3L157.234 163.429L142.626 163.4L142.557 169.269Z" fill="white"/>
<path d="M175.144 179.873L189.742 179.908L189.856 174.052L175.245 174.019L175.144 179.873Z" fill="black"/>
<path d="M158.779 179.817L173.363 179.853L173.461 173.999L158.864 173.966L158.779 179.817Z" fill="white"/>
<path d="M142.43 179.787L156.999 179.822L157.082 173.972L142.499 173.938L142.43 179.787Z" fill="white"/>
<path d="M174.962 190.37L189.535 190.41L189.649 184.574L175.062 184.536L174.962 190.37Z" fill="black"/>
<path d="M158.628 190.313L173.186 190.353L173.285 184.519L158.713 184.481L158.628 190.313Z" fill="white"/>
<path d="M142.309 190.282L156.853 190.323L156.936 184.492L142.378 184.454L142.309 190.282Z" fill="white"/>
</g>
<path d="M86.662 122.453C82.4289 109.162 74.2385 98.57 64.5368 92.3433C55.864 86.7769 49.6157 78.1079 47.3023 68.0942C47.059 67.0417 46.7701 65.9861 46.4339 64.9309C41.3427 48.9465 27.3789 39.1216 15.2448 42.9863C3.11053 46.851 -2.59905 62.9419 2.49214 78.9262C3.53304 82.1947 4.94529 85.2048 6.63705 87.8928C12.0363 96.4711 14.1491 106.76 12.1625 116.711C10.3869 125.604 10.8687 135.618 14.0424 145.582C18.7758 160.443 28.4568 171.931 39.6663 177.714C43.9062 179.902 47.7296 182.844 50.8954 186.398C56.1568 192.305 63.5715 195.081 70.3841 192.912C77.733 190.571 82.3244 183.129 82.6548 174.446C82.8417 169.533 83.997 164.717 85.8801 160.164C90.3254 149.416 90.942 135.89 86.662 122.453Z" fill="#E5E5E5"/>
<path opacity="0.57" d="M24.9105 58.624C29.8604 68.6831 34.4816 78.8936 38.9954 89.1521C40.125 91.7163 41.2132 94.2983 42.3095 96.8767L43.9535 100.745L45.5651 104.627C46.6292 107.219 47.7296 109.796 48.7643 112.4L51.8692 120.212C53.8724 125.447 55.92 130.664 57.8252 135.936C58.7815 138.57 59.7893 141.185 60.6918 143.84L63.436 151.787C66.987 162.42 70.2712 173.148 73.0039 184.022L72.5344 184.145L70.1787 176.088L69.5944 174.073L68.9596 172.073L67.6824 168.075L66.413 164.076C65.9923 162.742 65.5219 161.424 65.0787 160.097C64.1746 157.449 63.2917 154.795 62.3704 152.153C58.6165 141.61 54.7219 131.117 50.6104 120.706C48.5146 115.516 46.4638 110.309 44.3317 105.134L42.7434 101.248L41.1223 97.3753C40.0432 94.7929 38.964 92.2106 37.8586 89.6392C35.692 84.4775 33.4881 79.3311 31.2421 74.2028C29.0231 69.0627 26.7549 63.9424 24.4718 58.8314L24.9105 58.624Z" fill="black"/>
<path d="M122.07 96.0343C120.092 81.5195 113.553 69.0787 104.674 60.8794C96.7364 53.5498 91.8532 43.4502 91.2652 32.673C91.2033 31.5402 91.0948 30.3958 90.9378 29.2434C88.5585 11.7868 75.9336 -0.906862 62.7393 0.891443C49.5449 2.68968 40.7775 18.2989 43.1568 35.7556C43.6433 39.3252 44.5586 42.6947 45.8196 45.7817C49.844 55.6335 50.1763 66.659 46.3451 76.5924C42.9215 85.4695 41.6224 95.9144 43.1056 106.797C45.3177 123.027 53.232 136.664 63.7438 144.678C67.7199 147.709 71.1314 151.445 73.756 155.695C78.1175 162.759 85.2587 166.975 92.6664 165.965C100.658 164.876 106.722 158.011 108.619 149.089C109.693 144.041 111.747 139.269 114.503 134.901C121.01 124.589 124.07 110.71 122.07 96.0343Z" fill="#797979"/>
<path opacity="0.57" d="M69.8912 18.8262C73.1873 30.1283 76.1176 41.5272 78.9289 52.9568C79.6329 55.8138 80.291 58.6818 80.9582 61.5477L81.9584 65.8467L82.9227 70.154C83.5545 73.0281 84.2259 75.8935 84.8251 78.7748L86.6233 87.4183C87.7484 93.1958 88.9226 98.9635 89.9402 104.762C90.4531 107.66 91.0225 110.548 91.4765 113.457L92.8787 122.175C94.6307 133.818 96.0909 145.51 96.9567 157.253L96.451 157.295L95.4687 148.534L95.2279 146.344L94.9324 144.159L94.3334 139.793L93.7426 135.426C93.5483 133.97 93.2999 132.521 93.0813 131.068C92.6246 128.166 92.1909 125.26 91.7154 122.361C89.7381 110.775 87.607 99.2152 85.2377 87.701C84.009 81.953 82.8297 76.195 81.561 70.4551L80.6213 66.1478L79.6455 61.8484C78.9967 58.9816 78.3479 56.1149 77.67 53.2547C76.3634 47.5229 75.0155 41.8 73.621 36.0883C72.2565 30.3694 70.8377 24.6619 69.4018 18.9614L69.8912 18.8262Z" fill="black"/>
<path d="M182.711 195.788H67.5362C66.6361 195.788 65.9063 195.059 65.9063 194.159V38.5215C65.9063 37.6214 66.6361 36.8916 67.5362 36.8916H182.711C183.611 36.8916 184.341 37.6214 184.341 38.5215V194.159C184.341 195.059 183.611 195.788 182.711 195.788Z" fill="url(#paint27_linear_137_394)"/>
<path d="M164.178 174.861H85.8153C82.8448 174.861 80.4368 172.453 80.4368 169.482V66.145C80.4368 63.1746 82.8448 60.7666 85.8153 60.7666H164.178C167.149 60.7666 169.557 63.1746 169.557 66.145V169.482C169.557 172.453 167.149 174.861 164.178 174.861Z" fill="#CA3939"/>
<path d="M161.21 166.914H88.8485C87.9574 166.914 87.235 166.191 87.235 165.3V71.7561C87.235 70.865 87.9574 70.1426 88.8485 70.1426H161.21C162.102 70.1426 162.824 70.865 162.824 71.7561V165.3C162.824 166.191 162.102 166.914 161.21 166.914Z" fill="url(#paint28_linear_137_394)"/>
<path d="M124.908 52.6027C126.865 52.6027 128.451 51.0164 128.451 49.0596C128.451 47.1029 126.865 45.5166 124.908 45.5166C122.951 45.5166 121.365 47.1029 121.365 49.0596C121.365 51.0164 122.951 52.6027 124.908 52.6027Z" fill="white"/>
<path d="M147.795 106.27L102.212 107.028C98.7432 107.086 95.9206 109.784 95.9206 113.053V141.759C95.9206 145.029 98.7432 147.567 102.212 147.427L147.795 145.597C151.069 145.466 153.714 142.797 153.714 139.637V111.894C153.714 108.734 151.069 106.216 147.795 106.27Z" fill="url(#paint29_linear_137_394)"/>
<path d="M150.103 101.085C148.723 101.106 147.602 100.041 147.602 98.7056V92.423C147.602 86.1201 142.27 81.0078 135.67 81.0269L120.821 81.0698C114.051 81.0894 108.504 86.3528 108.504 92.8027V99.2321C108.504 100.598 107.328 101.723 105.876 101.745C104.421 101.766 103.24 100.673 103.24 99.3029V92.8538C103.24 83.6479 111.172 76.1582 120.821 76.1582H135.671C145.046 76.1582 152.597 83.4328 152.597 92.3744V98.6383C152.597 99.9693 151.481 101.065 150.103 101.085Z" fill="url(#paint30_linear_137_394)"/>
<path d="M132.377 122.186C132.377 118.996 129.593 116.492 126.207 116.722C123.213 116.925 120.737 119.323 120.576 122.185C120.45 124.407 121.671 126.327 123.527 127.298C124.316 127.711 124.708 128.581 124.555 129.443L123.253 136.746C123.087 137.676 123.835 138.493 124.819 138.458L128.163 138.338C129.142 138.303 129.884 137.436 129.72 136.521L128.419 129.285C128.264 128.422 128.713 127.565 129.504 127.092C131.225 126.063 132.377 124.238 132.377 122.186Z" fill="url(#paint31_linear_137_394)"/>
<path d="M40.8333 196.088C40.8343 196.026 40.8301 195.963 40.8141 195.899C39.8688 192.151 35.1774 189.817 35.1774 189.817L33.3183 189.963C32.2495 193.266 32.3868 195.292 32.5585 196.194C32.5632 196.219 32.5709 196.243 32.5777 196.268C34.1112 196.405 37.2676 196.494 40.8333 196.088Z" fill="black"/>
<path d="M32.5762 196.257C32.6589 196.559 32.8814 196.793 33.1661 196.853C35.3476 197.312 38.8148 196.943 40.2706 196.752C40.5918 196.711 40.8266 196.413 40.8319 196.078C37.2661 196.484 34.1097 196.395 32.5762 196.257Z" fill="white"/>
<path d="M32.5711 187.181L33.3585 190.971C33.4162 191.249 33.6296 191.457 33.8881 191.481C34.2044 191.511 34.6549 191.528 35.1079 191.462C35.5141 191.402 35.797 190.989 35.7249 190.546L35.1777 187.181H32.5711Z" fill="url(#paint32_linear_137_394)"/>
<path d="M48.8847 196.212C46.8315 196.155 45.7696 195.913 45.2206 195.688C45.2193 195.893 45.2204 196.1 45.2271 196.316C45.2341 196.546 45.4044 196.729 45.6139 196.728L56.8872 196.655C57.2469 196.653 57.4571 196.236 57.3013 195.906C55.8231 196.028 52.0586 196.301 48.8847 196.212Z" fill="white"/>
<path d="M57.3001 195.901C57.2865 195.873 57.2748 195.843 57.2554 195.816C56.2598 194.425 53.7241 191.655 48.7135 190.454L46.3098 190.378C46.3098 190.378 45.2395 192.238 45.2193 195.684C45.7683 195.909 46.8302 196.15 48.8834 196.208C52.0574 196.297 55.8219 196.023 57.3001 195.901Z" fill="black"/>
<path d="M45.7573 186.847C45.7953 187.024 46.2954 189.721 46.4891 190.767C46.5352 191.015 46.7288 191.198 46.9591 191.211C47.3707 191.234 48.0345 191.236 48.6054 191.081C48.9133 190.998 49.1202 190.684 49.0983 190.335L48.8293 186.069L45.7573 186.847Z" fill="url(#paint33_linear_137_394)"/>
<path d="M43.9356 137.053C43.9356 137.053 47.2422 159.774 49.6284 186.812C49.6728 187.315 49.2715 187.753 48.7769 187.858C48.0479 188.011 46.9764 188.193 46.0893 188.168C45.6158 188.155 45.2199 187.804 45.1403 187.337C44.3274 182.57 38.5267 156.985 37.0043 151.354C37.0043 151.354 35.2555 175.273 35.8145 187.682C35.8284 187.991 35.6025 188.259 35.2957 188.294C34.8302 188.348 34.0857 188.389 33.138 188.288C32.7784 188.25 32.4882 187.978 32.4367 187.62C31.8577 183.585 28.5249 159.57 28.6666 142.27C28.6746 141.295 29.8113 133.279 29.8113 133.279L43.9356 137.053Z" fill="url(#paint34_linear_137_394)"/>
<path d="M45.2208 98.8232L45.6635 110.713C46.9209 111.145 48.118 111.482 49.2579 111.733C49.971 109.438 51.541 106.62 52.8268 104.525C48.103 102.856 45.2208 98.8232 45.2208 98.8232Z" fill="url(#paint35_linear_137_394)"/>
<path d="M29.4404 137.988L29.4404 137.988C29.24 137.917 29.0964 137.734 29.0738 137.515C28.8553 135.395 28.216 127.748 29.3036 119.283C30.3935 110.802 33.2054 101.594 39.809 96.2481L39.8874 96.1847L39.9171 96.107C39.918 96.1056 39.9192 96.1039 39.9206 96.1019C39.9302 96.0889 39.953 96.062 39.9973 96.0332C40.0803 95.979 40.2823 95.8906 40.7068 95.9404C41.5824 96.0431 43.2895 96.7208 46.4485 99.1926C47.9939 100.402 48.9242 101.608 49.4435 102.833C49.9627 104.059 50.0832 105.332 49.9641 106.696C49.8446 108.066 49.4849 109.514 49.0527 111.085C48.9684 111.392 48.8813 111.704 48.7929 112.02C48.4308 113.315 48.0467 114.688 47.7395 116.14C47.1816 118.776 46.5022 121.24 45.8603 123.568C45.4447 125.075 45.0448 126.526 44.7037 127.929C43.8462 131.457 43.374 134.645 44.1129 137.413L44.4733 137.316L44.1129 137.413C44.1628 137.599 44.063 137.788 43.8925 137.851C39.051 139.635 34.2387 139.693 29.4404 137.988Z" fill="url(#paint36_linear_137_394)" stroke="black" stroke-width="0.75"/>
<path d="M44.8153 88.0361C44.811 88.4125 39.444 96.0357 39.444 96.0357C39.444 96.0357 40.4073 97.933 45.0064 99.4734L48.9763 91.3112L44.8153 88.0361Z" fill="url(#paint37_linear_137_394)"/>
<path d="M42.1563 114.121C42.1227 114.121 42.0887 114.112 42.0589 114.091C37.7713 111.195 35.7544 106.519 35.7344 106.472C35.697 106.383 35.7383 106.281 35.8268 106.244C35.9157 106.206 36.0177 106.247 36.0554 106.336C36.0749 106.382 38.0544 110.965 42.254 113.803C42.3338 113.856 42.3547 113.965 42.3008 114.045C42.2673 114.094 42.2122 114.121 42.1563 114.121Z" fill="url(#paint38_linear_137_394)"/>
<path d="M48.5427 107.643C48.4855 107.643 48.4294 107.614 48.396 107.563C48.3831 107.543 47.0732 105.504 44.5784 101.036C43.8112 99.6627 42.8029 98.7929 41.5816 98.451C39.5591 97.8859 37.6098 98.9703 37.5906 98.9811C37.5066 99.0274 37.4006 98.9995 37.353 98.9158C37.3055 98.8321 37.3346 98.7258 37.4183 98.6782C37.5023 98.6305 39.5073 97.5087 41.6723 98.1147C42.9878 98.4817 44.0681 99.4074 44.8827 100.866C47.3713 105.322 48.6762 107.354 48.6891 107.374C48.7413 107.455 48.7179 107.563 48.637 107.615C48.6077 107.634 48.5751 107.643 48.5427 107.643Z" fill="url(#paint39_linear_137_394)"/>
<path d="M49.0436 83.6865C49.0436 83.6865 50.9533 88.0735 51.0816 90.376C51.2098 92.6785 51.706 94.1726 49.0436 94.6363C46.3812 95.1 44.1384 93.7736 42.9234 91.4801C42.9234 91.4801 41.0196 87.9459 41.4466 86.4985C41.8737 85.0511 49.0436 83.6865 49.0436 83.6865Z" fill="url(#paint40_linear_137_394)"/>
<path d="M43.8334 89.8277L43.985 89.7609C44.1779 89.6758 44.2605 89.4461 44.1636 89.2589C43.7882 88.5335 43.0562 86.8712 44.0017 86.4834C45.2203 85.9837 50.0469 84.9995 51.0883 83.2868C52.0891 81.6409 51.2023 79.5162 49.8696 78.9119C49.7804 78.8714 49.6753 78.9035 49.6295 78.9901L49.5185 79.2003C49.4424 79.3441 49.2299 79.3224 49.1847 79.166C49.1413 79.016 48.9417 78.9869 48.8589 79.1193C48.5388 79.6317 47.6746 80.4624 45.3635 80.8889C42.079 81.4951 39.9075 82.8243 39.8534 85.0939C39.85 85.2381 39.6966 85.3182 39.5734 85.2432C39.3309 85.0953 38.9429 85.026 38.4242 85.4622C37.5221 86.2206 37.8913 88.1881 39.8687 89.8065C39.9627 89.8834 39.9619 90.03 39.8602 90.0963C39.5017 90.3296 38.9673 90.8848 40.352 91.625C41.7842 92.3907 42.8536 92.3278 43.2655 92.2599C43.368 92.243 43.434 92.1438 43.4117 92.0424L42.9722 90.0477C42.9473 89.9347 43.0332 89.8278 43.1488 89.8278H43.8334V89.8277Z" fill="url(#paint41_linear_137_394)"/>
<path d="M43.9157 90.2601C43.9157 90.2601 43.1872 87.4577 41.9308 88.2435C40.6744 89.0292 42.5828 91.3834 43.5929 91.4882L43.9157 90.2601Z" fill="url(#paint42_linear_137_394)"/>
<path d="M68.6439 97.936C68.6439 97.936 67.6867 96.2388 67.7475 95.4143C67.8085 94.5898 67.2947 93.3789 67.8414 93.4686C68.3881 93.5582 68.501 93.4851 68.6494 94.4744C68.7978 95.4638 70.5234 99.7853 68.6439 97.936Z" fill="url(#paint43_linear_137_394)"/>
<path d="M68.825 95.2256L68.803 98.6159C62.3233 105.612 57.0787 106.024 52.8257 104.52C51.54 106.615 49.9699 109.433 49.2569 111.728C66.5607 115.543 70.6355 99.6356 70.6355 99.6356C72.9791 98.6648 73.4516 98.0969 73.3508 97.4608L68.825 95.2256Z" fill="url(#paint44_linear_137_394)"/>
<path d="M73.8067 91.8675C73.2536 91.6429 72.1714 89.5798 71.9641 90.2585C71.7568 90.9372 72.0516 91.8675 71.9641 92.1561C71.8766 92.4448 70.5274 95.7653 70.7968 96.503C70.9912 97.0354 72.0625 96.9567 72.2259 97.8275C72.2802 98.1165 72.5112 98.3238 72.7792 98.324C73.0471 98.3242 73.2783 98.1171 73.3329 97.8282C73.3548 97.7123 74.3597 92.092 73.8067 91.8675Z" fill="url(#paint45_linear_137_394)"/>
<path d="M56.1441 84.8001C51.7747 93.4419 55.2383 103.99 63.8803 108.359C70.9044 111.91 79.1874 110.287 84.3888 104.914L114.415 120.095C114.913 120.347 115.507 120.327 115.987 120.041L118.923 118.292C118.974 118.262 119.022 118.228 119.068 118.194C119.081 118.184 119.093 118.173 119.106 118.163C119.14 118.136 119.173 118.108 119.204 118.078C119.215 118.068 119.226 118.058 119.236 118.048C119.275 118.009 119.312 117.969 119.347 117.927C119.348 117.926 119.348 117.926 119.349 117.925C119.717 117.477 119.83 116.85 119.604 116.284L117.218 110.303C117.07 109.933 116.793 109.63 116.438 109.451L113.431 107.93L112.635 109.504L110.051 108.198L110.847 106.624L108.43 105.402L107.698 106.85L104.558 105.262L105.29 103.814L104.12 103.223L103.743 103.968L101.111 102.637L101.488 101.892L99.4404 100.857L98.6446 102.431L97.1821 101.691L97.9781 100.117L96.7106 99.4763L95.9147 101.05L93.3799 99.7689L94.1758 98.1947L90.6129 96.3934L89.0871 95.6219C90.3303 88.2481 86.7274 80.6153 79.7032 77.0639C71.0612 72.6946 60.5134 76.1582 56.1441 84.8001ZM66.3742 85.9939C68.124 86.8786 68.8255 89.0145 67.9408 90.7644C67.056 92.5144 64.92 93.2156 63.1702 92.3309C61.4203 91.4462 60.7188 89.3103 61.6036 87.5604C62.4884 85.8104 64.6243 85.1091 66.3742 85.9939Z" fill="white"/>
<path d="M80.4834 90.1035L94.7174 97.3001L93.9215 98.8742L96.4563 100.156L97.2522 98.5817L98.5196 99.2226L97.7237 100.797L99.1861 101.536L99.982 99.9619L102.029 100.997L101.652 101.742L104.285 103.073L104.662 102.328L105.832 102.919L105.099 104.367L108.239 105.955L108.972 104.507L111.389 105.729L110.593 107.303L113.176 108.609L113.972 107.035L116.98 108.556C117.335 108.735 117.612 109.038 117.759 109.408L120.146 115.39C120.443 116.135 120.155 116.986 119.465 117.397L116.528 119.146C116.048 119.432 115.455 119.453 114.956 119.201L78.7099 100.875L80.4834 90.1035Z" fill="url(#paint46_linear_137_394)"/>
<path d="M64.4203 107.462C73.0623 111.832 83.6101 108.368 87.9794 99.7263C92.3488 91.0845 88.8853 80.5368 80.2433 76.1674C71.6013 71.7981 61.0535 75.2617 56.6842 83.9035C52.3148 92.5454 55.7783 103.093 64.4203 107.462ZM63.7103 91.4343C61.9605 90.5496 61.2589 88.4137 62.1437 86.6638C63.0285 84.9139 65.1645 84.2126 66.9143 85.0973C68.6642 85.982 69.3656 88.1179 68.4809 89.8678C67.5961 91.6178 65.4602 92.3191 63.7103 91.4343Z" fill="url(#paint47_linear_137_394)"/>
<path d="M84.9289 104.018L114.955 119.199C115.454 119.451 116.047 119.43 116.527 119.144L119.464 117.395C119.906 117.131 120.181 116.686 120.244 116.203C117.507 113.238 91.4944 101.879 90.5214 99.5412C90.1753 98.7097 90.1159 97.4502 91.153 95.497L89.6272 94.7256C90.8704 87.3518 87.2676 79.7188 80.2433 76.1674C71.6013 71.7981 61.0536 75.2617 56.6842 83.9035C52.3149 92.5454 55.7784 103.093 64.4204 107.462C71.4445 111.014 79.7275 109.39 84.9289 104.018ZM66.9143 85.0973C68.6642 85.9821 69.3656 88.118 68.4809 89.8679C67.5961 91.6178 65.4602 92.3191 63.7103 91.4344C61.9605 90.5496 61.259 88.4138 62.1438 86.6638C63.0285 84.9139 65.1644 84.2126 66.9143 85.0973Z" fill="url(#paint48_linear_137_394)"/>
<path d="M65.974 104.39C72.92 107.902 81.3975 105.118 84.9094 98.1721C88.4212 91.2263 85.6374 82.7488 78.6915 79.2369C71.7455 75.7251 63.2679 78.5089 59.7561 85.4547C56.2442 92.4005 59.0281 100.878 65.974 104.39ZM63.7112 91.4328C61.9614 90.548 61.2599 88.4122 62.1447 86.6622C63.0294 84.9123 65.1654 84.211 66.9152 85.0957C68.6651 85.9805 69.3665 88.1164 68.4818 89.8663C67.597 91.6163 65.4611 92.3176 63.7112 91.4328Z" fill="url(#paint49_linear_137_394)"/>
<path d="M42.1583 114.117C42.1583 114.117 58.6703 119.645 67.9063 112.613C68.4791 112.177 69.202 111.986 69.9126 112.102L73.441 112.677C74.922 112.918 76.3328 111.958 76.6521 110.492C76.8342 109.656 76.9219 108.741 76.7364 107.956L70.0753 107.554L70.2658 106.689C70.2658 106.689 67.3217 107.41 67.2624 109.713C67.2624 109.713 60.3564 114.237 47.7604 107.215C47.7604 107.215 42.8554 111.054 42.1583 114.117Z" fill="url(#paint50_linear_137_394)"/>
<g opacity="0.3">
<path d="M169.692 31.3408C169.308 31.325 169.009 31.0005 169.025 30.6161C169.055 29.8691 169.054 29.1099 169.021 28.3591C169.004 27.9793 169.294 27.657 169.672 27.633C169.677 27.6328 169.681 27.6325 169.686 27.6322C170.07 27.6151 170.396 27.913 170.413 28.2975C170.448 29.0877 170.449 29.8871 170.417 30.6733C170.402 31.0329 170.117 31.3176 169.766 31.3399C169.742 31.3414 169.717 31.3419 169.692 31.3408ZM168.608 24.7161C168.473 23.9772 168.304 23.2373 168.108 22.5159C168.007 22.145 168.226 21.7618 168.597 21.6606C168.97 21.5603 169.351 21.7785 169.452 22.1498C169.659 22.9086 169.836 23.6876 169.978 24.4649C170.048 24.8433 169.797 25.2064 169.419 25.2757C169.391 25.2807 169.364 25.284 169.336 25.2858C168.989 25.3079 168.672 25.0671 168.608 24.7161ZM166.901 19.0562C166.605 18.3679 166.276 17.6841 165.922 17.0235C165.741 16.6844 165.869 16.2621 166.208 16.0805C166.547 15.8994 166.969 16.0267 167.151 16.3659C167.523 17.0615 167.87 17.7818 168.181 18.5064C168.333 18.86 168.169 19.2696 167.816 19.4216C167.74 19.4539 167.662 19.472 167.585 19.4769C167.299 19.495 167.02 19.3343 166.901 19.0562ZM163.97 13.9202C163.528 13.3146 163.054 12.7214 162.562 12.1565C162.309 11.8663 162.339 11.4262 162.629 11.1735C162.92 10.9211 163.36 10.9516 163.612 11.2412C164.131 11.836 164.629 12.4607 165.095 13.0979C165.322 13.4085 165.254 13.8445 164.944 14.0714C164.833 14.1526 164.705 14.1961 164.578 14.2043C164.348 14.2189 164.116 14.1196 163.97 13.9202ZM159.969 9.56508C159.404 9.07408 158.811 8.6002 158.205 8.15717C157.894 7.92988 157.826 7.494 158.053 7.1835C158.281 6.87272 158.717 6.80522 159.027 7.03257C159.665 7.49874 160.289 7.99739 160.883 8.51401C161.174 8.76634 161.204 9.20647 160.952 9.4968C160.825 9.64314 160.65 9.72352 160.47 9.73491C160.294 9.74602 160.113 9.6904 159.969 9.56508ZM155.104 6.2039C154.443 5.84931 153.76 5.51886 153.072 5.22139C152.719 5.06876 152.556 4.65856 152.709 4.3056C152.861 3.95237 153.271 3.78969 153.625 3.94232C154.349 4.25522 155.068 4.6033 155.763 4.97642C156.102 5.15862 156.229 5.58085 156.047 5.91986C155.929 6.14007 155.709 6.27069 155.477 6.28548C155.351 6.29348 155.222 6.26786 155.104 6.2039ZM129.235 5.8796C129.054 5.54016 129.182 5.11808 129.522 4.937C130.217 4.56622 130.939 4.22069 131.665 3.91034C132.019 3.75919 132.428 3.9235 132.579 4.27744C132.731 4.63103 132.566 5.04045 132.213 5.19159C131.523 5.48624 130.838 5.81443 130.177 6.1666C130.087 6.21493 129.99 6.24118 129.894 6.24727C129.63 6.26404 129.368 6.12853 129.235 5.8796ZM149.617 4.00615C148.896 3.80738 148.156 3.63749 147.42 3.50155C147.041 3.4315 146.791 3.06808 146.861 2.68979C146.931 2.31122 147.294 2.06321 147.673 2.13135C148.448 2.27464 149.227 2.45345 149.987 2.6629C150.358 2.76508 150.576 3.14853 150.474 3.5196C150.393 3.81382 150.135 4.01181 149.846 4.03006C149.771 4.03481 149.694 4.02716 149.617 4.00615ZM134.821 3.50007C134.721 3.12879 134.94 2.74619 135.312 2.64571C136.073 2.44008 136.852 2.26459 137.629 2.12371C138.008 2.0533 138.37 2.30655 138.439 2.68498C138.508 3.06348 138.256 3.42598 137.878 3.49476C137.139 3.62864 136.398 3.79535 135.675 3.99093C135.629 4.00339 135.583 4.01068 135.537 4.01365C135.213 4.03417 134.909 3.82528 134.821 3.50007ZM143.779 3.08966C143.031 3.05746 142.272 3.05711 141.523 3.08888C141.138 3.10537 140.814 2.80697 140.797 2.42239C140.781 2.04304 141.072 1.72165 141.449 1.69766C141.454 1.69738 141.459 1.69702 141.464 1.69702C142.252 1.66334 143.052 1.66355 143.839 1.6973C144.223 1.71408 144.521 2.03901 144.505 2.42345C144.489 2.78242 144.205 3.06638 143.854 3.08867C143.829 3.09029 143.804 3.09051 143.779 3.08966Z" fill="#CA3939"/>
<path d="M125.805 8.91647C125.942 8.90777 126.078 8.8588 126.193 8.76696C126.474 8.54349 126.765 8.32243 127.057 8.10923C127.368 7.88252 127.436 7.44656 127.209 7.13592C126.982 6.825 126.546 6.75644 126.236 6.98393C125.929 7.20796 125.623 7.44055 125.327 7.67561C125.026 7.91478 124.975 8.35322 125.214 8.6543C125.362 8.84019 125.585 8.93048 125.805 8.91647Z" fill="black"/>
</g>
<g opacity="0.3">
<path d="M115.649 27.5955C115.984 27.5742 116.264 27.3121 116.298 26.9667C116.332 26.6092 116.374 26.2464 116.423 25.8884C116.476 25.5072 116.209 25.1557 115.828 25.1033C115.445 25.0507 115.095 25.3175 115.043 25.6985C114.991 26.0753 114.946 26.4575 114.91 26.8339C114.874 27.2169 115.155 27.5571 115.538 27.5938C115.575 27.5974 115.612 27.5978 115.649 27.5955Z" fill="black"/>
<path d="M142.978 57.3259C142.593 57.3315 142.277 57.0241 142.271 56.6391C142.266 56.2545 142.573 55.9389 142.958 55.9327C143.69 55.9222 144.434 55.8802 145.176 55.808C145.557 55.7696 145.899 56.0511 145.937 56.4341C145.974 56.817 145.694 57.1576 145.311 57.195C144.989 57.2263 144.668 57.2521 144.349 57.2724C143.892 57.3015 143.431 57.3196 142.978 57.3259ZM148.217 56.0545C148.129 55.6803 148.36 55.3049 148.735 55.2162C149.453 55.0457 150.173 54.8432 150.873 54.614C151.237 54.4932 151.632 54.6934 151.752 55.0591C151.871 55.4245 151.672 55.8181 151.306 55.9378C150.57 56.1793 149.812 56.3926 149.056 56.5718C149.017 56.581 148.978 56.5868 148.939 56.5893C148.606 56.6104 148.297 56.3898 148.217 56.0545ZM139.187 57.1205C138.418 57.0256 137.642 56.8965 136.881 56.7364C136.505 56.6573 136.264 56.2878 136.343 55.9112C136.422 55.5347 136.791 55.2942 137.168 55.3728C137.89 55.5249 138.627 55.6475 139.358 55.7375C139.739 55.7847 140.011 56.1323 139.964 56.5144C139.922 56.8521 139.645 57.1034 139.317 57.1242C139.275 57.1269 139.231 57.1258 139.187 57.1205ZM153.894 54.1901C153.725 53.8445 153.869 53.4271 154.215 53.2585C154.877 52.935 155.534 52.5792 156.167 52.2012C156.497 52.0036 156.925 52.1114 157.122 52.4418C157.32 52.7721 157.212 53.1997 156.882 53.397C156.215 53.7952 155.524 54.1699 154.826 54.5105C154.741 54.5516 154.653 54.5744 154.565 54.58C154.291 54.5974 154.022 54.4514 153.894 54.1901ZM133.231 55.7023C132.502 55.4407 131.774 55.1442 131.067 54.821C130.717 54.661 130.563 54.2479 130.723 53.898C130.883 53.5478 131.297 53.3939 131.646 53.5538C132.318 53.8608 133.01 54.1425 133.702 54.3908C134.064 54.5208 134.253 54.9198 134.123 55.282C134.026 55.5518 133.78 55.725 133.511 55.7421C133.418 55.748 133.324 55.7355 133.231 55.7023ZM127.731 53.0125C127.075 52.5968 126.429 52.1486 125.811 51.6804C125.504 51.4479 125.444 51.0111 125.676 50.7042C125.909 50.3971 126.346 50.337 126.652 50.5697C127.24 51.0145 127.854 51.4405 128.477 51.8356C128.802 52.0416 128.898 52.4721 128.692 52.7971C128.568 52.9928 128.362 53.1056 128.148 53.1193C128.006 53.1284 127.86 53.0943 127.731 53.0125ZM122.947 49.1876C122.397 48.6388 121.864 48.0604 121.363 47.4692C121.114 47.1754 121.151 46.7361 121.444 46.4873C121.738 46.2382 122.178 46.275 122.426 46.5684C122.902 47.1304 123.409 47.6796 123.932 48.2013C124.204 48.4731 124.204 48.9142 123.933 49.1864C123.808 49.3116 123.647 49.3793 123.484 49.3897C123.291 49.402 123.095 49.3346 122.947 49.1876ZM119.112 44.4105C118.695 43.7547 118.302 43.0735 117.943 42.3857C117.764 42.0447 117.896 41.6237 118.238 41.4455C118.578 41.2676 118.999 41.3996 119.178 41.7406C119.519 42.3936 119.892 43.0404 120.288 43.6635C120.495 43.9882 120.399 44.4186 120.074 44.6249C119.971 44.69 119.858 44.725 119.745 44.7322C119.5 44.7478 119.253 44.6328 119.112 44.4105ZM116.419 38.9045C116.158 38.1748 115.924 37.4242 115.725 36.6734C115.626 36.3015 115.848 35.9198 116.219 35.8212C116.59 35.7229 116.973 35.9438 117.071 36.3158C117.261 37.0291 117.483 37.7419 117.731 38.4352C117.86 38.7973 117.672 39.1961 117.31 39.3258C117.247 39.3483 117.182 39.3614 117.119 39.3655C116.817 39.3846 116.526 39.2037 116.419 38.9045ZM115.002 32.9478C114.931 32.381 114.877 31.805 114.841 31.236C114.828 31.0299 114.817 30.8245 114.808 30.6191C114.792 30.2348 115.086 29.9028 115.475 29.8942C115.86 29.878 116.184 30.1767 116.2 30.5612C116.209 30.7563 116.219 30.9519 116.231 31.1477C116.266 31.6887 116.317 32.236 116.384 32.7749C116.432 33.1566 116.161 33.5048 115.78 33.5525C115.765 33.5542 115.751 33.5557 115.737 33.5566C115.372 33.5798 115.048 33.3152 115.002 32.9478Z" fill="#CA3939"/>
<path d="M159.62 51.3762C159.759 51.3674 159.896 51.3176 160.012 51.2246C160.306 50.9886 160.601 50.7419 160.888 50.4913C161.178 50.2384 161.208 49.7983 160.955 49.5084C160.702 49.2185 160.262 49.1881 159.972 49.4413C159.699 49.6792 159.419 49.9134 159.14 50.1376C158.84 50.378 158.792 50.8166 159.032 51.1168C159.18 51.3008 159.402 51.3901 159.62 51.3762Z" fill="#CA3939"/>
</g>
<path d="M160.938 39.505C161.019 39.3919 161.019 39.2402 160.939 39.1269L158.644 35.8962C159.349 34.1851 159.787 32.3493 159.912 30.4488L163.394 28.5627C163.516 28.4965 163.583 28.3601 163.56 28.2231L162.783 23.5336C162.76 23.3966 162.653 23.289 162.516 23.2659L158.611 22.6048C157.879 20.8464 156.872 19.25 155.652 17.8583L156.782 14.0597C156.821 13.9266 156.772 13.783 156.659 13.7022L152.793 10.9361C152.68 10.8553 152.528 10.855 152.415 10.9355L149.184 13.2306C147.473 12.5252 145.638 12.0876 143.737 11.9625L141.851 8.48014C141.785 8.35794 141.648 8.29121 141.511 8.31399L136.822 9.09165C136.685 9.11443 136.577 9.22157 136.554 9.35849L135.893 13.2634C134.134 13.9953 132.538 15.002 131.146 16.2219L127.348 15.0924C127.214 15.0529 127.071 15.102 126.99 15.215L124.224 19.0809C124.143 19.1938 124.143 19.3457 124.223 19.4589L126.518 22.6897C125.813 24.4007 125.376 26.2365 125.25 28.137L121.768 30.0232C121.646 30.0893 121.579 30.2257 121.602 30.3627L122.379 35.0523C122.402 35.1894 122.509 35.2968 122.646 35.3201L126.551 35.9812C127.283 37.7396 128.29 39.3359 129.51 40.7277L128.38 44.5263C128.341 44.6594 128.39 44.803 128.503 44.8839L132.369 47.65C132.482 47.7308 132.634 47.7311 132.747 47.6506L135.978 45.3554C137.689 46.0608 139.525 46.4983 141.425 46.6235L143.311 50.1059C143.377 50.2279 143.514 50.2947 143.651 50.272L148.34 49.4943C148.477 49.4716 148.585 49.3644 148.608 49.2274L149.269 45.3226C151.028 44.5907 152.624 43.584 154.016 42.3641L157.814 43.4935C157.948 43.5331 158.091 43.4838 158.172 43.3709L160.938 39.505Z" fill="#5C5C5C"/>
<path d="M142.187 34.0539C139.561 33.8356 137.603 31.5221 137.821 28.8963C137.927 27.6243 138.521 26.4697 139.496 25.6452C140.47 24.8207 141.706 24.4245 142.979 24.5306C145.604 24.7489 147.563 27.0624 147.345 29.6882C147.146 32.0769 145.213 33.9135 142.889 34.061C142.658 34.0756 142.424 34.0735 142.187 34.0539ZM140.216 26.496C139.469 27.1283 139.013 28.0135 138.932 28.9888C138.765 31.0017 140.266 32.7759 142.279 32.9432C144.293 33.1112 146.066 31.6088 146.234 29.5957C146.401 27.5827 144.899 25.8086 142.886 25.6413C142.704 25.6261 142.522 25.6246 142.343 25.636C141.563 25.6854 140.823 25.9822 140.216 26.496Z" fill="white"/>
<path d="M143.225 40.9453C143.625 40.92 144.025 40.8744 144.425 40.8081C144.551 40.7873 144.676 40.7643 144.802 40.7395C145.419 40.6166 146.025 40.4448 146.612 40.2268C146.62 40.2238 146.628 40.2208 146.636 40.2179C146.659 40.2094 146.681 40.2009 146.704 40.1921C146.748 40.1754 146.792 40.1581 146.836 40.1409C146.951 40.0954 147.019 39.9818 147.011 39.8645C147.01 39.8359 147.003 39.8071 146.992 39.7793C146.936 39.6361 146.774 39.5666 146.631 39.6228C145.894 39.9141 145.121 40.1279 144.334 40.2583C140.421 40.9078 136.639 39.4332 134.167 36.6812C132.792 35.1506 131.823 33.2246 131.462 31.0486C131.399 30.6671 131.355 30.2851 131.331 29.9043C131.169 27.3416 131.887 24.822 133.401 22.7056C135.14 20.2744 137.723 18.6661 140.672 18.1771C146.762 17.1677 152.534 21.2992 153.543 27.3868C153.606 27.7622 153.649 28.1393 153.673 28.5165C153.776 30.1512 153.521 31.7904 152.919 33.3155C152.903 33.3549 152.897 33.3957 152.9 33.4353C152.907 33.5396 152.972 33.6361 153.076 33.6769C153.219 33.7329 153.381 33.6635 153.437 33.5198C154.069 31.9186 154.337 30.1976 154.229 28.4815C154.204 28.0855 154.159 27.6897 154.093 27.2957C153.033 20.9043 146.97 16.5677 140.58 17.6271C137.484 18.1405 134.774 19.8289 132.948 22.3812C131.358 24.603 130.604 27.2482 130.774 29.9385C130.8 30.3383 130.846 30.7392 130.912 31.1396C131.425 34.2358 133.114 36.9465 135.666 38.7726C137.889 40.3627 140.534 41.1161 143.225 40.9453Z" fill="white"/>
<g opacity="0.3">
<path d="M194.658 48.1529C194.844 48.1411 195.007 48.009 195.05 47.8181C195.131 47.4618 195.202 47.0982 195.261 46.7374C195.299 46.503 195.14 46.2819 194.905 46.2433C194.671 46.2039 194.45 46.364 194.411 46.5984C194.355 46.9422 194.288 47.2888 194.211 47.6288C194.158 47.8604 194.304 48.0907 194.536 48.1433C194.577 48.1525 194.618 48.1554 194.658 48.1529Z" fill="#604E2B"/>
<path d="M195.044 44.8875C194.806 44.8782 194.621 44.6786 194.63 44.4409C194.653 43.8416 194.645 43.2341 194.607 42.6357C194.599 42.5094 194.59 42.3828 194.579 42.256C194.559 42.0193 194.735 41.8112 194.972 41.7911C195.196 41.781 195.416 41.9469 195.437 42.1839C195.448 42.3166 195.458 42.4491 195.466 42.5812C195.506 43.2085 195.514 43.8454 195.49 44.4739C195.482 44.6963 195.305 44.873 195.088 44.8868C195.073 44.8877 195.059 44.8878 195.044 44.8875ZM194.263 40.0938C194.114 39.382 193.919 38.6731 193.685 37.9869C193.608 37.7619 193.728 37.5177 193.953 37.4406C194.177 37.3645 194.423 37.4837 194.499 37.7087C194.745 38.4278 194.949 39.1711 195.105 39.9174C195.154 40.1501 195.005 40.378 194.772 40.4269C194.752 40.4312 194.731 40.4337 194.711 40.435C194.5 40.4484 194.307 40.3057 194.263 40.0938ZM192.851 35.9671C192.532 35.3144 192.17 34.6751 191.773 34.0662C191.643 33.8673 191.699 33.6006 191.898 33.4709C192.098 33.3408 192.364 33.3967 192.493 33.5961C192.91 34.2344 193.29 34.9054 193.624 35.5895C193.728 35.8031 193.64 36.061 193.426 36.165C193.374 36.1902 193.319 36.2042 193.265 36.2077C193.096 36.2185 192.93 36.1284 192.851 35.9671ZM190.468 32.3133C189.998 31.7579 189.49 31.2264 188.958 30.7347C188.783 30.5731 188.772 30.301 188.934 30.1266C189.095 29.9526 189.367 29.9412 189.542 30.1023C190.1 30.6184 190.633 31.1753 191.125 31.7579C191.279 31.9394 191.256 32.2111 191.074 32.3646C191.001 32.4261 190.913 32.4594 190.824 32.4651C190.693 32.4733 190.559 32.4216 190.468 32.3133ZM187.265 29.352C186.675 28.9276 186.053 28.5359 185.417 28.1872C185.209 28.0733 185.132 27.8116 185.246 27.6032C185.36 27.3946 185.622 27.3179 185.83 27.4326C186.497 27.7978 187.149 28.2087 187.768 28.6533C187.961 28.7922 188.005 29.061 187.866 29.2537C187.788 29.3627 187.668 29.4242 187.544 29.4321C187.448 29.4381 187.349 29.4124 187.265 29.352ZM183.441 27.2579C182.766 26.99 182.068 26.7619 181.366 26.58C181.136 26.5205 180.998 26.2855 181.058 26.0556C181.117 25.8257 181.351 25.6879 181.582 25.7469C182.318 25.9377 183.05 26.1771 183.758 26.4581C183.979 26.5459 184.087 26.7959 183.999 27.0166C183.936 27.1764 183.787 27.2772 183.627 27.2875C183.565 27.2913 183.502 27.2823 183.441 27.2579ZM179.222 26.1632C178.504 26.0694 177.771 26.0195 177.043 26.0152C176.805 26.0135 176.613 25.8197 176.615 25.5822C176.616 25.3446 176.81 25.1568 177.048 25.1543C177.812 25.1593 178.58 25.2115 179.333 25.3099C179.569 25.3408 179.735 25.5568 179.704 25.7924C179.677 25.9996 179.507 26.1532 179.305 26.166C179.278 26.1677 179.25 26.1669 179.222 26.1632ZM172.19 26.2071C172.133 25.9762 172.275 25.7436 172.506 25.6872C173.145 25.5312 173.804 25.4078 174.462 25.3201C174.562 25.3062 174.661 25.294 174.761 25.2822C174.995 25.2479 175.211 25.4237 175.238 25.6603C175.265 25.8964 175.096 26.1097 174.86 26.1373C174.766 26.1479 174.673 26.1597 174.577 26.173C173.947 26.2567 173.319 26.3745 172.71 26.5231C172.685 26.5293 172.659 26.533 172.635 26.5345C172.43 26.5476 172.24 26.4127 172.19 26.2071Z" fill="#FBBE4A"/>
</g>
<g opacity="0.3">
<path d="M177.837 62.3071C177.089 62.3449 176.331 62.337 175.585 62.2846C175.348 62.2676 175.17 62.0621 175.186 61.8248C175.203 61.5875 175.41 61.4114 175.646 61.4259C176.357 61.4763 177.08 61.4836 177.794 61.4475C178.032 61.4353 178.234 61.6183 178.246 61.8555C178.258 62.0909 178.078 62.2918 177.843 62.3067C177.841 62.3068 177.839 62.307 177.837 62.3071ZM179.581 61.7071C179.54 61.4731 179.698 61.2505 179.932 61.2103C180.636 61.089 181.34 60.9239 182.025 60.7192C182.251 60.6522 182.492 60.7805 182.56 61.0086C182.628 61.2363 182.499 61.4756 182.271 61.544C181.554 61.7584 180.816 61.9315 180.078 62.0583C180.062 62.061 180.047 62.0629 180.031 62.0639C179.815 62.0776 179.618 61.9262 179.581 61.7071ZM173.35 61.9881C172.614 61.8436 171.88 61.6532 171.17 61.4216C170.944 61.348 170.82 61.1049 170.894 60.8792C170.967 60.653 171.209 60.5303 171.436 60.6031C172.114 60.8241 172.814 61.0058 173.516 61.1439C173.749 61.1897 173.901 61.4159 173.856 61.6486C173.817 61.8447 173.651 61.9833 173.461 61.9954C173.425 61.9977 173.388 61.9954 173.35 61.9881ZM183.821 60.5454C183.726 60.3279 183.825 60.074 184.042 59.9785C184.697 59.6915 185.34 59.3614 185.954 58.997C186.159 58.8762 186.423 58.9436 186.544 59.1473C186.665 59.3518 186.598 59.6159 186.393 59.737C185.749 60.1194 185.074 60.4658 184.388 60.7667C184.34 60.7873 184.291 60.7989 184.242 60.802C184.067 60.8131 183.896 60.7154 183.821 60.5454ZM169.075 60.5947C168.397 60.2781 167.731 59.9166 167.095 59.5204C166.893 59.3946 166.832 59.1291 166.958 58.9274C167.083 58.7257 167.349 58.6638 167.551 58.7899C168.157 59.1683 168.792 59.5128 169.439 59.8145C169.654 59.9149 169.748 60.1709 169.647 60.3865C169.578 60.534 169.436 60.6243 169.284 60.6339C169.215 60.6384 169.143 60.6261 169.075 60.5947ZM165.258 58.2159C164.674 57.7451 164.114 57.2347 163.592 56.6989C163.426 56.5288 163.43 56.2566 163.6 56.0908C163.77 55.9251 164.043 55.9284 164.209 56.099C164.706 56.6097 165.241 57.0965 165.798 57.5459C165.983 57.695 166.013 57.9659 165.863 58.1509C165.785 58.2486 165.672 58.3029 165.555 58.3103C165.452 58.3169 165.345 58.2861 165.258 58.2159ZM162.121 54.9915C161.666 54.3943 161.244 53.7638 160.867 53.1183C160.747 52.9128 160.816 52.6495 161.021 52.5295C161.226 52.4095 161.49 52.4791 161.609 52.6837C161.969 53.2996 162.372 53.9006 162.805 54.4697C162.949 54.6588 162.913 54.9289 162.724 55.0728C162.654 55.1265 162.572 55.1548 162.491 55.16C162.352 55.1688 162.211 55.1104 162.121 54.9915Z" fill="#FFFF00"/>
<path d="M188.039 58.5386C188.122 58.5333 188.204 58.5041 188.275 58.4495C188.566 58.2243 188.852 57.9893 189.125 57.7514C189.304 57.5951 189.323 57.3232 189.166 57.1441C189.01 56.9659 188.739 56.9468 188.559 57.1026C188.299 57.3297 188.026 57.5537 187.748 57.7688C187.56 57.9143 187.526 58.1846 187.671 58.3724C187.762 58.4897 187.901 58.5474 188.039 58.5386Z" fill="#FFFF00"/>
</g>
<path d="M189.182 50.4293C189.236 50.3537 189.236 50.2522 189.182 50.1764L187.647 48.0145C188.119 46.8695 188.411 45.6411 188.495 44.3694L190.825 43.1073C190.907 43.063 190.952 42.9718 190.936 42.88L190.416 39.742C190.401 39.6503 190.329 39.5783 190.238 39.5629L187.625 39.1205C187.135 37.9439 186.461 36.8756 185.645 35.9443L186.401 33.4025C186.427 33.3134 186.394 33.2173 186.319 33.1632L183.732 31.3122C183.656 31.2582 183.554 31.2579 183.479 31.3118L181.317 32.8476C180.172 32.3756 178.943 32.0828 177.672 31.9991L176.409 29.6688C176.365 29.5871 176.274 29.5424 176.182 29.5576L173.044 30.078C172.953 30.0932 172.881 30.165 172.865 30.2566L172.423 32.8696C171.246 33.3593 170.178 34.0329 169.247 34.8493L166.705 34.0935C166.616 34.0671 166.519 34.1 166.465 34.1756L164.614 36.7625C164.56 36.8381 164.56 36.9396 164.614 37.0154L166.15 39.1774C165.678 40.3223 165.385 41.5507 165.301 42.8225L162.971 44.0846C162.889 44.1288 162.845 44.22 162.86 44.3118L163.38 47.4498C163.396 47.5415 163.467 47.6134 163.559 47.629L166.172 48.0714C166.662 49.248 167.335 50.3162 168.152 51.2475L167.396 53.7894C167.369 53.8785 167.402 53.9746 167.478 54.0287L170.065 55.8797C170.141 55.9337 170.242 55.9339 170.318 55.8801L172.48 54.3442C173.625 54.8162 174.853 55.1089 176.125 55.1927L177.387 57.523C177.431 57.6047 177.523 57.6494 177.614 57.6342L180.752 57.1137C180.844 57.0985 180.916 57.0268 180.932 56.9351L181.374 54.3222C182.551 53.8325 183.619 53.1588 184.55 52.3425L187.092 53.0983C187.181 53.1248 187.277 53.0918 187.331 53.0162L189.182 50.4293Z" fill="#5C5C5C"/>
<path d="M176.628 46.8321C175.762 46.7603 174.975 46.3551 174.413 45.6914C173.852 45.0281 173.582 44.1855 173.654 43.3189C173.803 41.5306 175.376 40.1992 177.167 40.3449C178.956 40.4941 180.29 42.07 180.141 43.8579C180.069 44.7244 179.664 45.5109 179.001 46.0726C178.461 46.5291 177.803 46.7928 177.111 46.8367C176.952 46.8469 176.79 46.8454 176.628 46.8321ZM174.512 43.39C174.459 44.0275 174.657 44.6473 175.07 45.1356C175.483 45.6235 176.062 45.9215 176.699 45.9745C177.337 46.0267 177.956 45.829 178.445 45.4157C178.933 45.0029 179.231 44.4239 179.284 43.7869C179.393 42.4713 178.412 41.3121 177.096 41.2024C176.977 41.1927 176.86 41.1918 176.745 41.199C175.58 41.273 174.611 42.1934 174.512 43.39Z" fill="white"/>
<path d="M177.355 51.6385C177.627 51.6212 177.9 51.59 178.174 51.5448C178.719 51.4546 179.254 51.3091 179.768 51.1115C179.791 51.1024 179.814 51.0933 179.837 51.0843C180.015 51.0141 180.12 50.8385 180.108 50.6574C180.106 50.6134 180.096 50.5689 180.079 50.5258C179.992 50.3049 179.741 50.1978 179.521 50.2842C179.043 50.4733 178.543 50.6115 178.034 50.6956H178.034C178.006 50.7003 177.978 50.7046 177.95 50.7089C176.744 50.8971 175.537 50.7775 174.417 50.377C173.81 50.1595 173.228 49.8588 172.686 49.4784C172.681 49.4753 172.677 49.4723 172.673 49.4692C172.659 49.4595 172.646 49.4502 172.632 49.4405C171.059 48.3143 170.017 46.6428 169.701 44.7336C169.66 44.4865 169.632 44.2395 169.616 43.9929C169.511 42.3339 169.976 40.7027 170.956 39.3323C172.082 37.7585 173.754 36.7177 175.663 36.4011C177.571 36.0855 179.49 36.5304 181.064 37.6562C182.638 38.7824 183.679 40.4539 183.996 42.3631C184.036 42.606 184.064 42.8502 184.079 43.0942C184.146 44.1527 183.981 45.2137 183.592 46.201C183.568 46.2618 183.558 46.3247 183.562 46.386C183.573 46.5471 183.674 46.696 183.834 46.7591C184.055 46.8457 184.305 46.7381 184.392 46.5166C184.828 45.4118 185.013 44.2246 184.938 43.0407C184.921 42.7673 184.89 42.4943 184.845 42.2227C184.491 40.0865 183.326 38.2164 181.565 36.9565C179.804 35.6969 177.659 35.1964 175.522 35.5522C173.386 35.9063 171.516 37.0709 170.256 38.8321C169.159 40.3649 168.639 42.1898 168.757 44.046C168.774 44.3215 168.806 44.5982 168.852 44.8744C169.538 49.0097 173.259 51.8985 177.355 51.6385Z" fill="white"/>
<defs>
<linearGradient id="paint0_linear_137_394" x1="41.0247" y1="99.8531" x2="55.9182" y2="99.8531" gradientUnits="userSpaceOnUse">
<stop stop-color="#DAE3FE"/>
<stop offset="1" stop-color="#E9EFFD"/>
</linearGradient>
<linearGradient id="paint1_linear_137_394" x1="24.4607" y1="99.8516" x2="39.3234" y2="99.8516" gradientUnits="userSpaceOnUse">
<stop stop-color="#DAE3FE"/>
<stop offset="1" stop-color="#E9EFFD"/>
</linearGradient>
<linearGradient id="paint2_linear_137_394" x1="7.91473" y1="99.8501" x2="22.7465" y2="99.8501" gradientUnits="userSpaceOnUse">
<stop stop-color="#DAE3FE"/>
<stop offset="1" stop-color="#E9EFFD"/>
</linearGradient>
<linearGradient id="paint3_linear_137_394" x1="40.8427" y1="110.689" x2="55.7101" y2="110.689" gradientUnits="userSpaceOnUse">
<stop stop-color="#DAE3FE"/>
<stop offset="1" stop-color="#E9EFFD"/>
</linearGradient>
<linearGradient id="paint4_linear_137_394" x1="24.3072" y1="110.662" x2="39.1438" y2="110.662" gradientUnits="userSpaceOnUse">
<stop stop-color="#DAE3FE"/>
<stop offset="1" stop-color="#E9EFFD"/>
</linearGradient>
<linearGradient id="paint5_linear_137_394" x1="7.79088" y1="110.66" x2="22.5966" y2="110.66" gradientUnits="userSpaceOnUse">
<stop stop-color="#DAE3FE"/>
<stop offset="1" stop-color="#E9EFFD"/>
</linearGradient>
<linearGradient id="paint6_linear_137_394" x1="40.6578" y1="121.422" x2="55.4991" y2="121.422" gradientUnits="userSpaceOnUse">
<stop stop-color="#DAE3FE"/>
<stop offset="1" stop-color="#E9EFFD"/>
</linearGradient>
<linearGradient id="paint7_linear_137_394" x1="24.1525" y1="121.418" x2="38.9631" y2="121.418" gradientUnits="userSpaceOnUse">
<stop stop-color="#DAE3FE"/>
<stop offset="1" stop-color="#E9EFFD"/>
</linearGradient>
<linearGradient id="paint8_linear_137_394" x1="7.66374" y1="121.39" x2="22.4436" y2="121.39" gradientUnits="userSpaceOnUse">
<stop stop-color="#DAE3FE"/>
<stop offset="1" stop-color="#E9EFFD"/>
</linearGradient>
<linearGradient id="paint9_linear_137_394" x1="40.476" y1="132.121" x2="55.2913" y2="132.121" gradientUnits="userSpaceOnUse">
<stop stop-color="#DAE3FE"/>
<stop offset="1" stop-color="#E9EFFD"/>
</linearGradient>
<linearGradient id="paint10_linear_137_394" x1="23.9991" y1="132.092" x2="38.7839" y2="132.092" gradientUnits="userSpaceOnUse">
<stop stop-color="#DAE3FE"/>
<stop offset="1" stop-color="#E9EFFD"/>
</linearGradient>
<linearGradient id="paint11_linear_137_394" x1="7.53898" y1="132.089" x2="22.2931" y2="132.089" gradientUnits="userSpaceOnUse">
<stop stop-color="#DAE3FE"/>
<stop offset="1" stop-color="#E9EFFD"/>
</linearGradient>
<linearGradient id="paint12_linear_137_394" x1="40.2882" y1="142.8" x2="55.0776" y2="142.8" gradientUnits="userSpaceOnUse">
<stop stop-color="#DAE3FE"/>
<stop offset="1" stop-color="#E9EFFD"/>
</linearGradient>
<linearGradient id="paint13_linear_137_394" x1="23.8463" y1="142.793" x2="38.6052" y2="142.793" gradientUnits="userSpaceOnUse">
<stop stop-color="#DAE3FE"/>
<stop offset="1" stop-color="#E9EFFD"/>
</linearGradient>
<linearGradient id="paint14_linear_137_394" x1="7.41041" y1="142.764" x2="22.1389" y2="142.764" gradientUnits="userSpaceOnUse">
<stop stop-color="#DAE3FE"/>
<stop offset="1" stop-color="#E9EFFD"/>
</linearGradient>
<linearGradient id="paint15_linear_137_394" x1="40.1102" y1="153.443" x2="54.8739" y2="153.443" gradientUnits="userSpaceOnUse">
<stop stop-color="#DAE3FE"/>
<stop offset="1" stop-color="#E9EFFD"/>
</linearGradient>
<linearGradient id="paint16_linear_137_394" x1="23.688" y1="153.414" x2="38.4213" y2="153.414" gradientUnits="userSpaceOnUse">
<stop stop-color="#DAE3FE"/>
<stop offset="1" stop-color="#E9EFFD"/>
</linearGradient>
<linearGradient id="paint17_linear_137_394" x1="7.28771" y1="153.386" x2="21.9906" y2="153.386" gradientUnits="userSpaceOnUse">
<stop stop-color="#DAE3FE"/>
<stop offset="1" stop-color="#E9EFFD"/>
</linearGradient>
<linearGradient id="paint18_linear_137_394" x1="39.9294" y1="164.02" x2="54.6674" y2="164.02" gradientUnits="userSpaceOnUse">
<stop stop-color="#DAE3FE"/>
<stop offset="1" stop-color="#E9EFFD"/>
</linearGradient>
<linearGradient id="paint19_linear_137_394" x1="23.5352" y1="163.989" x2="38.2428" y2="163.989" gradientUnits="userSpaceOnUse">
<stop stop-color="#DAE3FE"/>
<stop offset="1" stop-color="#E9EFFD"/>
</linearGradient>
<linearGradient id="paint20_linear_137_394" x1="7.16038" y1="163.961" x2="21.8378" y2="163.961" gradientUnits="userSpaceOnUse">
<stop stop-color="#DAE3FE"/>
<stop offset="1" stop-color="#E9EFFD"/>
</linearGradient>
<linearGradient id="paint21_linear_137_394" x1="39.7415" y1="174.58" x2="54.4539" y2="174.58" gradientUnits="userSpaceOnUse">
<stop stop-color="#DAE3FE"/>
<stop offset="1" stop-color="#E9EFFD"/>
</linearGradient>
<linearGradient id="paint22_linear_137_394" x1="23.3812" y1="174.551" x2="38.0634" y2="174.551" gradientUnits="userSpaceOnUse">
<stop stop-color="#DAE3FE"/>
<stop offset="1" stop-color="#E9EFFD"/>
</linearGradient>
<linearGradient id="paint23_linear_137_394" x1="7.03546" y1="174.523" x2="21.6874" y2="174.523" gradientUnits="userSpaceOnUse">
<stop stop-color="#DAE3FE"/>
<stop offset="1" stop-color="#E9EFFD"/>
</linearGradient>
<linearGradient id="paint24_linear_137_394" x1="39.5667" y1="185.085" x2="54.2535" y2="185.085" gradientUnits="userSpaceOnUse">
<stop stop-color="#DAE3FE"/>
<stop offset="1" stop-color="#E9EFFD"/>
</linearGradient>
<linearGradient id="paint25_linear_137_394" x1="23.2295" y1="185.035" x2="37.8862" y2="185.035" gradientUnits="userSpaceOnUse">
<stop stop-color="#DAE3FE"/>
<stop offset="1" stop-color="#E9EFFD"/>
</linearGradient>
<linearGradient id="paint26_linear_137_394" x1="6.91321" y1="185.002" x2="21.5398" y2="185.002" gradientUnits="userSpaceOnUse">
<stop stop-color="#DAE3FE"/>
<stop offset="1" stop-color="#E9EFFD"/>
</linearGradient>
<linearGradient id="paint27_linear_137_394" x1="160.072" y1="-87.5256" x2="117.326" y2="161.831" gradientUnits="userSpaceOnUse">
<stop stop-color="#DADADA"/>
<stop offset="1" stop-color="#A4A4A4"/>
</linearGradient>
<linearGradient id="paint28_linear_137_394" x1="87.235" y1="118.528" x2="162.824" y2="118.528" gradientUnits="userSpaceOnUse">
<stop stop-color="#DADADA"/>
<stop offset="1" stop-color="#FEFEFF"/>
</linearGradient>
<linearGradient id="paint29_linear_137_394" x1="133.007" y1="69.5807" x2="81.2543" y2="428.287" gradientUnits="userSpaceOnUse">
<stop/>
<stop offset="1"/>
</linearGradient>
<linearGradient id="paint30_linear_137_394" x1="131.651" y1="69.3916" x2="79.8981" y2="428.098" gradientUnits="userSpaceOnUse">
<stop/>
<stop offset="1" stop-color="#777777"/>
</linearGradient>
<linearGradient id="paint31_linear_137_394" x1="134.604" y1="110.383" x2="210.472" y2="-40.4625" gradientUnits="userSpaceOnUse">
<stop stop-color="white"/>
<stop offset="1" stop-color="#FF928E"/>
</linearGradient>
<linearGradient id="paint32_linear_137_394" x1="34.7752" y1="183.532" x2="33.1721" y2="197.523" gradientUnits="userSpaceOnUse">
<stop stop-color="#FEBBBA"/>
<stop offset="1" stop-color="#FF928E"/>
</linearGradient>
<linearGradient id="paint33_linear_137_394" x1="47.6136" y1="185.012" x2="46.8937" y2="199.076" gradientUnits="userSpaceOnUse">
<stop stop-color="#FEBBBA"/>
<stop offset="1" stop-color="#FF928E"/>
</linearGradient>
<linearGradient id="paint34_linear_137_394" x1="45.3996" y1="196.736" x2="28.8068" y2="117.616" gradientUnits="userSpaceOnUse">
<stop stop-color="#09005D"/>
<stop offset="1" stop-color="#1A0F91"/>
</linearGradient>
<linearGradient id="paint35_linear_137_394" x1="62.35" y1="88.608" x2="25.6868" y2="129.056" gradientUnits="userSpaceOnUse">
<stop stop-color="#4042E2"/>
<stop offset="1" stop-color="#4F52FF"/>
</linearGradient>
<linearGradient id="paint36_linear_137_394" x1="55.2189" y1="90.8537" x2="1.77544" y2="188.947" gradientUnits="userSpaceOnUse">
<stop stop-color="#F4BA64"/>
<stop offset="1"/>
</linearGradient>
<linearGradient id="paint37_linear_137_394" x1="41.1688" y1="101.979" x2="44.8919" y2="91.8115" gradientUnits="userSpaceOnUse">
<stop stop-color="#FEBBBA"/>
<stop offset="1" stop-color="#FF928E"/>
</linearGradient>
<linearGradient id="paint38_linear_137_394" x1="44.3906" y1="69.2078" x2="42.6609" y2="82.4168" gradientUnits="userSpaceOnUse">
<stop stop-color="#4042E2"/>
<stop offset="1" stop-color="#4F52FF"/>
</linearGradient>
<linearGradient id="paint39_linear_137_394" x1="47.4161" y1="69.6059" x2="45.6863" y2="82.8149" gradientUnits="userSpaceOnUse">
<stop stop-color="#4042E2"/>
<stop offset="1" stop-color="#4F52FF"/>
</linearGradient>
<linearGradient id="paint40_linear_137_394" x1="50.3226" y1="86.7464" x2="28.1393" y2="104.415" gradientUnits="userSpaceOnUse">
<stop stop-color="#FEBBBA"/>
<stop offset="1" stop-color="#FF928E"/>
</linearGradient>
<linearGradient id="paint41_linear_137_394" x1="41.7589" y1="80.9306" x2="51.9265" y2="94.0215" gradientUnits="userSpaceOnUse">
<stop stop-color="#09005D"/>
<stop offset="1" stop-color="#1A0F91"/>
</linearGradient>
<linearGradient id="paint42_linear_137_394" x1="48.0896" y1="85.7864" x2="37.1725" y2="94.1397" gradientUnits="userSpaceOnUse">
<stop stop-color="#FEBBBA"/>
<stop offset="1" stop-color="#FF928E"/>
</linearGradient>
<linearGradient id="paint43_linear_137_394" x1="73.9278" y1="91.281" x2="50.8131" y2="111.248" gradientUnits="userSpaceOnUse">
<stop stop-color="#FEBBBA"/>
<stop offset="1" stop-color="#FF928E"/>
</linearGradient>
<linearGradient id="paint44_linear_137_394" x1="74.411" y1="93.1303" x2="51.9109" y2="112.566" gradientUnits="userSpaceOnUse">
<stop stop-color="#FEBBBA"/>
<stop offset="1" stop-color="#FF928E"/>
</linearGradient>
<linearGradient id="paint45_linear_137_394" x1="74.783" y1="92.2648" x2="51.6685" y2="112.232" gradientUnits="userSpaceOnUse">
<stop stop-color="#FEBBBA"/>
<stop offset="1" stop-color="#FF928E"/>
</linearGradient>
<linearGradient id="paint46_linear_137_394" x1="108.128" y1="65.0961" x2="97.2683" y2="118.358" gradientUnits="userSpaceOnUse">
<stop stop-color="#DAE3FE"/>
<stop offset="1" stop-color="#17171E"/>
</linearGradient>
<linearGradient id="paint47_linear_137_394" x1="51.9696" y1="90.2925" x2="143.635" y2="97.1459" gradientUnits="userSpaceOnUse">
<stop stop-color="#FF9085"/>
<stop offset="1" stop-color="#FB6FBB"/>
</linearGradient>
<linearGradient id="paint48_linear_137_394" x1="93.6565" y1="86.8128" x2="115.828" y2="30.4387" gradientUnits="userSpaceOnUse">
<stop stop-color="#31313B"/>
<stop offset="1" stop-color="#FF928E"/>
</linearGradient>
<linearGradient id="paint49_linear_137_394" x1="105.871" y1="26.8342" x2="102.097" y2="34.1463" gradientUnits="userSpaceOnUse">
<stop stop-color="#CA3939"/>
<stop offset="1" stop-color="#CBBBB4"/>
</linearGradient>
<linearGradient id="paint50_linear_137_394" x1="60.1392" y1="108.647" x2="49.1467" y2="163.483" gradientUnits="userSpaceOnUse">
<stop stop-color="#FEBBBA"/>
<stop offset="1" stop-color="#FF928E"/>
</linearGradient>
</defs>
</svg>
