<svg width="44" height="44" viewBox="0 0 44 44" fill="none" xmlns="http://www.w3.org/2000/svg">
<path d="M21.9617 6.24756C13.268 6.24756 6.52686 12.6183 6.52686 21.2194C6.52686 25.7186 8.37132 29.6082 11.3734 32.2939C11.6242 32.5177 11.7786 32.8341 11.7863 33.1737L11.8712 35.9211C11.8774 36.1232 11.9331 36.3208 12.0335 36.4964C12.1339 36.6719 12.2759 36.8201 12.447 36.928C12.6181 37.0358 12.813 37.1 13.0147 37.1148C13.2164 37.1297 13.4187 37.0947 13.6037 37.0131L16.6675 35.6626C16.9261 35.5468 17.2193 35.5275 17.4933 35.6008C18.9017 35.9867 20.3989 36.1951 21.9617 36.1951C30.6554 36.1951 37.3965 29.8243 37.3965 21.2232C37.3965 12.6222 30.6554 6.24756 21.9617 6.24756Z" fill="black"/>
<path d="M12.6928 25.5991L17.2268 18.4065C17.3973 18.1357 17.6222 17.9032 17.8871 17.7237C18.1521 17.5441 18.4514 17.4215 18.7661 17.3635C19.0808 17.3055 19.4042 17.3133 19.7157 17.3866C20.0273 17.4598 20.3202 17.5969 20.5761 17.7891L24.184 20.494C24.3451 20.6146 24.5411 20.6795 24.7423 20.6788C24.9435 20.6781 25.139 20.6119 25.2992 20.4902L30.1689 16.7935C30.8171 16.2996 31.6661 17.0791 31.2339 17.7698L26.696 24.9586C26.5255 25.2294 26.3006 25.4619 26.0357 25.6414C25.7707 25.8209 25.4715 25.9435 25.1567 26.0015C24.842 26.0596 24.5186 26.0517 24.2071 25.9784C23.8956 25.9052 23.6026 25.7681 23.3467 25.576L19.7388 22.871C19.5777 22.7504 19.3818 22.6856 19.1806 22.6863C18.9794 22.687 18.7839 22.7532 18.6236 22.8749L13.754 26.5715C13.1057 27.0654 12.2568 26.2898 12.6928 25.5991Z" fill="white"/>
</svg>
