<svg width="30" height="30" viewBox="0 0 30 30" fill="none" xmlns="http://www.w3.org/2000/svg">
<g clip-path="url(#clip0_22_10649)">
<path d="M13.4747 2.8418C18.4199 2.8418 22.5021 6.5325 23.1196 11.3088L25.8548 15.611C26.0348 15.8942 25.9983 16.316 25.5813 16.496L23.1999 17.5147V21.0765C23.1999 22.4198 22.1119 23.5078 20.7686 23.5078H18.3385L18.3373 27.1547H7.39645V22.6641C7.39645 21.2297 6.86643 19.8718 5.88419 18.6464C4.54819 16.981 3.74951 14.867 3.74951 12.567C3.74951 7.19625 8.10396 2.8418 13.4747 2.8418ZM13.4747 5.27309C9.44604 5.27309 6.18081 8.53832 6.18081 12.567C6.18081 14.2506 6.74973 15.8407 7.7806 17.1257C9.11052 18.7838 9.82775 20.6717 9.82775 22.6641V24.7235H15.906L15.9084 21.0765H20.7686V15.9124L22.6528 15.1053L20.7771 12.1573L20.7078 11.62C20.241 8.00951 17.1508 5.27309 13.4747 5.27309ZM12.8304 9.84757L13.4747 10.4919L14.119 9.84757C14.9505 9.01607 16.2974 9.01607 17.1277 9.84757C17.9592 10.6779 17.9592 12.0248 17.1277 12.8551L13.4747 16.5093L9.82167 12.8551C8.99017 12.0248 8.99017 10.6779 9.82167 9.84757C10.652 9.01607 11.9989 9.01607 12.8304 9.84757Z" fill="black"/>
</g>
<defs>
<clipPath id="clip0_22_10649">
<rect width="29.1755" height="29.1755" fill="white" transform="translate(0.102539 0.4104)"/>
</clipPath>
</defs>
</svg>
