<svg width="28" height="29" viewBox="0 0 28 29" fill="none" xmlns="http://www.w3.org/2000/svg">
<path d="M3.5 17.7822V19.5322H7.51275L1.75 25.295L2.98725 26.5322L8.75 20.7695V24.7822H10.5V17.7822H3.5Z" fill="black"/>
<path d="M13.125 24.7825V23.0325C15.0615 23.0301 16.9294 22.3154 18.3728 21.0245C19.8162 19.7335 20.7342 17.9567 20.9519 16.0325H14C13.536 16.032 13.0912 15.8475 12.7631 15.5194C12.435 15.1913 12.2505 14.7465 12.25 14.2825V7.3306C10.3258 7.54824 8.54893 8.46624 7.258 9.90966C5.96707 11.3531 5.25234 13.221 5.25 15.1575H3.5C3.50301 12.6057 4.51804 10.1593 6.32242 8.35489C8.12681 6.55051 10.5732 5.53548 13.125 5.53247C13.3571 5.53247 13.5796 5.62466 13.7437 5.78875C13.9078 5.95285 14 6.17541 14 6.40747V14.2825H21.875C22.1071 14.2825 22.3296 14.3747 22.4937 14.5388C22.6578 14.7028 22.75 14.9254 22.75 15.1575C22.747 17.7093 21.732 20.1557 19.9276 21.96C18.1232 23.7644 15.6768 24.7795 13.125 24.7825Z" fill="black"/>
<path d="M25.3803 12.532H17.4956C17.2661 12.5319 17.0388 12.4866 16.8267 12.3985C16.6147 12.3105 16.4221 12.1815 16.26 12.019C16.0979 11.8564 15.9694 11.6635 15.8819 11.4513C15.7943 11.239 15.7495 11.0116 15.75 10.782V2.90705C15.7509 2.79092 15.7748 2.67612 15.8201 2.56923C15.8655 2.46234 15.9316 2.36547 16.0145 2.28417C16.0974 2.20287 16.1956 2.13875 16.3034 2.09548C16.4111 2.05222 16.5264 2.03066 16.6425 2.03205C19.1882 2.03966 21.6275 3.05432 23.4276 4.85443C25.2277 6.65454 26.2424 9.09382 26.25 11.6395C26.2519 11.7554 26.2308 11.8704 26.188 11.978C26.1452 12.0856 26.0816 12.1838 26.0008 12.2667C25.9199 12.3497 25.8235 12.4158 25.717 12.4613C25.6105 12.5069 25.4961 12.5309 25.3803 12.532ZM17.5 10.782H24.4519C24.2508 9.00761 23.4537 7.35387 22.1909 6.09112C20.9282 4.82837 19.2744 4.03129 17.5 3.83017V10.782Z" fill="black"/>
</svg>
