<svg width="33" height="32" viewBox="0 0 33 32" fill="none" xmlns="http://www.w3.org/2000/svg">
<path d="M32.5 16C32.5 24.8366 25.3366 32 16.5 32C7.66344 32 0.5 24.8366 0.5 16C0.5 7.16344 7.66344 0 16.5 0C25.3366 0 32.5 7.16344 32.5 16Z" fill="#8B0D35"/>
<path opacity="0.4" fill-rule="evenodd" clip-rule="evenodd" d="M21.5338 10.2792L20.5322 10.6116V12.7465V14.8814L21.5315 15.2136C22.3827 15.4965 22.5473 15.5439 22.643 15.5331C22.7761 15.5181 22.8657 15.4571 22.9296 15.3381C22.9741 15.2551 22.9762 15.1359 22.9762 12.7412V10.2313L22.9195 10.148C22.8883 10.1022 22.8335 10.043 22.7976 10.0164C22.6581 9.91314 22.6005 9.92513 21.5338 10.2792Z" fill="white"/>
<path fill-rule="evenodd" clip-rule="evenodd" d="M12.749 9.63324C12.4839 9.67965 12.0774 9.81453 11.8354 9.9364C11.2462 10.2331 10.6866 10.791 10.3969 11.3705C9.80959 12.5456 10.0523 14.0017 10.9927 14.945C11.5556 15.5096 12.2604 15.8336 13.0545 15.8926C13.5074 15.9262 13.2251 15.9698 18.0124 15.1259C18.9201 14.9659 19.6882 14.8291 19.7194 14.8219L19.7761 14.8088V12.7432C19.7761 11.6071 19.7671 10.6776 19.7561 10.6776C19.7451 10.6776 18.3874 10.4385 16.739 10.1464C13.8468 9.63372 13.7281 9.61475 13.3512 9.60563C13.0812 9.59908 12.8953 9.60762 12.749 9.63324ZM13.5166 11.5867C13.7352 11.6265 13.9717 11.7518 14.1321 11.9129C14.5992 12.3816 14.6002 13.1113 14.1343 13.5771C13.6658 14.0457 12.9359 14.0457 12.4673 13.5771C12.1685 13.2783 12.0575 12.8841 12.1555 12.4687C12.2567 12.0392 12.6122 11.6914 13.0489 11.5944C13.2273 11.5548 13.3322 11.5531 13.5166 11.5867ZM13.1649 12.3415C13.0704 12.3698 12.9511 12.4826 12.9072 12.5854C12.7925 12.8534 13.0026 13.1705 13.2955 13.1716C13.5682 13.1726 13.7691 12.9269 13.7181 12.6549C13.6956 12.5352 13.5476 12.3737 13.4306 12.3412C13.3233 12.3114 13.2653 12.3114 13.1649 12.3415ZM14.485 16.5089L13.1622 16.7414L13.1703 16.8023C13.2127 17.1231 13.6171 19.3627 13.6504 19.4615C13.717 19.6588 13.8523 19.865 14.0135 20.0147C14.173 20.1629 14.4599 20.3149 14.6321 20.3424C14.7545 20.362 14.7512 20.3568 14.8365 20.6677C15.0223 21.3452 15.5613 21.9495 16.2179 22.2166C16.5545 22.3536 16.7065 22.3802 17.1432 22.3786C17.506 22.3773 17.5684 22.3704 17.7676 22.3097C18.6146 22.0514 19.2166 21.428 19.4527 20.5646C19.5023 20.3833 19.5085 20.2827 19.522 19.4457C19.5366 18.5372 19.5375 18.5249 19.5958 18.4311C19.6741 18.3052 19.7883 18.2212 19.934 18.1822C20.1484 18.1248 20.3834 18.2262 20.5107 18.4311L20.5698 18.5261L20.5824 20.3422L20.595 22.1582L20.664 22.2487C20.7452 22.3551 20.874 22.4051 21.0178 22.3858C21.142 22.3691 21.2298 22.3069 21.2916 22.1916C21.3357 22.1093 21.3382 22.0092 21.3382 20.3355C21.3382 19.1413 21.3292 18.523 21.3104 18.4328C21.2606 18.1943 21.1437 17.9867 20.95 17.7934C20.6237 17.4677 20.2066 17.3427 19.7805 17.4432C19.3418 17.5466 18.9953 17.8533 18.8374 18.278C18.786 18.4162 18.7817 18.4831 18.7675 19.3575C18.7532 20.2355 18.749 20.3 18.6951 20.4661C18.5257 20.9881 18.1404 21.3807 17.6162 21.5653C17.3874 21.6458 17.0168 21.6571 16.7571 21.5915C16.1641 21.4415 15.729 21.029 15.5587 20.4553C15.5026 20.2664 15.5043 20.26 15.6251 20.1985C15.684 20.1685 15.8126 20.0634 15.9109 19.9649C16.1256 19.7498 16.2373 19.5346 16.2895 19.2356C16.3329 18.9866 16.3385 19.0313 16.0719 17.4869C15.9613 16.8461 15.8708 16.3104 15.8708 16.2964C15.8708 16.2629 15.9805 16.246 14.485 16.5089Z" fill="white"/>
</svg>
