<svg width="27" height="28" viewBox="0 0 27 28" fill="none" xmlns="http://www.w3.org/2000/svg">
<path opacity="0.2" d="M23.625 9.56323V21.3757C23.625 21.5995 23.5361 21.8141 23.3779 21.9724C23.2196 22.1306 23.005 22.2195 22.7812 22.2195H5.90625C5.4587 22.2195 5.02947 22.0417 4.71301 21.7252C4.39654 21.4088 4.21875 20.9795 4.21875 20.532V7.03198C4.21875 7.47954 4.39654 7.90876 4.71301 8.22522C5.02947 8.54169 5.4587 8.71948 5.90625 8.71948H22.7812C23.005 8.71948 23.2196 8.80838 23.3779 8.96661C23.5361 9.12485 23.625 9.33946 23.625 9.56323Z" fill="black"/>
<path d="M22.7812 7.87573H5.90625C5.68247 7.87573 5.46786 7.78684 5.30963 7.6286C5.15139 7.47037 5.0625 7.25576 5.0625 7.03198C5.0625 6.80821 5.15139 6.5936 5.30963 6.43536C5.46786 6.27713 5.68247 6.18823 5.90625 6.18823H20.25C20.4738 6.18823 20.6884 6.09934 20.8466 5.9411C21.0049 5.78287 21.0938 5.56826 21.0938 5.34448C21.0938 5.12071 21.0049 4.9061 20.8466 4.74786C20.6884 4.58963 20.4738 4.50073 20.25 4.50073H5.90625C5.23492 4.50073 4.59109 4.76742 4.11639 5.24212C3.64168 5.71682 3.375 6.36065 3.375 7.03198V20.532C3.375 21.2033 3.64168 21.8471 4.11639 22.3218C4.59109 22.7965 5.23492 23.0632 5.90625 23.0632H22.7812C23.2288 23.0632 23.658 22.8854 23.9745 22.569C24.291 22.2525 24.4688 21.8233 24.4688 21.3757V9.56323C24.4688 9.11568 24.291 8.68646 23.9745 8.36999C23.658 8.05352 23.2288 7.87573 22.7812 7.87573ZM22.7812 21.3757H5.90625C5.68247 21.3757 5.46786 21.2868 5.30963 21.1286C5.15139 20.9704 5.0625 20.7558 5.0625 20.532V9.41874C5.33342 9.51478 5.61881 9.56365 5.90625 9.56323H22.7812V21.3757ZM17.7188 15.0476C17.7188 14.7973 17.793 14.5526 17.932 14.3445C18.0711 14.1363 18.2688 13.9741 18.5 13.8783C18.7313 13.7825 18.9858 13.7575 19.2313 13.8063C19.4768 13.8551 19.7023 13.9757 19.8793 14.1527C20.0563 14.3297 20.1768 14.5552 20.2257 14.8007C20.2745 15.0462 20.2495 15.3007 20.1537 15.5319C20.0579 15.7632 19.8956 15.9609 19.6875 16.0999C19.4794 16.239 19.2347 16.3132 18.9844 16.3132C18.6487 16.3132 18.3268 16.1799 18.0894 15.9425C17.8521 15.7052 17.7188 15.3833 17.7188 15.0476Z" fill="black"/>
</svg>
