<svg xmlns="http://www.w3.org/2000/svg" xmlns:xlink="http://www.w3.org/1999/xlink" version="1.1" width="256" height="256" viewBox="0 0 256 256" xml:space="preserve">

<defs>
</defs>
<g style="stroke: none; stroke-width: 0; stroke-dasharray: none; stroke-linecap: butt; stroke-linejoin: miter; stroke-miterlimit: 10; fill: none; fill-rule: nonzero; opacity: 1;" transform="translate(1.4065934065934016 1.4065934065934016) scale(2.81 2.81)" >
	<path d="M 81.982 14.387 l 0.006 0.006 c -0.597 -0.367 -1.381 -0.506 -2.318 -0.317 l -21.112 4.271 c -1.378 0.279 -2.569 -0.173 -3.186 -1.207 L 48.909 6.293 L 50.3 3.03 l -5.364 -2.704 l -0.001 0.002 c -1.972 -1.061 -5.3 0.531 -6.593 3.601 L 28.9 26.342 c -0.616 1.463 -1.808 2.743 -3.186 3.422 L 4.601 40.17 c -3.47 1.711 -4.856 6.457 -2.345 8.032 l 15.277 9.581 c 0.997 0.625 1.452 1.868 1.217 3.322 l -3.606 22.281 c -0.278 1.715 0.376 2.919 1.463 3.446 l -0.009 0.008 l 5.627 2.812 l 1.656 -4.638 l -1.551 -0.218 l 17.835 -15.576 c 1.233 -1.076 2.705 -1.588 3.938 -1.369 l 20.092 3.368 c 3.104 0.553 5.523 -3.347 4.93 -6.598 L 65.52 44.848 c -0.235 -1.291 0.22 -2.849 1.217 -4.168 l 15.277 -20.202 c 0.356 -0.471 0.631 -0.951 0.836 -1.427 l 2.889 -0.151 l 1.837 -1.725 L 81.982 14.387 z" style="stroke: none; stroke-width: 1; stroke-dasharray: none; stroke-linecap: butt; stroke-linejoin: miter; stroke-miterlimit: 10; fill: rgb(182,65,14); fill-rule: nonzero; opacity: 1;" transform=" matrix(1 0 0 1 0 0) " stroke-linecap="round" />
	<path d="M 51.659 4.156 L 61.1 20.005 c 0.616 1.035 1.808 1.486 3.186 1.207 l 21.113 -4.271 c 3.47 -0.702 4.856 3.081 2.345 6.402 L 72.466 43.545 c -0.997 1.319 -1.452 2.877 -1.217 4.168 l 3.606 19.774 c 0.593 3.25 -1.826 7.151 -4.93 6.598 l -20.092 -3.368 c -1.233 -0.22 -2.705 0.292 -3.938 1.369 L 27.012 88.577 c -3.104 2.711 -6.732 1.336 -6.139 -2.326 L 24.48 63.97 c 0.235 -1.454 -0.22 -2.697 -1.217 -3.322 L 7.986 51.067 c -2.511 -1.575 -1.125 -6.321 2.345 -8.032 l 21.113 -10.406 c 1.378 -0.679 2.569 -1.959 3.186 -3.422 L 44.07 6.793 C 45.622 3.109 50.107 1.55 51.659 4.156 z" style="stroke: none; stroke-width: 1; stroke-dasharray: none; stroke-linecap: butt; stroke-linejoin: miter; stroke-miterlimit: 10; fill: rgb(255,96,26); fill-rule: nonzero; opacity: 1;" transform=" matrix(1 0 0 1 0 0) " stroke-linecap="round" />
</g>
</svg>